 0
SECTION
 2
HEADER
 9
$ACADVER
 1
AC1009
 0
ENDSEC
 0
SECTION
 2
TABLES
 0
TABLE
 2
LTYPE
 70
1
 0
LTYPE
 2
CONTINUOUS
 70
64
 3
solid line
 72
65
 73
0
 40
0.0
 0
ENDTAB
 0
TABLE
 2
LAYER
 70
6
 0
LAYER
 2
0
 70
0
 62
7
 6
CONTINUOUS
 0
LAYER
 2
SG_3
 70
64
 62
7
 6
CONTINUOUS
 0
LAYER
 2
CA_ONES
 70
64
 62
7
 6
CONTINUOUS
 0
LAYER
 2
CA_ONES.1
 70
64
 62
88
 6
CONTINUOUS
 0
LAYER
 2
CUBO_2
 70
64
 62
23
 6
CONTINUOUS
 0
LAYER
 2
CUERPO
 70
64
 62
7
 6
CONTINUOUS
 0
LAYER
 2
CUERPO.1
 70
64
 62
88
 6
CONTINUOUS
 0
LAYER
 2
PERCUTOR
 70
64
 62
88
 6
CONTINUOUS
 0
LAYER
 2
CULATA
 70
64
 62
23
 6
CONTINUOUS
 0
LAYER
 2
GATILLO
 70
64
 62
88
 6
CONTINUOUS
 0
ENDTAB
 0
ENDSEC
 0
SECTION
 2
BLOCKS
 0
ENDSEC
 0
SECTION
 2
ENTITIES
 0
POLYLINE
 8
CA_ONES.1
 66
1
 10
0.0
 20
0.0
 30
0.0
 70
64
 71
636
 72
338
 0
VERTEX
 8
CA_ONES.1
 10
-1.2038
 20
-0.0117
 30
0.0081
 70
192
 0
VERTEX
 8
CA_ONES.1
 10
-1.2177
 20
-0.0131
 30
0.0379
 70
192
 0
VERTEX
 8
CA_ONES.1
 10
-1.2315
 20
-0.0117
 30
0.0677
 70
192
 0
VERTEX
 8
CA_ONES.1
 10
-1.1769
 20
-0.0117
 30
0.0206
 70
192
 0
VERTEX
 8
CA_ONES.1
 10
-1.1908
 20
-0.0166
 30
0.0505
 70
192
 0
VERTEX
 8
CA_ONES.1
 10
-1.2047
 20
-0.0067
 30
0.0803
 70
192
 0
VERTEX
 8
CA_ONES.1
 10
-1.1589
 20
-0.0117
 30
0.029
 70
192
 0
VERTEX
 8
CA_ONES.1
 10
-1.1716
 20
-0.0122
 30
0.0561
 70
192
 0
VERTEX
 8
CA_ONES.1
 10
-1.1778
 20
-0.0013
 30
0.0928
 70
192
 0
VERTEX
 8
CA_ONES.1
 10
-1.1589
 20
0.0032
 30
0.029
 70
192
 0
VERTEX
 8
CA_ONES.1
 10
-1.1728
 20
0.0032
 30
0.0588
 70
192
 0
VERTEX
 8
CA_ONES.1
 10
-1.1778
 20
0.0032
 30
0.0928
 70
192
 0
VERTEX
 8
CA_ONES.1
 10
-1.1589
 20
0.0077
 30
0.029
 70
192
 0
VERTEX
 8
CA_ONES.1
 10
-1.1728
 20
0.0077
 30
0.0588
 70
192
 0
VERTEX
 8
CA_ONES.1
 10
-1.1778
 20
0.0077
 30
0.0928
 70
192
 0
VERTEX
 8
CA_ONES.1
 10
-1.1769
 20
0.0077
 30
0.0206
 70
192
 0
VERTEX
 8
CA_ONES.1
 10
-1.1908
 20
0.0077
 30
0.0505
 70
192
 0
VERTEX
 8
CA_ONES.1
 10
-1.2047
 20
0.0077
 30
0.0803
 70
192
 0
VERTEX
 8
CA_ONES.1
 10
-1.2038
 20
0.0077
 30
0.0081
 70
192
 0
VERTEX
 8
CA_ONES.1
 10
-1.2177
 20
0.0077
 30
0.0379
 70
192
 0
VERTEX
 8
CA_ONES.1
 10
-1.2315
 20
0.0077
 30
0.0677
 70
192
 0
VERTEX
 8
CA_ONES.1
 10
-1.2038
 20
0.0032
 30
0.0081
 70
192
 0
VERTEX
 8
CA_ONES.1
 10
-1.2177
 20
0.0032
 30
0.0379
 70
192
 0
VERTEX
 8
CA_ONES.1
 10
-1.2315
 20
0.0032
 30
0.0677
 70
192
 0
VERTEX
 8
CA_ONES.1
 10
-1.2047
 20
0.0032
 30
0.0803
 70
192
 0
VERTEX
 8
CA_ONES.1
 10
-1.1769
 20
0.064
 30
0.0206
 70
192
 0
VERTEX
 8
CA_ONES.1
 10
-1.2038
 20
0.1051
 30
0.0081
 70
192
 0
VERTEX
 8
CA_ONES.1
 10
-1.2177
 20
0.1432
 30
0.0379
 70
192
 0
VERTEX
 8
CA_ONES.1
 10
-1.2315
 20
0.1417
 30
0.0677
 70
192
 0
VERTEX
 8
CA_ONES.1
 10
-1.1769
 20
0.1051
 30
0.0206
 70
192
 0
VERTEX
 8
CA_ONES.1
 10
-1.1908
 20
0.1466
 30
0.0505
 70
192
 0
VERTEX
 8
CA_ONES.1
 10
-1.2047
 20
0.1367
 30
0.0803
 70
192
 0
VERTEX
 8
CA_ONES.1
 10
-1.1589
 20
0.1417
 30
0.029
 70
192
 0
VERTEX
 8
CA_ONES.1
 10
-1.1716
 20
0.1422
 30
0.0561
 70
192
 0
VERTEX
 8
CA_ONES.1
 10
-1.1778
 20
0.1314
 30
0.0928
 70
192
 0
VERTEX
 8
CA_ONES.1
 10
-1.1589
 20
0.1268
 30
0.029
 70
192
 0
VERTEX
 8
CA_ONES.1
 10
-1.1728
 20
0.1268
 30
0.0588
 70
192
 0
VERTEX
 8
CA_ONES.1
 10
-1.1778
 20
0.1268
 30
0.0928
 70
192
 0
VERTEX
 8
CA_ONES.1
 10
-1.1589
 20
0.1223
 30
0.029
 70
192
 0
VERTEX
 8
CA_ONES.1
 10
-1.1728
 20
0.1223
 30
0.0588
 70
192
 0
VERTEX
 8
CA_ONES.1
 10
-1.1778
 20
0.1223
 30
0.0928
 70
192
 0
VERTEX
 8
CA_ONES.1
 10
-1.1769
 20
0.1223
 30
0.0206
 70
192
 0
VERTEX
 8
CA_ONES.1
 10
-1.1908
 20
0.1223
 30
0.0505
 70
192
 0
VERTEX
 8
CA_ONES.1
 10
-1.2047
 20
0.1223
 30
0.0803
 70
192
 0
VERTEX
 8
CA_ONES.1
 10
-1.2038
 20
0.1223
 30
0.0081
 70
192
 0
VERTEX
 8
CA_ONES.1
 10
-1.2177
 20
0.1223
 30
0.0379
 70
192
 0
VERTEX
 8
CA_ONES.1
 10
-1.2315
 20
0.1223
 30
0.0677
 70
192
 0
VERTEX
 8
CA_ONES.1
 10
-1.2038
 20
0.0902
 30
0.0081
 70
192
 0
VERTEX
 8
CA_ONES.1
 10
-1.2177
 20
0.1268
 30
0.0379
 70
192
 0
VERTEX
 8
CA_ONES.1
 10
-1.2315
 20
0.1268
 30
0.0677
 70
192
 0
VERTEX
 8
CA_ONES.1
 10
-1.2047
 20
0.1268
 30
0.0803
 70
192
 0
VERTEX
 8
CA_ONES.1
 10
-1.1769
 20
0.0902
 30
0.0206
 70
192
 0
VERTEX
 8
CA_ONES.1
 10
-1.2804
 20
0.1319
 30
-0.0453
 70
192
 0
VERTEX
 8
CA_ONES.1
 10
-1.2804
 20
0.1319
 30
-0.0637
 70
192
 0
VERTEX
 8
CA_ONES.1
 10
-1.2804
 20
0.1319
 30
-0.0637
 70
192
 0
VERTEX
 8
CA_ONES.1
 10
1.2804
 20
0.1319
 30
-0.0637
 70
192
 0
VERTEX
 8
CA_ONES.1
 10
1.2804
 20
0.1319
 30
-0.0637
 70
192
 0
VERTEX
 8
CA_ONES.1
 10
1.2804
 20
0.1319
 30
-0.0453
 70
192
 0
VERTEX
 8
CA_ONES.1
 10
1.2804
 20
0.1319
 30
-0.0453
 70
192
 0
VERTEX
 8
CA_ONES.1
 10
-1.2804
 20
0.1319
 30
-0.0453
 70
192
 0
VERTEX
 8
CA_ONES.1
 10
-1.2804
 20
0.1398
 30
-0.0446
 70
192
 0
VERTEX
 8
CA_ONES.1
 10
-1.2804
 20
0.143
 30
-0.0627
 70
192
 0
VERTEX
 8
CA_ONES.1
 10
-1.2804
 20
0.143
 30
-0.0627
 70
192
 0
VERTEX
 8
CA_ONES.1
 10
1.2804
 20
0.143
 30
-0.0627
 70
192
 0
VERTEX
 8
CA_ONES.1
 10
1.2804
 20
0.143
 30
-0.0627
 70
192
 0
VERTEX
 8
CA_ONES.1
 10
1.2804
 20
0.1398
 30
-0.0446
 70
192
 0
VERTEX
 8
CA_ONES.1
 10
1.2804
 20
0.1398
 30
-0.0446
 70
192
 0
VERTEX
 8
CA_ONES.1
 10
-1.2804
 20
0.1398
 30
-0.0446
 70
192
 0
VERTEX
 8
CA_ONES.1
 10
-1.2804
 20
0.1474
 30
-0.0425
 70
192
 0
VERTEX
 8
CA_ONES.1
 10
-1.2804
 20
0.1537
 30
-0.0599
 70
192
 0
VERTEX
 8
CA_ONES.1
 10
-1.2804
 20
0.1537
 30
-0.0599
 70
192
 0
VERTEX
 8
CA_ONES.1
 10
1.2804
 20
0.1537
 30
-0.0599
 70
192
 0
VERTEX
 8
CA_ONES.1
 10
1.2804
 20
0.1537
 30
-0.0599
 70
192
 0
VERTEX
 8
CA_ONES.1
 10
1.2804
 20
0.1474
 30
-0.0425
 70
192
 0
VERTEX
 8
CA_ONES.1
 10
1.2804
 20
0.1474
 30
-0.0425
 70
192
 0
VERTEX
 8
CA_ONES.1
 10
-1.2804
 20
0.1474
 30
-0.0425
 70
192
 0
VERTEX
 8
CA_ONES.1
 10
-1.2804
 20
0.1546
 30
-0.0392
 70
192
 0
VERTEX
 8
CA_ONES.1
 10
-1.2804
 20
0.1638
 30
-0.0552
 70
192
 0
VERTEX
 8
CA_ONES.1
 10
-1.2804
 20
0.1638
 30
-0.0552
 70
192
 0
VERTEX
 8
CA_ONES.1
 10
1.2804
 20
0.1638
 30
-0.0552
 70
192
 0
VERTEX
 8
CA_ONES.1
 10
1.2804
 20
0.1638
 30
-0.0552
 70
192
 0
VERTEX
 8
CA_ONES.1
 10
1.2804
 20
0.1546
 30
-0.0392
 70
192
 0
VERTEX
 8
CA_ONES.1
 10
1.2804
 20
0.1546
 30
-0.0392
 70
192
 0
VERTEX
 8
CA_ONES.1
 10
-1.2804
 20
0.1546
 30
-0.0392
 70
192
 0
VERTEX
 8
CA_ONES.1
 10
-1.2804
 20
0.161
 30
-0.0347
 70
192
 0
VERTEX
 8
CA_ONES.1
 10
-1.2804
 20
0.1729
 30
-0.0488
 70
192
 0
VERTEX
 8
CA_ONES.1
 10
-1.2804
 20
0.1729
 30
-0.0488
 70
192
 0
VERTEX
 8
CA_ONES.1
 10
1.2804
 20
0.1729
 30
-0.0488
 70
192
 0
VERTEX
 8
CA_ONES.1
 10
1.2804
 20
0.1729
 30
-0.0488
 70
192
 0
VERTEX
 8
CA_ONES.1
 10
1.2804
 20
0.161
 30
-0.0347
 70
192
 0
VERTEX
 8
CA_ONES.1
 10
1.2804
 20
0.161
 30
-0.0347
 70
192
 0
VERTEX
 8
CA_ONES.1
 10
-1.2804
 20
0.161
 30
-0.0347
 70
192
 0
VERTEX
 8
CA_ONES.1
 10
-1.2804
 20
0.1666
 30
-0.0291
 70
192
 0
VERTEX
 8
CA_ONES.1
 10
-1.2804
 20
0.1807
 30
-0.0409
 70
192
 0
VERTEX
 8
CA_ONES.1
 10
-1.2804
 20
0.1807
 30
-0.0409
 70
192
 0
VERTEX
 8
CA_ONES.1
 10
1.2804
 20
0.1807
 30
-0.0409
 70
192
 0
VERTEX
 8
CA_ONES.1
 10
1.2804
 20
0.1807
 30
-0.0409
 70
192
 0
VERTEX
 8
CA_ONES.1
 10
1.2804
 20
0.1666
 30
-0.0291
 70
192
 0
VERTEX
 8
CA_ONES.1
 10
1.2804
 20
0.1666
 30
-0.0291
 70
192
 0
VERTEX
 8
CA_ONES.1
 10
-1.2804
 20
0.1666
 30
-0.0291
 70
192
 0
VERTEX
 8
CA_ONES.1
 10
-1.2804
 20
0.1711
 30
-0.0226
 70
192
 0
VERTEX
 8
CA_ONES.1
 10
-1.2804
 20
0.1871
 30
-0.0318
 70
192
 0
VERTEX
 8
CA_ONES.1
 10
-1.2804
 20
0.1871
 30
-0.0318
 70
192
 0
VERTEX
 8
CA_ONES.1
 10
1.2804
 20
0.1871
 30
-0.0318
 70
192
 0
VERTEX
 8
CA_ONES.1
 10
1.2804
 20
0.1871
 30
-0.0318
 70
192
 0
VERTEX
 8
CA_ONES.1
 10
1.2804
 20
0.1711
 30
-0.0226
 70
192
 0
VERTEX
 8
CA_ONES.1
 10
1.2804
 20
0.1711
 30
-0.0226
 70
192
 0
VERTEX
 8
CA_ONES.1
 10
-1.2804
 20
0.1711
 30
-0.0226
 70
192
 0
VERTEX
 8
CA_ONES.1
 10
-1.2804
 20
0.1745
 30
-0.0155
 70
192
 0
VERTEX
 8
CA_ONES.1
 10
-1.2804
 20
0.1918
 30
-0.0218
 70
192
 0
VERTEX
 8
CA_ONES.1
 10
-1.2804
 20
0.1918
 30
-0.0218
 70
192
 0
VERTEX
 8
CA_ONES.1
 10
1.2804
 20
0.1918
 30
-0.0218
 70
192
 0
VERTEX
 8
CA_ONES.1
 10
1.2804
 20
0.1918
 30
-0.0218
 70
192
 0
VERTEX
 8
CA_ONES.1
 10
1.2804
 20
0.1745
 30
-0.0155
 70
192
 0
VERTEX
 8
CA_ONES.1
 10
1.2804
 20
0.1745
 30
-0.0155
 70
192
 0
VERTEX
 8
CA_ONES.1
 10
-1.2804
 20
0.1745
 30
-0.0155
 70
192
 0
VERTEX
 8
CA_ONES.1
 10
-1.2804
 20
0.1765
 30
-0.0079
 70
192
 0
VERTEX
 8
CA_ONES.1
 10
-1.2804
 20
0.1947
 30
-0.0111
 70
192
 0
VERTEX
 8
CA_ONES.1
 10
-1.2804
 20
0.1947
 30
-0.0111
 70
192
 0
VERTEX
 8
CA_ONES.1
 10
1.2804
 20
0.1947
 30
-0.0111
 70
192
 0
VERTEX
 8
CA_ONES.1
 10
1.2804
 20
0.1947
 30
-0.0111
 70
192
 0
VERTEX
 8
CA_ONES.1
 10
1.2804
 20
0.1765
 30
-0.0079
 70
192
 0
VERTEX
 8
CA_ONES.1
 10
1.2804
 20
0.1765
 30
-0.0079
 70
192
 0
VERTEX
 8
CA_ONES.1
 10
-1.2804
 20
0.1765
 30
-0.0079
 70
192
 0
VERTEX
 8
CA_ONES.1
 10
-1.2804
 20
0.1772
 30
0
 70
192
 0
VERTEX
 8
CA_ONES.1
 10
-1.2804
 20
0.1956
 30
0
 70
192
 0
VERTEX
 8
CA_ONES.1
 10
-1.2804
 20
0.1956
 30
0
 70
192
 0
VERTEX
 8
CA_ONES.1
 10
1.2804
 20
0.1956
 30
0
 70
192
 0
VERTEX
 8
CA_ONES.1
 10
1.2804
 20
0.1956
 30
0
 70
192
 0
VERTEX
 8
CA_ONES.1
 10
1.2804
 20
0.1772
 30
0
 70
192
 0
VERTEX
 8
CA_ONES.1
 10
1.2804
 20
0.1772
 30
0
 70
192
 0
VERTEX
 8
CA_ONES.1
 10
-1.2804
 20
0.1772
 30
0
 70
192
 0
VERTEX
 8
CA_ONES.1
 10
-1.2804
 20
0.1765
 30
0.0079
 70
192
 0
VERTEX
 8
CA_ONES.1
 10
-1.2804
 20
0.1947
 30
0.0111
 70
192
 0
VERTEX
 8
CA_ONES.1
 10
-1.2804
 20
0.1947
 30
0.0111
 70
192
 0
VERTEX
 8
CA_ONES.1
 10
1.2804
 20
0.1947
 30
0.0111
 70
192
 0
VERTEX
 8
CA_ONES.1
 10
1.2804
 20
0.1947
 30
0.0111
 70
192
 0
VERTEX
 8
CA_ONES.1
 10
1.2804
 20
0.1765
 30
0.0079
 70
192
 0
VERTEX
 8
CA_ONES.1
 10
1.2804
 20
0.1765
 30
0.0079
 70
192
 0
VERTEX
 8
CA_ONES.1
 10
-1.2804
 20
0.1765
 30
0.0079
 70
192
 0
VERTEX
 8
CA_ONES.1
 10
-1.2804
 20
0.1745
 30
0.0155
 70
192
 0
VERTEX
 8
CA_ONES.1
 10
-1.2804
 20
0.1918
 30
0.0218
 70
192
 0
VERTEX
 8
CA_ONES.1
 10
-1.2804
 20
0.1918
 30
0.0218
 70
192
 0
VERTEX
 8
CA_ONES.1
 10
1.2804
 20
0.1918
 30
0.0218
 70
192
 0
VERTEX
 8
CA_ONES.1
 10
1.2804
 20
0.1918
 30
0.0218
 70
192
 0
VERTEX
 8
CA_ONES.1
 10
1.2804
 20
0.1745
 30
0.0155
 70
192
 0
VERTEX
 8
CA_ONES.1
 10
1.2804
 20
0.1745
 30
0.0155
 70
192
 0
VERTEX
 8
CA_ONES.1
 10
-1.2804
 20
0.1745
 30
0.0155
 70
192
 0
VERTEX
 8
CA_ONES.1
 10
-1.2804
 20
0.1711
 30
0.0226
 70
192
 0
VERTEX
 8
CA_ONES.1
 10
-1.2804
 20
0.1871
 30
0.0318
 70
192
 0
VERTEX
 8
CA_ONES.1
 10
-1.2804
 20
0.1871
 30
0.0318
 70
192
 0
VERTEX
 8
CA_ONES.1
 10
1.2804
 20
0.1871
 30
0.0318
 70
192
 0
VERTEX
 8
CA_ONES.1
 10
1.2804
 20
0.1871
 30
0.0318
 70
192
 0
VERTEX
 8
CA_ONES.1
 10
1.2804
 20
0.1711
 30
0.0226
 70
192
 0
VERTEX
 8
CA_ONES.1
 10
1.2804
 20
0.1711
 30
0.0226
 70
192
 0
VERTEX
 8
CA_ONES.1
 10
-1.2804
 20
0.1711
 30
0.0226
 70
192
 0
VERTEX
 8
CA_ONES.1
 10
-1.2804
 20
0.1666
 30
0.0291
 70
192
 0
VERTEX
 8
CA_ONES.1
 10
-1.2804
 20
0.1807
 30
0.0409
 70
192
 0
VERTEX
 8
CA_ONES.1
 10
-1.2804
 20
0.1807
 30
0.0409
 70
192
 0
VERTEX
 8
CA_ONES.1
 10
1.2804
 20
0.1807
 30
0.0409
 70
192
 0
VERTEX
 8
CA_ONES.1
 10
1.2804
 20
0.1807
 30
0.0409
 70
192
 0
VERTEX
 8
CA_ONES.1
 10
1.2804
 20
0.1666
 30
0.0291
 70
192
 0
VERTEX
 8
CA_ONES.1
 10
1.2804
 20
0.1666
 30
0.0291
 70
192
 0
VERTEX
 8
CA_ONES.1
 10
-1.2804
 20
0.1666
 30
0.0291
 70
192
 0
VERTEX
 8
CA_ONES.1
 10
-1.2804
 20
0.161
 30
0.0347
 70
192
 0
VERTEX
 8
CA_ONES.1
 10
-1.2804
 20
0.1729
 30
0.0488
 70
192
 0
VERTEX
 8
CA_ONES.1
 10
-1.2804
 20
0.1729
 30
0.0488
 70
192
 0
VERTEX
 8
CA_ONES.1
 10
1.2804
 20
0.1729
 30
0.0488
 70
192
 0
VERTEX
 8
CA_ONES.1
 10
1.2804
 20
0.1729
 30
0.0488
 70
192
 0
VERTEX
 8
CA_ONES.1
 10
1.2804
 20
0.161
 30
0.0347
 70
192
 0
VERTEX
 8
CA_ONES.1
 10
1.2804
 20
0.161
 30
0.0347
 70
192
 0
VERTEX
 8
CA_ONES.1
 10
-1.2804
 20
0.161
 30
0.0347
 70
192
 0
VERTEX
 8
CA_ONES.1
 10
-1.2804
 20
0.1546
 30
0.0392
 70
192
 0
VERTEX
 8
CA_ONES.1
 10
-1.2804
 20
0.1638
 30
0.0552
 70
192
 0
VERTEX
 8
CA_ONES.1
 10
-1.2804
 20
0.1638
 30
0.0552
 70
192
 0
VERTEX
 8
CA_ONES.1
 10
1.2804
 20
0.1638
 30
0.0552
 70
192
 0
VERTEX
 8
CA_ONES.1
 10
1.2804
 20
0.1638
 30
0.0552
 70
192
 0
VERTEX
 8
CA_ONES.1
 10
1.2804
 20
0.1546
 30
0.0392
 70
192
 0
VERTEX
 8
CA_ONES.1
 10
1.2804
 20
0.1546
 30
0.0392
 70
192
 0
VERTEX
 8
CA_ONES.1
 10
-1.2804
 20
0.1546
 30
0.0392
 70
192
 0
VERTEX
 8
CA_ONES.1
 10
-1.2804
 20
0.1474
 30
0.0425
 70
192
 0
VERTEX
 8
CA_ONES.1
 10
-1.2804
 20
0.1537
 30
0.0599
 70
192
 0
VERTEX
 8
CA_ONES.1
 10
-1.2804
 20
0.1537
 30
0.0599
 70
192
 0
VERTEX
 8
CA_ONES.1
 10
1.2804
 20
0.1537
 30
0.0599
 70
192
 0
VERTEX
 8
CA_ONES.1
 10
1.2804
 20
0.1537
 30
0.0599
 70
192
 0
VERTEX
 8
CA_ONES.1
 10
1.2804
 20
0.1474
 30
0.0425
 70
192
 0
VERTEX
 8
CA_ONES.1
 10
1.2804
 20
0.1474
 30
0.0425
 70
192
 0
VERTEX
 8
CA_ONES.1
 10
-1.2804
 20
0.1474
 30
0.0425
 70
192
 0
VERTEX
 8
CA_ONES.1
 10
-1.2804
 20
0.1398
 30
0.0446
 70
192
 0
VERTEX
 8
CA_ONES.1
 10
-1.2804
 20
0.143
 30
0.0627
 70
192
 0
VERTEX
 8
CA_ONES.1
 10
-1.2804
 20
0.143
 30
0.0627
 70
192
 0
VERTEX
 8
CA_ONES.1
 10
1.2804
 20
0.143
 30
0.0627
 70
192
 0
VERTEX
 8
CA_ONES.1
 10
1.2804
 20
0.143
 30
0.0627
 70
192
 0
VERTEX
 8
CA_ONES.1
 10
1.2804
 20
0.1398
 30
0.0446
 70
192
 0
VERTEX
 8
CA_ONES.1
 10
1.2804
 20
0.1398
 30
0.0446
 70
192
 0
VERTEX
 8
CA_ONES.1
 10
-1.2804
 20
0.1398
 30
0.0446
 70
192
 0
VERTEX
 8
CA_ONES.1
 10
-1.2804
 20
0.1319
 30
0.0453
 70
192
 0
VERTEX
 8
CA_ONES.1
 10
-1.2804
 20
0.1319
 30
0.0637
 70
192
 0
VERTEX
 8
CA_ONES.1
 10
-1.2804
 20
0.1319
 30
0.0637
 70
192
 0
VERTEX
 8
CA_ONES.1
 10
1.2804
 20
0.1319
 30
0.0637
 70
192
 0
VERTEX
 8
CA_ONES.1
 10
1.2804
 20
0.1319
 30
0.0637
 70
192
 0
VERTEX
 8
CA_ONES.1
 10
1.2804
 20
0.1319
 30
0.0453
 70
192
 0
VERTEX
 8
CA_ONES.1
 10
1.2804
 20
0.1319
 30
0.0453
 70
192
 0
VERTEX
 8
CA_ONES.1
 10
-1.2804
 20
0.1319
 30
0.0453
 70
192
 0
VERTEX
 8
CA_ONES.1
 10
-1.2804
 20
0.1241
 30
0.0446
 70
192
 0
VERTEX
 8
CA_ONES.1
 10
-1.2804
 20
0.1209
 30
0.0627
 70
192
 0
VERTEX
 8
CA_ONES.1
 10
-1.2804
 20
0.1209
 30
0.0627
 70
192
 0
VERTEX
 8
CA_ONES.1
 10
1.2804
 20
0.1209
 30
0.0627
 70
192
 0
VERTEX
 8
CA_ONES.1
 10
1.2804
 20
0.1209
 30
0.0627
 70
192
 0
VERTEX
 8
CA_ONES.1
 10
1.2804
 20
0.1241
 30
0.0446
 70
192
 0
VERTEX
 8
CA_ONES.1
 10
1.2804
 20
0.1241
 30
0.0446
 70
192
 0
VERTEX
 8
CA_ONES.1
 10
-1.2804
 20
0.1241
 30
0.0446
 70
192
 0
VERTEX
 8
CA_ONES.1
 10
-1.2804
 20
0.1164
 30
0.0425
 70
192
 0
VERTEX
 8
CA_ONES.1
 10
-1.2804
 20
0.1101
 30
0.0599
 70
192
 0
VERTEX
 8
CA_ONES.1
 10
-1.2804
 20
0.1101
 30
0.0599
 70
192
 0
VERTEX
 8
CA_ONES.1
 10
1.2804
 20
0.1101
 30
0.0599
 70
192
 0
VERTEX
 8
CA_ONES.1
 10
1.2804
 20
0.1101
 30
0.0599
 70
192
 0
VERTEX
 8
CA_ONES.1
 10
1.2804
 20
0.1164
 30
0.0425
 70
192
 0
VERTEX
 8
CA_ONES.1
 10
1.2804
 20
0.1164
 30
0.0425
 70
192
 0
VERTEX
 8
CA_ONES.1
 10
-1.2804
 20
0.1164
 30
0.0425
 70
192
 0
VERTEX
 8
CA_ONES.1
 10
-1.2804
 20
0.1093
 30
0.0392
 70
192
 0
VERTEX
 8
CA_ONES.1
 10
-1.2804
 20
0.1001
 30
0.0552
 70
192
 0
VERTEX
 8
CA_ONES.1
 10
-1.2804
 20
0.1001
 30
0.0552
 70
192
 0
VERTEX
 8
CA_ONES.1
 10
1.2804
 20
0.1001
 30
0.0552
 70
192
 0
VERTEX
 8
CA_ONES.1
 10
1.2804
 20
0.1001
 30
0.0552
 70
192
 0
VERTEX
 8
CA_ONES.1
 10
1.2804
 20
0.1093
 30
0.0392
 70
192
 0
VERTEX
 8
CA_ONES.1
 10
1.2804
 20
0.1093
 30
0.0392
 70
192
 0
VERTEX
 8
CA_ONES.1
 10
-1.2804
 20
0.1093
 30
0.0392
 70
192
 0
VERTEX
 8
CA_ONES.1
 10
-1.2804
 20
0.1028
 30
0.0347
 70
192
 0
VERTEX
 8
CA_ONES.1
 10
-1.2804
 20
0.091
 30
0.0488
 70
192
 0
VERTEX
 8
CA_ONES.1
 10
-1.2804
 20
0.091
 30
0.0488
 70
192
 0
VERTEX
 8
CA_ONES.1
 10
1.2804
 20
0.091
 30
0.0488
 70
192
 0
VERTEX
 8
CA_ONES.1
 10
1.2804
 20
0.091
 30
0.0488
 70
192
 0
VERTEX
 8
CA_ONES.1
 10
1.2804
 20
0.1028
 30
0.0347
 70
192
 0
VERTEX
 8
CA_ONES.1
 10
1.2804
 20
0.1028
 30
0.0347
 70
192
 0
VERTEX
 8
CA_ONES.1
 10
-1.2804
 20
0.1028
 30
0.0347
 70
192
 0
VERTEX
 8
CA_ONES.1
 10
-1.2804
 20
0.0973
 30
0.0291
 70
192
 0
VERTEX
 8
CA_ONES.1
 10
-1.2804
 20
0.0831
 30
0.0409
 70
192
 0
VERTEX
 8
CA_ONES.1
 10
-1.2804
 20
0.0831
 30
0.0409
 70
192
 0
VERTEX
 8
CA_ONES.1
 10
1.2804
 20
0.0831
 30
0.0409
 70
192
 0
VERTEX
 8
CA_ONES.1
 10
1.2804
 20
0.0831
 30
0.0409
 70
192
 0
VERTEX
 8
CA_ONES.1
 10
1.2804
 20
0.0973
 30
0.0291
 70
192
 0
VERTEX
 8
CA_ONES.1
 10
1.2804
 20
0.0973
 30
0.0291
 70
192
 0
VERTEX
 8
CA_ONES.1
 10
-1.2804
 20
0.0973
 30
0.0291
 70
192
 0
VERTEX
 8
CA_ONES.1
 10
-1.2804
 20
0.0927
 30
0.0226
 70
192
 0
VERTEX
 8
CA_ONES.1
 10
-1.2804
 20
0.0768
 30
0.0318
 70
192
 0
VERTEX
 8
CA_ONES.1
 10
-1.2804
 20
0.0768
 30
0.0318
 70
192
 0
VERTEX
 8
CA_ONES.1
 10
1.2804
 20
0.0768
 30
0.0318
 70
192
 0
VERTEX
 8
CA_ONES.1
 10
1.2804
 20
0.0768
 30
0.0318
 70
192
 0
VERTEX
 8
CA_ONES.1
 10
1.2804
 20
0.0927
 30
0.0226
 70
192
 0
VERTEX
 8
CA_ONES.1
 10
1.2804
 20
0.0927
 30
0.0226
 70
192
 0
VERTEX
 8
CA_ONES.1
 10
-1.2804
 20
0.0927
 30
0.0226
 70
192
 0
VERTEX
 8
CA_ONES.1
 10
-1.2804
 20
0.0894
 30
0.0155
 70
192
 0
VERTEX
 8
CA_ONES.1
 10
-1.2804
 20
0.0721
 30
0.0218
 70
192
 0
VERTEX
 8
CA_ONES.1
 10
-1.2804
 20
0.0721
 30
0.0218
 70
192
 0
VERTEX
 8
CA_ONES.1
 10
1.2804
 20
0.0721
 30
0.0218
 70
192
 0
VERTEX
 8
CA_ONES.1
 10
1.2804
 20
0.0721
 30
0.0218
 70
192
 0
VERTEX
 8
CA_ONES.1
 10
1.2804
 20
0.0894
 30
0.0155
 70
192
 0
VERTEX
 8
CA_ONES.1
 10
1.2804
 20
0.0894
 30
0.0155
 70
192
 0
VERTEX
 8
CA_ONES.1
 10
-1.2804
 20
0.0894
 30
0.0155
 70
192
 0
VERTEX
 8
CA_ONES.1
 10
-1.2804
 20
0.0873
 30
0.0079
 70
192
 0
VERTEX
 8
CA_ONES.1
 10
-1.2804
 20
0.0692
 30
0.0111
 70
192
 0
VERTEX
 8
CA_ONES.1
 10
-1.2804
 20
0.0692
 30
0.0111
 70
192
 0
VERTEX
 8
CA_ONES.1
 10
1.2804
 20
0.0692
 30
0.0111
 70
192
 0
VERTEX
 8
CA_ONES.1
 10
1.2804
 20
0.0692
 30
0.0111
 70
192
 0
VERTEX
 8
CA_ONES.1
 10
1.2804
 20
0.0873
 30
0.0079
 70
192
 0
VERTEX
 8
CA_ONES.1
 10
1.2804
 20
0.0873
 30
0.0079
 70
192
 0
VERTEX
 8
CA_ONES.1
 10
-1.2804
 20
0.0873
 30
0.0079
 70
192
 0
VERTEX
 8
CA_ONES.1
 10
-1.2804
 20
0.0867
 30
0
 70
192
 0
VERTEX
 8
CA_ONES.1
 10
-1.2804
 20
0.0682
 30
0
 70
192
 0
VERTEX
 8
CA_ONES.1
 10
-1.2804
 20
0.0682
 30
0
 70
192
 0
VERTEX
 8
CA_ONES.1
 10
1.2804
 20
0.0682
 30
0
 70
192
 0
VERTEX
 8
CA_ONES.1
 10
1.2804
 20
0.0682
 30
0
 70
192
 0
VERTEX
 8
CA_ONES.1
 10
1.2804
 20
0.0867
 30
0
 70
192
 0
VERTEX
 8
CA_ONES.1
 10
1.2804
 20
0.0867
 30
0
 70
192
 0
VERTEX
 8
CA_ONES.1
 10
-1.2804
 20
0.0867
 30
0
 70
192
 0
VERTEX
 8
CA_ONES.1
 10
-1.2804
 20
0.0873
 30
-0.0079
 70
192
 0
VERTEX
 8
CA_ONES.1
 10
-1.2804
 20
0.0692
 30
-0.0111
 70
192
 0
VERTEX
 8
CA_ONES.1
 10
-1.2804
 20
0.0692
 30
-0.0111
 70
192
 0
VERTEX
 8
CA_ONES.1
 10
1.2804
 20
0.0692
 30
-0.0111
 70
192
 0
VERTEX
 8
CA_ONES.1
 10
1.2804
 20
0.0692
 30
-0.0111
 70
192
 0
VERTEX
 8
CA_ONES.1
 10
1.2804
 20
0.0873
 30
-0.0079
 70
192
 0
VERTEX
 8
CA_ONES.1
 10
1.2804
 20
0.0873
 30
-0.0079
 70
192
 0
VERTEX
 8
CA_ONES.1
 10
-1.2804
 20
0.0873
 30
-0.0079
 70
192
 0
VERTEX
 8
CA_ONES.1
 10
-1.2804
 20
0.0894
 30
-0.0155
 70
192
 0
VERTEX
 8
CA_ONES.1
 10
-1.2804
 20
0.0721
 30
-0.0218
 70
192
 0
VERTEX
 8
CA_ONES.1
 10
-1.2804
 20
0.0721
 30
-0.0218
 70
192
 0
VERTEX
 8
CA_ONES.1
 10
1.2804
 20
0.0721
 30
-0.0218
 70
192
 0
VERTEX
 8
CA_ONES.1
 10
1.2804
 20
0.0721
 30
-0.0218
 70
192
 0
VERTEX
 8
CA_ONES.1
 10
1.2804
 20
0.0894
 30
-0.0155
 70
192
 0
VERTEX
 8
CA_ONES.1
 10
1.2804
 20
0.0894
 30
-0.0155
 70
192
 0
VERTEX
 8
CA_ONES.1
 10
-1.2804
 20
0.0894
 30
-0.0155
 70
192
 0
VERTEX
 8
CA_ONES.1
 10
-1.2804
 20
0.0927
 30
-0.0226
 70
192
 0
VERTEX
 8
CA_ONES.1
 10
-1.2804
 20
0.0768
 30
-0.0318
 70
192
 0
VERTEX
 8
CA_ONES.1
 10
-1.2804
 20
0.0768
 30
-0.0318
 70
192
 0
VERTEX
 8
CA_ONES.1
 10
1.2804
 20
0.0768
 30
-0.0318
 70
192
 0
VERTEX
 8
CA_ONES.1
 10
1.2804
 20
0.0768
 30
-0.0318
 70
192
 0
VERTEX
 8
CA_ONES.1
 10
1.2804
 20
0.0927
 30
-0.0226
 70
192
 0
VERTEX
 8
CA_ONES.1
 10
1.2804
 20
0.0927
 30
-0.0226
 70
192
 0
VERTEX
 8
CA_ONES.1
 10
-1.2804
 20
0.0927
 30
-0.0226
 70
192
 0
VERTEX
 8
CA_ONES.1
 10
-1.2804
 20
0.0973
 30
-0.0291
 70
192
 0
VERTEX
 8
CA_ONES.1
 10
-1.2804
 20
0.0831
 30
-0.0409
 70
192
 0
VERTEX
 8
CA_ONES.1
 10
-1.2804
 20
0.0831
 30
-0.0409
 70
192
 0
VERTEX
 8
CA_ONES.1
 10
1.2804
 20
0.0831
 30
-0.0409
 70
192
 0
VERTEX
 8
CA_ONES.1
 10
1.2804
 20
0.0831
 30
-0.0409
 70
192
 0
VERTEX
 8
CA_ONES.1
 10
1.2804
 20
0.0973
 30
-0.0291
 70
192
 0
VERTEX
 8
CA_ONES.1
 10
1.2804
 20
0.0973
 30
-0.0291
 70
192
 0
VERTEX
 8
CA_ONES.1
 10
-1.2804
 20
0.0973
 30
-0.0291
 70
192
 0
VERTEX
 8
CA_ONES.1
 10
-1.2804
 20
0.1028
 30
-0.0347
 70
192
 0
VERTEX
 8
CA_ONES.1
 10
-1.2804
 20
0.091
 30
-0.0488
 70
192
 0
VERTEX
 8
CA_ONES.1
 10
-1.2804
 20
0.091
 30
-0.0488
 70
192
 0
VERTEX
 8
CA_ONES.1
 10
1.2804
 20
0.091
 30
-0.0488
 70
192
 0
VERTEX
 8
CA_ONES.1
 10
1.2804
 20
0.091
 30
-0.0488
 70
192
 0
VERTEX
 8
CA_ONES.1
 10
1.2804
 20
0.1028
 30
-0.0347
 70
192
 0
VERTEX
 8
CA_ONES.1
 10
1.2804
 20
0.1028
 30
-0.0347
 70
192
 0
VERTEX
 8
CA_ONES.1
 10
-1.2804
 20
0.1028
 30
-0.0347
 70
192
 0
VERTEX
 8
CA_ONES.1
 10
-1.2804
 20
0.1093
 30
-0.0392
 70
192
 0
VERTEX
 8
CA_ONES.1
 10
-1.2804
 20
0.1001
 30
-0.0552
 70
192
 0
VERTEX
 8
CA_ONES.1
 10
-1.2804
 20
0.1001
 30
-0.0552
 70
192
 0
VERTEX
 8
CA_ONES.1
 10
1.2804
 20
0.1001
 30
-0.0552
 70
192
 0
VERTEX
 8
CA_ONES.1
 10
1.2804
 20
0.1001
 30
-0.0552
 70
192
 0
VERTEX
 8
CA_ONES.1
 10
1.2804
 20
0.1093
 30
-0.0392
 70
192
 0
VERTEX
 8
CA_ONES.1
 10
1.2804
 20
0.1093
 30
-0.0392
 70
192
 0
VERTEX
 8
CA_ONES.1
 10
-1.2804
 20
0.1093
 30
-0.0392
 70
192
 0
VERTEX
 8
CA_ONES.1
 10
-1.2804
 20
0.1164
 30
-0.0425
 70
192
 0
VERTEX
 8
CA_ONES.1
 10
-1.2804
 20
0.1101
 30
-0.0599
 70
192
 0
VERTEX
 8
CA_ONES.1
 10
-1.2804
 20
0.1101
 30
-0.0599
 70
192
 0
VERTEX
 8
CA_ONES.1
 10
1.2804
 20
0.1101
 30
-0.0599
 70
192
 0
VERTEX
 8
CA_ONES.1
 10
1.2804
 20
0.1101
 30
-0.0599
 70
192
 0
VERTEX
 8
CA_ONES.1
 10
1.2804
 20
0.1164
 30
-0.0425
 70
192
 0
VERTEX
 8
CA_ONES.1
 10
1.2804
 20
0.1164
 30
-0.0425
 70
192
 0
VERTEX
 8
CA_ONES.1
 10
-1.2804
 20
0.1164
 30
-0.0425
 70
192
 0
VERTEX
 8
CA_ONES.1
 10
-1.2804
 20
0.1241
 30
-0.0446
 70
192
 0
VERTEX
 8
CA_ONES.1
 10
-1.2804
 20
0.1209
 30
-0.0627
 70
192
 0
VERTEX
 8
CA_ONES.1
 10
-1.2804
 20
0.1209
 30
-0.0627
 70
192
 0
VERTEX
 8
CA_ONES.1
 10
1.2804
 20
0.1209
 30
-0.0627
 70
192
 0
VERTEX
 8
CA_ONES.1
 10
1.2804
 20
0.1209
 30
-0.0627
 70
192
 0
VERTEX
 8
CA_ONES.1
 10
1.2804
 20
0.1241
 30
-0.0446
 70
192
 0
VERTEX
 8
CA_ONES.1
 10
1.2804
 20
0.1241
 30
-0.0446
 70
192
 0
VERTEX
 8
CA_ONES.1
 10
-1.2804
 20
0.1241
 30
-0.0446
 70
192
 0
VERTEX
 8
CA_ONES.1
 10
-1.2804
 20
0
 30
-0.0453
 70
192
 0
VERTEX
 8
CA_ONES.1
 10
-1.2804
 20
0
 30
-0.0637
 70
192
 0
VERTEX
 8
CA_ONES.1
 10
-1.2804
 20
0
 30
-0.0637
 70
192
 0
VERTEX
 8
CA_ONES.1
 10
1.2804
 20
0
 30
-0.0637
 70
192
 0
VERTEX
 8
CA_ONES.1
 10
1.2804
 20
0
 30
-0.0637
 70
192
 0
VERTEX
 8
CA_ONES.1
 10
1.2804
 20
0
 30
-0.0453
 70
192
 0
VERTEX
 8
CA_ONES.1
 10
1.2804
 20
0
 30
-0.0453
 70
192
 0
VERTEX
 8
CA_ONES.1
 10
-1.2804
 20
0
 30
-0.0453
 70
192
 0
VERTEX
 8
CA_ONES.1
 10
-1.2804
 20
0.0079
 30
-0.0446
 70
192
 0
VERTEX
 8
CA_ONES.1
 10
-1.2804
 20
0.0111
 30
-0.0627
 70
192
 0
VERTEX
 8
CA_ONES.1
 10
-1.2804
 20
0.0111
 30
-0.0627
 70
192
 0
VERTEX
 8
CA_ONES.1
 10
1.2804
 20
0.0111
 30
-0.0627
 70
192
 0
VERTEX
 8
CA_ONES.1
 10
1.2804
 20
0.0111
 30
-0.0627
 70
192
 0
VERTEX
 8
CA_ONES.1
 10
1.2804
 20
0.0079
 30
-0.0446
 70
192
 0
VERTEX
 8
CA_ONES.1
 10
1.2804
 20
0.0079
 30
-0.0446
 70
192
 0
VERTEX
 8
CA_ONES.1
 10
-1.2804
 20
0.0079
 30
-0.0446
 70
192
 0
VERTEX
 8
CA_ONES.1
 10
-1.2804
 20
0.0155
 30
-0.0425
 70
192
 0
VERTEX
 8
CA_ONES.1
 10
-1.2804
 20
0.0218
 30
-0.0599
 70
192
 0
VERTEX
 8
CA_ONES.1
 10
-1.2804
 20
0.0218
 30
-0.0599
 70
192
 0
VERTEX
 8
CA_ONES.1
 10
1.2804
 20
0.0218
 30
-0.0599
 70
192
 0
VERTEX
 8
CA_ONES.1
 10
1.2804
 20
0.0218
 30
-0.0599
 70
192
 0
VERTEX
 8
CA_ONES.1
 10
1.2804
 20
0.0155
 30
-0.0425
 70
192
 0
VERTEX
 8
CA_ONES.1
 10
1.2804
 20
0.0155
 30
-0.0425
 70
192
 0
VERTEX
 8
CA_ONES.1
 10
-1.2804
 20
0.0155
 30
-0.0425
 70
192
 0
VERTEX
 8
CA_ONES.1
 10
-1.2804
 20
0.0226
 30
-0.0392
 70
192
 0
VERTEX
 8
CA_ONES.1
 10
-1.2804
 20
0.0318
 30
-0.0552
 70
192
 0
VERTEX
 8
CA_ONES.1
 10
-1.2804
 20
0.0318
 30
-0.0552
 70
192
 0
VERTEX
 8
CA_ONES.1
 10
1.2804
 20
0.0318
 30
-0.0552
 70
192
 0
VERTEX
 8
CA_ONES.1
 10
1.2804
 20
0.0318
 30
-0.0552
 70
192
 0
VERTEX
 8
CA_ONES.1
 10
1.2804
 20
0.0226
 30
-0.0392
 70
192
 0
VERTEX
 8
CA_ONES.1
 10
1.2804
 20
0.0226
 30
-0.0392
 70
192
 0
VERTEX
 8
CA_ONES.1
 10
-1.2804
 20
0.0226
 30
-0.0392
 70
192
 0
VERTEX
 8
CA_ONES.1
 10
-1.2804
 20
0.0291
 30
-0.0347
 70
192
 0
VERTEX
 8
CA_ONES.1
 10
-1.2804
 20
0.0409
 30
-0.0488
 70
192
 0
VERTEX
 8
CA_ONES.1
 10
-1.2804
 20
0.0409
 30
-0.0488
 70
192
 0
VERTEX
 8
CA_ONES.1
 10
1.2804
 20
0.0409
 30
-0.0488
 70
192
 0
VERTEX
 8
CA_ONES.1
 10
1.2804
 20
0.0409
 30
-0.0488
 70
192
 0
VERTEX
 8
CA_ONES.1
 10
1.2804
 20
0.0291
 30
-0.0347
 70
192
 0
VERTEX
 8
CA_ONES.1
 10
1.2804
 20
0.0291
 30
-0.0347
 70
192
 0
VERTEX
 8
CA_ONES.1
 10
-1.2804
 20
0.0291
 30
-0.0347
 70
192
 0
VERTEX
 8
CA_ONES.1
 10
-1.2804
 20
0.0347
 30
-0.0291
 70
192
 0
VERTEX
 8
CA_ONES.1
 10
-1.2804
 20
0.0488
 30
-0.0409
 70
192
 0
VERTEX
 8
CA_ONES.1
 10
-1.2804
 20
0.0488
 30
-0.0409
 70
192
 0
VERTEX
 8
CA_ONES.1
 10
1.2804
 20
0.0488
 30
-0.0409
 70
192
 0
VERTEX
 8
CA_ONES.1
 10
1.2804
 20
0.0488
 30
-0.0409
 70
192
 0
VERTEX
 8
CA_ONES.1
 10
1.2804
 20
0.0347
 30
-0.0291
 70
192
 0
VERTEX
 8
CA_ONES.1
 10
1.2804
 20
0.0347
 30
-0.0291
 70
192
 0
VERTEX
 8
CA_ONES.1
 10
-1.2804
 20
0.0347
 30
-0.0291
 70
192
 0
VERTEX
 8
CA_ONES.1
 10
-1.2804
 20
0.0392
 30
-0.0226
 70
192
 0
VERTEX
 8
CA_ONES.1
 10
-1.2804
 20
0.0552
 30
-0.0318
 70
192
 0
VERTEX
 8
CA_ONES.1
 10
-1.2804
 20
0.0552
 30
-0.0318
 70
192
 0
VERTEX
 8
CA_ONES.1
 10
1.2804
 20
0.0552
 30
-0.0318
 70
192
 0
VERTEX
 8
CA_ONES.1
 10
1.2804
 20
0.0552
 30
-0.0318
 70
192
 0
VERTEX
 8
CA_ONES.1
 10
1.2804
 20
0.0392
 30
-0.0226
 70
192
 0
VERTEX
 8
CA_ONES.1
 10
1.2804
 20
0.0392
 30
-0.0226
 70
192
 0
VERTEX
 8
CA_ONES.1
 10
-1.2804
 20
0.0392
 30
-0.0226
 70
192
 0
VERTEX
 8
CA_ONES.1
 10
-1.2804
 20
0.0425
 30
-0.0155
 70
192
 0
VERTEX
 8
CA_ONES.1
 10
-1.2804
 20
0.0599
 30
-0.0218
 70
192
 0
VERTEX
 8
CA_ONES.1
 10
-1.2804
 20
0.0599
 30
-0.0218
 70
192
 0
VERTEX
 8
CA_ONES.1
 10
1.2804
 20
0.0599
 30
-0.0218
 70
192
 0
VERTEX
 8
CA_ONES.1
 10
1.2804
 20
0.0599
 30
-0.0218
 70
192
 0
VERTEX
 8
CA_ONES.1
 10
1.2804
 20
0.0425
 30
-0.0155
 70
192
 0
VERTEX
 8
CA_ONES.1
 10
1.2804
 20
0.0425
 30
-0.0155
 70
192
 0
VERTEX
 8
CA_ONES.1
 10
-1.2804
 20
0.0425
 30
-0.0155
 70
192
 0
VERTEX
 8
CA_ONES.1
 10
-1.2804
 20
0.0446
 30
-0.0079
 70
192
 0
VERTEX
 8
CA_ONES.1
 10
-1.2804
 20
0.0627
 30
-0.0111
 70
192
 0
VERTEX
 8
CA_ONES.1
 10
-1.2804
 20
0.0627
 30
-0.0111
 70
192
 0
VERTEX
 8
CA_ONES.1
 10
1.2804
 20
0.0627
 30
-0.0111
 70
192
 0
VERTEX
 8
CA_ONES.1
 10
1.2804
 20
0.0627
 30
-0.0111
 70
192
 0
VERTEX
 8
CA_ONES.1
 10
1.2804
 20
0.0446
 30
-0.0079
 70
192
 0
VERTEX
 8
CA_ONES.1
 10
1.2804
 20
0.0446
 30
-0.0079
 70
192
 0
VERTEX
 8
CA_ONES.1
 10
-1.2804
 20
0.0446
 30
-0.0079
 70
192
 0
VERTEX
 8
CA_ONES.1
 10
-1.2804
 20
0.0453
 30
0
 70
192
 0
VERTEX
 8
CA_ONES.1
 10
-1.2804
 20
0.0637
 30
0
 70
192
 0
VERTEX
 8
CA_ONES.1
 10
-1.2804
 20
0.0637
 30
0
 70
192
 0
VERTEX
 8
CA_ONES.1
 10
1.2804
 20
0.0637
 30
0
 70
192
 0
VERTEX
 8
CA_ONES.1
 10
1.2804
 20
0.0637
 30
0
 70
192
 0
VERTEX
 8
CA_ONES.1
 10
1.2804
 20
0.0453
 30
0
 70
192
 0
VERTEX
 8
CA_ONES.1
 10
1.2804
 20
0.0453
 30
0
 70
192
 0
VERTEX
 8
CA_ONES.1
 10
-1.2804
 20
0.0453
 30
0
 70
192
 0
VERTEX
 8
CA_ONES.1
 10
-1.2804
 20
0.0446
 30
0.0079
 70
192
 0
VERTEX
 8
CA_ONES.1
 10
-1.2804
 20
0.0627
 30
0.0111
 70
192
 0
VERTEX
 8
CA_ONES.1
 10
-1.2804
 20
0.0627
 30
0.0111
 70
192
 0
VERTEX
 8
CA_ONES.1
 10
1.2804
 20
0.0627
 30
0.0111
 70
192
 0
VERTEX
 8
CA_ONES.1
 10
1.2804
 20
0.0627
 30
0.0111
 70
192
 0
VERTEX
 8
CA_ONES.1
 10
1.2804
 20
0.0446
 30
0.0079
 70
192
 0
VERTEX
 8
CA_ONES.1
 10
1.2804
 20
0.0446
 30
0.0079
 70
192
 0
VERTEX
 8
CA_ONES.1
 10
-1.2804
 20
0.0446
 30
0.0079
 70
192
 0
VERTEX
 8
CA_ONES.1
 10
-1.2804
 20
0.0425
 30
0.0155
 70
192
 0
VERTEX
 8
CA_ONES.1
 10
-1.2804
 20
0.0599
 30
0.0218
 70
192
 0
VERTEX
 8
CA_ONES.1
 10
-1.2804
 20
0.0599
 30
0.0218
 70
192
 0
VERTEX
 8
CA_ONES.1
 10
1.2804
 20
0.0599
 30
0.0218
 70
192
 0
VERTEX
 8
CA_ONES.1
 10
1.2804
 20
0.0599
 30
0.0218
 70
192
 0
VERTEX
 8
CA_ONES.1
 10
1.2804
 20
0.0425
 30
0.0155
 70
192
 0
VERTEX
 8
CA_ONES.1
 10
1.2804
 20
0.0425
 30
0.0155
 70
192
 0
VERTEX
 8
CA_ONES.1
 10
-1.2804
 20
0.0425
 30
0.0155
 70
192
 0
VERTEX
 8
CA_ONES.1
 10
-1.2804
 20
0.0392
 30
0.0226
 70
192
 0
VERTEX
 8
CA_ONES.1
 10
-1.2804
 20
0.0552
 30
0.0318
 70
192
 0
VERTEX
 8
CA_ONES.1
 10
-1.2804
 20
0.0552
 30
0.0318
 70
192
 0
VERTEX
 8
CA_ONES.1
 10
1.2804
 20
0.0552
 30
0.0318
 70
192
 0
VERTEX
 8
CA_ONES.1
 10
1.2804
 20
0.0552
 30
0.0318
 70
192
 0
VERTEX
 8
CA_ONES.1
 10
1.2804
 20
0.0392
 30
0.0226
 70
192
 0
VERTEX
 8
CA_ONES.1
 10
1.2804
 20
0.0392
 30
0.0226
 70
192
 0
VERTEX
 8
CA_ONES.1
 10
-1.2804
 20
0.0392
 30
0.0226
 70
192
 0
VERTEX
 8
CA_ONES.1
 10
-1.2804
 20
0.0347
 30
0.0291
 70
192
 0
VERTEX
 8
CA_ONES.1
 10
-1.2804
 20
0.0488
 30
0.0409
 70
192
 0
VERTEX
 8
CA_ONES.1
 10
-1.2804
 20
0.0488
 30
0.0409
 70
192
 0
VERTEX
 8
CA_ONES.1
 10
1.2804
 20
0.0488
 30
0.0409
 70
192
 0
VERTEX
 8
CA_ONES.1
 10
1.2804
 20
0.0488
 30
0.0409
 70
192
 0
VERTEX
 8
CA_ONES.1
 10
1.2804
 20
0.0347
 30
0.0291
 70
192
 0
VERTEX
 8
CA_ONES.1
 10
1.2804
 20
0.0347
 30
0.0291
 70
192
 0
VERTEX
 8
CA_ONES.1
 10
-1.2804
 20
0.0347
 30
0.0291
 70
192
 0
VERTEX
 8
CA_ONES.1
 10
-1.2804
 20
0.0291
 30
0.0347
 70
192
 0
VERTEX
 8
CA_ONES.1
 10
-1.2804
 20
0.0409
 30
0.0488
 70
192
 0
VERTEX
 8
CA_ONES.1
 10
-1.2804
 20
0.0409
 30
0.0488
 70
192
 0
VERTEX
 8
CA_ONES.1
 10
1.2804
 20
0.0409
 30
0.0488
 70
192
 0
VERTEX
 8
CA_ONES.1
 10
1.2804
 20
0.0409
 30
0.0488
 70
192
 0
VERTEX
 8
CA_ONES.1
 10
1.2804
 20
0.0291
 30
0.0347
 70
192
 0
VERTEX
 8
CA_ONES.1
 10
1.2804
 20
0.0291
 30
0.0347
 70
192
 0
VERTEX
 8
CA_ONES.1
 10
-1.2804
 20
0.0291
 30
0.0347
 70
192
 0
VERTEX
 8
CA_ONES.1
 10
-1.2804
 20
0.0226
 30
0.0392
 70
192
 0
VERTEX
 8
CA_ONES.1
 10
-1.2804
 20
0.0318
 30
0.0552
 70
192
 0
VERTEX
 8
CA_ONES.1
 10
-1.2804
 20
0.0318
 30
0.0552
 70
192
 0
VERTEX
 8
CA_ONES.1
 10
1.2804
 20
0.0318
 30
0.0552
 70
192
 0
VERTEX
 8
CA_ONES.1
 10
1.2804
 20
0.0318
 30
0.0552
 70
192
 0
VERTEX
 8
CA_ONES.1
 10
1.2804
 20
0.0226
 30
0.0392
 70
192
 0
VERTEX
 8
CA_ONES.1
 10
1.2804
 20
0.0226
 30
0.0392
 70
192
 0
VERTEX
 8
CA_ONES.1
 10
-1.2804
 20
0.0226
 30
0.0392
 70
192
 0
VERTEX
 8
CA_ONES.1
 10
-1.2804
 20
0.0155
 30
0.0425
 70
192
 0
VERTEX
 8
CA_ONES.1
 10
-1.2804
 20
0.0218
 30
0.0599
 70
192
 0
VERTEX
 8
CA_ONES.1
 10
-1.2804
 20
0.0218
 30
0.0599
 70
192
 0
VERTEX
 8
CA_ONES.1
 10
1.2804
 20
0.0218
 30
0.0599
 70
192
 0
VERTEX
 8
CA_ONES.1
 10
1.2804
 20
0.0218
 30
0.0599
 70
192
 0
VERTEX
 8
CA_ONES.1
 10
1.2804
 20
0.0155
 30
0.0425
 70
192
 0
VERTEX
 8
CA_ONES.1
 10
1.2804
 20
0.0155
 30
0.0425
 70
192
 0
VERTEX
 8
CA_ONES.1
 10
-1.2804
 20
0.0155
 30
0.0425
 70
192
 0
VERTEX
 8
CA_ONES.1
 10
-1.2804
 20
0.0079
 30
0.0446
 70
192
 0
VERTEX
 8
CA_ONES.1
 10
-1.2804
 20
0.0111
 30
0.0627
 70
192
 0
VERTEX
 8
CA_ONES.1
 10
-1.2804
 20
0.0111
 30
0.0627
 70
192
 0
VERTEX
 8
CA_ONES.1
 10
1.2804
 20
0.0111
 30
0.0627
 70
192
 0
VERTEX
 8
CA_ONES.1
 10
1.2804
 20
0.0111
 30
0.0627
 70
192
 0
VERTEX
 8
CA_ONES.1
 10
1.2804
 20
0.0079
 30
0.0446
 70
192
 0
VERTEX
 8
CA_ONES.1
 10
1.2804
 20
0.0079
 30
0.0446
 70
192
 0
VERTEX
 8
CA_ONES.1
 10
-1.2804
 20
0.0079
 30
0.0446
 70
192
 0
VERTEX
 8
CA_ONES.1
 10
-1.2804
 20
0
 30
0.0453
 70
192
 0
VERTEX
 8
CA_ONES.1
 10
-1.2804
 20
0
 30
0.0637
 70
192
 0
VERTEX
 8
CA_ONES.1
 10
-1.2804
 20
0
 30
0.0637
 70
192
 0
VERTEX
 8
CA_ONES.1
 10
1.2804
 20
0
 30
0.0637
 70
192
 0
VERTEX
 8
CA_ONES.1
 10
1.2804
 20
0
 30
0.0637
 70
192
 0
VERTEX
 8
CA_ONES.1
 10
1.2804
 20
0
 30
0.0453
 70
192
 0
VERTEX
 8
CA_ONES.1
 10
1.2804
 20
0
 30
0.0453
 70
192
 0
VERTEX
 8
CA_ONES.1
 10
-1.2804
 20
0
 30
0.0453
 70
192
 0
VERTEX
 8
CA_ONES.1
 10
-1.2804
 20
-0.0079
 30
0.0446
 70
192
 0
VERTEX
 8
CA_ONES.1
 10
-1.2804
 20
-0.0111
 30
0.0627
 70
192
 0
VERTEX
 8
CA_ONES.1
 10
-1.2804
 20
-0.0111
 30
0.0627
 70
192
 0
VERTEX
 8
CA_ONES.1
 10
1.2804
 20
-0.0111
 30
0.0627
 70
192
 0
VERTEX
 8
CA_ONES.1
 10
1.2804
 20
-0.0111
 30
0.0627
 70
192
 0
VERTEX
 8
CA_ONES.1
 10
1.2804
 20
-0.0079
 30
0.0446
 70
192
 0
VERTEX
 8
CA_ONES.1
 10
1.2804
 20
-0.0079
 30
0.0446
 70
192
 0
VERTEX
 8
CA_ONES.1
 10
-1.2804
 20
-0.0079
 30
0.0446
 70
192
 0
VERTEX
 8
CA_ONES.1
 10
-1.2804
 20
-0.0155
 30
0.0425
 70
192
 0
VERTEX
 8
CA_ONES.1
 10
-1.2804
 20
-0.0218
 30
0.0599
 70
192
 0
VERTEX
 8
CA_ONES.1
 10
-1.2804
 20
-0.0218
 30
0.0599
 70
192
 0
VERTEX
 8
CA_ONES.1
 10
1.2804
 20
-0.0218
 30
0.0599
 70
192
 0
VERTEX
 8
CA_ONES.1
 10
1.2804
 20
-0.0218
 30
0.0599
 70
192
 0
VERTEX
 8
CA_ONES.1
 10
1.2804
 20
-0.0155
 30
0.0425
 70
192
 0
VERTEX
 8
CA_ONES.1
 10
1.2804
 20
-0.0155
 30
0.0425
 70
192
 0
VERTEX
 8
CA_ONES.1
 10
-1.2804
 20
-0.0155
 30
0.0425
 70
192
 0
VERTEX
 8
CA_ONES.1
 10
-1.2804
 20
-0.0226
 30
0.0392
 70
192
 0
VERTEX
 8
CA_ONES.1
 10
-1.2804
 20
-0.0318
 30
0.0552
 70
192
 0
VERTEX
 8
CA_ONES.1
 10
-1.2804
 20
-0.0318
 30
0.0552
 70
192
 0
VERTEX
 8
CA_ONES.1
 10
1.2804
 20
-0.0318
 30
0.0552
 70
192
 0
VERTEX
 8
CA_ONES.1
 10
1.2804
 20
-0.0318
 30
0.0552
 70
192
 0
VERTEX
 8
CA_ONES.1
 10
1.2804
 20
-0.0226
 30
0.0392
 70
192
 0
VERTEX
 8
CA_ONES.1
 10
1.2804
 20
-0.0226
 30
0.0392
 70
192
 0
VERTEX
 8
CA_ONES.1
 10
-1.2804
 20
-0.0226
 30
0.0392
 70
192
 0
VERTEX
 8
CA_ONES.1
 10
-1.2804
 20
-0.0291
 30
0.0347
 70
192
 0
VERTEX
 8
CA_ONES.1
 10
-1.2804
 20
-0.0409
 30
0.0488
 70
192
 0
VERTEX
 8
CA_ONES.1
 10
-1.2804
 20
-0.0409
 30
0.0488
 70
192
 0
VERTEX
 8
CA_ONES.1
 10
1.2804
 20
-0.0409
 30
0.0488
 70
192
 0
VERTEX
 8
CA_ONES.1
 10
1.2804
 20
-0.0409
 30
0.0488
 70
192
 0
VERTEX
 8
CA_ONES.1
 10
1.2804
 20
-0.0291
 30
0.0347
 70
192
 0
VERTEX
 8
CA_ONES.1
 10
1.2804
 20
-0.0291
 30
0.0347
 70
192
 0
VERTEX
 8
CA_ONES.1
 10
-1.2804
 20
-0.0291
 30
0.0347
 70
192
 0
VERTEX
 8
CA_ONES.1
 10
-1.2804
 20
-0.0347
 30
0.0291
 70
192
 0
VERTEX
 8
CA_ONES.1
 10
-1.2804
 20
-0.0488
 30
0.0409
 70
192
 0
VERTEX
 8
CA_ONES.1
 10
-1.2804
 20
-0.0488
 30
0.0409
 70
192
 0
VERTEX
 8
CA_ONES.1
 10
1.2804
 20
-0.0488
 30
0.0409
 70
192
 0
VERTEX
 8
CA_ONES.1
 10
1.2804
 20
-0.0488
 30
0.0409
 70
192
 0
VERTEX
 8
CA_ONES.1
 10
1.2804
 20
-0.0347
 30
0.0291
 70
192
 0
VERTEX
 8
CA_ONES.1
 10
1.2804
 20
-0.0347
 30
0.0291
 70
192
 0
VERTEX
 8
CA_ONES.1
 10
-1.2804
 20
-0.0347
 30
0.0291
 70
192
 0
VERTEX
 8
CA_ONES.1
 10
-1.2804
 20
-0.0392
 30
0.0226
 70
192
 0
VERTEX
 8
CA_ONES.1
 10
-1.2804
 20
-0.0552
 30
0.0318
 70
192
 0
VERTEX
 8
CA_ONES.1
 10
-1.2804
 20
-0.0552
 30
0.0318
 70
192
 0
VERTEX
 8
CA_ONES.1
 10
1.2804
 20
-0.0552
 30
0.0318
 70
192
 0
VERTEX
 8
CA_ONES.1
 10
1.2804
 20
-0.0552
 30
0.0318
 70
192
 0
VERTEX
 8
CA_ONES.1
 10
1.2804
 20
-0.0392
 30
0.0226
 70
192
 0
VERTEX
 8
CA_ONES.1
 10
1.2804
 20
-0.0392
 30
0.0226
 70
192
 0
VERTEX
 8
CA_ONES.1
 10
-1.2804
 20
-0.0392
 30
0.0226
 70
192
 0
VERTEX
 8
CA_ONES.1
 10
-1.2804
 20
-0.0425
 30
0.0155
 70
192
 0
VERTEX
 8
CA_ONES.1
 10
-1.2804
 20
-0.0599
 30
0.0218
 70
192
 0
VERTEX
 8
CA_ONES.1
 10
-1.2804
 20
-0.0599
 30
0.0218
 70
192
 0
VERTEX
 8
CA_ONES.1
 10
1.2804
 20
-0.0599
 30
0.0218
 70
192
 0
VERTEX
 8
CA_ONES.1
 10
1.2804
 20
-0.0599
 30
0.0218
 70
192
 0
VERTEX
 8
CA_ONES.1
 10
1.2804
 20
-0.0425
 30
0.0155
 70
192
 0
VERTEX
 8
CA_ONES.1
 10
1.2804
 20
-0.0425
 30
0.0155
 70
192
 0
VERTEX
 8
CA_ONES.1
 10
-1.2804
 20
-0.0425
 30
0.0155
 70
192
 0
VERTEX
 8
CA_ONES.1
 10
-1.2804
 20
-0.0446
 30
0.0079
 70
192
 0
VERTEX
 8
CA_ONES.1
 10
-1.2804
 20
-0.0627
 30
0.0111
 70
192
 0
VERTEX
 8
CA_ONES.1
 10
-1.2804
 20
-0.0627
 30
0.0111
 70
192
 0
VERTEX
 8
CA_ONES.1
 10
1.2804
 20
-0.0627
 30
0.0111
 70
192
 0
VERTEX
 8
CA_ONES.1
 10
1.2804
 20
-0.0627
 30
0.0111
 70
192
 0
VERTEX
 8
CA_ONES.1
 10
1.2804
 20
-0.0446
 30
0.0079
 70
192
 0
VERTEX
 8
CA_ONES.1
 10
1.2804
 20
-0.0446
 30
0.0079
 70
192
 0
VERTEX
 8
CA_ONES.1
 10
-1.2804
 20
-0.0446
 30
0.0079
 70
192
 0
VERTEX
 8
CA_ONES.1
 10
-1.2804
 20
-0.0453
 30
0
 70
192
 0
VERTEX
 8
CA_ONES.1
 10
-1.2804
 20
-0.0637
 30
0
 70
192
 0
VERTEX
 8
CA_ONES.1
 10
-1.2804
 20
-0.0637
 30
0
 70
192
 0
VERTEX
 8
CA_ONES.1
 10
1.2804
 20
-0.0637
 30
0
 70
192
 0
VERTEX
 8
CA_ONES.1
 10
1.2804
 20
-0.0637
 30
0
 70
192
 0
VERTEX
 8
CA_ONES.1
 10
1.2804
 20
-0.0453
 30
0
 70
192
 0
VERTEX
 8
CA_ONES.1
 10
1.2804
 20
-0.0453
 30
0
 70
192
 0
VERTEX
 8
CA_ONES.1
 10
-1.2804
 20
-0.0453
 30
0
 70
192
 0
VERTEX
 8
CA_ONES.1
 10
-1.2804
 20
-0.0446
 30
-0.0079
 70
192
 0
VERTEX
 8
CA_ONES.1
 10
-1.2804
 20
-0.0627
 30
-0.0111
 70
192
 0
VERTEX
 8
CA_ONES.1
 10
-1.2804
 20
-0.0627
 30
-0.0111
 70
192
 0
VERTEX
 8
CA_ONES.1
 10
1.2804
 20
-0.0627
 30
-0.0111
 70
192
 0
VERTEX
 8
CA_ONES.1
 10
1.2804
 20
-0.0627
 30
-0.0111
 70
192
 0
VERTEX
 8
CA_ONES.1
 10
1.2804
 20
-0.0446
 30
-0.0079
 70
192
 0
VERTEX
 8
CA_ONES.1
 10
1.2804
 20
-0.0446
 30
-0.0079
 70
192
 0
VERTEX
 8
CA_ONES.1
 10
-1.2804
 20
-0.0446
 30
-0.0079
 70
192
 0
VERTEX
 8
CA_ONES.1
 10
-1.2804
 20
-0.0425
 30
-0.0155
 70
192
 0
VERTEX
 8
CA_ONES.1
 10
-1.2804
 20
-0.0599
 30
-0.0218
 70
192
 0
VERTEX
 8
CA_ONES.1
 10
-1.2804
 20
-0.0599
 30
-0.0218
 70
192
 0
VERTEX
 8
CA_ONES.1
 10
1.2804
 20
-0.0599
 30
-0.0218
 70
192
 0
VERTEX
 8
CA_ONES.1
 10
1.2804
 20
-0.0599
 30
-0.0218
 70
192
 0
VERTEX
 8
CA_ONES.1
 10
1.2804
 20
-0.0425
 30
-0.0155
 70
192
 0
VERTEX
 8
CA_ONES.1
 10
1.2804
 20
-0.0425
 30
-0.0155
 70
192
 0
VERTEX
 8
CA_ONES.1
 10
-1.2804
 20
-0.0425
 30
-0.0155
 70
192
 0
VERTEX
 8
CA_ONES.1
 10
-1.2804
 20
-0.0392
 30
-0.0226
 70
192
 0
VERTEX
 8
CA_ONES.1
 10
-1.2804
 20
-0.0552
 30
-0.0318
 70
192
 0
VERTEX
 8
CA_ONES.1
 10
-1.2804
 20
-0.0552
 30
-0.0318
 70
192
 0
VERTEX
 8
CA_ONES.1
 10
1.2804
 20
-0.0552
 30
-0.0318
 70
192
 0
VERTEX
 8
CA_ONES.1
 10
1.2804
 20
-0.0552
 30
-0.0318
 70
192
 0
VERTEX
 8
CA_ONES.1
 10
1.2804
 20
-0.0392
 30
-0.0226
 70
192
 0
VERTEX
 8
CA_ONES.1
 10
1.2804
 20
-0.0392
 30
-0.0226
 70
192
 0
VERTEX
 8
CA_ONES.1
 10
-1.2804
 20
-0.0392
 30
-0.0226
 70
192
 0
VERTEX
 8
CA_ONES.1
 10
-1.2804
 20
-0.0347
 30
-0.0291
 70
192
 0
VERTEX
 8
CA_ONES.1
 10
-1.2804
 20
-0.0488
 30
-0.0409
 70
192
 0
VERTEX
 8
CA_ONES.1
 10
-1.2804
 20
-0.0488
 30
-0.0409
 70
192
 0
VERTEX
 8
CA_ONES.1
 10
1.2804
 20
-0.0488
 30
-0.0409
 70
192
 0
VERTEX
 8
CA_ONES.1
 10
1.2804
 20
-0.0488
 30
-0.0409
 70
192
 0
VERTEX
 8
CA_ONES.1
 10
1.2804
 20
-0.0347
 30
-0.0291
 70
192
 0
VERTEX
 8
CA_ONES.1
 10
1.2804
 20
-0.0347
 30
-0.0291
 70
192
 0
VERTEX
 8
CA_ONES.1
 10
-1.2804
 20
-0.0347
 30
-0.0291
 70
192
 0
VERTEX
 8
CA_ONES.1
 10
-1.2804
 20
-0.0291
 30
-0.0347
 70
192
 0
VERTEX
 8
CA_ONES.1
 10
-1.2804
 20
-0.0409
 30
-0.0488
 70
192
 0
VERTEX
 8
CA_ONES.1
 10
-1.2804
 20
-0.0409
 30
-0.0488
 70
192
 0
VERTEX
 8
CA_ONES.1
 10
1.2804
 20
-0.0409
 30
-0.0488
 70
192
 0
VERTEX
 8
CA_ONES.1
 10
1.2804
 20
-0.0409
 30
-0.0488
 70
192
 0
VERTEX
 8
CA_ONES.1
 10
1.2804
 20
-0.0291
 30
-0.0347
 70
192
 0
VERTEX
 8
CA_ONES.1
 10
1.2804
 20
-0.0291
 30
-0.0347
 70
192
 0
VERTEX
 8
CA_ONES.1
 10
-1.2804
 20
-0.0291
 30
-0.0347
 70
192
 0
VERTEX
 8
CA_ONES.1
 10
-1.2804
 20
-0.0226
 30
-0.0392
 70
192
 0
VERTEX
 8
CA_ONES.1
 10
-1.2804
 20
-0.0318
 30
-0.0552
 70
192
 0
VERTEX
 8
CA_ONES.1
 10
-1.2804
 20
-0.0318
 30
-0.0552
 70
192
 0
VERTEX
 8
CA_ONES.1
 10
1.2804
 20
-0.0318
 30
-0.0552
 70
192
 0
VERTEX
 8
CA_ONES.1
 10
1.2804
 20
-0.0318
 30
-0.0552
 70
192
 0
VERTEX
 8
CA_ONES.1
 10
1.2804
 20
-0.0226
 30
-0.0392
 70
192
 0
VERTEX
 8
CA_ONES.1
 10
1.2804
 20
-0.0226
 30
-0.0392
 70
192
 0
VERTEX
 8
CA_ONES.1
 10
-1.2804
 20
-0.0226
 30
-0.0392
 70
192
 0
VERTEX
 8
CA_ONES.1
 10
-1.2804
 20
-0.0155
 30
-0.0425
 70
192
 0
VERTEX
 8
CA_ONES.1
 10
-1.2804
 20
-0.0218
 30
-0.0599
 70
192
 0
VERTEX
 8
CA_ONES.1
 10
-1.2804
 20
-0.0218
 30
-0.0599
 70
192
 0
VERTEX
 8
CA_ONES.1
 10
1.2804
 20
-0.0218
 30
-0.0599
 70
192
 0
VERTEX
 8
CA_ONES.1
 10
1.2804
 20
-0.0218
 30
-0.0599
 70
192
 0
VERTEX
 8
CA_ONES.1
 10
1.2804
 20
-0.0155
 30
-0.0425
 70
192
 0
VERTEX
 8
CA_ONES.1
 10
1.2804
 20
-0.0155
 30
-0.0425
 70
192
 0
VERTEX
 8
CA_ONES.1
 10
-1.2804
 20
-0.0155
 30
-0.0425
 70
192
 0
VERTEX
 8
CA_ONES.1
 10
-1.2804
 20
-0.0079
 30
-0.0446
 70
192
 0
VERTEX
 8
CA_ONES.1
 10
-1.2804
 20
-0.0111
 30
-0.0627
 70
192
 0
VERTEX
 8
CA_ONES.1
 10
-1.2804
 20
-0.0111
 30
-0.0627
 70
192
 0
VERTEX
 8
CA_ONES.1
 10
1.2804
 20
-0.0111
 30
-0.0627
 70
192
 0
VERTEX
 8
CA_ONES.1
 10
1.2804
 20
-0.0111
 30
-0.0627
 70
192
 0
VERTEX
 8
CA_ONES.1
 10
1.2804
 20
-0.0079
 30
-0.0446
 70
192
 0
VERTEX
 8
CA_ONES.1
 10
1.2804
 20
-0.0079
 30
-0.0446
 70
192
 0
VERTEX
 8
CA_ONES.1
 10
-1.2804
 20
-0.0079
 30
-0.0446
 70
192
 0
VERTEX
 8
CA_ONES.1
 10
-1.2714
 20
0.0488
 30
-0.0237
 70
192
 0
VERTEX
 8
CA_ONES.1
 10
-1.2714
 20
0.0488
 30
0.0237
 70
192
 0
VERTEX
 8
CA_ONES.1
 10
1.2714
 20
0.0488
 30
-0.0237
 70
192
 0
VERTEX
 8
CA_ONES.1
 10
1.2714
 20
0.0488
 30
0.0237
 70
192
 0
VERTEX
 8
CA_ONES.1
 10
1.2714
 20
0.0783
 30
-0.0237
 70
192
 0
VERTEX
 8
CA_ONES.1
 10
1.2714
 20
0.0783
 30
0.0237
 70
192
 0
VERTEX
 8
CA_ONES.1
 10
-1.2714
 20
0.0783
 30
-0.0237
 70
192
 0
VERTEX
 8
CA_ONES.1
 10
-1.2714
 20
0.0783
 30
0.0237
 70
192
 0
VERTEX
 8
CA_ONES.1
 10
0
 20
0
 30
0
 70
128
 71
1
 72
2
 73
5
 74
4
 0
VERTEX
 8
CA_ONES.1
 10
0
 20
0
 30
0
 70
128
 71
4
 72
5
 73
8
 74
7
 0
VERTEX
 8
CA_ONES.1
 10
0
 20
0
 30
0
 70
128
 71
2
 72
3
 73
6
 74
5
 0
VERTEX
 8
CA_ONES.1
 10
0
 20
0
 30
0
 70
128
 71
5
 72
6
 73
9
 74
8
 0
VERTEX
 8
CA_ONES.1
 10
0
 20
0
 30
0
 70
128
 71
7
 72
8
 73
11
 74
10
 0
VERTEX
 8
CA_ONES.1
 10
0
 20
0
 30
0
 70
128
 71
10
 72
11
 73
14
 74
13
 0
VERTEX
 8
CA_ONES.1
 10
0
 20
0
 30
0
 70
128
 71
8
 72
9
 73
12
 74
11
 0
VERTEX
 8
CA_ONES.1
 10
0
 20
0
 30
0
 70
128
 71
11
 72
12
 73
15
 74
14
 0
VERTEX
 8
CA_ONES.1
 10
0
 20
0
 30
0
 70
128
 71
13
 72
14
 73
17
 74
16
 0
VERTEX
 8
CA_ONES.1
 10
0
 20
0
 30
0
 70
128
 71
16
 72
17
 73
20
 74
19
 0
VERTEX
 8
CA_ONES.1
 10
0
 20
0
 30
0
 70
128
 71
14
 72
15
 73
18
 74
17
 0
VERTEX
 8
CA_ONES.1
 10
0
 20
0
 30
0
 70
128
 71
17
 72
18
 73
21
 74
20
 0
VERTEX
 8
CA_ONES.1
 10
0
 20
0
 30
0
 70
128
 71
19
 72
20
 73
23
 74
22
 0
VERTEX
 8
CA_ONES.1
 10
0
 20
0
 30
0
 70
128
 71
22
 72
23
 73
2
 74
1
 0
VERTEX
 8
CA_ONES.1
 10
0
 20
0
 30
0
 70
128
 71
20
 72
21
 73
24
 74
23
 0
VERTEX
 8
CA_ONES.1
 10
0
 20
0
 30
0
 70
128
 71
23
 72
24
 73
3
 74
2
 0
VERTEX
 8
CA_ONES.1
 10
0
 20
0
 30
0
 70
128
 71
3
 72
24
 73
25
 74
6
 0
VERTEX
 8
CA_ONES.1
 10
0
 20
0
 30
0
 70
128
 71
6
 72
25
 73
12
 74
9
 0
VERTEX
 8
CA_ONES.1
 10
0
 20
0
 30
0
 70
128
 71
24
 72
21
 73
18
 74
25
 0
VERTEX
 8
CA_ONES.1
 10
0
 20
0
 30
0
 70
128
 71
25
 72
18
 73
15
 74
12
 0
VERTEX
 8
CA_ONES.1
 10
0
 20
0
 30
0
 70
128
 71
48
 72
52
 73
30
 74
27
 0
VERTEX
 8
CA_ONES.1
 10
0
 20
0
 30
0
 70
128
 71
45
 72
42
 73
52
 74
48
 0
VERTEX
 8
CA_ONES.1
 10
0
 20
0
 30
0
 70
128
 71
52
 72
36
 73
33
 74
30
 0
VERTEX
 8
CA_ONES.1
 10
0
 20
0
 30
0
 70
128
 71
42
 72
39
 73
36
 74
52
 0
VERTEX
 8
CA_ONES.1
 10
0
 20
0
 30
0
 70
128
 71
27
 72
30
 73
31
 74
28
 0
VERTEX
 8
CA_ONES.1
 10
0
 20
0
 30
0
 70
128
 71
30
 72
33
 73
34
 74
31
 0
VERTEX
 8
CA_ONES.1
 10
0
 20
0
 30
0
 70
128
 71
28
 72
31
 73
32
 74
29
 0
VERTEX
 8
CA_ONES.1
 10
0
 20
0
 30
0
 70
128
 71
31
 72
34
 73
35
 74
32
 0
VERTEX
 8
CA_ONES.1
 10
0
 20
0
 30
0
 70
128
 71
33
 72
36
 73
37
 74
34
 0
VERTEX
 8
CA_ONES.1
 10
0
 20
0
 30
0
 70
128
 71
36
 72
39
 73
40
 74
37
 0
VERTEX
 8
CA_ONES.1
 10
0
 20
0
 30
0
 70
128
 71
34
 72
37
 73
38
 74
35
 0
VERTEX
 8
CA_ONES.1
 10
0
 20
0
 30
0
 70
128
 71
37
 72
40
 73
41
 74
38
 0
VERTEX
 8
CA_ONES.1
 10
0
 20
0
 30
0
 70
128
 71
39
 72
42
 73
43
 74
40
 0
VERTEX
 8
CA_ONES.1
 10
0
 20
0
 30
0
 70
128
 71
42
 72
45
 73
46
 74
43
 0
VERTEX
 8
CA_ONES.1
 10
0
 20
0
 30
0
 70
128
 71
40
 72
43
 73
44
 74
41
 0
VERTEX
 8
CA_ONES.1
 10
0
 20
0
 30
0
 70
128
 71
43
 72
46
 73
47
 74
44
 0
VERTEX
 8
CA_ONES.1
 10
0
 20
0
 30
0
 70
128
 71
45
 72
48
 73
49
 74
46
 0
VERTEX
 8
CA_ONES.1
 10
0
 20
0
 30
0
 70
128
 71
48
 72
27
 73
28
 74
49
 0
VERTEX
 8
CA_ONES.1
 10
0
 20
0
 30
0
 70
128
 71
46
 72
49
 73
50
 74
47
 0
VERTEX
 8
CA_ONES.1
 10
0
 20
0
 30
0
 70
128
 71
49
 72
28
 73
29
 74
50
 0
VERTEX
 8
CA_ONES.1
 10
0
 20
0
 30
0
 70
128
 71
29
 72
32
 73
51
 74
50
 0
VERTEX
 8
CA_ONES.1
 10
0
 20
0
 30
0
 70
128
 71
32
 72
35
 73
38
 74
51
 0
VERTEX
 8
CA_ONES.1
 10
0
 20
0
 30
0
 70
128
 71
50
 72
51
 73
44
 74
47
 0
VERTEX
 8
CA_ONES.1
 10
0
 20
0
 30
0
 70
128
 71
51
 72
38
 73
41
 74
44
 0
VERTEX
 8
CA_ONES.1
 10
0
 20
0
 30
0
 70
128
 71
53
 72
54
 73
62
 74
61
 0
VERTEX
 8
CA_ONES.1
 10
0
 20
0
 30
0
 70
128
 71
55
 72
56
 73
64
 74
63
 0
VERTEX
 8
CA_ONES.1
 10
0
 20
0
 30
0
 70
128
 71
57
 72
58
 73
66
 74
65
 0
VERTEX
 8
CA_ONES.1
 10
0
 20
0
 30
0
 70
128
 71
59
 72
60
 73
68
 74
67
 0
VERTEX
 8
CA_ONES.1
 10
0
 20
0
 30
0
 70
128
 71
61
 72
62
 73
70
 74
69
 0
VERTEX
 8
CA_ONES.1
 10
0
 20
0
 30
0
 70
128
 71
63
 72
64
 73
72
 74
71
 0
VERTEX
 8
CA_ONES.1
 10
0
 20
0
 30
0
 70
128
 71
65
 72
66
 73
74
 74
73
 0
VERTEX
 8
CA_ONES.1
 10
0
 20
0
 30
0
 70
128
 71
67
 72
68
 73
76
 74
75
 0
VERTEX
 8
CA_ONES.1
 10
0
 20
0
 30
0
 70
128
 71
69
 72
70
 73
78
 74
77
 0
VERTEX
 8
CA_ONES.1
 10
0
 20
0
 30
0
 70
128
 71
71
 72
72
 73
80
 74
79
 0
VERTEX
 8
CA_ONES.1
 10
0
 20
0
 30
0
 70
128
 71
73
 72
74
 73
82
 74
81
 0
VERTEX
 8
CA_ONES.1
 10
0
 20
0
 30
0
 70
128
 71
75
 72
76
 73
84
 74
83
 0
VERTEX
 8
CA_ONES.1
 10
0
 20
0
 30
0
 70
128
 71
77
 72
78
 73
86
 74
85
 0
VERTEX
 8
CA_ONES.1
 10
0
 20
0
 30
0
 70
128
 71
79
 72
80
 73
88
 74
87
 0
VERTEX
 8
CA_ONES.1
 10
0
 20
0
 30
0
 70
128
 71
81
 72
82
 73
90
 74
89
 0
VERTEX
 8
CA_ONES.1
 10
0
 20
0
 30
0
 70
128
 71
83
 72
84
 73
92
 74
91
 0
VERTEX
 8
CA_ONES.1
 10
0
 20
0
 30
0
 70
128
 71
85
 72
86
 73
94
 74
93
 0
VERTEX
 8
CA_ONES.1
 10
0
 20
0
 30
0
 70
128
 71
87
 72
88
 73
96
 74
95
 0
VERTEX
 8
CA_ONES.1
 10
0
 20
0
 30
0
 70
128
 71
89
 72
90
 73
98
 74
97
 0
VERTEX
 8
CA_ONES.1
 10
0
 20
0
 30
0
 70
128
 71
91
 72
92
 73
100
 74
99
 0
VERTEX
 8
CA_ONES.1
 10
0
 20
0
 30
0
 70
128
 71
93
 72
94
 73
102
 74
101
 0
VERTEX
 8
CA_ONES.1
 10
0
 20
0
 30
0
 70
128
 71
95
 72
96
 73
104
 74
103
 0
VERTEX
 8
CA_ONES.1
 10
0
 20
0
 30
0
 70
128
 71
97
 72
98
 73
106
 74
105
 0
VERTEX
 8
CA_ONES.1
 10
0
 20
0
 30
0
 70
128
 71
99
 72
100
 73
108
 74
107
 0
VERTEX
 8
CA_ONES.1
 10
0
 20
0
 30
0
 70
128
 71
101
 72
102
 73
110
 74
109
 0
VERTEX
 8
CA_ONES.1
 10
0
 20
0
 30
0
 70
128
 71
103
 72
104
 73
112
 74
111
 0
VERTEX
 8
CA_ONES.1
 10
0
 20
0
 30
0
 70
128
 71
105
 72
106
 73
114
 74
113
 0
VERTEX
 8
CA_ONES.1
 10
0
 20
0
 30
0
 70
128
 71
107
 72
108
 73
116
 74
115
 0
VERTEX
 8
CA_ONES.1
 10
0
 20
0
 30
0
 70
128
 71
109
 72
110
 73
118
 74
117
 0
VERTEX
 8
CA_ONES.1
 10
0
 20
0
 30
0
 70
128
 71
111
 72
112
 73
120
 74
119
 0
VERTEX
 8
CA_ONES.1
 10
0
 20
0
 30
0
 70
128
 71
113
 72
114
 73
122
 74
121
 0
VERTEX
 8
CA_ONES.1
 10
0
 20
0
 30
0
 70
128
 71
115
 72
116
 73
124
 74
123
 0
VERTEX
 8
CA_ONES.1
 10
0
 20
0
 30
0
 70
128
 71
117
 72
118
 73
126
 74
125
 0
VERTEX
 8
CA_ONES.1
 10
0
 20
0
 30
0
 70
128
 71
119
 72
120
 73
128
 74
127
 0
VERTEX
 8
CA_ONES.1
 10
0
 20
0
 30
0
 70
128
 71
121
 72
122
 73
130
 74
129
 0
VERTEX
 8
CA_ONES.1
 10
0
 20
0
 30
0
 70
128
 71
123
 72
124
 73
132
 74
131
 0
VERTEX
 8
CA_ONES.1
 10
0
 20
0
 30
0
 70
128
 71
125
 72
126
 73
134
 74
133
 0
VERTEX
 8
CA_ONES.1
 10
0
 20
0
 30
0
 70
128
 71
127
 72
128
 73
136
 74
135
 0
VERTEX
 8
CA_ONES.1
 10
0
 20
0
 30
0
 70
128
 71
129
 72
130
 73
138
 74
137
 0
VERTEX
 8
CA_ONES.1
 10
0
 20
0
 30
0
 70
128
 71
131
 72
132
 73
140
 74
139
 0
VERTEX
 8
CA_ONES.1
 10
0
 20
0
 30
0
 70
128
 71
133
 72
134
 73
142
 74
141
 0
VERTEX
 8
CA_ONES.1
 10
0
 20
0
 30
0
 70
128
 71
135
 72
136
 73
144
 74
143
 0
VERTEX
 8
CA_ONES.1
 10
0
 20
0
 30
0
 70
128
 71
137
 72
138
 73
146
 74
145
 0
VERTEX
 8
CA_ONES.1
 10
0
 20
0
 30
0
 70
128
 71
139
 72
140
 73
148
 74
147
 0
VERTEX
 8
CA_ONES.1
 10
0
 20
0
 30
0
 70
128
 71
141
 72
142
 73
150
 74
149
 0
VERTEX
 8
CA_ONES.1
 10
0
 20
0
 30
0
 70
128
 71
143
 72
144
 73
152
 74
151
 0
VERTEX
 8
CA_ONES.1
 10
0
 20
0
 30
0
 70
128
 71
145
 72
146
 73
154
 74
153
 0
VERTEX
 8
CA_ONES.1
 10
0
 20
0
 30
0
 70
128
 71
147
 72
148
 73
156
 74
155
 0
VERTEX
 8
CA_ONES.1
 10
0
 20
0
 30
0
 70
128
 71
149
 72
150
 73
158
 74
157
 0
VERTEX
 8
CA_ONES.1
 10
0
 20
0
 30
0
 70
128
 71
151
 72
152
 73
160
 74
159
 0
VERTEX
 8
CA_ONES.1
 10
0
 20
0
 30
0
 70
128
 71
153
 72
154
 73
162
 74
161
 0
VERTEX
 8
CA_ONES.1
 10
0
 20
0
 30
0
 70
128
 71
155
 72
156
 73
164
 74
163
 0
VERTEX
 8
CA_ONES.1
 10
0
 20
0
 30
0
 70
128
 71
157
 72
158
 73
166
 74
165
 0
VERTEX
 8
CA_ONES.1
 10
0
 20
0
 30
0
 70
128
 71
159
 72
160
 73
168
 74
167
 0
VERTEX
 8
CA_ONES.1
 10
0
 20
0
 30
0
 70
128
 71
161
 72
162
 73
170
 74
169
 0
VERTEX
 8
CA_ONES.1
 10
0
 20
0
 30
0
 70
128
 71
163
 72
164
 73
172
 74
171
 0
VERTEX
 8
CA_ONES.1
 10
0
 20
0
 30
0
 70
128
 71
165
 72
166
 73
174
 74
173
 0
VERTEX
 8
CA_ONES.1
 10
0
 20
0
 30
0
 70
128
 71
167
 72
168
 73
176
 74
175
 0
VERTEX
 8
CA_ONES.1
 10
0
 20
0
 30
0
 70
128
 71
169
 72
170
 73
178
 74
177
 0
VERTEX
 8
CA_ONES.1
 10
0
 20
0
 30
0
 70
128
 71
171
 72
172
 73
180
 74
179
 0
VERTEX
 8
CA_ONES.1
 10
0
 20
0
 30
0
 70
128
 71
173
 72
174
 73
182
 74
181
 0
VERTEX
 8
CA_ONES.1
 10
0
 20
0
 30
0
 70
128
 71
175
 72
176
 73
184
 74
183
 0
VERTEX
 8
CA_ONES.1
 10
0
 20
0
 30
0
 70
128
 71
177
 72
178
 73
186
 74
185
 0
VERTEX
 8
CA_ONES.1
 10
0
 20
0
 30
0
 70
128
 71
179
 72
180
 73
188
 74
187
 0
VERTEX
 8
CA_ONES.1
 10
0
 20
0
 30
0
 70
128
 71
181
 72
182
 73
190
 74
189
 0
VERTEX
 8
CA_ONES.1
 10
0
 20
0
 30
0
 70
128
 71
183
 72
184
 73
192
 74
191
 0
VERTEX
 8
CA_ONES.1
 10
0
 20
0
 30
0
 70
128
 71
185
 72
186
 73
194
 74
193
 0
VERTEX
 8
CA_ONES.1
 10
0
 20
0
 30
0
 70
128
 71
187
 72
188
 73
196
 74
195
 0
VERTEX
 8
CA_ONES.1
 10
0
 20
0
 30
0
 70
128
 71
189
 72
190
 73
198
 74
197
 0
VERTEX
 8
CA_ONES.1
 10
0
 20
0
 30
0
 70
128
 71
191
 72
192
 73
200
 74
199
 0
VERTEX
 8
CA_ONES.1
 10
0
 20
0
 30
0
 70
128
 71
193
 72
194
 73
202
 74
201
 0
VERTEX
 8
CA_ONES.1
 10
0
 20
0
 30
0
 70
128
 71
195
 72
196
 73
204
 74
203
 0
VERTEX
 8
CA_ONES.1
 10
0
 20
0
 30
0
 70
128
 71
197
 72
198
 73
206
 74
205
 0
VERTEX
 8
CA_ONES.1
 10
0
 20
0
 30
0
 70
128
 71
199
 72
200
 73
208
 74
207
 0
VERTEX
 8
CA_ONES.1
 10
0
 20
0
 30
0
 70
128
 71
201
 72
202
 73
210
 74
209
 0
VERTEX
 8
CA_ONES.1
 10
0
 20
0
 30
0
 70
128
 71
203
 72
204
 73
212
 74
211
 0
VERTEX
 8
CA_ONES.1
 10
0
 20
0
 30
0
 70
128
 71
205
 72
206
 73
214
 74
213
 0
VERTEX
 8
CA_ONES.1
 10
0
 20
0
 30
0
 70
128
 71
207
 72
208
 73
216
 74
215
 0
VERTEX
 8
CA_ONES.1
 10
0
 20
0
 30
0
 70
128
 71
209
 72
210
 73
218
 74
217
 0
VERTEX
 8
CA_ONES.1
 10
0
 20
0
 30
0
 70
128
 71
211
 72
212
 73
220
 74
219
 0
VERTEX
 8
CA_ONES.1
 10
0
 20
0
 30
0
 70
128
 71
213
 72
214
 73
222
 74
221
 0
VERTEX
 8
CA_ONES.1
 10
0
 20
0
 30
0
 70
128
 71
215
 72
216
 73
224
 74
223
 0
VERTEX
 8
CA_ONES.1
 10
0
 20
0
 30
0
 70
128
 71
217
 72
218
 73
226
 74
225
 0
VERTEX
 8
CA_ONES.1
 10
0
 20
0
 30
0
 70
128
 71
219
 72
220
 73
228
 74
227
 0
VERTEX
 8
CA_ONES.1
 10
0
 20
0
 30
0
 70
128
 71
221
 72
222
 73
230
 74
229
 0
VERTEX
 8
CA_ONES.1
 10
0
 20
0
 30
0
 70
128
 71
223
 72
224
 73
232
 74
231
 0
VERTEX
 8
CA_ONES.1
 10
0
 20
0
 30
0
 70
128
 71
225
 72
226
 73
234
 74
233
 0
VERTEX
 8
CA_ONES.1
 10
0
 20
0
 30
0
 70
128
 71
227
 72
228
 73
236
 74
235
 0
VERTEX
 8
CA_ONES.1
 10
0
 20
0
 30
0
 70
128
 71
229
 72
230
 73
238
 74
237
 0
VERTEX
 8
CA_ONES.1
 10
0
 20
0
 30
0
 70
128
 71
231
 72
232
 73
240
 74
239
 0
VERTEX
 8
CA_ONES.1
 10
0
 20
0
 30
0
 70
128
 71
233
 72
234
 73
242
 74
241
 0
VERTEX
 8
CA_ONES.1
 10
0
 20
0
 30
0
 70
128
 71
235
 72
236
 73
244
 74
243
 0
VERTEX
 8
CA_ONES.1
 10
0
 20
0
 30
0
 70
128
 71
237
 72
238
 73
246
 74
245
 0
VERTEX
 8
CA_ONES.1
 10
0
 20
0
 30
0
 70
128
 71
239
 72
240
 73
248
 74
247
 0
VERTEX
 8
CA_ONES.1
 10
0
 20
0
 30
0
 70
128
 71
241
 72
242
 73
250
 74
249
 0
VERTEX
 8
CA_ONES.1
 10
0
 20
0
 30
0
 70
128
 71
243
 72
244
 73
252
 74
251
 0
VERTEX
 8
CA_ONES.1
 10
0
 20
0
 30
0
 70
128
 71
245
 72
246
 73
254
 74
253
 0
VERTEX
 8
CA_ONES.1
 10
0
 20
0
 30
0
 70
128
 71
247
 72
248
 73
256
 74
255
 0
VERTEX
 8
CA_ONES.1
 10
0
 20
0
 30
0
 70
128
 71
249
 72
250
 73
258
 74
257
 0
VERTEX
 8
CA_ONES.1
 10
0
 20
0
 30
0
 70
128
 71
251
 72
252
 73
260
 74
259
 0
VERTEX
 8
CA_ONES.1
 10
0
 20
0
 30
0
 70
128
 71
253
 72
254
 73
262
 74
261
 0
VERTEX
 8
CA_ONES.1
 10
0
 20
0
 30
0
 70
128
 71
255
 72
256
 73
264
 74
263
 0
VERTEX
 8
CA_ONES.1
 10
0
 20
0
 30
0
 70
128
 71
257
 72
258
 73
266
 74
265
 0
VERTEX
 8
CA_ONES.1
 10
0
 20
0
 30
0
 70
128
 71
259
 72
260
 73
268
 74
267
 0
VERTEX
 8
CA_ONES.1
 10
0
 20
0
 30
0
 70
128
 71
261
 72
262
 73
270
 74
269
 0
VERTEX
 8
CA_ONES.1
 10
0
 20
0
 30
0
 70
128
 71
263
 72
264
 73
272
 74
271
 0
VERTEX
 8
CA_ONES.1
 10
0
 20
0
 30
0
 70
128
 71
265
 72
266
 73
274
 74
273
 0
VERTEX
 8
CA_ONES.1
 10
0
 20
0
 30
0
 70
128
 71
267
 72
268
 73
276
 74
275
 0
VERTEX
 8
CA_ONES.1
 10
0
 20
0
 30
0
 70
128
 71
269
 72
270
 73
278
 74
277
 0
VERTEX
 8
CA_ONES.1
 10
0
 20
0
 30
0
 70
128
 71
271
 72
272
 73
280
 74
279
 0
VERTEX
 8
CA_ONES.1
 10
0
 20
0
 30
0
 70
128
 71
273
 72
274
 73
282
 74
281
 0
VERTEX
 8
CA_ONES.1
 10
0
 20
0
 30
0
 70
128
 71
275
 72
276
 73
284
 74
283
 0
VERTEX
 8
CA_ONES.1
 10
0
 20
0
 30
0
 70
128
 71
277
 72
278
 73
286
 74
285
 0
VERTEX
 8
CA_ONES.1
 10
0
 20
0
 30
0
 70
128
 71
279
 72
280
 73
288
 74
287
 0
VERTEX
 8
CA_ONES.1
 10
0
 20
0
 30
0
 70
128
 71
281
 72
282
 73
290
 74
289
 0
VERTEX
 8
CA_ONES.1
 10
0
 20
0
 30
0
 70
128
 71
283
 72
284
 73
292
 74
291
 0
VERTEX
 8
CA_ONES.1
 10
0
 20
0
 30
0
 70
128
 71
285
 72
286
 73
294
 74
293
 0
VERTEX
 8
CA_ONES.1
 10
0
 20
0
 30
0
 70
128
 71
287
 72
288
 73
296
 74
295
 0
VERTEX
 8
CA_ONES.1
 10
0
 20
0
 30
0
 70
128
 71
289
 72
290
 73
298
 74
297
 0
VERTEX
 8
CA_ONES.1
 10
0
 20
0
 30
0
 70
128
 71
291
 72
292
 73
300
 74
299
 0
VERTEX
 8
CA_ONES.1
 10
0
 20
0
 30
0
 70
128
 71
293
 72
294
 73
302
 74
301
 0
VERTEX
 8
CA_ONES.1
 10
0
 20
0
 30
0
 70
128
 71
295
 72
296
 73
304
 74
303
 0
VERTEX
 8
CA_ONES.1
 10
0
 20
0
 30
0
 70
128
 71
297
 72
298
 73
306
 74
305
 0
VERTEX
 8
CA_ONES.1
 10
0
 20
0
 30
0
 70
128
 71
299
 72
300
 73
308
 74
307
 0
VERTEX
 8
CA_ONES.1
 10
0
 20
0
 30
0
 70
128
 71
301
 72
302
 73
310
 74
309
 0
VERTEX
 8
CA_ONES.1
 10
0
 20
0
 30
0
 70
128
 71
303
 72
304
 73
312
 74
311
 0
VERTEX
 8
CA_ONES.1
 10
0
 20
0
 30
0
 70
128
 71
305
 72
306
 73
314
 74
313
 0
VERTEX
 8
CA_ONES.1
 10
0
 20
0
 30
0
 70
128
 71
307
 72
308
 73
316
 74
315
 0
VERTEX
 8
CA_ONES.1
 10
0
 20
0
 30
0
 70
128
 71
309
 72
310
 73
318
 74
317
 0
VERTEX
 8
CA_ONES.1
 10
0
 20
0
 30
0
 70
128
 71
311
 72
312
 73
320
 74
319
 0
VERTEX
 8
CA_ONES.1
 10
0
 20
0
 30
0
 70
128
 71
313
 72
314
 73
322
 74
321
 0
VERTEX
 8
CA_ONES.1
 10
0
 20
0
 30
0
 70
128
 71
315
 72
316
 73
324
 74
323
 0
VERTEX
 8
CA_ONES.1
 10
0
 20
0
 30
0
 70
128
 71
317
 72
318
 73
326
 74
325
 0
VERTEX
 8
CA_ONES.1
 10
0
 20
0
 30
0
 70
128
 71
319
 72
320
 73
328
 74
327
 0
VERTEX
 8
CA_ONES.1
 10
0
 20
0
 30
0
 70
128
 71
321
 72
322
 73
330
 74
329
 0
VERTEX
 8
CA_ONES.1
 10
0
 20
0
 30
0
 70
128
 71
323
 72
324
 73
332
 74
331
 0
VERTEX
 8
CA_ONES.1
 10
0
 20
0
 30
0
 70
128
 71
325
 72
326
 73
334
 74
333
 0
VERTEX
 8
CA_ONES.1
 10
0
 20
0
 30
0
 70
128
 71
327
 72
328
 73
336
 74
335
 0
VERTEX
 8
CA_ONES.1
 10
0
 20
0
 30
0
 70
128
 71
329
 72
330
 73
338
 74
337
 0
VERTEX
 8
CA_ONES.1
 10
0
 20
0
 30
0
 70
128
 71
331
 72
332
 73
340
 74
339
 0
VERTEX
 8
CA_ONES.1
 10
0
 20
0
 30
0
 70
128
 71
333
 72
334
 73
54
 74
53
 0
VERTEX
 8
CA_ONES.1
 10
0
 20
0
 30
0
 70
128
 71
335
 72
336
 73
56
 74
55
 0
VERTEX
 8
CA_ONES.1
 10
0
 20
0
 30
0
 70
128
 71
337
 72
338
 73
58
 74
57
 0
VERTEX
 8
CA_ONES.1
 10
0
 20
0
 30
0
 70
128
 71
339
 72
340
 73
60
 74
59
 0
VERTEX
 8
CA_ONES.1
 10
0
 20
0
 30
0
 70
128
 71
341
 72
342
 73
350
 74
349
 0
VERTEX
 8
CA_ONES.1
 10
0
 20
0
 30
0
 70
128
 71
343
 72
344
 73
352
 74
351
 0
VERTEX
 8
CA_ONES.1
 10
0
 20
0
 30
0
 70
128
 71
345
 72
346
 73
354
 74
353
 0
VERTEX
 8
CA_ONES.1
 10
0
 20
0
 30
0
 70
128
 71
347
 72
348
 73
356
 74
355
 0
VERTEX
 8
CA_ONES.1
 10
0
 20
0
 30
0
 70
128
 71
349
 72
350
 73
358
 74
357
 0
VERTEX
 8
CA_ONES.1
 10
0
 20
0
 30
0
 70
128
 71
351
 72
352
 73
360
 74
359
 0
VERTEX
 8
CA_ONES.1
 10
0
 20
0
 30
0
 70
128
 71
353
 72
354
 73
362
 74
361
 0
VERTEX
 8
CA_ONES.1
 10
0
 20
0
 30
0
 70
128
 71
355
 72
356
 73
364
 74
363
 0
VERTEX
 8
CA_ONES.1
 10
0
 20
0
 30
0
 70
128
 71
357
 72
358
 73
366
 74
365
 0
VERTEX
 8
CA_ONES.1
 10
0
 20
0
 30
0
 70
128
 71
359
 72
360
 73
368
 74
367
 0
VERTEX
 8
CA_ONES.1
 10
0
 20
0
 30
0
 70
128
 71
361
 72
362
 73
370
 74
369
 0
VERTEX
 8
CA_ONES.1
 10
0
 20
0
 30
0
 70
128
 71
363
 72
364
 73
372
 74
371
 0
VERTEX
 8
CA_ONES.1
 10
0
 20
0
 30
0
 70
128
 71
365
 72
366
 73
374
 74
373
 0
VERTEX
 8
CA_ONES.1
 10
0
 20
0
 30
0
 70
128
 71
367
 72
368
 73
376
 74
375
 0
VERTEX
 8
CA_ONES.1
 10
0
 20
0
 30
0
 70
128
 71
369
 72
370
 73
378
 74
377
 0
VERTEX
 8
CA_ONES.1
 10
0
 20
0
 30
0
 70
128
 71
371
 72
372
 73
380
 74
379
 0
VERTEX
 8
CA_ONES.1
 10
0
 20
0
 30
0
 70
128
 71
373
 72
374
 73
382
 74
381
 0
VERTEX
 8
CA_ONES.1
 10
0
 20
0
 30
0
 70
128
 71
375
 72
376
 73
384
 74
383
 0
VERTEX
 8
CA_ONES.1
 10
0
 20
0
 30
0
 70
128
 71
377
 72
378
 73
386
 74
385
 0
VERTEX
 8
CA_ONES.1
 10
0
 20
0
 30
0
 70
128
 71
379
 72
380
 73
388
 74
387
 0
VERTEX
 8
CA_ONES.1
 10
0
 20
0
 30
0
 70
128
 71
381
 72
382
 73
390
 74
389
 0
VERTEX
 8
CA_ONES.1
 10
0
 20
0
 30
0
 70
128
 71
383
 72
384
 73
392
 74
391
 0
VERTEX
 8
CA_ONES.1
 10
0
 20
0
 30
0
 70
128
 71
385
 72
386
 73
394
 74
393
 0
VERTEX
 8
CA_ONES.1
 10
0
 20
0
 30
0
 70
128
 71
387
 72
388
 73
396
 74
395
 0
VERTEX
 8
CA_ONES.1
 10
0
 20
0
 30
0
 70
128
 71
389
 72
390
 73
398
 74
397
 0
VERTEX
 8
CA_ONES.1
 10
0
 20
0
 30
0
 70
128
 71
391
 72
392
 73
400
 74
399
 0
VERTEX
 8
CA_ONES.1
 10
0
 20
0
 30
0
 70
128
 71
393
 72
394
 73
402
 74
401
 0
VERTEX
 8
CA_ONES.1
 10
0
 20
0
 30
0
 70
128
 71
395
 72
396
 73
404
 74
403
 0
VERTEX
 8
CA_ONES.1
 10
0
 20
0
 30
0
 70
128
 71
397
 72
398
 73
406
 74
405
 0
VERTEX
 8
CA_ONES.1
 10
0
 20
0
 30
0
 70
128
 71
399
 72
400
 73
408
 74
407
 0
VERTEX
 8
CA_ONES.1
 10
0
 20
0
 30
0
 70
128
 71
401
 72
402
 73
410
 74
409
 0
VERTEX
 8
CA_ONES.1
 10
0
 20
0
 30
0
 70
128
 71
403
 72
404
 73
412
 74
411
 0
VERTEX
 8
CA_ONES.1
 10
0
 20
0
 30
0
 70
128
 71
405
 72
406
 73
414
 74
413
 0
VERTEX
 8
CA_ONES.1
 10
0
 20
0
 30
0
 70
128
 71
407
 72
408
 73
416
 74
415
 0
VERTEX
 8
CA_ONES.1
 10
0
 20
0
 30
0
 70
128
 71
409
 72
410
 73
418
 74
417
 0
VERTEX
 8
CA_ONES.1
 10
0
 20
0
 30
0
 70
128
 71
411
 72
412
 73
420
 74
419
 0
VERTEX
 8
CA_ONES.1
 10
0
 20
0
 30
0
 70
128
 71
413
 72
414
 73
422
 74
421
 0
VERTEX
 8
CA_ONES.1
 10
0
 20
0
 30
0
 70
128
 71
415
 72
416
 73
424
 74
423
 0
VERTEX
 8
CA_ONES.1
 10
0
 20
0
 30
0
 70
128
 71
417
 72
418
 73
426
 74
425
 0
VERTEX
 8
CA_ONES.1
 10
0
 20
0
 30
0
 70
128
 71
419
 72
420
 73
428
 74
427
 0
VERTEX
 8
CA_ONES.1
 10
0
 20
0
 30
0
 70
128
 71
421
 72
422
 73
430
 74
429
 0
VERTEX
 8
CA_ONES.1
 10
0
 20
0
 30
0
 70
128
 71
423
 72
424
 73
432
 74
431
 0
VERTEX
 8
CA_ONES.1
 10
0
 20
0
 30
0
 70
128
 71
425
 72
426
 73
434
 74
433
 0
VERTEX
 8
CA_ONES.1
 10
0
 20
0
 30
0
 70
128
 71
427
 72
428
 73
436
 74
435
 0
VERTEX
 8
CA_ONES.1
 10
0
 20
0
 30
0
 70
128
 71
429
 72
430
 73
438
 74
437
 0
VERTEX
 8
CA_ONES.1
 10
0
 20
0
 30
0
 70
128
 71
431
 72
432
 73
440
 74
439
 0
VERTEX
 8
CA_ONES.1
 10
0
 20
0
 30
0
 70
128
 71
433
 72
434
 73
442
 74
441
 0
VERTEX
 8
CA_ONES.1
 10
0
 20
0
 30
0
 70
128
 71
435
 72
436
 73
444
 74
443
 0
VERTEX
 8
CA_ONES.1
 10
0
 20
0
 30
0
 70
128
 71
437
 72
438
 73
446
 74
445
 0
VERTEX
 8
CA_ONES.1
 10
0
 20
0
 30
0
 70
128
 71
439
 72
440
 73
448
 74
447
 0
VERTEX
 8
CA_ONES.1
 10
0
 20
0
 30
0
 70
128
 71
441
 72
442
 73
450
 74
449
 0
VERTEX
 8
CA_ONES.1
 10
0
 20
0
 30
0
 70
128
 71
443
 72
444
 73
452
 74
451
 0
VERTEX
 8
CA_ONES.1
 10
0
 20
0
 30
0
 70
128
 71
445
 72
446
 73
454
 74
453
 0
VERTEX
 8
CA_ONES.1
 10
0
 20
0
 30
0
 70
128
 71
447
 72
448
 73
456
 74
455
 0
VERTEX
 8
CA_ONES.1
 10
0
 20
0
 30
0
 70
128
 71
449
 72
450
 73
458
 74
457
 0
VERTEX
 8
CA_ONES.1
 10
0
 20
0
 30
0
 70
128
 71
451
 72
452
 73
460
 74
459
 0
VERTEX
 8
CA_ONES.1
 10
0
 20
0
 30
0
 70
128
 71
453
 72
454
 73
462
 74
461
 0
VERTEX
 8
CA_ONES.1
 10
0
 20
0
 30
0
 70
128
 71
455
 72
456
 73
464
 74
463
 0
VERTEX
 8
CA_ONES.1
 10
0
 20
0
 30
0
 70
128
 71
457
 72
458
 73
466
 74
465
 0
VERTEX
 8
CA_ONES.1
 10
0
 20
0
 30
0
 70
128
 71
459
 72
460
 73
468
 74
467
 0
VERTEX
 8
CA_ONES.1
 10
0
 20
0
 30
0
 70
128
 71
461
 72
462
 73
470
 74
469
 0
VERTEX
 8
CA_ONES.1
 10
0
 20
0
 30
0
 70
128
 71
463
 72
464
 73
472
 74
471
 0
VERTEX
 8
CA_ONES.1
 10
0
 20
0
 30
0
 70
128
 71
465
 72
466
 73
474
 74
473
 0
VERTEX
 8
CA_ONES.1
 10
0
 20
0
 30
0
 70
128
 71
467
 72
468
 73
476
 74
475
 0
VERTEX
 8
CA_ONES.1
 10
0
 20
0
 30
0
 70
128
 71
469
 72
470
 73
478
 74
477
 0
VERTEX
 8
CA_ONES.1
 10
0
 20
0
 30
0
 70
128
 71
471
 72
472
 73
480
 74
479
 0
VERTEX
 8
CA_ONES.1
 10
0
 20
0
 30
0
 70
128
 71
473
 72
474
 73
482
 74
481
 0
VERTEX
 8
CA_ONES.1
 10
0
 20
0
 30
0
 70
128
 71
475
 72
476
 73
484
 74
483
 0
VERTEX
 8
CA_ONES.1
 10
0
 20
0
 30
0
 70
128
 71
477
 72
478
 73
486
 74
485
 0
VERTEX
 8
CA_ONES.1
 10
0
 20
0
 30
0
 70
128
 71
479
 72
480
 73
488
 74
487
 0
VERTEX
 8
CA_ONES.1
 10
0
 20
0
 30
0
 70
128
 71
481
 72
482
 73
490
 74
489
 0
VERTEX
 8
CA_ONES.1
 10
0
 20
0
 30
0
 70
128
 71
483
 72
484
 73
492
 74
491
 0
VERTEX
 8
CA_ONES.1
 10
0
 20
0
 30
0
 70
128
 71
485
 72
486
 73
494
 74
493
 0
VERTEX
 8
CA_ONES.1
 10
0
 20
0
 30
0
 70
128
 71
487
 72
488
 73
496
 74
495
 0
VERTEX
 8
CA_ONES.1
 10
0
 20
0
 30
0
 70
128
 71
489
 72
490
 73
498
 74
497
 0
VERTEX
 8
CA_ONES.1
 10
0
 20
0
 30
0
 70
128
 71
491
 72
492
 73
500
 74
499
 0
VERTEX
 8
CA_ONES.1
 10
0
 20
0
 30
0
 70
128
 71
493
 72
494
 73
502
 74
501
 0
VERTEX
 8
CA_ONES.1
 10
0
 20
0
 30
0
 70
128
 71
495
 72
496
 73
504
 74
503
 0
VERTEX
 8
CA_ONES.1
 10
0
 20
0
 30
0
 70
128
 71
497
 72
498
 73
506
 74
505
 0
VERTEX
 8
CA_ONES.1
 10
0
 20
0
 30
0
 70
128
 71
499
 72
500
 73
508
 74
507
 0
VERTEX
 8
CA_ONES.1
 10
0
 20
0
 30
0
 70
128
 71
501
 72
502
 73
510
 74
509
 0
VERTEX
 8
CA_ONES.1
 10
0
 20
0
 30
0
 70
128
 71
503
 72
504
 73
512
 74
511
 0
VERTEX
 8
CA_ONES.1
 10
0
 20
0
 30
0
 70
128
 71
505
 72
506
 73
514
 74
513
 0
VERTEX
 8
CA_ONES.1
 10
0
 20
0
 30
0
 70
128
 71
507
 72
508
 73
516
 74
515
 0
VERTEX
 8
CA_ONES.1
 10
0
 20
0
 30
0
 70
128
 71
509
 72
510
 73
518
 74
517
 0
VERTEX
 8
CA_ONES.1
 10
0
 20
0
 30
0
 70
128
 71
511
 72
512
 73
520
 74
519
 0
VERTEX
 8
CA_ONES.1
 10
0
 20
0
 30
0
 70
128
 71
513
 72
514
 73
522
 74
521
 0
VERTEX
 8
CA_ONES.1
 10
0
 20
0
 30
0
 70
128
 71
515
 72
516
 73
524
 74
523
 0
VERTEX
 8
CA_ONES.1
 10
0
 20
0
 30
0
 70
128
 71
517
 72
518
 73
526
 74
525
 0
VERTEX
 8
CA_ONES.1
 10
0
 20
0
 30
0
 70
128
 71
519
 72
520
 73
528
 74
527
 0
VERTEX
 8
CA_ONES.1
 10
0
 20
0
 30
0
 70
128
 71
521
 72
522
 73
530
 74
529
 0
VERTEX
 8
CA_ONES.1
 10
0
 20
0
 30
0
 70
128
 71
523
 72
524
 73
532
 74
531
 0
VERTEX
 8
CA_ONES.1
 10
0
 20
0
 30
0
 70
128
 71
525
 72
526
 73
534
 74
533
 0
VERTEX
 8
CA_ONES.1
 10
0
 20
0
 30
0
 70
128
 71
527
 72
528
 73
536
 74
535
 0
VERTEX
 8
CA_ONES.1
 10
0
 20
0
 30
0
 70
128
 71
529
 72
530
 73
538
 74
537
 0
VERTEX
 8
CA_ONES.1
 10
0
 20
0
 30
0
 70
128
 71
531
 72
532
 73
540
 74
539
 0
VERTEX
 8
CA_ONES.1
 10
0
 20
0
 30
0
 70
128
 71
533
 72
534
 73
542
 74
541
 0
VERTEX
 8
CA_ONES.1
 10
0
 20
0
 30
0
 70
128
 71
535
 72
536
 73
544
 74
543
 0
VERTEX
 8
CA_ONES.1
 10
0
 20
0
 30
0
 70
128
 71
537
 72
538
 73
546
 74
545
 0
VERTEX
 8
CA_ONES.1
 10
0
 20
0
 30
0
 70
128
 71
539
 72
540
 73
548
 74
547
 0
VERTEX
 8
CA_ONES.1
 10
0
 20
0
 30
0
 70
128
 71
541
 72
542
 73
550
 74
549
 0
VERTEX
 8
CA_ONES.1
 10
0
 20
0
 30
0
 70
128
 71
543
 72
544
 73
552
 74
551
 0
VERTEX
 8
CA_ONES.1
 10
0
 20
0
 30
0
 70
128
 71
545
 72
546
 73
554
 74
553
 0
VERTEX
 8
CA_ONES.1
 10
0
 20
0
 30
0
 70
128
 71
547
 72
548
 73
556
 74
555
 0
VERTEX
 8
CA_ONES.1
 10
0
 20
0
 30
0
 70
128
 71
549
 72
550
 73
558
 74
557
 0
VERTEX
 8
CA_ONES.1
 10
0
 20
0
 30
0
 70
128
 71
551
 72
552
 73
560
 74
559
 0
VERTEX
 8
CA_ONES.1
 10
0
 20
0
 30
0
 70
128
 71
553
 72
554
 73
562
 74
561
 0
VERTEX
 8
CA_ONES.1
 10
0
 20
0
 30
0
 70
128
 71
555
 72
556
 73
564
 74
563
 0
VERTEX
 8
CA_ONES.1
 10
0
 20
0
 30
0
 70
128
 71
557
 72
558
 73
566
 74
565
 0
VERTEX
 8
CA_ONES.1
 10
0
 20
0
 30
0
 70
128
 71
559
 72
560
 73
568
 74
567
 0
VERTEX
 8
CA_ONES.1
 10
0
 20
0
 30
0
 70
128
 71
561
 72
562
 73
570
 74
569
 0
VERTEX
 8
CA_ONES.1
 10
0
 20
0
 30
0
 70
128
 71
563
 72
564
 73
572
 74
571
 0
VERTEX
 8
CA_ONES.1
 10
0
 20
0
 30
0
 70
128
 71
565
 72
566
 73
574
 74
573
 0
VERTEX
 8
CA_ONES.1
 10
0
 20
0
 30
0
 70
128
 71
567
 72
568
 73
576
 74
575
 0
VERTEX
 8
CA_ONES.1
 10
0
 20
0
 30
0
 70
128
 71
569
 72
570
 73
578
 74
577
 0
VERTEX
 8
CA_ONES.1
 10
0
 20
0
 30
0
 70
128
 71
571
 72
572
 73
580
 74
579
 0
VERTEX
 8
CA_ONES.1
 10
0
 20
0
 30
0
 70
128
 71
573
 72
574
 73
582
 74
581
 0
VERTEX
 8
CA_ONES.1
 10
0
 20
0
 30
0
 70
128
 71
575
 72
576
 73
584
 74
583
 0
VERTEX
 8
CA_ONES.1
 10
0
 20
0
 30
0
 70
128
 71
577
 72
578
 73
586
 74
585
 0
VERTEX
 8
CA_ONES.1
 10
0
 20
0
 30
0
 70
128
 71
579
 72
580
 73
588
 74
587
 0
VERTEX
 8
CA_ONES.1
 10
0
 20
0
 30
0
 70
128
 71
581
 72
582
 73
590
 74
589
 0
VERTEX
 8
CA_ONES.1
 10
0
 20
0
 30
0
 70
128
 71
583
 72
584
 73
592
 74
591
 0
VERTEX
 8
CA_ONES.1
 10
0
 20
0
 30
0
 70
128
 71
585
 72
586
 73
594
 74
593
 0
VERTEX
 8
CA_ONES.1
 10
0
 20
0
 30
0
 70
128
 71
587
 72
588
 73
596
 74
595
 0
VERTEX
 8
CA_ONES.1
 10
0
 20
0
 30
0
 70
128
 71
589
 72
590
 73
598
 74
597
 0
VERTEX
 8
CA_ONES.1
 10
0
 20
0
 30
0
 70
128
 71
591
 72
592
 73
600
 74
599
 0
VERTEX
 8
CA_ONES.1
 10
0
 20
0
 30
0
 70
128
 71
593
 72
594
 73
602
 74
601
 0
VERTEX
 8
CA_ONES.1
 10
0
 20
0
 30
0
 70
128
 71
595
 72
596
 73
604
 74
603
 0
VERTEX
 8
CA_ONES.1
 10
0
 20
0
 30
0
 70
128
 71
597
 72
598
 73
606
 74
605
 0
VERTEX
 8
CA_ONES.1
 10
0
 20
0
 30
0
 70
128
 71
599
 72
600
 73
608
 74
607
 0
VERTEX
 8
CA_ONES.1
 10
0
 20
0
 30
0
 70
128
 71
601
 72
602
 73
610
 74
609
 0
VERTEX
 8
CA_ONES.1
 10
0
 20
0
 30
0
 70
128
 71
603
 72
604
 73
612
 74
611
 0
VERTEX
 8
CA_ONES.1
 10
0
 20
0
 30
0
 70
128
 71
605
 72
606
 73
614
 74
613
 0
VERTEX
 8
CA_ONES.1
 10
0
 20
0
 30
0
 70
128
 71
607
 72
608
 73
616
 74
615
 0
VERTEX
 8
CA_ONES.1
 10
0
 20
0
 30
0
 70
128
 71
609
 72
610
 73
618
 74
617
 0
VERTEX
 8
CA_ONES.1
 10
0
 20
0
 30
0
 70
128
 71
611
 72
612
 73
620
 74
619
 0
VERTEX
 8
CA_ONES.1
 10
0
 20
0
 30
0
 70
128
 71
613
 72
614
 73
622
 74
621
 0
VERTEX
 8
CA_ONES.1
 10
0
 20
0
 30
0
 70
128
 71
615
 72
616
 73
624
 74
623
 0
VERTEX
 8
CA_ONES.1
 10
0
 20
0
 30
0
 70
128
 71
617
 72
618
 73
626
 74
625
 0
VERTEX
 8
CA_ONES.1
 10
0
 20
0
 30
0
 70
128
 71
619
 72
620
 73
628
 74
627
 0
VERTEX
 8
CA_ONES.1
 10
0
 20
0
 30
0
 70
128
 71
621
 72
622
 73
342
 74
341
 0
VERTEX
 8
CA_ONES.1
 10
0
 20
0
 30
0
 70
128
 71
623
 72
624
 73
344
 74
343
 0
VERTEX
 8
CA_ONES.1
 10
0
 20
0
 30
0
 70
128
 71
625
 72
626
 73
346
 74
345
 0
VERTEX
 8
CA_ONES.1
 10
0
 20
0
 30
0
 70
128
 71
627
 72
628
 73
348
 74
347
 0
VERTEX
 8
CA_ONES.1
 10
0
 20
0
 30
0
 70
128
 71
629
 72
630
 73
632
 74
631
 0
VERTEX
 8
CA_ONES.1
 10
0
 20
0
 30
0
 70
128
 71
631
 72
632
 73
634
 74
633
 0
VERTEX
 8
CA_ONES.1
 10
0
 20
0
 30
0
 70
128
 71
633
 72
634
 73
636
 74
635
 0
VERTEX
 8
CA_ONES.1
 10
0
 20
0
 30
0
 70
128
 71
635
 72
636
 73
630
 74
629
 0
VERTEX
 8
CA_ONES.1
 10
0
 20
0
 30
0
 70
128
 71
630
 72
636
 73
634
 74
632
 0
VERTEX
 8
CA_ONES.1
 10
0
 20
0
 30
0
 70
128
 71
635
 72
629
 73
631
 74
633
 0
SEQEND
 0
POLYLINE
 8
CUBO_2
 66
1
 10
0.0
 20
0.0
 30
0.0
 70
64
 71
8
 72
6
 0
VERTEX
 8
CUBO_2
 10
0.033
 20
-0.0477
 30
-0.1725
 70
192
 0
VERTEX
 8
CUBO_2
 10
0.033
 20
-0.0477
 30
-0.0299
 70
192
 0
VERTEX
 8
CUBO_2
 10
0.8381
 20
-0.0477
 30
-0.1725
 70
192
 0
VERTEX
 8
CUBO_2
 10
0.8381
 20
-0.0477
 30
-0.0299
 70
192
 0
VERTEX
 8
CUBO_2
 10
0.8381
 20
0.1748
 30
-0.1725
 70
192
 0
VERTEX
 8
CUBO_2
 10
0.8381
 20
0.1748
 30
-0.0299
 70
192
 0
VERTEX
 8
CUBO_2
 10
0.033
 20
0.1748
 30
-0.1725
 70
192
 0
VERTEX
 8
CUBO_2
 10
0.033
 20
0.1748
 30
-0.0299
 70
192
 0
VERTEX
 8
CUBO_2
 10
0
 20
0
 30
0
 70
128
 71
1
 72
2
 73
4
 74
3
 0
VERTEX
 8
CUBO_2
 10
0
 20
0
 30
0
 70
128
 71
3
 72
4
 73
6
 74
5
 0
VERTEX
 8
CUBO_2
 10
0
 20
0
 30
0
 70
128
 71
5
 72
6
 73
8
 74
7
 0
VERTEX
 8
CUBO_2
 10
0
 20
0
 30
0
 70
128
 71
7
 72
8
 73
2
 74
1
 0
VERTEX
 8
CUBO_2
 10
0
 20
0
 30
0
 70
128
 71
2
 72
8
 73
6
 74
4
 0
VERTEX
 8
CUBO_2
 10
0
 20
0
 30
0
 70
128
 71
7
 72
1
 73
3
 74
5
 0
SEQEND
 0
POLYLINE
 8
CUERPO.1
 66
1
 10
0.0
 20
0.0
 30
0.0
 70
64
 71
64
 72
60
 0
VERTEX
 8
CUERPO.1
 10
1.264
 20
0.0273
 30
-0.1297
 70
192
 0
VERTEX
 8
CUERPO.1
 10
1.2752
 20
0.0273
 30
-0.126
 70
192
 0
VERTEX
 8
CUERPO.1
 10
1.303
 20
0.0273
 30
-0.2858
 70
192
 0
VERTEX
 8
CUERPO.1
 10
1.3142
 20
0.0273
 30
-0.282
 70
192
 0
VERTEX
 8
CUERPO.1
 10
1.346
 20
0.0219
 30
-0.3255
 70
192
 0
VERTEX
 8
CUERPO.1
 10
1.3553
 20
0.0219
 30
-0.3182
 70
192
 0
VERTEX
 8
CUERPO.1
 10
1.4404
 20
0.0219
 30
-0.3323
 70
192
 0
VERTEX
 8
CUERPO.1
 10
1.4382
 20
0.0219
 30
-0.3207
 70
192
 0
VERTEX
 8
CUERPO.1
 10
1.4794
 20
0.0219
 30
-0.2876
 70
192
 0
VERTEX
 8
CUERPO.1
 10
1.4696
 20
0.0219
 30
-0.281
 70
192
 0
VERTEX
 8
CUERPO.1
 10
1.5453
 20
0.0219
 30
-0.1906
 70
192
 0
VERTEX
 8
CUERPO.1
 10
1.5356
 20
0.0219
 30
-0.184
 70
192
 0
VERTEX
 8
CUERPO.1
 10
1.5453
 20
0.1052
 30
-0.1906
 70
192
 0
VERTEX
 8
CUERPO.1
 10
1.5356
 20
0.1052
 30
-0.184
 70
192
 0
VERTEX
 8
CUERPO.1
 10
1.4794
 20
0.1052
 30
-0.2876
 70
192
 0
VERTEX
 8
CUERPO.1
 10
1.4696
 20
0.1052
 30
-0.281
 70
192
 0
VERTEX
 8
CUERPO.1
 10
1.4404
 20
0.1052
 30
-0.3323
 70
192
 0
VERTEX
 8
CUERPO.1
 10
1.4382
 20
0.1052
 30
-0.3207
 70
192
 0
VERTEX
 8
CUERPO.1
 10
1.346
 20
0.1052
 30
-0.3255
 70
192
 0
VERTEX
 8
CUERPO.1
 10
1.3553
 20
0.1052
 30
-0.3182
 70
192
 0
VERTEX
 8
CUERPO.1
 10
1.303
 20
0.1107
 30
-0.2858
 70
192
 0
VERTEX
 8
CUERPO.1
 10
1.3142
 20
0.1107
 30
-0.282
 70
192
 0
VERTEX
 8
CUERPO.1
 10
1.264
 20
0.1107
 30
-0.1297
 70
192
 0
VERTEX
 8
CUERPO.1
 10
1.2752
 20
0.1107
 30
-0.126
 70
192
 0
VERTEX
 8
CUERPO.1
 10
0.8281
 20
-0.0556
 30
-0.2009
 70
192
 0
VERTEX
 8
CUERPO.1
 10
0.8281
 20
-0.0556
 30
-0.138
 70
192
 0
VERTEX
 8
CUERPO.1
 10
0.8281
 20
-0.0556
 30
-0.0751
 70
192
 0
VERTEX
 8
CUERPO.1
 10
0.8281
 20
-0.0556
 30
-0.0122
 70
192
 0
VERTEX
 8
CUERPO.1
 10
1.2774
 20
-0.0556
 30
-0.2009
 70
192
 0
VERTEX
 8
CUERPO.1
 10
1.2774
 20
-0.0556
 30
-0.138
 70
192
 0
VERTEX
 8
CUERPO.1
 10
1.2774
 20
-0.0556
 30
-0.0751
 70
192
 0
VERTEX
 8
CUERPO.1
 10
1.2774
 20
-0.0556
 30
-0.0122
 70
192
 0
VERTEX
 8
CUERPO.1
 10
1.2774
 20
0.004
 30
-0.2009
 70
192
 0
VERTEX
 8
CUERPO.1
 10
1.2774
 20
0.004
 30
-0.138
 70
192
 0
VERTEX
 8
CUERPO.1
 10
1.2774
 20
0.004
 30
-0.0751
 70
192
 0
VERTEX
 8
CUERPO.1
 10
1.2774
 20
0.004
 30
-0.064
 70
192
 0
VERTEX
 8
CUERPO.1
 10
1.2774
 20
0.0636
 30
-0.2009
 70
192
 0
VERTEX
 8
CUERPO.1
 10
1.2774
 20
0.0636
 30
-0.138
 70
192
 0
VERTEX
 8
CUERPO.1
 10
1.2774
 20
0.0636
 30
-0.0751
 70
192
 0
VERTEX
 8
CUERPO.1
 10
1.2774
 20
0.0636
 30
-0.0122
 70
192
 0
VERTEX
 8
CUERPO.1
 10
1.2774
 20
0.1231
 30
-0.2009
 70
192
 0
VERTEX
 8
CUERPO.1
 10
1.2774
 20
0.1231
 30
-0.138
 70
192
 0
VERTEX
 8
CUERPO.1
 10
1.2774
 20
0.1231
 30
-0.0751
 70
192
 0
VERTEX
 8
CUERPO.1
 10
1.2774
 20
0.1364
 30
-0.0609
 70
192
 0
VERTEX
 8
CUERPO.1
 10
1.2774
 20
0.1827
 30
-0.2009
 70
192
 0
VERTEX
 8
CUERPO.1
 10
1.2774
 20
0.1827
 30
-0.138
 70
192
 0
VERTEX
 8
CUERPO.1
 10
1.2774
 20
0.1827
 30
-0.0751
 70
192
 0
VERTEX
 8
CUERPO.1
 10
1.2774
 20
0.1827
 30
-0.0122
 70
192
 0
VERTEX
 8
CUERPO.1
 10
0.8281
 20
0.1827
 30
-0.2009
 70
192
 0
VERTEX
 8
CUERPO.1
 10
0.8281
 20
0.1827
 30
-0.138
 70
192
 0
VERTEX
 8
CUERPO.1
 10
0.8281
 20
0.1827
 30
-0.0751
 70
192
 0
VERTEX
 8
CUERPO.1
 10
0.8281
 20
0.1827
 30
-0.0122
 70
192
 0
VERTEX
 8
CUERPO.1
 10
0.8281
 20
0.1231
 30
-0.2009
 70
192
 0
VERTEX
 8
CUERPO.1
 10
0.8281
 20
0.1231
 30
-0.138
 70
192
 0
VERTEX
 8
CUERPO.1
 10
0.8281
 20
0.1231
 30
-0.0751
 70
192
 0
VERTEX
 8
CUERPO.1
 10
0.8281
 20
0.1364
 30
-0.0609
 70
192
 0
VERTEX
 8
CUERPO.1
 10
0.8281
 20
0.0636
 30
-0.2009
 70
192
 0
VERTEX
 8
CUERPO.1
 10
0.8281
 20
0.0636
 30
-0.138
 70
192
 0
VERTEX
 8
CUERPO.1
 10
0.8281
 20
0.0636
 30
-0.0751
 70
192
 0
VERTEX
 8
CUERPO.1
 10
0.8281
 20
0.0636
 30
-0.0122
 70
192
 0
VERTEX
 8
CUERPO.1
 10
0.8281
 20
0.004
 30
-0.2009
 70
192
 0
VERTEX
 8
CUERPO.1
 10
0.8281
 20
0.004
 30
-0.138
 70
192
 0
VERTEX
 8
CUERPO.1
 10
0.8281
 20
0.004
 30
-0.0751
 70
192
 0
VERTEX
 8
CUERPO.1
 10
0.8281
 20
0.004
 30
-0.064
 70
192
 0
VERTEX
 8
CUERPO.1
 10
0
 20
0
 30
0
 70
128
 71
1
 72
2
 73
4
 74
3
 0
VERTEX
 8
CUERPO.1
 10
0
 20
0
 30
0
 70
128
 71
3
 72
4
 73
6
 74
5
 0
VERTEX
 8
CUERPO.1
 10
0
 20
0
 30
0
 70
128
 71
5
 72
6
 73
8
 74
7
 0
VERTEX
 8
CUERPO.1
 10
0
 20
0
 30
0
 70
128
 71
7
 72
8
 73
10
 74
9
 0
VERTEX
 8
CUERPO.1
 10
0
 20
0
 30
0
 70
128
 71
9
 72
10
 73
12
 74
11
 0
VERTEX
 8
CUERPO.1
 10
0
 20
0
 30
0
 70
128
 71
11
 72
12
 73
14
 74
13
 0
VERTEX
 8
CUERPO.1
 10
0
 20
0
 30
0
 70
128
 71
13
 72
14
 73
16
 74
15
 0
VERTEX
 8
CUERPO.1
 10
0
 20
0
 30
0
 70
128
 71
15
 72
16
 73
18
 74
17
 0
VERTEX
 8
CUERPO.1
 10
0
 20
0
 30
0
 70
128
 71
17
 72
18
 73
20
 74
19
 0
VERTEX
 8
CUERPO.1
 10
0
 20
0
 30
0
 70
128
 71
19
 72
20
 73
22
 74
21
 0
VERTEX
 8
CUERPO.1
 10
0
 20
0
 30
0
 70
128
 71
21
 72
22
 73
24
 74
23
 0
VERTEX
 8
CUERPO.1
 10
0
 20
0
 30
0
 70
128
 71
23
 72
24
 73
2
 74
1
 0
VERTEX
 8
CUERPO.1
 10
0
 20
0
 30
0
 70
128
 71
2
 72
24
 73
22
 74
4
 0
VERTEX
 8
CUERPO.1
 10
0
 20
0
 30
0
 70
128
 71
4
 72
22
 73
20
 74
6
 0
VERTEX
 8
CUERPO.1
 10
0
 20
0
 30
0
 70
128
 71
6
 72
20
 73
18
 74
8
 0
VERTEX
 8
CUERPO.1
 10
0
 20
0
 30
0
 70
128
 71
8
 72
18
 73
16
 74
10
 0
VERTEX
 8
CUERPO.1
 10
0
 20
0
 30
0
 70
128
 71
10
 72
16
 73
14
 74
12
 0
VERTEX
 8
CUERPO.1
 10
0
 20
0
 30
0
 70
128
 71
23
 72
1
 73
3
 74
21
 0
VERTEX
 8
CUERPO.1
 10
0
 20
0
 30
0
 70
128
 71
21
 72
3
 73
5
 74
19
 0
VERTEX
 8
CUERPO.1
 10
0
 20
0
 30
0
 70
128
 71
19
 72
5
 73
7
 74
17
 0
VERTEX
 8
CUERPO.1
 10
0
 20
0
 30
0
 70
128
 71
17
 72
7
 73
9
 74
15
 0
VERTEX
 8
CUERPO.1
 10
0
 20
0
 30
0
 70
128
 71
15
 72
9
 73
11
 74
13
 0
VERTEX
 8
CUERPO.1
 10
0
 20
0
 30
0
 70
128
 71
25
 72
26
 73
30
 74
29
 0
VERTEX
 8
CUERPO.1
 10
0
 20
0
 30
0
 70
128
 71
26
 72
27
 73
31
 74
30
 0
VERTEX
 8
CUERPO.1
 10
0
 20
0
 30
0
 70
128
 71
27
 72
28
 73
32
 74
31
 0
VERTEX
 8
CUERPO.1
 10
0
 20
0
 30
0
 70
128
 71
29
 72
30
 73
34
 74
33
 0
VERTEX
 8
CUERPO.1
 10
0
 20
0
 30
0
 70
128
 71
33
 72
34
 73
38
 74
37
 0
VERTEX
 8
CUERPO.1
 10
0
 20
0
 30
0
 70
128
 71
37
 72
38
 73
42
 74
41
 0
VERTEX
 8
CUERPO.1
 10
0
 20
0
 30
0
 70
128
 71
41
 72
42
 73
46
 74
45
 0
VERTEX
 8
CUERPO.1
 10
0
 20
0
 30
0
 70
128
 71
30
 72
31
 73
35
 74
34
 0
VERTEX
 8
CUERPO.1
 10
0
 20
0
 30
0
 70
128
 71
34
 72
35
 73
39
 74
38
 0
VERTEX
 8
CUERPO.1
 10
0
 20
0
 30
0
 70
128
 71
38
 72
39
 73
43
 74
42
 0
VERTEX
 8
CUERPO.1
 10
0
 20
0
 30
0
 70
128
 71
42
 72
43
 73
47
 74
46
 0
VERTEX
 8
CUERPO.1
 10
0
 20
0
 30
0
 70
128
 71
31
 72
32
 73
36
 74
35
 0
VERTEX
 8
CUERPO.1
 10
0
 20
0
 30
0
 70
128
 71
35
 72
36
 73
40
 74
39
 0
VERTEX
 8
CUERPO.1
 10
0
 20
0
 30
0
 70
128
 71
39
 72
40
 73
44
 74
43
 0
VERTEX
 8
CUERPO.1
 10
0
 20
0
 30
0
 70
128
 71
43
 72
44
 73
48
 74
47
 0
VERTEX
 8
CUERPO.1
 10
0
 20
0
 30
0
 70
128
 71
45
 72
46
 73
50
 74
49
 0
VERTEX
 8
CUERPO.1
 10
0
 20
0
 30
0
 70
128
 71
46
 72
47
 73
51
 74
50
 0
VERTEX
 8
CUERPO.1
 10
0
 20
0
 30
0
 70
128
 71
47
 72
48
 73
52
 74
51
 0
VERTEX
 8
CUERPO.1
 10
0
 20
0
 30
0
 70
128
 71
49
 72
50
 73
54
 74
53
 0
VERTEX
 8
CUERPO.1
 10
0
 20
0
 30
0
 70
128
 71
53
 72
54
 73
58
 74
57
 0
VERTEX
 8
CUERPO.1
 10
0
 20
0
 30
0
 70
128
 71
57
 72
58
 73
62
 74
61
 0
VERTEX
 8
CUERPO.1
 10
0
 20
0
 30
0
 70
128
 71
61
 72
62
 73
26
 74
25
 0
VERTEX
 8
CUERPO.1
 10
0
 20
0
 30
0
 70
128
 71
50
 72
51
 73
55
 74
54
 0
VERTEX
 8
CUERPO.1
 10
0
 20
0
 30
0
 70
128
 71
54
 72
55
 73
59
 74
58
 0
VERTEX
 8
CUERPO.1
 10
0
 20
0
 30
0
 70
128
 71
58
 72
59
 73
63
 74
62
 0
VERTEX
 8
CUERPO.1
 10
0
 20
0
 30
0
 70
128
 71
62
 72
63
 73
27
 74
26
 0
VERTEX
 8
CUERPO.1
 10
0
 20
0
 30
0
 70
128
 71
51
 72
52
 73
56
 74
55
 0
VERTEX
 8
CUERPO.1
 10
0
 20
0
 30
0
 70
128
 71
55
 72
56
 73
60
 74
59
 0
VERTEX
 8
CUERPO.1
 10
0
 20
0
 30
0
 70
128
 71
59
 72
60
 73
64
 74
63
 0
VERTEX
 8
CUERPO.1
 10
0
 20
0
 30
0
 70
128
 71
63
 72
64
 73
28
 74
27
 0
VERTEX
 8
CUERPO.1
 10
0
 20
0
 30
0
 70
128
 71
28
 72
64
 73
36
 74
32
 0
VERTEX
 8
CUERPO.1
 10
0
 20
0
 30
0
 70
128
 71
64
 72
60
 73
40
 74
36
 0
VERTEX
 8
CUERPO.1
 10
0
 20
0
 30
0
 70
128
 71
60
 72
56
 73
44
 74
40
 0
VERTEX
 8
CUERPO.1
 10
0
 20
0
 30
0
 70
128
 71
56
 72
52
 73
48
 74
44
 0
VERTEX
 8
CUERPO.1
 10
0
 20
0
 30
0
 70
128
 71
49
 72
53
 73
41
 74
45
 0
VERTEX
 8
CUERPO.1
 10
0
 20
0
 30
0
 70
128
 71
53
 72
57
 73
37
 74
41
 0
VERTEX
 8
CUERPO.1
 10
0
 20
0
 30
0
 70
128
 71
57
 72
61
 73
33
 74
37
 0
VERTEX
 8
CUERPO.1
 10
0
 20
0
 30
0
 70
128
 71
61
 72
25
 73
29
 74
33
 0
SEQEND
 0
POLYLINE
 8
PERCUTOR
 66
1
 10
0.0
 20
0.0
 30
0.0
 70
64
 71
6
 72
8
 0
VERTEX
 8
PERCUTOR
 10
1.4709
 20
0.0616
 30
0.0252
 70
192
 0
VERTEX
 8
PERCUTOR
 10
1.4587
 20
0.0616
 30
0.0773
 70
192
 0
VERTEX
 8
PERCUTOR
 10
1.4942
 20
0.0616
 30
0.0329
 70
192
 0
VERTEX
 8
PERCUTOR
 10
1.4668
 20
0.0837
 30
0.043
 70
192
 0
VERTEX
 8
PERCUTOR
 10
1.3687
 20
0.0616
 30
0.073
 70
192
 0
VERTEX
 8
PERCUTOR
 10
1.4668
 20
0.0406
 30
0.043
 70
192
 0
VERTEX
 8
PERCUTOR
 10
0
 20
0
 30
0
 70
128
 71
1
 72
3
 73
4
 74
4
 0
VERTEX
 8
PERCUTOR
 10
0
 20
0
 30
0
 70
128
 71
4
 72
3
 73
2
 74
2
 0
VERTEX
 8
PERCUTOR
 10
0
 20
0
 30
0
 70
128
 71
1
 72
4
 73
5
 74
5
 0
VERTEX
 8
PERCUTOR
 10
0
 20
0
 30
0
 70
128
 71
5
 72
4
 73
2
 74
2
 0
VERTEX
 8
PERCUTOR
 10
0
 20
0
 30
0
 70
128
 71
1
 72
5
 73
6
 74
6
 0
VERTEX
 8
PERCUTOR
 10
0
 20
0
 30
0
 70
128
 71
6
 72
5
 73
2
 74
2
 0
VERTEX
 8
PERCUTOR
 10
0
 20
0
 30
0
 70
128
 71
1
 72
6
 73
3
 74
3
 0
VERTEX
 8
PERCUTOR
 10
0
 20
0
 30
0
 70
128
 71
3
 72
6
 73
2
 74
2
 0
SEQEND
 0
POLYLINE
 8
CULATA
 66
1
 10
0.0
 20
0.0
 30
0.0
 70
64
 71
102
 72
100
 0
VERTEX
 8
CULATA
 10
1.2781
 20
-0.0659
 30
-0.2002
 70
192
 0
VERTEX
 8
CULATA
 10
1.2781
 20
-0.0659
 30
-0.1335
 70
192
 0
VERTEX
 8
CULATA
 10
1.2781
 20
-0.0659
 30
-0.0669
 70
192
 0
VERTEX
 8
CULATA
 10
1.2781
 20
-0.0836
 30
-0.0002
 70
192
 0
VERTEX
 8
CULATA
 10
1.2781
 20
-0.0659
 30
0.0844
 70
192
 0
VERTEX
 8
CULATA
 10
1.4441
 20
-0.0659
 30
-0.2247
 70
192
 0
VERTEX
 8
CULATA
 10
1.458
 20
-0.0659
 30
-0.1595
 70
192
 0
VERTEX
 8
CULATA
 10
1.4718
 20
-0.0659
 30
-0.0943
 70
192
 0
VERTEX
 8
CULATA
 10
1.4856
 20
-0.0659
 30
-0.029
 70
192
 0
VERTEX
 8
CULATA
 10
1.4995
 20
-0.0147
 30
0.0362
 70
192
 0
VERTEX
 8
CULATA
 10
1.6248
 20
-0.0363
 30
-0.3228
 70
192
 0
VERTEX
 8
CULATA
 10
1.6519
 20
-0.0363
 30
-0.2618
 70
192
 0
VERTEX
 8
CULATA
 10
1.679
 20
-0.0363
 30
-0.2009
 70
192
 0
VERTEX
 8
CULATA
 10
1.7062
 20
-0.0363
 30
-0.14
 70
192
 0
VERTEX
 8
CULATA
 10
1.7333
 20
-0.0147
 30
-0.0791
 70
192
 0
VERTEX
 8
CULATA
 10
1.782
 20
-0.0147
 30
-0.4952
 70
192
 0
VERTEX
 8
CULATA
 10
1.818
 20
-0.0147
 30
-0.3358
 70
192
 0
VERTEX
 8
CULATA
 10
1.8451
 20
-0.0147
 30
-0.2749
 70
192
 0
VERTEX
 8
CULATA
 10
1.8722
 20
-0.0147
 30
-0.214
 70
192
 0
VERTEX
 8
CULATA
 10
1.8681
 20
-0.0147
 30
-0.1899
 70
192
 0
VERTEX
 8
CULATA
 10
1.9423
 20
-0.0147
 30
-0.397
 70
192
 0
VERTEX
 8
CULATA
 10
1.9865
 20
-0.0147
 30
-0.3497
 70
192
 0
VERTEX
 8
CULATA
 10
1.9675
 20
-0.0147
 30
-0.2858
 70
192
 0
VERTEX
 8
CULATA
 10
1.9485
 20
-0.0147
 30
-0.2218
 70
192
 0
VERTEX
 8
CULATA
 10
1.9295
 20
-0.0147
 30
-0.1579
 70
192
 0
VERTEX
 8
CULATA
 10
2.1813
 20
-0.0147
 30
-0.4056
 70
192
 0
VERTEX
 8
CULATA
 10
2.241
 20
-0.0147
 30
-0.3255
 70
192
 0
VERTEX
 8
CULATA
 10
2.2394
 20
-0.0147
 30
-0.2588
 70
192
 0
VERTEX
 8
CULATA
 10
2.2378
 20
-0.0147
 30
-0.1921
 70
192
 0
VERTEX
 8
CULATA
 10
2.2429
 20
-0.0147
 30
-0.0989
 70
192
 0
VERTEX
 8
CULATA
 10
2.3583
 20
-0.0147
 30
-0.4471
 70
192
 0
VERTEX
 8
CULATA
 10
2.4228
 20
-0.0147
 30
-0.321
 70
192
 0
VERTEX
 8
CULATA
 10
2.4211
 20
-0.0147
 30
-0.2543
 70
192
 0
VERTEX
 8
CULATA
 10
2.4195
 20
-0.0147
 30
-0.1877
 70
192
 0
VERTEX
 8
CULATA
 10
2.4278
 20
-0.0147
 30
-0.0841
 70
192
 0
VERTEX
 8
CULATA
 10
2.7561
 20
-0.0147
 30
-0.5483
 70
192
 0
VERTEX
 8
CULATA
 10
2.7424
 20
-0.0147
 30
-0.3538
 70
192
 0
VERTEX
 8
CULATA
 10
2.7418
 20
-0.0147
 30
-0.2925
 70
192
 0
VERTEX
 8
CULATA
 10
2.7471
 20
-0.0147
 30
-0.2313
 70
192
 0
VERTEX
 8
CULATA
 10
2.773
 20
-0.0147
 30
-0.0875
 70
192
 0
VERTEX
 8
CULATA
 10
2.7561
 20
0.0636
 30
-0.5483
 70
192
 0
VERTEX
 8
CULATA
 10
2.7479
 20
0.0682
 30
-0.3535
 70
192
 0
VERTEX
 8
CULATA
 10
2.7466
 20
0.0636
 30
-0.2888
 70
192
 0
VERTEX
 8
CULATA
 10
2.7487
 20
0.0636
 30
-0.2306
 70
192
 0
VERTEX
 8
CULATA
 10
2.773
 20
0.0636
 30
-0.0875
 70
192
 0
VERTEX
 8
CULATA
 10
2.7561
 20
0.1418
 30
-0.5483
 70
192
 0
VERTEX
 8
CULATA
 10
2.748
 20
0.1465
 30
-0.3563
 70
192
 0
VERTEX
 8
CULATA
 10
2.747
 20
0.1418
 30
-0.2925
 70
192
 0
VERTEX
 8
CULATA
 10
2.7471
 20
0.1418
 30
-0.2313
 70
192
 0
VERTEX
 8
CULATA
 10
2.773
 20
0.1418
 30
-0.0875
 70
192
 0
VERTEX
 8
CULATA
 10
2.3583
 20
0.1418
 30
-0.4471
 70
192
 0
VERTEX
 8
CULATA
 10
2.4228
 20
0.1418
 30
-0.321
 70
192
 0
VERTEX
 8
CULATA
 10
2.4211
 20
0.1418
 30
-0.2543
 70
192
 0
VERTEX
 8
CULATA
 10
2.4195
 20
0.1418
 30
-0.1877
 70
192
 0
VERTEX
 8
CULATA
 10
2.4278
 20
0.1418
 30
-0.0841
 70
192
 0
VERTEX
 8
CULATA
 10
2.1813
 20
0.1418
 30
-0.4056
 70
192
 0
VERTEX
 8
CULATA
 10
2.241
 20
0.1418
 30
-0.3255
 70
192
 0
VERTEX
 8
CULATA
 10
2.2394
 20
0.1418
 30
-0.2588
 70
192
 0
VERTEX
 8
CULATA
 10
2.2378
 20
0.1418
 30
-0.1921
 70
192
 0
VERTEX
 8
CULATA
 10
2.2429
 20
0.1418
 30
-0.0989
 70
192
 0
VERTEX
 8
CULATA
 10
1.9423
 20
0.1418
 30
-0.397
 70
192
 0
VERTEX
 8
CULATA
 10
1.9865
 20
0.1418
 30
-0.3497
 70
192
 0
VERTEX
 8
CULATA
 10
1.9675
 20
0.1418
 30
-0.2858
 70
192
 0
VERTEX
 8
CULATA
 10
1.9485
 20
0.1418
 30
-0.2218
 70
192
 0
VERTEX
 8
CULATA
 10
1.9295
 20
0.1418
 30
-0.1579
 70
192
 0
VERTEX
 8
CULATA
 10
1.782
 20
0.1418
 30
-0.4952
 70
192
 0
VERTEX
 8
CULATA
 10
1.818
 20
0.1418
 30
-0.3358
 70
192
 0
VERTEX
 8
CULATA
 10
1.8451
 20
0.1418
 30
-0.2749
 70
192
 0
VERTEX
 8
CULATA
 10
1.8722
 20
0.1418
 30
-0.214
 70
192
 0
VERTEX
 8
CULATA
 10
1.8681
 20
0.1418
 30
-0.1899
 70
192
 0
VERTEX
 8
CULATA
 10
1.6248
 20
0.1675
 30
-0.3228
 70
192
 0
VERTEX
 8
CULATA
 10
1.6519
 20
0.1675
 30
-0.2618
 70
192
 0
VERTEX
 8
CULATA
 10
1.679
 20
0.1675
 30
-0.2009
 70
192
 0
VERTEX
 8
CULATA
 10
1.7062
 20
0.1675
 30
-0.14
 70
192
 0
VERTEX
 8
CULATA
 10
1.7333
 20
0.1418
 30
-0.0791
 70
192
 0
VERTEX
 8
CULATA
 10
1.4441
 20
0.193
 30
-0.2247
 70
192
 0
VERTEX
 8
CULATA
 10
1.458
 20
0.193
 30
-0.1595
 70
192
 0
VERTEX
 8
CULATA
 10
1.4718
 20
0.193
 30
-0.0943
 70
192
 0
VERTEX
 8
CULATA
 10
1.4856
 20
0.193
 30
-0.029
 70
192
 0
VERTEX
 8
CULATA
 10
1.4995
 20
0.1418
 30
0.0362
 70
192
 0
VERTEX
 8
CULATA
 10
1.2781
 20
0.193
 30
-0.2002
 70
192
 0
VERTEX
 8
CULATA
 10
1.2781
 20
0.193
 30
-0.1335
 70
192
 0
VERTEX
 8
CULATA
 10
1.2781
 20
0.193
 30
-0.0669
 70
192
 0
VERTEX
 8
CULATA
 10
1.2781
 20
0.2062
 30
-0.0002
 70
192
 0
VERTEX
 8
CULATA
 10
1.2781
 20
0.193
 30
0.0806
 70
192
 0
VERTEX
 8
CULATA
 10
1.2781
 20
0.0636
 30
-0.2002
 70
192
 0
VERTEX
 8
CULATA
 10
1.2781
 20
0.0636
 30
-0.1335
 70
192
 0
VERTEX
 8
CULATA
 10
1.2781
 20
0.0636
 30
-0.0669
 70
192
 0
VERTEX
 8
CULATA
 10
1.2781
 20
0.0636
 30
-0.0002
 70
192
 0
VERTEX
 8
CULATA
 10
1.2781
 20
0.0636
 30
0.0987
 70
192
 0
VERTEX
 8
CULATA
 10
1.4995
 20
0.0636
 30
0.0362
 70
192
 0
VERTEX
 8
CULATA
 10
1.7333
 20
0.0636
 30
-0.0791
 70
192
 0
VERTEX
 8
CULATA
 10
1.8681
 20
0.0636
 30
-0.1899
 70
192
 0
VERTEX
 8
CULATA
 10
1.9295
 20
0.0636
 30
-0.1579
 70
192
 0
VERTEX
 8
CULATA
 10
2.2429
 20
0.0636
 30
-0.0989
 70
192
 0
VERTEX
 8
CULATA
 10
2.4278
 20
0.0636
 30
-0.0841
 70
192
 0
VERTEX
 8
CULATA
 10
1.4441
 20
0.0636
 30
-0.2247
 70
192
 0
VERTEX
 8
CULATA
 10
1.6248
 20
0.0636
 30
-0.3228
 70
192
 0
VERTEX
 8
CULATA
 10
1.782
 20
0.0636
 30
-0.4952
 70
192
 0
VERTEX
 8
CULATA
 10
1.9423
 20
0.0636
 30
-0.397
 70
192
 0
VERTEX
 8
CULATA
 10
2.1813
 20
0.0636
 30
-0.4056
 70
192
 0
VERTEX
 8
CULATA
 10
2.3583
 20
0.0636
 30
-0.4471
 70
192
 0
VERTEX
 8
CULATA
 10
0
 20
0
 30
0
 70
128
 71
1
 72
2
 73
7
 74
6
 0
VERTEX
 8
CULATA
 10
0
 20
0
 30
0
 70
128
 71
6
 72
7
 73
12
 74
11
 0
VERTEX
 8
CULATA
 10
0
 20
0
 30
0
 70
128
 71
11
 72
12
 73
17
 74
16
 0
VERTEX
 8
CULATA
 10
0
 20
0
 30
0
 70
128
 71
16
 72
17
 73
22
 74
21
 0
VERTEX
 8
CULATA
 10
0
 20
0
 30
0
 70
128
 71
21
 72
22
 73
27
 74
26
 0
VERTEX
 8
CULATA
 10
0
 20
0
 30
0
 70
128
 71
26
 72
27
 73
32
 74
31
 0
VERTEX
 8
CULATA
 10
0
 20
0
 30
0
 70
128
 71
31
 72
32
 73
37
 74
36
 0
VERTEX
 8
CULATA
 10
0
 20
0
 30
0
 70
128
 71
2
 72
3
 73
8
 74
7
 0
VERTEX
 8
CULATA
 10
0
 20
0
 30
0
 70
128
 71
7
 72
8
 73
13
 74
12
 0
VERTEX
 8
CULATA
 10
0
 20
0
 30
0
 70
128
 71
12
 72
13
 73
18
 74
17
 0
VERTEX
 8
CULATA
 10
0
 20
0
 30
0
 70
128
 71
17
 72
18
 73
23
 74
22
 0
VERTEX
 8
CULATA
 10
0
 20
0
 30
0
 70
128
 71
22
 72
23
 73
28
 74
27
 0
VERTEX
 8
CULATA
 10
0
 20
0
 30
0
 70
128
 71
27
 72
28
 73
33
 74
32
 0
VERTEX
 8
CULATA
 10
0
 20
0
 30
0
 70
128
 71
32
 72
33
 73
38
 74
37
 0
VERTEX
 8
CULATA
 10
0
 20
0
 30
0
 70
128
 71
3
 72
4
 73
9
 74
8
 0
VERTEX
 8
CULATA
 10
0
 20
0
 30
0
 70
128
 71
8
 72
9
 73
14
 74
13
 0
VERTEX
 8
CULATA
 10
0
 20
0
 30
0
 70
128
 71
13
 72
14
 73
19
 74
18
 0
VERTEX
 8
CULATA
 10
0
 20
0
 30
0
 70
128
 71
18
 72
19
 73
24
 74
23
 0
VERTEX
 8
CULATA
 10
0
 20
0
 30
0
 70
128
 71
23
 72
24
 73
29
 74
28
 0
VERTEX
 8
CULATA
 10
0
 20
0
 30
0
 70
128
 71
28
 72
29
 73
34
 74
33
 0
VERTEX
 8
CULATA
 10
0
 20
0
 30
0
 70
128
 71
33
 72
34
 73
39
 74
38
 0
VERTEX
 8
CULATA
 10
0
 20
0
 30
0
 70
128
 71
4
 72
5
 73
10
 74
9
 0
VERTEX
 8
CULATA
 10
0
 20
0
 30
0
 70
128
 71
9
 72
10
 73
15
 74
14
 0
VERTEX
 8
CULATA
 10
0
 20
0
 30
0
 70
128
 71
14
 72
15
 73
20
 74
19
 0
VERTEX
 8
CULATA
 10
0
 20
0
 30
0
 70
128
 71
19
 72
20
 73
25
 74
24
 0
VERTEX
 8
CULATA
 10
0
 20
0
 30
0
 70
128
 71
24
 72
25
 73
30
 74
29
 0
VERTEX
 8
CULATA
 10
0
 20
0
 30
0
 70
128
 71
29
 72
30
 73
35
 74
34
 0
VERTEX
 8
CULATA
 10
0
 20
0
 30
0
 70
128
 71
34
 72
35
 73
40
 74
39
 0
VERTEX
 8
CULATA
 10
0
 20
0
 30
0
 70
128
 71
36
 72
37
 73
42
 74
41
 0
VERTEX
 8
CULATA
 10
0
 20
0
 30
0
 70
128
 71
41
 72
42
 73
47
 74
46
 0
VERTEX
 8
CULATA
 10
0
 20
0
 30
0
 70
128
 71
37
 72
38
 73
43
 74
42
 0
VERTEX
 8
CULATA
 10
0
 20
0
 30
0
 70
128
 71
42
 72
43
 73
48
 74
47
 0
VERTEX
 8
CULATA
 10
0
 20
0
 30
0
 70
128
 71
38
 72
39
 73
44
 74
43
 0
VERTEX
 8
CULATA
 10
0
 20
0
 30
0
 70
128
 71
43
 72
44
 73
49
 74
48
 0
VERTEX
 8
CULATA
 10
0
 20
0
 30
0
 70
128
 71
39
 72
40
 73
45
 74
44
 0
VERTEX
 8
CULATA
 10
0
 20
0
 30
0
 70
128
 71
44
 72
45
 73
50
 74
49
 0
VERTEX
 8
CULATA
 10
0
 20
0
 30
0
 70
128
 71
46
 72
47
 73
52
 74
51
 0
VERTEX
 8
CULATA
 10
0
 20
0
 30
0
 70
128
 71
51
 72
52
 73
57
 74
56
 0
VERTEX
 8
CULATA
 10
0
 20
0
 30
0
 70
128
 71
56
 72
57
 73
62
 74
61
 0
VERTEX
 8
CULATA
 10
0
 20
0
 30
0
 70
128
 71
61
 72
62
 73
67
 74
66
 0
VERTEX
 8
CULATA
 10
0
 20
0
 30
0
 70
128
 71
66
 72
67
 73
72
 74
71
 0
VERTEX
 8
CULATA
 10
0
 20
0
 30
0
 70
128
 71
71
 72
72
 73
77
 74
76
 0
VERTEX
 8
CULATA
 10
0
 20
0
 30
0
 70
128
 71
76
 72
77
 73
82
 74
81
 0
VERTEX
 8
CULATA
 10
0
 20
0
 30
0
 70
128
 71
47
 72
48
 73
53
 74
52
 0
VERTEX
 8
CULATA
 10
0
 20
0
 30
0
 70
128
 71
52
 72
53
 73
58
 74
57
 0
VERTEX
 8
CULATA
 10
0
 20
0
 30
0
 70
128
 71
57
 72
58
 73
63
 74
62
 0
VERTEX
 8
CULATA
 10
0
 20
0
 30
0
 70
128
 71
62
 72
63
 73
68
 74
67
 0
VERTEX
 8
CULATA
 10
0
 20
0
 30
0
 70
128
 71
67
 72
68
 73
73
 74
72
 0
VERTEX
 8
CULATA
 10
0
 20
0
 30
0
 70
128
 71
72
 72
73
 73
78
 74
77
 0
VERTEX
 8
CULATA
 10
0
 20
0
 30
0
 70
128
 71
77
 72
78
 73
83
 74
82
 0
VERTEX
 8
CULATA
 10
0
 20
0
 30
0
 70
128
 71
48
 72
49
 73
54
 74
53
 0
VERTEX
 8
CULATA
 10
0
 20
0
 30
0
 70
128
 71
53
 72
54
 73
59
 74
58
 0
VERTEX
 8
CULATA
 10
0
 20
0
 30
0
 70
128
 71
58
 72
59
 73
64
 74
63
 0
VERTEX
 8
CULATA
 10
0
 20
0
 30
0
 70
128
 71
63
 72
64
 73
69
 74
68
 0
VERTEX
 8
CULATA
 10
0
 20
0
 30
0
 70
128
 71
68
 72
69
 73
74
 74
73
 0
VERTEX
 8
CULATA
 10
0
 20
0
 30
0
 70
128
 71
73
 72
74
 73
79
 74
78
 0
VERTEX
 8
CULATA
 10
0
 20
0
 30
0
 70
128
 71
78
 72
79
 73
84
 74
83
 0
VERTEX
 8
CULATA
 10
0
 20
0
 30
0
 70
128
 71
49
 72
50
 73
55
 74
54
 0
VERTEX
 8
CULATA
 10
0
 20
0
 30
0
 70
128
 71
54
 72
55
 73
60
 74
59
 0
VERTEX
 8
CULATA
 10
0
 20
0
 30
0
 70
128
 71
59
 72
60
 73
65
 74
64
 0
VERTEX
 8
CULATA
 10
0
 20
0
 30
0
 70
128
 71
64
 72
65
 73
70
 74
69
 0
VERTEX
 8
CULATA
 10
0
 20
0
 30
0
 70
128
 71
69
 72
70
 73
75
 74
74
 0
VERTEX
 8
CULATA
 10
0
 20
0
 30
0
 70
128
 71
74
 72
75
 73
80
 74
79
 0
VERTEX
 8
CULATA
 10
0
 20
0
 30
0
 70
128
 71
79
 72
80
 73
85
 74
84
 0
VERTEX
 8
CULATA
 10
0
 20
0
 30
0
 70
128
 71
81
 72
82
 73
87
 74
86
 0
VERTEX
 8
CULATA
 10
0
 20
0
 30
0
 70
128
 71
86
 72
87
 73
2
 74
1
 0
VERTEX
 8
CULATA
 10
0
 20
0
 30
0
 70
128
 71
82
 72
83
 73
88
 74
87
 0
VERTEX
 8
CULATA
 10
0
 20
0
 30
0
 70
128
 71
87
 72
88
 73
3
 74
2
 0
VERTEX
 8
CULATA
 10
0
 20
0
 30
0
 70
128
 71
83
 72
84
 73
89
 74
88
 0
VERTEX
 8
CULATA
 10
0
 20
0
 30
0
 70
128
 71
88
 72
89
 73
4
 74
3
 0
VERTEX
 8
CULATA
 10
0
 20
0
 30
0
 70
128
 71
84
 72
85
 73
90
 74
89
 0
VERTEX
 8
CULATA
 10
0
 20
0
 30
0
 70
128
 71
89
 72
90
 73
5
 74
4
 0
VERTEX
 8
CULATA
 10
0
 20
0
 30
0
 70
128
 71
5
 72
90
 73
91
 74
10
 0
VERTEX
 8
CULATA
 10
0
 20
0
 30
0
 70
128
 71
10
 72
91
 73
92
 74
15
 0
VERTEX
 8
CULATA
 10
0
 20
0
 30
0
 70
128
 71
15
 72
92
 73
93
 74
20
 0
VERTEX
 8
CULATA
 10
0
 20
0
 30
0
 70
128
 71
20
 72
93
 73
94
 74
25
 0
VERTEX
 8
CULATA
 10
0
 20
0
 30
0
 70
128
 71
25
 72
94
 73
95
 74
30
 0
VERTEX
 8
CULATA
 10
0
 20
0
 30
0
 70
128
 71
30
 72
95
 73
96
 74
35
 0
VERTEX
 8
CULATA
 10
0
 20
0
 30
0
 70
128
 71
35
 72
96
 73
45
 74
40
 0
VERTEX
 8
CULATA
 10
0
 20
0
 30
0
 70
128
 71
90
 72
85
 73
80
 74
91
 0
VERTEX
 8
CULATA
 10
0
 20
0
 30
0
 70
128
 71
91
 72
80
 73
75
 74
92
 0
VERTEX
 8
CULATA
 10
0
 20
0
 30
0
 70
128
 71
92
 72
75
 73
70
 74
93
 0
VERTEX
 8
CULATA
 10
0
 20
0
 30
0
 70
128
 71
93
 72
70
 73
65
 74
94
 0
VERTEX
 8
CULATA
 10
0
 20
0
 30
0
 70
128
 71
94
 72
65
 73
60
 74
95
 0
VERTEX
 8
CULATA
 10
0
 20
0
 30
0
 70
128
 71
95
 72
60
 73
55
 74
96
 0
VERTEX
 8
CULATA
 10
0
 20
0
 30
0
 70
128
 71
96
 72
55
 73
50
 74
45
 0
VERTEX
 8
CULATA
 10
0
 20
0
 30
0
 70
128
 71
81
 72
86
 73
97
 74
76
 0
VERTEX
 8
CULATA
 10
0
 20
0
 30
0
 70
128
 71
76
 72
97
 73
98
 74
71
 0
VERTEX
 8
CULATA
 10
0
 20
0
 30
0
 70
128
 71
71
 72
98
 73
99
 74
66
 0
VERTEX
 8
CULATA
 10
0
 20
0
 30
0
 70
128
 71
66
 72
99
 73
100
 74
61
 0
VERTEX
 8
CULATA
 10
0
 20
0
 30
0
 70
128
 71
61
 72
100
 73
101
 74
56
 0
VERTEX
 8
CULATA
 10
0
 20
0
 30
0
 70
128
 71
56
 72
101
 73
102
 74
51
 0
VERTEX
 8
CULATA
 10
0
 20
0
 30
0
 70
128
 71
51
 72
102
 73
41
 74
46
 0
VERTEX
 8
CULATA
 10
0
 20
0
 30
0
 70
128
 71
86
 72
1
 73
6
 74
97
 0
VERTEX
 8
CULATA
 10
0
 20
0
 30
0
 70
128
 71
97
 72
6
 73
11
 74
98
 0
VERTEX
 8
CULATA
 10
0
 20
0
 30
0
 70
128
 71
98
 72
11
 73
16
 74
99
 0
VERTEX
 8
CULATA
 10
0
 20
0
 30
0
 70
128
 71
99
 72
16
 73
21
 74
100
 0
VERTEX
 8
CULATA
 10
0
 20
0
 30
0
 70
128
 71
100
 72
21
 73
26
 74
101
 0
VERTEX
 8
CULATA
 10
0
 20
0
 30
0
 70
128
 71
101
 72
26
 73
31
 74
102
 0
VERTEX
 8
CULATA
 10
0
 20
0
 30
0
 70
128
 71
102
 72
31
 73
36
 74
41
 0
SEQEND
 0
POLYLINE
 8
GATILLO
 66
1
 10
0.0
 20
0.0
 30
0.0
 70
64
 71
8
 72
6
 0
VERTEX
 8
GATILLO
 10
1.3948
 20
0.0495
 30
-0.2729
 70
192
 0
VERTEX
 8
GATILLO
 10
1.4105
 20
0.0495
 30
-0.1981
 70
192
 0
VERTEX
 8
GATILLO
 10
1.4014
 20
0.0495
 30
-0.2743
 70
192
 0
VERTEX
 8
GATILLO
 10
1.4171
 20
0.0495
 30
-0.1995
 70
192
 0
VERTEX
 8
GATILLO
 10
1.4014
 20
0.0776
 30
-0.2743
 70
192
 0
VERTEX
 8
GATILLO
 10
1.4171
 20
0.0776
 30
-0.1995
 70
192
 0
VERTEX
 8
GATILLO
 10
1.3948
 20
0.0776
 30
-0.2729
 70
192
 0
VERTEX
 8
GATILLO
 10
1.4105
 20
0.0776
 30
-0.1981
 70
192
 0
VERTEX
 8
GATILLO
 10
0
 20
0
 30
0
 70
128
 71
1
 72
2
 73
4
 74
3
 0
VERTEX
 8
GATILLO
 10
0
 20
0
 30
0
 70
128
 71
3
 72
4
 73
6
 74
5
 0
VERTEX
 8
GATILLO
 10
0
 20
0
 30
0
 70
128
 71
5
 72
6
 73
8
 74
7
 0
VERTEX
 8
GATILLO
 10
0
 20
0
 30
0
 70
128
 71
7
 72
8
 73
2
 74
1
 0
VERTEX
 8
GATILLO
 10
0
 20
0
 30
0
 70
128
 71
2
 72
8
 73
6
 74
4
 0
VERTEX
 8
GATILLO
 10
0
 20
0
 30
0
 70
128
 71
7
 72
1
 73
3
 74
5
 0
SEQEND
 0
ENDSEC
 0
EOF
