 0
SECTION
 2
HEADER
 9
$ACADVER
 1
AC1009
 0
ENDSEC
 0
SECTION
 2
TABLES
 0
TABLE
 2
LTYPE
 70
1
 0
LTYPE
 2
CONTINUOUS
 70
64
 3
solid line
 72
65
 73
0
 40
0.0
 0
ENDTAB
 0
TABLE
 2
LAYER
 70
6
 0
LAYER
 2
0
 70
0
 62
7
 6
CONTINUOUS
 0
LAYER
 2
SG_2
 70
64
 62
7
 6
CONTINUOUS
 0
LAYER
 2
CUBO_6
 70
64
 62
88
 6
CONTINUOUS
 0
LAYER
 2
CUEPO
 70
64
 62
7
 6
CONTINUOUS
 0
LAYER
 2
CUERPO
 70
64
 62
88
 6
CONTINUOUS
 0
LAYER
 2
CULATA
 70
64
 62
88
 6
CONTINUOUS
 0
LAYER
 2
CORREDORA
 70
64
 62
23
 6
CONTINUOUS
 0
LAYER
 2
GATILLO
 70
64
 62
88
 6
CONTINUOUS
 0
ENDTAB
 0
ENDSEC
 0
SECTION
 2
BLOCKS
 0
ENDSEC
 0
SECTION
 2
ENTITIES
 0
POLYLINE
 8
CUBO_6
 66
1
 10
0.0
 20
0.0
 30
0.0
 70
64
 71
8
 72
6
 0
VERTEX
 8
CUBO_6
 10
0.4903
 20
0.1364
 30
-0.0224
 70
192
 0
VERTEX
 8
CUBO_6
 10
0.4903
 20
0.1364
 30
0.0942
 70
192
 0
VERTEX
 8
CUBO_6
 10
0.9352
 20
0.1364
 30
-0.0224
 70
192
 0
VERTEX
 8
CUBO_6
 10
0.9352
 20
0.1364
 30
0.0942
 70
192
 0
VERTEX
 8
CUBO_6
 10
0.9352
 20
0.1491
 30
-0.0224
 70
192
 0
VERTEX
 8
CUBO_6
 10
0.9352
 20
0.1491
 30
0.0942
 70
192
 0
VERTEX
 8
CUBO_6
 10
0.4903
 20
0.1491
 30
-0.0224
 70
192
 0
VERTEX
 8
CUBO_6
 10
0.4903
 20
0.1491
 30
0.0942
 70
192
 0
VERTEX
 8
CUBO_6
 10
0
 20
0
 30
0
 70
128
 71
1
 72
2
 73
4
 74
3
 0
VERTEX
 8
CUBO_6
 10
0
 20
0
 30
0
 70
128
 71
3
 72
4
 73
6
 74
5
 0
VERTEX
 8
CUBO_6
 10
0
 20
0
 30
0
 70
128
 71
5
 72
6
 73
8
 74
7
 0
VERTEX
 8
CUBO_6
 10
0
 20
0
 30
0
 70
128
 71
7
 72
8
 73
2
 74
1
 0
VERTEX
 8
CUBO_6
 10
0
 20
0
 30
0
 70
128
 71
2
 72
8
 73
6
 74
4
 0
VERTEX
 8
CUBO_6
 10
0
 20
0
 30
0
 70
128
 71
7
 72
1
 73
3
 74
5
 0
SEQEND
 0
POLYLINE
 8
CUERPO
 66
1
 10
0.0
 20
0.0
 30
0.0
 70
64
 71
899
 72
625
 0
VERTEX
 8
CUERPO
 10
0.3968
 20
-0.0289
 30
-0.2248
 70
192
 0
VERTEX
 8
CUERPO
 10
0.3968
 20
-0.0289
 30
-0.1555
 70
192
 0
VERTEX
 8
CUERPO
 10
0.3968
 20
-0.0289
 30
-0.0862
 70
192
 0
VERTEX
 8
CUERPO
 10
0.3968
 20
-0.0289
 30
-0.0169
 70
192
 0
VERTEX
 8
CUERPO
 10
0.3968
 20
-0.0289
 30
0.0524
 70
192
 0
VERTEX
 8
CUERPO
 10
0.3968
 20
-0.0289
 30
0.1216
 70
192
 0
VERTEX
 8
CUERPO
 10
0.5286
 20
-0.0289
 30
-0.2248
 70
192
 0
VERTEX
 8
CUERPO
 10
0.5286
 20
-0.0289
 30
-0.1555
 70
192
 0
VERTEX
 8
CUERPO
 10
0.5286
 20
-0.0289
 30
-0.0862
 70
192
 0
VERTEX
 8
CUERPO
 10
0.5286
 20
-0.0289
 30
-0.0169
 70
192
 0
VERTEX
 8
CUERPO
 10
0.5286
 20
-0.0289
 30
0.0524
 70
192
 0
VERTEX
 8
CUERPO
 10
0.5286
 20
-0.0289
 30
0.1216
 70
192
 0
VERTEX
 8
CUERPO
 10
0.6604
 20
-0.0289
 30
-0.2248
 70
192
 0
VERTEX
 8
CUERPO
 10
0.6604
 20
-0.0289
 30
-0.1555
 70
192
 0
VERTEX
 8
CUERPO
 10
0.6604
 20
-0.0289
 30
-0.0862
 70
192
 0
VERTEX
 8
CUERPO
 10
0.6604
 20
-0.0289
 30
-0.0169
 70
192
 0
VERTEX
 8
CUERPO
 10
0.6604
 20
-0.0289
 30
0.0524
 70
192
 0
VERTEX
 8
CUERPO
 10
0.6604
 20
-0.0289
 30
0.1216
 70
192
 0
VERTEX
 8
CUERPO
 10
0.7922
 20
-0.0289
 30
-0.2248
 70
192
 0
VERTEX
 8
CUERPO
 10
0.7922
 20
-0.0289
 30
-0.1555
 70
192
 0
VERTEX
 8
CUERPO
 10
0.7922
 20
-0.0289
 30
-0.0862
 70
192
 0
VERTEX
 8
CUERPO
 10
0.7922
 20
-0.0289
 30
-0.0169
 70
192
 0
VERTEX
 8
CUERPO
 10
0.7922
 20
-0.0289
 30
0.0524
 70
192
 0
VERTEX
 8
CUERPO
 10
0.7922
 20
-0.0289
 30
0.1216
 70
192
 0
VERTEX
 8
CUERPO
 10
0.9239
 20
-0.0289
 30
-0.2248
 70
192
 0
VERTEX
 8
CUERPO
 10
0.9239
 20
-0.0289
 30
-0.1555
 70
192
 0
VERTEX
 8
CUERPO
 10
0.9239
 20
-0.0289
 30
-0.0862
 70
192
 0
VERTEX
 8
CUERPO
 10
0.9239
 20
-0.0289
 30
-0.0169
 70
192
 0
VERTEX
 8
CUERPO
 10
0.9239
 20
-0.0289
 30
0.0524
 70
192
 0
VERTEX
 8
CUERPO
 10
0.9239
 20
-0.0289
 30
0.1216
 70
192
 0
VERTEX
 8
CUERPO
 10
1.0557
 20
-0.0289
 30
-0.2248
 70
192
 0
VERTEX
 8
CUERPO
 10
1.0557
 20
-0.0289
 30
-0.1555
 70
192
 0
VERTEX
 8
CUERPO
 10
1.0557
 20
-0.0289
 30
-0.0862
 70
192
 0
VERTEX
 8
CUERPO
 10
1.0557
 20
-0.0289
 30
-0.0169
 70
192
 0
VERTEX
 8
CUERPO
 10
1.0557
 20
-0.0289
 30
0.0524
 70
192
 0
VERTEX
 8
CUERPO
 10
1.0557
 20
-0.0289
 30
0.1216
 70
192
 0
VERTEX
 8
CUERPO
 10
1.1875
 20
-0.0289
 30
-0.2248
 70
192
 0
VERTEX
 8
CUERPO
 10
1.1875
 20
-0.0289
 30
-0.1555
 70
192
 0
VERTEX
 8
CUERPO
 10
1.1875
 20
-0.0289
 30
-0.0862
 70
192
 0
VERTEX
 8
CUERPO
 10
1.1875
 20
-0.0289
 30
-0.0169
 70
192
 0
VERTEX
 8
CUERPO
 10
1.1875
 20
-0.0289
 30
0.0524
 70
192
 0
VERTEX
 8
CUERPO
 10
1.1875
 20
-0.0289
 30
0.1216
 70
192
 0
VERTEX
 8
CUERPO
 10
1.3193
 20
-0.0289
 30
-0.2248
 70
192
 0
VERTEX
 8
CUERPO
 10
1.3193
 20
-0.0289
 30
-0.1555
 70
192
 0
VERTEX
 8
CUERPO
 10
1.3193
 20
-0.0289
 30
-0.0862
 70
192
 0
VERTEX
 8
CUERPO
 10
1.3193
 20
-0.0289
 30
-0.0169
 70
192
 0
VERTEX
 8
CUERPO
 10
1.3193
 20
-0.0289
 30
0.0524
 70
192
 0
VERTEX
 8
CUERPO
 10
1.2838
 20
-0.0289
 30
0.1153
 70
192
 0
VERTEX
 8
CUERPO
 10
1.4511
 20
-0.0289
 30
-0.2248
 70
192
 0
VERTEX
 8
CUERPO
 10
1.4511
 20
-0.0289
 30
-0.1555
 70
192
 0
VERTEX
 8
CUERPO
 10
1.4511
 20
-0.0289
 30
-0.0862
 70
192
 0
VERTEX
 8
CUERPO
 10
1.4511
 20
-0.0289
 30
-0.0169
 70
192
 0
VERTEX
 8
CUERPO
 10
1.4511
 20
-0.0188
 30
0.0419
 70
192
 0
VERTEX
 8
CUERPO
 10
1.4511
 20
-0.0151
 30
0.0591
 70
192
 0
VERTEX
 8
CUERPO
 10
1.4511
 20
0.1547
 30
-0.2248
 70
192
 0
VERTEX
 8
CUERPO
 10
1.4511
 20
0.1547
 30
-0.1555
 70
192
 0
VERTEX
 8
CUERPO
 10
1.4511
 20
0.1547
 30
-0.0862
 70
192
 0
VERTEX
 8
CUERPO
 10
1.4511
 20
0.1547
 30
-0.0169
 70
192
 0
VERTEX
 8
CUERPO
 10
1.4511
 20
0.1448
 30
0.0419
 70
192
 0
VERTEX
 8
CUERPO
 10
1.4511
 20
0.1428
 30
0.0591
 70
192
 0
VERTEX
 8
CUERPO
 10
1.3193
 20
0.1547
 30
-0.2248
 70
192
 0
VERTEX
 8
CUERPO
 10
1.3193
 20
0.1547
 30
-0.1555
 70
192
 0
VERTEX
 8
CUERPO
 10
1.3193
 20
0.1547
 30
-0.0862
 70
192
 0
VERTEX
 8
CUERPO
 10
1.3193
 20
0.1547
 30
-0.0169
 70
192
 0
VERTEX
 8
CUERPO
 10
1.3193
 20
0.1547
 30
0.0524
 70
192
 0
VERTEX
 8
CUERPO
 10
1.2838
 20
0.1547
 30
0.1153
 70
192
 0
VERTEX
 8
CUERPO
 10
1.1875
 20
0.1547
 30
-0.2248
 70
192
 0
VERTEX
 8
CUERPO
 10
1.1875
 20
0.1547
 30
-0.1555
 70
192
 0
VERTEX
 8
CUERPO
 10
1.1875
 20
0.1547
 30
-0.0862
 70
192
 0
VERTEX
 8
CUERPO
 10
1.1875
 20
0.1547
 30
-0.0169
 70
192
 0
VERTEX
 8
CUERPO
 10
1.1875
 20
0.1547
 30
0.0524
 70
192
 0
VERTEX
 8
CUERPO
 10
1.1875
 20
0.1547
 30
0.1216
 70
192
 0
VERTEX
 8
CUERPO
 10
1.0557
 20
0.1547
 30
-0.2248
 70
192
 0
VERTEX
 8
CUERPO
 10
1.0557
 20
0.1547
 30
-0.1555
 70
192
 0
VERTEX
 8
CUERPO
 10
1.0557
 20
0.1547
 30
-0.0862
 70
192
 0
VERTEX
 8
CUERPO
 10
1.0557
 20
0.1547
 30
-0.0169
 70
192
 0
VERTEX
 8
CUERPO
 10
1.0557
 20
0.1547
 30
0.0524
 70
192
 0
VERTEX
 8
CUERPO
 10
1.0557
 20
0.1547
 30
0.1216
 70
192
 0
VERTEX
 8
CUERPO
 10
0.9239
 20
0.1547
 30
-0.2248
 70
192
 0
VERTEX
 8
CUERPO
 10
0.9239
 20
0.1547
 30
-0.1555
 70
192
 0
VERTEX
 8
CUERPO
 10
0.9239
 20
0.1547
 30
-0.0862
 70
192
 0
VERTEX
 8
CUERPO
 10
0.9239
 20
0.1547
 30
-0.0169
 70
192
 0
VERTEX
 8
CUERPO
 10
0.9239
 20
0.1547
 30
0.0524
 70
192
 0
VERTEX
 8
CUERPO
 10
0.9239
 20
0.1547
 30
0.1216
 70
192
 0
VERTEX
 8
CUERPO
 10
0.7922
 20
0.1547
 30
-0.2248
 70
192
 0
VERTEX
 8
CUERPO
 10
0.7922
 20
0.1547
 30
-0.1555
 70
192
 0
VERTEX
 8
CUERPO
 10
0.7922
 20
0.1547
 30
-0.0862
 70
192
 0
VERTEX
 8
CUERPO
 10
0.7922
 20
0.1547
 30
-0.0169
 70
192
 0
VERTEX
 8
CUERPO
 10
0.7922
 20
0.1547
 30
0.1216
 70
192
 0
VERTEX
 8
CUERPO
 10
0.6604
 20
0.1547
 30
-0.2248
 70
192
 0
VERTEX
 8
CUERPO
 10
0.6604
 20
0.1547
 30
-0.1555
 70
192
 0
VERTEX
 8
CUERPO
 10
0.6604
 20
0.1547
 30
-0.0862
 70
192
 0
VERTEX
 8
CUERPO
 10
0.6604
 20
0.1547
 30
-0.0169
 70
192
 0
VERTEX
 8
CUERPO
 10
0.6604
 20
0.1547
 30
0.1216
 70
192
 0
VERTEX
 8
CUERPO
 10
0.5286
 20
0.1547
 30
-0.2248
 70
192
 0
VERTEX
 8
CUERPO
 10
0.5286
 20
0.1547
 30
-0.1555
 70
192
 0
VERTEX
 8
CUERPO
 10
0.5286
 20
0.1547
 30
-0.0862
 70
192
 0
VERTEX
 8
CUERPO
 10
0.5286
 20
0.1547
 30
-0.0169
 70
192
 0
VERTEX
 8
CUERPO
 10
0.5286
 20
0.1547
 30
0.1216
 70
192
 0
VERTEX
 8
CUERPO
 10
0.3968
 20
0.1547
 30
-0.2248
 70
192
 0
VERTEX
 8
CUERPO
 10
0.3968
 20
0.1547
 30
-0.1555
 70
192
 0
VERTEX
 8
CUERPO
 10
0.3968
 20
0.1547
 30
-0.0862
 70
192
 0
VERTEX
 8
CUERPO
 10
0.3968
 20
0.1547
 30
-0.0169
 70
192
 0
VERTEX
 8
CUERPO
 10
0.3968
 20
0.1547
 30
0.0524
 70
192
 0
VERTEX
 8
CUERPO
 10
0.3968
 20
0.1547
 30
0.1216
 70
192
 0
VERTEX
 8
CUERPO
 10
0.7922
 20
0.1547
 30
-0.0147
 70
192
 0
VERTEX
 8
CUERPO
 10
0.9215
 20
0.1547
 30
0.0524
 70
192
 0
VERTEX
 8
CUERPO
 10
0.6604
 20
0.1547
 30
-0.0147
 70
192
 0
VERTEX
 8
CUERPO
 10
0.5039
 20
0.1547
 30
0.0524
 70
192
 0
VERTEX
 8
CUERPO
 10
0.5286
 20
0.1547
 30
-0.0147
 70
192
 0
VERTEX
 8
CUERPO
 10
0.7922
 20
0.1547
 30
0.0907
 70
192
 0
VERTEX
 8
CUERPO
 10
0.6604
 20
0.1547
 30
0.0907
 70
192
 0
VERTEX
 8
CUERPO
 10
0.5286
 20
0.1547
 30
0.0907
 70
192
 0
VERTEX
 8
CUERPO
 10
0.9215
 20
0.1547
 30
-0.0147
 70
192
 0
VERTEX
 8
CUERPO
 10
0.9215
 20
0.1547
 30
0.0907
 70
192
 0
VERTEX
 8
CUERPO
 10
0.5039
 20
0.1547
 30
0.0907
 70
192
 0
VERTEX
 8
CUERPO
 10
0.5039
 20
0.1547
 30
-0.0147
 70
192
 0
VERTEX
 8
CUERPO
 10
0.5039
 20
0.1347
 30
-0.0147
 70
192
 0
VERTEX
 8
CUERPO
 10
0.5039
 20
0.1347
 30
0.0907
 70
192
 0
VERTEX
 8
CUERPO
 10
0.9215
 20
0.1347
 30
-0.0147
 70
192
 0
VERTEX
 8
CUERPO
 10
0.9215
 20
0.1347
 30
0.0907
 70
192
 0
VERTEX
 8
CUERPO
 10
0.9215
 20
0.1547
 30
-0.0147
 70
192
 0
VERTEX
 8
CUERPO
 10
0.5039
 20
0.1547
 30
-0.0147
 70
192
 0
VERTEX
 8
CUERPO
 10
0.9215
 20
0.1547
 30
0.0907
 70
192
 0
VERTEX
 8
CUERPO
 10
0.5039
 20
0.1547
 30
0.0907
 70
192
 0
VERTEX
 8
CUERPO
 10
0.9215
 20
0.1547
 30
0.0524
 70
192
 0
VERTEX
 8
CUERPO
 10
0.7922
 20
0.1547
 30
-0.0147
 70
192
 0
VERTEX
 8
CUERPO
 10
0.6604
 20
0.1547
 30
-0.0147
 70
192
 0
VERTEX
 8
CUERPO
 10
0.5286
 20
0.1547
 30
-0.0147
 70
192
 0
VERTEX
 8
CUERPO
 10
0.7922
 20
0.1547
 30
0.0907
 70
192
 0
VERTEX
 8
CUERPO
 10
0.5039
 20
0.1547
 30
0.0524
 70
192
 0
VERTEX
 8
CUERPO
 10
0.6604
 20
0.1547
 30
0.0907
 70
192
 0
VERTEX
 8
CUERPO
 10
0.5286
 20
0.1547
 30
0.0907
 70
192
 0
VERTEX
 8
CUERPO
 10
-2.2272
 20
0.0461
 30
0.0627
 70
192
 0
VERTEX
 8
CUERPO
 10
-2.2538
 20
0.0461
 30
0.1072
 70
192
 0
VERTEX
 8
CUERPO
 10
-2.1483
 20
0.0461
 30
0.1096
 70
192
 0
VERTEX
 8
CUERPO
 10
-2.1748
 20
0.0461
 30
0.1542
 70
192
 0
VERTEX
 8
CUERPO
 10
-2.1483
 20
0.0746
 30
0.1096
 70
192
 0
VERTEX
 8
CUERPO
 10
-2.1748
 20
0.0746
 30
0.1542
 70
192
 0
VERTEX
 8
CUERPO
 10
-2.2272
 20
0.0746
 30
0.0627
 70
192
 0
VERTEX
 8
CUERPO
 10
-2.2538
 20
0.0746
 30
0.1072
 70
192
 0
VERTEX
 8
CUERPO
 10
-2.2779
 20
0.035
 30
-0.0498
 70
192
 0
VERTEX
 8
CUERPO
 10
-2.2779
 20
0.035
 30
-0.0238
 70
192
 0
VERTEX
 8
CUERPO
 10
-2.1241
 20
0.035
 30
-0.0498
 70
192
 0
VERTEX
 8
CUERPO
 10
-2.1241
 20
0.035
 30
-0.0238
 70
192
 0
VERTEX
 8
CUERPO
 10
-2.1241
 20
0.0857
 30
-0.0498
 70
192
 0
VERTEX
 8
CUERPO
 10
-2.1241
 20
0.0857
 30
-0.0238
 70
192
 0
VERTEX
 8
CUERPO
 10
-2.2779
 20
0.0857
 30
-0.0498
 70
192
 0
VERTEX
 8
CUERPO
 10
-2.2779
 20
0.0857
 30
-0.0238
 70
192
 0
VERTEX
 8
CUERPO
 10
-2.2904
 20
0.0609
 30
0.0455
 70
192
 0
VERTEX
 8
CUERPO
 10
-2.1114
 20
0.0609
 30
0.0455
 70
192
 0
VERTEX
 8
CUERPO
 10
-2.2904
 20
0.0609
 30
-0.0317
 70
192
 0
VERTEX
 8
CUERPO
 10
-2.2904
 20
0.0609
 30
-0.0317
 70
192
 0
VERTEX
 8
CUERPO
 10
-2.1114
 20
0.0609
 30
-0.0317
 70
192
 0
VERTEX
 8
CUERPO
 10
-2.1114
 20
0.0609
 30
-0.0317
 70
192
 0
VERTEX
 8
CUERPO
 10
-2.2904
 20
0.0743
 30
-0.0305
 70
192
 0
VERTEX
 8
CUERPO
 10
-2.2904
 20
0.0743
 30
-0.0305
 70
192
 0
VERTEX
 8
CUERPO
 10
-2.1114
 20
0.0743
 30
-0.0305
 70
192
 0
VERTEX
 8
CUERPO
 10
-2.1114
 20
0.0743
 30
-0.0305
 70
192
 0
VERTEX
 8
CUERPO
 10
-2.2904
 20
0.0873
 30
-0.027
 70
192
 0
VERTEX
 8
CUERPO
 10
-2.2904
 20
0.0873
 30
-0.027
 70
192
 0
VERTEX
 8
CUERPO
 10
-2.1114
 20
0.0873
 30
-0.027
 70
192
 0
VERTEX
 8
CUERPO
 10
-2.1114
 20
0.0873
 30
-0.027
 70
192
 0
VERTEX
 8
CUERPO
 10
-2.2904
 20
0.0995
 30
-0.0213
 70
192
 0
VERTEX
 8
CUERPO
 10
-2.2904
 20
0.0995
 30
-0.0213
 70
192
 0
VERTEX
 8
CUERPO
 10
-2.1114
 20
0.0995
 30
-0.0213
 70
192
 0
VERTEX
 8
CUERPO
 10
-2.1114
 20
0.0995
 30
-0.0213
 70
192
 0
VERTEX
 8
CUERPO
 10
-2.2904
 20
0.1105
 30
-0.0136
 70
192
 0
VERTEX
 8
CUERPO
 10
-2.2904
 20
0.1105
 30
-0.0136
 70
192
 0
VERTEX
 8
CUERPO
 10
-2.1114
 20
0.1105
 30
-0.0136
 70
192
 0
VERTEX
 8
CUERPO
 10
-2.1114
 20
0.1105
 30
-0.0136
 70
192
 0
VERTEX
 8
CUERPO
 10
-2.2904
 20
0.12
 30
-0.0041
 70
192
 0
VERTEX
 8
CUERPO
 10
-2.2904
 20
0.12
 30
-0.0041
 70
192
 0
VERTEX
 8
CUERPO
 10
-2.1114
 20
0.12
 30
-0.0041
 70
192
 0
VERTEX
 8
CUERPO
 10
-2.1114
 20
0.12
 30
-0.0041
 70
192
 0
VERTEX
 8
CUERPO
 10
-2.2904
 20
0.1277
 30
0.0069
 70
192
 0
VERTEX
 8
CUERPO
 10
-2.2904
 20
0.1277
 30
0.0069
 70
192
 0
VERTEX
 8
CUERPO
 10
-2.1114
 20
0.1277
 30
0.0069
 70
192
 0
VERTEX
 8
CUERPO
 10
-2.1114
 20
0.1277
 30
0.0069
 70
192
 0
VERTEX
 8
CUERPO
 10
-2.2904
 20
0.1334
 30
0.0191
 70
192
 0
VERTEX
 8
CUERPO
 10
-2.2904
 20
0.1334
 30
0.0191
 70
192
 0
VERTEX
 8
CUERPO
 10
-2.1114
 20
0.1334
 30
0.0191
 70
192
 0
VERTEX
 8
CUERPO
 10
-2.1114
 20
0.1334
 30
0.0191
 70
192
 0
VERTEX
 8
CUERPO
 10
-2.2904
 20
0.1369
 30
0.0321
 70
192
 0
VERTEX
 8
CUERPO
 10
-2.2904
 20
0.1369
 30
0.0321
 70
192
 0
VERTEX
 8
CUERPO
 10
-2.1114
 20
0.1369
 30
0.0321
 70
192
 0
VERTEX
 8
CUERPO
 10
-2.1114
 20
0.1369
 30
0.0321
 70
192
 0
VERTEX
 8
CUERPO
 10
-2.2904
 20
0.1381
 30
0.0455
 70
192
 0
VERTEX
 8
CUERPO
 10
-2.2904
 20
0.1381
 30
0.0455
 70
192
 0
VERTEX
 8
CUERPO
 10
-2.1114
 20
0.1381
 30
0.0455
 70
192
 0
VERTEX
 8
CUERPO
 10
-2.1114
 20
0.1381
 30
0.0455
 70
192
 0
VERTEX
 8
CUERPO
 10
-2.2904
 20
0.1369
 30
0.0589
 70
192
 0
VERTEX
 8
CUERPO
 10
-2.2904
 20
0.1369
 30
0.0589
 70
192
 0
VERTEX
 8
CUERPO
 10
-2.1114
 20
0.1369
 30
0.0589
 70
192
 0
VERTEX
 8
CUERPO
 10
-2.1114
 20
0.1369
 30
0.0589
 70
192
 0
VERTEX
 8
CUERPO
 10
-2.2904
 20
0.1334
 30
0.0719
 70
192
 0
VERTEX
 8
CUERPO
 10
-2.2904
 20
0.1334
 30
0.0719
 70
192
 0
VERTEX
 8
CUERPO
 10
-2.1114
 20
0.1334
 30
0.0719
 70
192
 0
VERTEX
 8
CUERPO
 10
-2.1114
 20
0.1334
 30
0.0719
 70
192
 0
VERTEX
 8
CUERPO
 10
-2.2904
 20
0.1277
 30
0.0841
 70
192
 0
VERTEX
 8
CUERPO
 10
-2.2904
 20
0.1277
 30
0.0841
 70
192
 0
VERTEX
 8
CUERPO
 10
-2.1114
 20
0.1277
 30
0.0841
 70
192
 0
VERTEX
 8
CUERPO
 10
-2.1114
 20
0.1277
 30
0.0841
 70
192
 0
VERTEX
 8
CUERPO
 10
-2.2904
 20
0.12
 30
0.0951
 70
192
 0
VERTEX
 8
CUERPO
 10
-2.2904
 20
0.12
 30
0.0951
 70
192
 0
VERTEX
 8
CUERPO
 10
-2.1114
 20
0.12
 30
0.0951
 70
192
 0
VERTEX
 8
CUERPO
 10
-2.1114
 20
0.12
 30
0.0951
 70
192
 0
VERTEX
 8
CUERPO
 10
-2.2904
 20
0.1105
 30
0.1047
 70
192
 0
VERTEX
 8
CUERPO
 10
-2.2904
 20
0.1105
 30
0.1047
 70
192
 0
VERTEX
 8
CUERPO
 10
-2.1114
 20
0.1105
 30
0.1047
 70
192
 0
VERTEX
 8
CUERPO
 10
-2.1114
 20
0.1105
 30
0.1047
 70
192
 0
VERTEX
 8
CUERPO
 10
-2.2904
 20
0.0995
 30
0.1124
 70
192
 0
VERTEX
 8
CUERPO
 10
-2.2904
 20
0.0995
 30
0.1124
 70
192
 0
VERTEX
 8
CUERPO
 10
-2.1114
 20
0.0995
 30
0.1124
 70
192
 0
VERTEX
 8
CUERPO
 10
-2.1114
 20
0.0995
 30
0.1124
 70
192
 0
VERTEX
 8
CUERPO
 10
-2.2904
 20
0.0873
 30
0.1181
 70
192
 0
VERTEX
 8
CUERPO
 10
-2.2904
 20
0.0873
 30
0.1181
 70
192
 0
VERTEX
 8
CUERPO
 10
-2.1114
 20
0.0873
 30
0.1181
 70
192
 0
VERTEX
 8
CUERPO
 10
-2.1114
 20
0.0873
 30
0.1181
 70
192
 0
VERTEX
 8
CUERPO
 10
-2.2904
 20
0.0743
 30
0.1215
 70
192
 0
VERTEX
 8
CUERPO
 10
-2.2904
 20
0.0743
 30
0.1215
 70
192
 0
VERTEX
 8
CUERPO
 10
-2.1114
 20
0.0743
 30
0.1215
 70
192
 0
VERTEX
 8
CUERPO
 10
-2.1114
 20
0.0743
 30
0.1215
 70
192
 0
VERTEX
 8
CUERPO
 10
-2.2904
 20
0.0609
 30
0.1227
 70
192
 0
VERTEX
 8
CUERPO
 10
-2.2904
 20
0.0609
 30
0.1227
 70
192
 0
VERTEX
 8
CUERPO
 10
-2.1114
 20
0.0609
 30
0.1227
 70
192
 0
VERTEX
 8
CUERPO
 10
-2.1114
 20
0.0609
 30
0.1227
 70
192
 0
VERTEX
 8
CUERPO
 10
-2.2904
 20
0.0475
 30
0.1215
 70
192
 0
VERTEX
 8
CUERPO
 10
-2.2904
 20
0.0475
 30
0.1215
 70
192
 0
VERTEX
 8
CUERPO
 10
-2.1114
 20
0.0475
 30
0.1215
 70
192
 0
VERTEX
 8
CUERPO
 10
-2.1114
 20
0.0475
 30
0.1215
 70
192
 0
VERTEX
 8
CUERPO
 10
-2.2904
 20
0.0345
 30
0.1181
 70
192
 0
VERTEX
 8
CUERPO
 10
-2.2904
 20
0.0345
 30
0.1181
 70
192
 0
VERTEX
 8
CUERPO
 10
-2.1114
 20
0.0345
 30
0.1181
 70
192
 0
VERTEX
 8
CUERPO
 10
-2.1114
 20
0.0345
 30
0.1181
 70
192
 0
VERTEX
 8
CUERPO
 10
-2.2904
 20
0.0223
 30
0.1124
 70
192
 0
VERTEX
 8
CUERPO
 10
-2.2904
 20
0.0223
 30
0.1124
 70
192
 0
VERTEX
 8
CUERPO
 10
-2.1114
 20
0.0223
 30
0.1124
 70
192
 0
VERTEX
 8
CUERPO
 10
-2.1114
 20
0.0223
 30
0.1124
 70
192
 0
VERTEX
 8
CUERPO
 10
-2.2904
 20
0.0113
 30
0.1047
 70
192
 0
VERTEX
 8
CUERPO
 10
-2.2904
 20
0.0113
 30
0.1047
 70
192
 0
VERTEX
 8
CUERPO
 10
-2.1114
 20
0.0113
 30
0.1047
 70
192
 0
VERTEX
 8
CUERPO
 10
-2.1114
 20
0.0113
 30
0.1047
 70
192
 0
VERTEX
 8
CUERPO
 10
-2.2904
 20
0.0017
 30
0.0951
 70
192
 0
VERTEX
 8
CUERPO
 10
-2.2904
 20
0.0017
 30
0.0951
 70
192
 0
VERTEX
 8
CUERPO
 10
-2.1114
 20
0.0017
 30
0.0951
 70
192
 0
VERTEX
 8
CUERPO
 10
-2.1114
 20
0.0017
 30
0.0951
 70
192
 0
VERTEX
 8
CUERPO
 10
-2.2904
 20
-0.006
 30
0.0841
 70
192
 0
VERTEX
 8
CUERPO
 10
-2.2904
 20
-0.006
 30
0.0841
 70
192
 0
VERTEX
 8
CUERPO
 10
-2.1114
 20
-0.006
 30
0.0841
 70
192
 0
VERTEX
 8
CUERPO
 10
-2.1114
 20
-0.006
 30
0.0841
 70
192
 0
VERTEX
 8
CUERPO
 10
-2.2904
 20
-0.0117
 30
0.0719
 70
192
 0
VERTEX
 8
CUERPO
 10
-2.2904
 20
-0.0117
 30
0.0719
 70
192
 0
VERTEX
 8
CUERPO
 10
-2.1114
 20
-0.0117
 30
0.0719
 70
192
 0
VERTEX
 8
CUERPO
 10
-2.1114
 20
-0.0117
 30
0.0719
 70
192
 0
VERTEX
 8
CUERPO
 10
-2.2904
 20
-0.0151
 30
0.0589
 70
192
 0
VERTEX
 8
CUERPO
 10
-2.2904
 20
-0.0151
 30
0.0589
 70
192
 0
VERTEX
 8
CUERPO
 10
-2.1114
 20
-0.0151
 30
0.0589
 70
192
 0
VERTEX
 8
CUERPO
 10
-2.1114
 20
-0.0151
 30
0.0589
 70
192
 0
VERTEX
 8
CUERPO
 10
-2.2904
 20
-0.0163
 30
0.0455
 70
192
 0
VERTEX
 8
CUERPO
 10
-2.2904
 20
-0.0163
 30
0.0455
 70
192
 0
VERTEX
 8
CUERPO
 10
-2.1114
 20
-0.0163
 30
0.0455
 70
192
 0
VERTEX
 8
CUERPO
 10
-2.1114
 20
-0.0163
 30
0.0455
 70
192
 0
VERTEX
 8
CUERPO
 10
-2.2904
 20
-0.0151
 30
0.0321
 70
192
 0
VERTEX
 8
CUERPO
 10
-2.2904
 20
-0.0151
 30
0.0321
 70
192
 0
VERTEX
 8
CUERPO
 10
-2.1114
 20
-0.0151
 30
0.0321
 70
192
 0
VERTEX
 8
CUERPO
 10
-2.1114
 20
-0.0151
 30
0.0321
 70
192
 0
VERTEX
 8
CUERPO
 10
-2.2904
 20
-0.0117
 30
0.0191
 70
192
 0
VERTEX
 8
CUERPO
 10
-2.2904
 20
-0.0117
 30
0.0191
 70
192
 0
VERTEX
 8
CUERPO
 10
-2.1114
 20
-0.0117
 30
0.0191
 70
192
 0
VERTEX
 8
CUERPO
 10
-2.1114
 20
-0.0117
 30
0.0191
 70
192
 0
VERTEX
 8
CUERPO
 10
-2.2904
 20
-0.006
 30
0.0069
 70
192
 0
VERTEX
 8
CUERPO
 10
-2.2904
 20
-0.006
 30
0.0069
 70
192
 0
VERTEX
 8
CUERPO
 10
-2.1114
 20
-0.006
 30
0.0069
 70
192
 0
VERTEX
 8
CUERPO
 10
-2.1114
 20
-0.006
 30
0.0069
 70
192
 0
VERTEX
 8
CUERPO
 10
-2.2904
 20
0.0017
 30
-0.0041
 70
192
 0
VERTEX
 8
CUERPO
 10
-2.2904
 20
0.0017
 30
-0.0041
 70
192
 0
VERTEX
 8
CUERPO
 10
-2.1114
 20
0.0017
 30
-0.0041
 70
192
 0
VERTEX
 8
CUERPO
 10
-2.1114
 20
0.0017
 30
-0.0041
 70
192
 0
VERTEX
 8
CUERPO
 10
-2.2904
 20
0.0113
 30
-0.0136
 70
192
 0
VERTEX
 8
CUERPO
 10
-2.2904
 20
0.0113
 30
-0.0136
 70
192
 0
VERTEX
 8
CUERPO
 10
-2.1114
 20
0.0113
 30
-0.0136
 70
192
 0
VERTEX
 8
CUERPO
 10
-2.1114
 20
0.0113
 30
-0.0136
 70
192
 0
VERTEX
 8
CUERPO
 10
-2.2904
 20
0.0223
 30
-0.0213
 70
192
 0
VERTEX
 8
CUERPO
 10
-2.2904
 20
0.0223
 30
-0.0213
 70
192
 0
VERTEX
 8
CUERPO
 10
-2.1114
 20
0.0223
 30
-0.0213
 70
192
 0
VERTEX
 8
CUERPO
 10
-2.1114
 20
0.0223
 30
-0.0213
 70
192
 0
VERTEX
 8
CUERPO
 10
-2.2904
 20
0.0345
 30
-0.027
 70
192
 0
VERTEX
 8
CUERPO
 10
-2.2904
 20
0.0345
 30
-0.027
 70
192
 0
VERTEX
 8
CUERPO
 10
-2.1114
 20
0.0345
 30
-0.027
 70
192
 0
VERTEX
 8
CUERPO
 10
-2.1114
 20
0.0345
 30
-0.027
 70
192
 0
VERTEX
 8
CUERPO
 10
-2.2904
 20
0.0475
 30
-0.0305
 70
192
 0
VERTEX
 8
CUERPO
 10
-2.2904
 20
0.0475
 30
-0.0305
 70
192
 0
VERTEX
 8
CUERPO
 10
-2.1114
 20
0.0475
 30
-0.0305
 70
192
 0
VERTEX
 8
CUERPO
 10
-2.1114
 20
0.0475
 30
-0.0305
 70
192
 0
VERTEX
 8
CUERPO
 10
-2.3263
 20
0.0613
 30
-0.1377
 70
192
 0
VERTEX
 8
CUERPO
 10
-2.0755
 20
0.0613
 30
-0.1377
 70
192
 0
VERTEX
 8
CUERPO
 10
-2.3263
 20
0.0613
 30
-0.2312
 70
192
 0
VERTEX
 8
CUERPO
 10
-2.3263
 20
0.0613
 30
-0.2312
 70
192
 0
VERTEX
 8
CUERPO
 10
-2.0755
 20
0.0613
 30
-0.2312
 70
192
 0
VERTEX
 8
CUERPO
 10
-2.0755
 20
0.0613
 30
-0.2312
 70
192
 0
VERTEX
 8
CUERPO
 10
-2.3263
 20
0.0776
 30
-0.2297
 70
192
 0
VERTEX
 8
CUERPO
 10
-2.3263
 20
0.0776
 30
-0.2297
 70
192
 0
VERTEX
 8
CUERPO
 10
-2.0755
 20
0.0776
 30
-0.2297
 70
192
 0
VERTEX
 8
CUERPO
 10
-2.0755
 20
0.0776
 30
-0.2297
 70
192
 0
VERTEX
 8
CUERPO
 10
-2.3263
 20
0.0933
 30
-0.2255
 70
192
 0
VERTEX
 8
CUERPO
 10
-2.3263
 20
0.0933
 30
-0.2255
 70
192
 0
VERTEX
 8
CUERPO
 10
-2.0755
 20
0.0933
 30
-0.2255
 70
192
 0
VERTEX
 8
CUERPO
 10
-2.0755
 20
0.0933
 30
-0.2255
 70
192
 0
VERTEX
 8
CUERPO
 10
-2.3263
 20
0.1081
 30
-0.2186
 70
192
 0
VERTEX
 8
CUERPO
 10
-2.3263
 20
0.1081
 30
-0.2186
 70
192
 0
VERTEX
 8
CUERPO
 10
-2.0755
 20
0.1081
 30
-0.2186
 70
192
 0
VERTEX
 8
CUERPO
 10
-2.0755
 20
0.1081
 30
-0.2186
 70
192
 0
VERTEX
 8
CUERPO
 10
-2.3263
 20
0.1214
 30
-0.2093
 70
192
 0
VERTEX
 8
CUERPO
 10
-2.3263
 20
0.1214
 30
-0.2093
 70
192
 0
VERTEX
 8
CUERPO
 10
-2.0755
 20
0.1214
 30
-0.2093
 70
192
 0
VERTEX
 8
CUERPO
 10
-2.0755
 20
0.1214
 30
-0.2093
 70
192
 0
VERTEX
 8
CUERPO
 10
-2.3263
 20
0.1329
 30
-0.1978
 70
192
 0
VERTEX
 8
CUERPO
 10
-2.3263
 20
0.1329
 30
-0.1978
 70
192
 0
VERTEX
 8
CUERPO
 10
-2.0755
 20
0.1329
 30
-0.1978
 70
192
 0
VERTEX
 8
CUERPO
 10
-2.0755
 20
0.1329
 30
-0.1978
 70
192
 0
VERTEX
 8
CUERPO
 10
-2.3263
 20
0.1423
 30
-0.1844
 70
192
 0
VERTEX
 8
CUERPO
 10
-2.3263
 20
0.1423
 30
-0.1844
 70
192
 0
VERTEX
 8
CUERPO
 10
-2.0755
 20
0.1423
 30
-0.1844
 70
192
 0
VERTEX
 8
CUERPO
 10
-2.0755
 20
0.1423
 30
-0.1844
 70
192
 0
VERTEX
 8
CUERPO
 10
-2.3263
 20
0.1492
 30
-0.1696
 70
192
 0
VERTEX
 8
CUERPO
 10
-2.3263
 20
0.1492
 30
-0.1696
 70
192
 0
VERTEX
 8
CUERPO
 10
-2.0755
 20
0.1492
 30
-0.1696
 70
192
 0
VERTEX
 8
CUERPO
 10
-2.0755
 20
0.1492
 30
-0.1696
 70
192
 0
VERTEX
 8
CUERPO
 10
-2.3263
 20
0.1534
 30
-0.1539
 70
192
 0
VERTEX
 8
CUERPO
 10
-2.3263
 20
0.1534
 30
-0.1539
 70
192
 0
VERTEX
 8
CUERPO
 10
-2.0755
 20
0.1534
 30
-0.1539
 70
192
 0
VERTEX
 8
CUERPO
 10
-2.0755
 20
0.1534
 30
-0.1539
 70
192
 0
VERTEX
 8
CUERPO
 10
-2.3263
 20
0.1548
 30
-0.1377
 70
192
 0
VERTEX
 8
CUERPO
 10
-2.3263
 20
0.1548
 30
-0.1377
 70
192
 0
VERTEX
 8
CUERPO
 10
-2.0755
 20
0.1548
 30
-0.1377
 70
192
 0
VERTEX
 8
CUERPO
 10
-2.0755
 20
0.1548
 30
-0.1377
 70
192
 0
VERTEX
 8
CUERPO
 10
-2.3263
 20
0.1534
 30
-0.1214
 70
192
 0
VERTEX
 8
CUERPO
 10
-2.3263
 20
0.1534
 30
-0.1214
 70
192
 0
VERTEX
 8
CUERPO
 10
-2.0755
 20
0.1534
 30
-0.1214
 70
192
 0
VERTEX
 8
CUERPO
 10
-2.0755
 20
0.1534
 30
-0.1214
 70
192
 0
VERTEX
 8
CUERPO
 10
-2.3263
 20
0.1492
 30
-0.1057
 70
192
 0
VERTEX
 8
CUERPO
 10
-2.3263
 20
0.1492
 30
-0.1057
 70
192
 0
VERTEX
 8
CUERPO
 10
-2.0755
 20
0.1492
 30
-0.1057
 70
192
 0
VERTEX
 8
CUERPO
 10
-2.0755
 20
0.1492
 30
-0.1057
 70
192
 0
VERTEX
 8
CUERPO
 10
-2.3263
 20
0.1423
 30
-0.0909
 70
192
 0
VERTEX
 8
CUERPO
 10
-2.3263
 20
0.1423
 30
-0.0909
 70
192
 0
VERTEX
 8
CUERPO
 10
-2.0755
 20
0.1423
 30
-0.0909
 70
192
 0
VERTEX
 8
CUERPO
 10
-2.0755
 20
0.1423
 30
-0.0909
 70
192
 0
VERTEX
 8
CUERPO
 10
-2.3263
 20
0.1329
 30
-0.0776
 70
192
 0
VERTEX
 8
CUERPO
 10
-2.3263
 20
0.1329
 30
-0.0776
 70
192
 0
VERTEX
 8
CUERPO
 10
-2.0755
 20
0.1329
 30
-0.0776
 70
192
 0
VERTEX
 8
CUERPO
 10
-2.0755
 20
0.1329
 30
-0.0776
 70
192
 0
VERTEX
 8
CUERPO
 10
-2.3263
 20
0.1214
 30
-0.066
 70
192
 0
VERTEX
 8
CUERPO
 10
-2.3263
 20
0.1214
 30
-0.066
 70
192
 0
VERTEX
 8
CUERPO
 10
-2.0755
 20
0.1214
 30
-0.066
 70
192
 0
VERTEX
 8
CUERPO
 10
-2.0755
 20
0.1214
 30
-0.066
 70
192
 0
VERTEX
 8
CUERPO
 10
-2.3263
 20
0.1081
 30
-0.0567
 70
192
 0
VERTEX
 8
CUERPO
 10
-2.3263
 20
0.1081
 30
-0.0567
 70
192
 0
VERTEX
 8
CUERPO
 10
-2.0755
 20
0.1081
 30
-0.0567
 70
192
 0
VERTEX
 8
CUERPO
 10
-2.0755
 20
0.1081
 30
-0.0567
 70
192
 0
VERTEX
 8
CUERPO
 10
-2.3263
 20
0.0933
 30
-0.0498
 70
192
 0
VERTEX
 8
CUERPO
 10
-2.3263
 20
0.0933
 30
-0.0498
 70
192
 0
VERTEX
 8
CUERPO
 10
-2.0755
 20
0.0933
 30
-0.0498
 70
192
 0
VERTEX
 8
CUERPO
 10
-2.0755
 20
0.0933
 30
-0.0498
 70
192
 0
VERTEX
 8
CUERPO
 10
-2.3263
 20
0.0776
 30
-0.0456
 70
192
 0
VERTEX
 8
CUERPO
 10
-2.3263
 20
0.0776
 30
-0.0456
 70
192
 0
VERTEX
 8
CUERPO
 10
-2.0755
 20
0.0776
 30
-0.0456
 70
192
 0
VERTEX
 8
CUERPO
 10
-2.0755
 20
0.0776
 30
-0.0456
 70
192
 0
VERTEX
 8
CUERPO
 10
-2.3263
 20
0.0613
 30
-0.0442
 70
192
 0
VERTEX
 8
CUERPO
 10
-2.3263
 20
0.0613
 30
-0.0442
 70
192
 0
VERTEX
 8
CUERPO
 10
-2.0755
 20
0.0613
 30
-0.0442
 70
192
 0
VERTEX
 8
CUERPO
 10
-2.0755
 20
0.0613
 30
-0.0442
 70
192
 0
VERTEX
 8
CUERPO
 10
-2.3263
 20
0.0451
 30
-0.0456
 70
192
 0
VERTEX
 8
CUERPO
 10
-2.3263
 20
0.0451
 30
-0.0456
 70
192
 0
VERTEX
 8
CUERPO
 10
-2.0755
 20
0.0451
 30
-0.0456
 70
192
 0
VERTEX
 8
CUERPO
 10
-2.0755
 20
0.0451
 30
-0.0456
 70
192
 0
VERTEX
 8
CUERPO
 10
-2.3263
 20
0.0294
 30
-0.0498
 70
192
 0
VERTEX
 8
CUERPO
 10
-2.3263
 20
0.0294
 30
-0.0498
 70
192
 0
VERTEX
 8
CUERPO
 10
-2.0755
 20
0.0294
 30
-0.0498
 70
192
 0
VERTEX
 8
CUERPO
 10
-2.0755
 20
0.0294
 30
-0.0498
 70
192
 0
VERTEX
 8
CUERPO
 10
-2.3263
 20
0.0146
 30
-0.0567
 70
192
 0
VERTEX
 8
CUERPO
 10
-2.3263
 20
0.0146
 30
-0.0567
 70
192
 0
VERTEX
 8
CUERPO
 10
-2.0755
 20
0.0146
 30
-0.0567
 70
192
 0
VERTEX
 8
CUERPO
 10
-2.0755
 20
0.0146
 30
-0.0567
 70
192
 0
VERTEX
 8
CUERPO
 10
-2.3263
 20
0.0012
 30
-0.066
 70
192
 0
VERTEX
 8
CUERPO
 10
-2.3263
 20
0.0012
 30
-0.066
 70
192
 0
VERTEX
 8
CUERPO
 10
-2.0755
 20
0.0012
 30
-0.066
 70
192
 0
VERTEX
 8
CUERPO
 10
-2.0755
 20
0.0012
 30
-0.066
 70
192
 0
VERTEX
 8
CUERPO
 10
-2.3263
 20
-0.0103
 30
-0.0776
 70
192
 0
VERTEX
 8
CUERPO
 10
-2.3263
 20
-0.0103
 30
-0.0776
 70
192
 0
VERTEX
 8
CUERPO
 10
-2.0755
 20
-0.0103
 30
-0.0776
 70
192
 0
VERTEX
 8
CUERPO
 10
-2.0755
 20
-0.0103
 30
-0.0776
 70
192
 0
VERTEX
 8
CUERPO
 10
-2.3263
 20
-0.0196
 30
-0.0909
 70
192
 0
VERTEX
 8
CUERPO
 10
-2.3263
 20
-0.0196
 30
-0.0909
 70
192
 0
VERTEX
 8
CUERPO
 10
-2.0755
 20
-0.0196
 30
-0.0909
 70
192
 0
VERTEX
 8
CUERPO
 10
-2.0755
 20
-0.0196
 30
-0.0909
 70
192
 0
VERTEX
 8
CUERPO
 10
-2.3263
 20
-0.0265
 30
-0.1057
 70
192
 0
VERTEX
 8
CUERPO
 10
-2.3263
 20
-0.0265
 30
-0.1057
 70
192
 0
VERTEX
 8
CUERPO
 10
-2.0755
 20
-0.0265
 30
-0.1057
 70
192
 0
VERTEX
 8
CUERPO
 10
-2.0755
 20
-0.0265
 30
-0.1057
 70
192
 0
VERTEX
 8
CUERPO
 10
-2.3263
 20
-0.0307
 30
-0.1214
 70
192
 0
VERTEX
 8
CUERPO
 10
-2.3263
 20
-0.0307
 30
-0.1214
 70
192
 0
VERTEX
 8
CUERPO
 10
-2.0755
 20
-0.0307
 30
-0.1214
 70
192
 0
VERTEX
 8
CUERPO
 10
-2.0755
 20
-0.0307
 30
-0.1214
 70
192
 0
VERTEX
 8
CUERPO
 10
-2.3263
 20
-0.0322
 30
-0.1377
 70
192
 0
VERTEX
 8
CUERPO
 10
-2.3263
 20
-0.0322
 30
-0.1377
 70
192
 0
VERTEX
 8
CUERPO
 10
-2.0755
 20
-0.0322
 30
-0.1377
 70
192
 0
VERTEX
 8
CUERPO
 10
-2.0755
 20
-0.0322
 30
-0.1377
 70
192
 0
VERTEX
 8
CUERPO
 10
-2.3263
 20
-0.0307
 30
-0.1539
 70
192
 0
VERTEX
 8
CUERPO
 10
-2.3263
 20
-0.0307
 30
-0.1539
 70
192
 0
VERTEX
 8
CUERPO
 10
-2.0755
 20
-0.0307
 30
-0.1539
 70
192
 0
VERTEX
 8
CUERPO
 10
-2.0755
 20
-0.0307
 30
-0.1539
 70
192
 0
VERTEX
 8
CUERPO
 10
-2.3263
 20
-0.0265
 30
-0.1696
 70
192
 0
VERTEX
 8
CUERPO
 10
-2.3263
 20
-0.0265
 30
-0.1696
 70
192
 0
VERTEX
 8
CUERPO
 10
-2.0755
 20
-0.0265
 30
-0.1696
 70
192
 0
VERTEX
 8
CUERPO
 10
-2.0755
 20
-0.0265
 30
-0.1696
 70
192
 0
VERTEX
 8
CUERPO
 10
-2.3263
 20
-0.0196
 30
-0.1844
 70
192
 0
VERTEX
 8
CUERPO
 10
-2.3263
 20
-0.0196
 30
-0.1844
 70
192
 0
VERTEX
 8
CUERPO
 10
-2.0755
 20
-0.0196
 30
-0.1844
 70
192
 0
VERTEX
 8
CUERPO
 10
-2.0755
 20
-0.0196
 30
-0.1844
 70
192
 0
VERTEX
 8
CUERPO
 10
-2.3263
 20
-0.0103
 30
-0.1978
 70
192
 0
VERTEX
 8
CUERPO
 10
-2.3263
 20
-0.0103
 30
-0.1978
 70
192
 0
VERTEX
 8
CUERPO
 10
-2.0755
 20
-0.0103
 30
-0.1978
 70
192
 0
VERTEX
 8
CUERPO
 10
-2.0755
 20
-0.0103
 30
-0.1978
 70
192
 0
VERTEX
 8
CUERPO
 10
-2.3263
 20
0.0012
 30
-0.2093
 70
192
 0
VERTEX
 8
CUERPO
 10
-2.3263
 20
0.0012
 30
-0.2093
 70
192
 0
VERTEX
 8
CUERPO
 10
-2.0755
 20
0.0012
 30
-0.2093
 70
192
 0
VERTEX
 8
CUERPO
 10
-2.0755
 20
0.0012
 30
-0.2093
 70
192
 0
VERTEX
 8
CUERPO
 10
-2.3263
 20
0.0146
 30
-0.2186
 70
192
 0
VERTEX
 8
CUERPO
 10
-2.3263
 20
0.0146
 30
-0.2186
 70
192
 0
VERTEX
 8
CUERPO
 10
-2.0755
 20
0.0146
 30
-0.2186
 70
192
 0
VERTEX
 8
CUERPO
 10
-2.0755
 20
0.0146
 30
-0.2186
 70
192
 0
VERTEX
 8
CUERPO
 10
-2.3263
 20
0.0294
 30
-0.2255
 70
192
 0
VERTEX
 8
CUERPO
 10
-2.3263
 20
0.0294
 30
-0.2255
 70
192
 0
VERTEX
 8
CUERPO
 10
-2.0755
 20
0.0294
 30
-0.2255
 70
192
 0
VERTEX
 8
CUERPO
 10
-2.0755
 20
0.0294
 30
-0.2255
 70
192
 0
VERTEX
 8
CUERPO
 10
-2.3263
 20
0.0451
 30
-0.2297
 70
192
 0
VERTEX
 8
CUERPO
 10
-2.3263
 20
0.0451
 30
-0.2297
 70
192
 0
VERTEX
 8
CUERPO
 10
-2.0755
 20
0.0451
 30
-0.2297
 70
192
 0
VERTEX
 8
CUERPO
 10
-2.0755
 20
0.0451
 30
-0.2297
 70
192
 0
VERTEX
 8
CUERPO
 10
-2.4643
 20
0.0613
 30
-0.1356
 70
192
 0
VERTEX
 8
CUERPO
 10
0.4343
 20
0.0613
 30
-0.1356
 70
192
 0
VERTEX
 8
CUERPO
 10
-2.4643
 20
0.0613
 30
-0.2199
 70
192
 0
VERTEX
 8
CUERPO
 10
-2.4643
 20
0.0613
 30
-0.2199
 70
192
 0
VERTEX
 8
CUERPO
 10
0.4343
 20
0.0613
 30
-0.2199
 70
192
 0
VERTEX
 8
CUERPO
 10
0.4343
 20
0.0613
 30
-0.2199
 70
192
 0
VERTEX
 8
CUERPO
 10
-2.4643
 20
0.076
 30
-0.2187
 70
192
 0
VERTEX
 8
CUERPO
 10
-2.4643
 20
0.076
 30
-0.2187
 70
192
 0
VERTEX
 8
CUERPO
 10
0.4343
 20
0.076
 30
-0.2187
 70
192
 0
VERTEX
 8
CUERPO
 10
0.4343
 20
0.076
 30
-0.2187
 70
192
 0
VERTEX
 8
CUERPO
 10
-2.4643
 20
0.0902
 30
-0.2149
 70
192
 0
VERTEX
 8
CUERPO
 10
-2.4643
 20
0.0902
 30
-0.2149
 70
192
 0
VERTEX
 8
CUERPO
 10
0.4343
 20
0.0902
 30
-0.2149
 70
192
 0
VERTEX
 8
CUERPO
 10
0.4343
 20
0.0902
 30
-0.2149
 70
192
 0
VERTEX
 8
CUERPO
 10
-2.4643
 20
0.1035
 30
-0.2086
 70
192
 0
VERTEX
 8
CUERPO
 10
-2.4643
 20
0.1035
 30
-0.2086
 70
192
 0
VERTEX
 8
CUERPO
 10
0.4343
 20
0.1035
 30
-0.2086
 70
192
 0
VERTEX
 8
CUERPO
 10
0.4343
 20
0.1035
 30
-0.2086
 70
192
 0
VERTEX
 8
CUERPO
 10
-2.4643
 20
0.1156
 30
-0.2002
 70
192
 0
VERTEX
 8
CUERPO
 10
-2.4643
 20
0.1156
 30
-0.2002
 70
192
 0
VERTEX
 8
CUERPO
 10
0.4343
 20
0.1156
 30
-0.2002
 70
192
 0
VERTEX
 8
CUERPO
 10
0.4343
 20
0.1156
 30
-0.2002
 70
192
 0
VERTEX
 8
CUERPO
 10
-2.4643
 20
0.126
 30
-0.1898
 70
192
 0
VERTEX
 8
CUERPO
 10
-2.4643
 20
0.126
 30
-0.1898
 70
192
 0
VERTEX
 8
CUERPO
 10
0.4343
 20
0.126
 30
-0.1898
 70
192
 0
VERTEX
 8
CUERPO
 10
0.4343
 20
0.126
 30
-0.1898
 70
192
 0
VERTEX
 8
CUERPO
 10
-2.4643
 20
0.1344
 30
-0.1778
 70
192
 0
VERTEX
 8
CUERPO
 10
-2.4643
 20
0.1344
 30
-0.1778
 70
192
 0
VERTEX
 8
CUERPO
 10
0.4343
 20
0.1344
 30
-0.1778
 70
192
 0
VERTEX
 8
CUERPO
 10
0.4343
 20
0.1344
 30
-0.1778
 70
192
 0
VERTEX
 8
CUERPO
 10
-2.4643
 20
0.1406
 30
-0.1644
 70
192
 0
VERTEX
 8
CUERPO
 10
-2.4643
 20
0.1406
 30
-0.1644
 70
192
 0
VERTEX
 8
CUERPO
 10
0.4343
 20
0.1406
 30
-0.1644
 70
192
 0
VERTEX
 8
CUERPO
 10
0.4343
 20
0.1406
 30
-0.1644
 70
192
 0
VERTEX
 8
CUERPO
 10
-2.4643
 20
0.1444
 30
-0.1502
 70
192
 0
VERTEX
 8
CUERPO
 10
-2.4643
 20
0.1444
 30
-0.1502
 70
192
 0
VERTEX
 8
CUERPO
 10
0.4343
 20
0.1444
 30
-0.1502
 70
192
 0
VERTEX
 8
CUERPO
 10
0.4343
 20
0.1444
 30
-0.1502
 70
192
 0
VERTEX
 8
CUERPO
 10
-2.4643
 20
0.1457
 30
-0.1356
 70
192
 0
VERTEX
 8
CUERPO
 10
-2.4643
 20
0.1457
 30
-0.1356
 70
192
 0
VERTEX
 8
CUERPO
 10
0.4343
 20
0.1457
 30
-0.1356
 70
192
 0
VERTEX
 8
CUERPO
 10
0.4343
 20
0.1457
 30
-0.1356
 70
192
 0
VERTEX
 8
CUERPO
 10
-2.4643
 20
0.1444
 30
-0.1209
 70
192
 0
VERTEX
 8
CUERPO
 10
-2.4643
 20
0.1444
 30
-0.1209
 70
192
 0
VERTEX
 8
CUERPO
 10
0.4343
 20
0.1444
 30
-0.1209
 70
192
 0
VERTEX
 8
CUERPO
 10
0.4343
 20
0.1444
 30
-0.1209
 70
192
 0
VERTEX
 8
CUERPO
 10
-2.4643
 20
0.1406
 30
-0.1067
 70
192
 0
VERTEX
 8
CUERPO
 10
-2.4643
 20
0.1406
 30
-0.1067
 70
192
 0
VERTEX
 8
CUERPO
 10
0.4343
 20
0.1406
 30
-0.1067
 70
192
 0
VERTEX
 8
CUERPO
 10
0.4343
 20
0.1406
 30
-0.1067
 70
192
 0
VERTEX
 8
CUERPO
 10
-2.4643
 20
0.1344
 30
-0.0934
 70
192
 0
VERTEX
 8
CUERPO
 10
-2.4643
 20
0.1344
 30
-0.0934
 70
192
 0
VERTEX
 8
CUERPO
 10
0.4343
 20
0.1344
 30
-0.0934
 70
192
 0
VERTEX
 8
CUERPO
 10
0.4343
 20
0.1344
 30
-0.0934
 70
192
 0
VERTEX
 8
CUERPO
 10
-2.4643
 20
0.126
 30
-0.0813
 70
192
 0
VERTEX
 8
CUERPO
 10
-2.4643
 20
0.126
 30
-0.0813
 70
192
 0
VERTEX
 8
CUERPO
 10
0.4343
 20
0.126
 30
-0.0813
 70
192
 0
VERTEX
 8
CUERPO
 10
0.4343
 20
0.126
 30
-0.0813
 70
192
 0
VERTEX
 8
CUERPO
 10
-2.4643
 20
0.1156
 30
-0.0709
 70
192
 0
VERTEX
 8
CUERPO
 10
-2.4643
 20
0.1156
 30
-0.0709
 70
192
 0
VERTEX
 8
CUERPO
 10
0.4343
 20
0.1156
 30
-0.0709
 70
192
 0
VERTEX
 8
CUERPO
 10
0.4343
 20
0.1156
 30
-0.0709
 70
192
 0
VERTEX
 8
CUERPO
 10
-2.4643
 20
0.1035
 30
-0.0625
 70
192
 0
VERTEX
 8
CUERPO
 10
-2.4643
 20
0.1035
 30
-0.0625
 70
192
 0
VERTEX
 8
CUERPO
 10
0.4343
 20
0.1035
 30
-0.0625
 70
192
 0
VERTEX
 8
CUERPO
 10
0.4343
 20
0.1035
 30
-0.0625
 70
192
 0
VERTEX
 8
CUERPO
 10
-2.4643
 20
0.0902
 30
-0.0563
 70
192
 0
VERTEX
 8
CUERPO
 10
-2.4643
 20
0.0902
 30
-0.0563
 70
192
 0
VERTEX
 8
CUERPO
 10
0.4343
 20
0.0902
 30
-0.0563
 70
192
 0
VERTEX
 8
CUERPO
 10
0.4343
 20
0.0902
 30
-0.0563
 70
192
 0
VERTEX
 8
CUERPO
 10
-2.4643
 20
0.076
 30
-0.0525
 70
192
 0
VERTEX
 8
CUERPO
 10
-2.4643
 20
0.076
 30
-0.0525
 70
192
 0
VERTEX
 8
CUERPO
 10
0.4343
 20
0.076
 30
-0.0525
 70
192
 0
VERTEX
 8
CUERPO
 10
0.4343
 20
0.076
 30
-0.0525
 70
192
 0
VERTEX
 8
CUERPO
 10
-2.4643
 20
0.0613
 30
-0.0512
 70
192
 0
VERTEX
 8
CUERPO
 10
-2.4643
 20
0.0613
 30
-0.0512
 70
192
 0
VERTEX
 8
CUERPO
 10
0.4343
 20
0.0613
 30
-0.0512
 70
192
 0
VERTEX
 8
CUERPO
 10
0.4343
 20
0.0613
 30
-0.0512
 70
192
 0
VERTEX
 8
CUERPO
 10
-2.4643
 20
0.0467
 30
-0.0525
 70
192
 0
VERTEX
 8
CUERPO
 10
-2.4643
 20
0.0467
 30
-0.0525
 70
192
 0
VERTEX
 8
CUERPO
 10
0.4343
 20
0.0467
 30
-0.0525
 70
192
 0
VERTEX
 8
CUERPO
 10
0.4343
 20
0.0467
 30
-0.0525
 70
192
 0
VERTEX
 8
CUERPO
 10
-2.4643
 20
0.0325
 30
-0.0563
 70
192
 0
VERTEX
 8
CUERPO
 10
-2.4643
 20
0.0325
 30
-0.0563
 70
192
 0
VERTEX
 8
CUERPO
 10
0.4343
 20
0.0325
 30
-0.0563
 70
192
 0
VERTEX
 8
CUERPO
 10
0.4343
 20
0.0325
 30
-0.0563
 70
192
 0
VERTEX
 8
CUERPO
 10
-2.4643
 20
0.0191
 30
-0.0625
 70
192
 0
VERTEX
 8
CUERPO
 10
-2.4643
 20
0.0191
 30
-0.0625
 70
192
 0
VERTEX
 8
CUERPO
 10
0.4343
 20
0.0191
 30
-0.0625
 70
192
 0
VERTEX
 8
CUERPO
 10
0.4343
 20
0.0191
 30
-0.0625
 70
192
 0
VERTEX
 8
CUERPO
 10
-2.4643
 20
0.0071
 30
-0.0709
 70
192
 0
VERTEX
 8
CUERPO
 10
-2.4643
 20
0.0071
 30
-0.0709
 70
192
 0
VERTEX
 8
CUERPO
 10
0.4343
 20
0.0071
 30
-0.0709
 70
192
 0
VERTEX
 8
CUERPO
 10
0.4343
 20
0.0071
 30
-0.0709
 70
192
 0
VERTEX
 8
CUERPO
 10
-2.4643
 20
-0.0033
 30
-0.0813
 70
192
 0
VERTEX
 8
CUERPO
 10
-2.4643
 20
-0.0033
 30
-0.0813
 70
192
 0
VERTEX
 8
CUERPO
 10
0.4343
 20
-0.0033
 30
-0.0813
 70
192
 0
VERTEX
 8
CUERPO
 10
0.4343
 20
-0.0033
 30
-0.0813
 70
192
 0
VERTEX
 8
CUERPO
 10
-2.4643
 20
-0.0117
 30
-0.0934
 70
192
 0
VERTEX
 8
CUERPO
 10
-2.4643
 20
-0.0117
 30
-0.0934
 70
192
 0
VERTEX
 8
CUERPO
 10
0.4343
 20
-0.0117
 30
-0.0934
 70
192
 0
VERTEX
 8
CUERPO
 10
0.4343
 20
-0.0117
 30
-0.0934
 70
192
 0
VERTEX
 8
CUERPO
 10
-2.4643
 20
-0.018
 30
-0.1067
 70
192
 0
VERTEX
 8
CUERPO
 10
-2.4643
 20
-0.018
 30
-0.1067
 70
192
 0
VERTEX
 8
CUERPO
 10
0.4343
 20
-0.018
 30
-0.1067
 70
192
 0
VERTEX
 8
CUERPO
 10
0.4343
 20
-0.018
 30
-0.1067
 70
192
 0
VERTEX
 8
CUERPO
 10
-2.4643
 20
-0.0218
 30
-0.1209
 70
192
 0
VERTEX
 8
CUERPO
 10
-2.4643
 20
-0.0218
 30
-0.1209
 70
192
 0
VERTEX
 8
CUERPO
 10
0.4343
 20
-0.0218
 30
-0.1209
 70
192
 0
VERTEX
 8
CUERPO
 10
0.4343
 20
-0.0218
 30
-0.1209
 70
192
 0
VERTEX
 8
CUERPO
 10
-2.4643
 20
-0.023
 30
-0.1356
 70
192
 0
VERTEX
 8
CUERPO
 10
-2.4643
 20
-0.023
 30
-0.1356
 70
192
 0
VERTEX
 8
CUERPO
 10
0.4343
 20
-0.023
 30
-0.1356
 70
192
 0
VERTEX
 8
CUERPO
 10
0.4343
 20
-0.023
 30
-0.1356
 70
192
 0
VERTEX
 8
CUERPO
 10
-2.4643
 20
-0.0218
 30
-0.1502
 70
192
 0
VERTEX
 8
CUERPO
 10
-2.4643
 20
-0.0218
 30
-0.1502
 70
192
 0
VERTEX
 8
CUERPO
 10
0.4343
 20
-0.0218
 30
-0.1502
 70
192
 0
VERTEX
 8
CUERPO
 10
0.4343
 20
-0.0218
 30
-0.1502
 70
192
 0
VERTEX
 8
CUERPO
 10
-2.4643
 20
-0.018
 30
-0.1644
 70
192
 0
VERTEX
 8
CUERPO
 10
-2.4643
 20
-0.018
 30
-0.1644
 70
192
 0
VERTEX
 8
CUERPO
 10
0.4343
 20
-0.018
 30
-0.1644
 70
192
 0
VERTEX
 8
CUERPO
 10
0.4343
 20
-0.018
 30
-0.1644
 70
192
 0
VERTEX
 8
CUERPO
 10
-2.4643
 20
-0.0117
 30
-0.1778
 70
192
 0
VERTEX
 8
CUERPO
 10
-2.4643
 20
-0.0117
 30
-0.1778
 70
192
 0
VERTEX
 8
CUERPO
 10
0.4343
 20
-0.0117
 30
-0.1778
 70
192
 0
VERTEX
 8
CUERPO
 10
0.4343
 20
-0.0117
 30
-0.1778
 70
192
 0
VERTEX
 8
CUERPO
 10
-2.4643
 20
-0.0033
 30
-0.1898
 70
192
 0
VERTEX
 8
CUERPO
 10
-2.4643
 20
-0.0033
 30
-0.1898
 70
192
 0
VERTEX
 8
CUERPO
 10
0.4343
 20
-0.0033
 30
-0.1898
 70
192
 0
VERTEX
 8
CUERPO
 10
0.4343
 20
-0.0033
 30
-0.1898
 70
192
 0
VERTEX
 8
CUERPO
 10
-2.4643
 20
0.0071
 30
-0.2002
 70
192
 0
VERTEX
 8
CUERPO
 10
-2.4643
 20
0.0071
 30
-0.2002
 70
192
 0
VERTEX
 8
CUERPO
 10
0.4343
 20
0.0071
 30
-0.2002
 70
192
 0
VERTEX
 8
CUERPO
 10
0.4343
 20
0.0071
 30
-0.2002
 70
192
 0
VERTEX
 8
CUERPO
 10
-2.4643
 20
0.0191
 30
-0.2086
 70
192
 0
VERTEX
 8
CUERPO
 10
-2.4643
 20
0.0191
 30
-0.2086
 70
192
 0
VERTEX
 8
CUERPO
 10
0.4343
 20
0.0191
 30
-0.2086
 70
192
 0
VERTEX
 8
CUERPO
 10
0.4343
 20
0.0191
 30
-0.2086
 70
192
 0
VERTEX
 8
CUERPO
 10
-2.4643
 20
0.0325
 30
-0.2149
 70
192
 0
VERTEX
 8
CUERPO
 10
-2.4643
 20
0.0325
 30
-0.2149
 70
192
 0
VERTEX
 8
CUERPO
 10
0.4343
 20
0.0325
 30
-0.2149
 70
192
 0
VERTEX
 8
CUERPO
 10
0.4343
 20
0.0325
 30
-0.2149
 70
192
 0
VERTEX
 8
CUERPO
 10
-2.4643
 20
0.0467
 30
-0.2187
 70
192
 0
VERTEX
 8
CUERPO
 10
-2.4643
 20
0.0467
 30
-0.2187
 70
192
 0
VERTEX
 8
CUERPO
 10
0.4343
 20
0.0467
 30
-0.2187
 70
192
 0
VERTEX
 8
CUERPO
 10
0.4343
 20
0.0467
 30
-0.2187
 70
192
 0
VERTEX
 8
CUERPO
 10
-2.4709
 20
0.0609
 30
-0.0107
 70
192
 0
VERTEX
 8
CUERPO
 10
-2.4709
 20
0.0609
 30
-0.0302
 70
192
 0
VERTEX
 8
CUERPO
 10
-2.4709
 20
0.0609
 30
-0.0302
 70
192
 0
VERTEX
 8
CUERPO
 10
0.57
 20
0.0609
 30
-0.0302
 70
192
 0
VERTEX
 8
CUERPO
 10
0.57
 20
0.0609
 30
-0.0302
 70
192
 0
VERTEX
 8
CUERPO
 10
0.57
 20
0.0609
 30
-0.0107
 70
192
 0
VERTEX
 8
CUERPO
 10
0.57
 20
0.0609
 30
-0.0107
 70
192
 0
VERTEX
 8
CUERPO
 10
-2.4709
 20
0.0609
 30
-0.0107
 70
192
 0
VERTEX
 8
CUERPO
 10
-2.4709
 20
0.0701
 30
-0.0099
 70
192
 0
VERTEX
 8
CUERPO
 10
-2.4709
 20
0.0735
 30
-0.0291
 70
192
 0
VERTEX
 8
CUERPO
 10
-2.4709
 20
0.0735
 30
-0.0291
 70
192
 0
VERTEX
 8
CUERPO
 10
0.57
 20
0.0735
 30
-0.0291
 70
192
 0
VERTEX
 8
CUERPO
 10
0.57
 20
0.0735
 30
-0.0291
 70
192
 0
VERTEX
 8
CUERPO
 10
0.57
 20
0.0701
 30
-0.0099
 70
192
 0
VERTEX
 8
CUERPO
 10
0.57
 20
0.0701
 30
-0.0099
 70
192
 0
VERTEX
 8
CUERPO
 10
-2.4709
 20
0.0701
 30
-0.0099
 70
192
 0
VERTEX
 8
CUERPO
 10
-2.4709
 20
0.079
 30
-0.0075
 70
192
 0
VERTEX
 8
CUERPO
 10
-2.4709
 20
0.0857
 30
-0.0258
 70
192
 0
VERTEX
 8
CUERPO
 10
-2.4709
 20
0.0857
 30
-0.0258
 70
192
 0
VERTEX
 8
CUERPO
 10
0.57
 20
0.0857
 30
-0.0258
 70
192
 0
VERTEX
 8
CUERPO
 10
0.57
 20
0.0857
 30
-0.0258
 70
192
 0
VERTEX
 8
CUERPO
 10
0.57
 20
0.079
 30
-0.0075
 70
192
 0
VERTEX
 8
CUERPO
 10
0.57
 20
0.079
 30
-0.0075
 70
192
 0
VERTEX
 8
CUERPO
 10
-2.4709
 20
0.079
 30
-0.0075
 70
192
 0
VERTEX
 8
CUERPO
 10
-2.4709
 20
0.0874
 30
-0.0036
 70
192
 0
VERTEX
 8
CUERPO
 10
-2.4709
 20
0.0971
 30
-0.0205
 70
192
 0
VERTEX
 8
CUERPO
 10
-2.4709
 20
0.0971
 30
-0.0205
 70
192
 0
VERTEX
 8
CUERPO
 10
0.57
 20
0.0971
 30
-0.0205
 70
192
 0
VERTEX
 8
CUERPO
 10
0.57
 20
0.0971
 30
-0.0205
 70
192
 0
VERTEX
 8
CUERPO
 10
0.57
 20
0.0874
 30
-0.0036
 70
192
 0
VERTEX
 8
CUERPO
 10
0.57
 20
0.0874
 30
-0.0036
 70
192
 0
VERTEX
 8
CUERPO
 10
-2.4709
 20
0.0874
 30
-0.0036
 70
192
 0
VERTEX
 8
CUERPO
 10
-2.4709
 20
0.095
 30
0.0017
 70
192
 0
VERTEX
 8
CUERPO
 10
-2.4709
 20
0.1075
 30
-0.0132
 70
192
 0
VERTEX
 8
CUERPO
 10
-2.4709
 20
0.1075
 30
-0.0132
 70
192
 0
VERTEX
 8
CUERPO
 10
0.57
 20
0.1075
 30
-0.0132
 70
192
 0
VERTEX
 8
CUERPO
 10
0.57
 20
0.1075
 30
-0.0132
 70
192
 0
VERTEX
 8
CUERPO
 10
0.57
 20
0.095
 30
0.0017
 70
192
 0
VERTEX
 8
CUERPO
 10
0.57
 20
0.095
 30
0.0017
 70
192
 0
VERTEX
 8
CUERPO
 10
-2.4709
 20
0.095
 30
0.0017
 70
192
 0
VERTEX
 8
CUERPO
 10
-2.4709
 20
0.1015
 30
0.0082
 70
192
 0
VERTEX
 8
CUERPO
 10
-2.4709
 20
0.1164
 30
-0.0043
 70
192
 0
VERTEX
 8
CUERPO
 10
-2.4709
 20
0.1164
 30
-0.0043
 70
192
 0
VERTEX
 8
CUERPO
 10
0.57
 20
0.1164
 30
-0.0043
 70
192
 0
VERTEX
 8
CUERPO
 10
0.57
 20
0.1164
 30
-0.0043
 70
192
 0
VERTEX
 8
CUERPO
 10
0.57
 20
0.1015
 30
0.0082
 70
192
 0
VERTEX
 8
CUERPO
 10
0.57
 20
0.1015
 30
0.0082
 70
192
 0
VERTEX
 8
CUERPO
 10
-2.4709
 20
0.1015
 30
0.0082
 70
192
 0
VERTEX
 8
CUERPO
 10
-2.4709
 20
0.1068
 30
0.0158
 70
192
 0
VERTEX
 8
CUERPO
 10
-2.4709
 20
0.1237
 30
0.0061
 70
192
 0
VERTEX
 8
CUERPO
 10
-2.4709
 20
0.1237
 30
0.0061
 70
192
 0
VERTEX
 8
CUERPO
 10
0.57
 20
0.1237
 30
0.0061
 70
192
 0
VERTEX
 8
CUERPO
 10
0.57
 20
0.1237
 30
0.0061
 70
192
 0
VERTEX
 8
CUERPO
 10
0.57
 20
0.1068
 30
0.0158
 70
192
 0
VERTEX
 8
CUERPO
 10
0.57
 20
0.1068
 30
0.0158
 70
192
 0
VERTEX
 8
CUERPO
 10
-2.4709
 20
0.1068
 30
0.0158
 70
192
 0
VERTEX
 8
CUERPO
 10
-2.4709
 20
0.1107
 30
0.0242
 70
192
 0
VERTEX
 8
CUERPO
 10
-2.4709
 20
0.129
 30
0.0175
 70
192
 0
VERTEX
 8
CUERPO
 10
-2.4709
 20
0.129
 30
0.0175
 70
192
 0
VERTEX
 8
CUERPO
 10
0.57
 20
0.129
 30
0.0175
 70
192
 0
VERTEX
 8
CUERPO
 10
0.57
 20
0.129
 30
0.0175
 70
192
 0
VERTEX
 8
CUERPO
 10
0.57
 20
0.1107
 30
0.0242
 70
192
 0
VERTEX
 8
CUERPO
 10
0.57
 20
0.1107
 30
0.0242
 70
192
 0
VERTEX
 8
CUERPO
 10
-2.4709
 20
0.1107
 30
0.0242
 70
192
 0
VERTEX
 8
CUERPO
 10
-2.4709
 20
0.1131
 30
0.0331
 70
192
 0
VERTEX
 8
CUERPO
 10
-2.4709
 20
0.1323
 30
0.0297
 70
192
 0
VERTEX
 8
CUERPO
 10
-2.4709
 20
0.1323
 30
0.0297
 70
192
 0
VERTEX
 8
CUERPO
 10
0.57
 20
0.1323
 30
0.0297
 70
192
 0
VERTEX
 8
CUERPO
 10
0.57
 20
0.1323
 30
0.0297
 70
192
 0
VERTEX
 8
CUERPO
 10
0.57
 20
0.1131
 30
0.0331
 70
192
 0
VERTEX
 8
CUERPO
 10
0.57
 20
0.1131
 30
0.0331
 70
192
 0
VERTEX
 8
CUERPO
 10
-2.4709
 20
0.1131
 30
0.0331
 70
192
 0
VERTEX
 8
CUERPO
 10
-2.4709
 20
0.1139
 30
0.0423
 70
192
 0
VERTEX
 8
CUERPO
 10
-2.4709
 20
0.1334
 30
0.0423
 70
192
 0
VERTEX
 8
CUERPO
 10
-2.4709
 20
0.1334
 30
0.0423
 70
192
 0
VERTEX
 8
CUERPO
 10
0.57
 20
0.1334
 30
0.0423
 70
192
 0
VERTEX
 8
CUERPO
 10
0.57
 20
0.1334
 30
0.0423
 70
192
 0
VERTEX
 8
CUERPO
 10
0.57
 20
0.1139
 30
0.0423
 70
192
 0
VERTEX
 8
CUERPO
 10
0.57
 20
0.1139
 30
0.0423
 70
192
 0
VERTEX
 8
CUERPO
 10
-2.4709
 20
0.1139
 30
0.0423
 70
192
 0
VERTEX
 8
CUERPO
 10
-2.4709
 20
0.1131
 30
0.0515
 70
192
 0
VERTEX
 8
CUERPO
 10
-2.4709
 20
0.1323
 30
0.0549
 70
192
 0
VERTEX
 8
CUERPO
 10
-2.4709
 20
0.1323
 30
0.0549
 70
192
 0
VERTEX
 8
CUERPO
 10
0.57
 20
0.1323
 30
0.0549
 70
192
 0
VERTEX
 8
CUERPO
 10
0.57
 20
0.1323
 30
0.0549
 70
192
 0
VERTEX
 8
CUERPO
 10
0.57
 20
0.1131
 30
0.0515
 70
192
 0
VERTEX
 8
CUERPO
 10
0.57
 20
0.1131
 30
0.0515
 70
192
 0
VERTEX
 8
CUERPO
 10
-2.4709
 20
0.1131
 30
0.0515
 70
192
 0
VERTEX
 8
CUERPO
 10
-2.4709
 20
0.1107
 30
0.0605
 70
192
 0
VERTEX
 8
CUERPO
 10
-2.4709
 20
0.129
 30
0.0671
 70
192
 0
VERTEX
 8
CUERPO
 10
-2.4709
 20
0.129
 30
0.0671
 70
192
 0
VERTEX
 8
CUERPO
 10
0.57
 20
0.129
 30
0.0671
 70
192
 0
VERTEX
 8
CUERPO
 10
0.57
 20
0.129
 30
0.0671
 70
192
 0
VERTEX
 8
CUERPO
 10
0.57
 20
0.1107
 30
0.0605
 70
192
 0
VERTEX
 8
CUERPO
 10
0.57
 20
0.1107
 30
0.0605
 70
192
 0
VERTEX
 8
CUERPO
 10
-2.4709
 20
0.1107
 30
0.0605
 70
192
 0
VERTEX
 8
CUERPO
 10
-2.4709
 20
0.1068
 30
0.0688
 70
192
 0
VERTEX
 8
CUERPO
 10
-2.4709
 20
0.1237
 30
0.0786
 70
192
 0
VERTEX
 8
CUERPO
 10
-2.4709
 20
0.1237
 30
0.0786
 70
192
 0
VERTEX
 8
CUERPO
 10
0.57
 20
0.1237
 30
0.0786
 70
192
 0
VERTEX
 8
CUERPO
 10
0.57
 20
0.1237
 30
0.0786
 70
192
 0
VERTEX
 8
CUERPO
 10
0.57
 20
0.1068
 30
0.0688
 70
192
 0
VERTEX
 8
CUERPO
 10
0.57
 20
0.1068
 30
0.0688
 70
192
 0
VERTEX
 8
CUERPO
 10
-2.4709
 20
0.1068
 30
0.0688
 70
192
 0
VERTEX
 8
CUERPO
 10
-2.4709
 20
0.1015
 30
0.0764
 70
192
 0
VERTEX
 8
CUERPO
 10
-2.4709
 20
0.1164
 30
0.0889
 70
192
 0
VERTEX
 8
CUERPO
 10
-2.4709
 20
0.1164
 30
0.0889
 70
192
 0
VERTEX
 8
CUERPO
 10
0.57
 20
0.1164
 30
0.0889
 70
192
 0
VERTEX
 8
CUERPO
 10
0.57
 20
0.1164
 30
0.0889
 70
192
 0
VERTEX
 8
CUERPO
 10
0.57
 20
0.1015
 30
0.0764
 70
192
 0
VERTEX
 8
CUERPO
 10
0.57
 20
0.1015
 30
0.0764
 70
192
 0
VERTEX
 8
CUERPO
 10
-2.4709
 20
0.1015
 30
0.0764
 70
192
 0
VERTEX
 8
CUERPO
 10
-2.4709
 20
0.095
 30
0.083
 70
192
 0
VERTEX
 8
CUERPO
 10
-2.4709
 20
0.1075
 30
0.0979
 70
192
 0
VERTEX
 8
CUERPO
 10
-2.4709
 20
0.1075
 30
0.0979
 70
192
 0
VERTEX
 8
CUERPO
 10
0.57
 20
0.1075
 30
0.0979
 70
192
 0
VERTEX
 8
CUERPO
 10
0.57
 20
0.1075
 30
0.0979
 70
192
 0
VERTEX
 8
CUERPO
 10
0.57
 20
0.095
 30
0.083
 70
192
 0
VERTEX
 8
CUERPO
 10
0.57
 20
0.095
 30
0.083
 70
192
 0
VERTEX
 8
CUERPO
 10
-2.4709
 20
0.095
 30
0.083
 70
192
 0
VERTEX
 8
CUERPO
 10
-2.4709
 20
0.0874
 30
0.0883
 70
192
 0
VERTEX
 8
CUERPO
 10
-2.4709
 20
0.0971
 30
0.1051
 70
192
 0
VERTEX
 8
CUERPO
 10
-2.4709
 20
0.0971
 30
0.1051
 70
192
 0
VERTEX
 8
CUERPO
 10
0.57
 20
0.0971
 30
0.1051
 70
192
 0
VERTEX
 8
CUERPO
 10
0.57
 20
0.0971
 30
0.1051
 70
192
 0
VERTEX
 8
CUERPO
 10
0.57
 20
0.0874
 30
0.0883
 70
192
 0
VERTEX
 8
CUERPO
 10
0.57
 20
0.0874
 30
0.0883
 70
192
 0
VERTEX
 8
CUERPO
 10
-2.4709
 20
0.0874
 30
0.0883
 70
192
 0
VERTEX
 8
CUERPO
 10
-2.4709
 20
0.079
 30
0.0922
 70
192
 0
VERTEX
 8
CUERPO
 10
-2.4709
 20
0.0857
 30
0.1105
 70
192
 0
VERTEX
 8
CUERPO
 10
-2.4709
 20
0.0857
 30
0.1105
 70
192
 0
VERTEX
 8
CUERPO
 10
0.57
 20
0.0857
 30
0.1105
 70
192
 0
VERTEX
 8
CUERPO
 10
0.57
 20
0.0857
 30
0.1105
 70
192
 0
VERTEX
 8
CUERPO
 10
0.57
 20
0.079
 30
0.0922
 70
192
 0
VERTEX
 8
CUERPO
 10
0.57
 20
0.079
 30
0.0922
 70
192
 0
VERTEX
 8
CUERPO
 10
-2.4709
 20
0.079
 30
0.0922
 70
192
 0
VERTEX
 8
CUERPO
 10
-2.4709
 20
0.0701
 30
0.0946
 70
192
 0
VERTEX
 8
CUERPO
 10
-2.4709
 20
0.0735
 30
0.1137
 70
192
 0
VERTEX
 8
CUERPO
 10
-2.4709
 20
0.0735
 30
0.1137
 70
192
 0
VERTEX
 8
CUERPO
 10
0.57
 20
0.0735
 30
0.1137
 70
192
 0
VERTEX
 8
CUERPO
 10
0.57
 20
0.0735
 30
0.1137
 70
192
 0
VERTEX
 8
CUERPO
 10
0.57
 20
0.0701
 30
0.0946
 70
192
 0
VERTEX
 8
CUERPO
 10
0.57
 20
0.0701
 30
0.0946
 70
192
 0
VERTEX
 8
CUERPO
 10
-2.4709
 20
0.0701
 30
0.0946
 70
192
 0
VERTEX
 8
CUERPO
 10
-2.4709
 20
0.0609
 30
0.0954
 70
192
 0
VERTEX
 8
CUERPO
 10
-2.4709
 20
0.0609
 30
0.1148
 70
192
 0
VERTEX
 8
CUERPO
 10
-2.4709
 20
0.0609
 30
0.1148
 70
192
 0
VERTEX
 8
CUERPO
 10
0.57
 20
0.0609
 30
0.1148
 70
192
 0
VERTEX
 8
CUERPO
 10
0.57
 20
0.0609
 30
0.1148
 70
192
 0
VERTEX
 8
CUERPO
 10
0.57
 20
0.0609
 30
0.0954
 70
192
 0
VERTEX
 8
CUERPO
 10
0.57
 20
0.0609
 30
0.0954
 70
192
 0
VERTEX
 8
CUERPO
 10
-2.4709
 20
0.0609
 30
0.0954
 70
192
 0
VERTEX
 8
CUERPO
 10
-2.4709
 20
0.0517
 30
0.0946
 70
192
 0
VERTEX
 8
CUERPO
 10
-2.4709
 20
0.0483
 30
0.1137
 70
192
 0
VERTEX
 8
CUERPO
 10
-2.4709
 20
0.0483
 30
0.1137
 70
192
 0
VERTEX
 8
CUERPO
 10
0.57
 20
0.0483
 30
0.1137
 70
192
 0
VERTEX
 8
CUERPO
 10
0.57
 20
0.0483
 30
0.1137
 70
192
 0
VERTEX
 8
CUERPO
 10
0.57
 20
0.0517
 30
0.0946
 70
192
 0
VERTEX
 8
CUERPO
 10
0.57
 20
0.0517
 30
0.0946
 70
192
 0
VERTEX
 8
CUERPO
 10
-2.4709
 20
0.0517
 30
0.0946
 70
192
 0
VERTEX
 8
CUERPO
 10
-2.4709
 20
0.0427
 30
0.0922
 70
192
 0
VERTEX
 8
CUERPO
 10
-2.4709
 20
0.0361
 30
0.1105
 70
192
 0
VERTEX
 8
CUERPO
 10
-2.4709
 20
0.0361
 30
0.1105
 70
192
 0
VERTEX
 8
CUERPO
 10
0.57
 20
0.0361
 30
0.1105
 70
192
 0
VERTEX
 8
CUERPO
 10
0.57
 20
0.0361
 30
0.1105
 70
192
 0
VERTEX
 8
CUERPO
 10
0.57
 20
0.0427
 30
0.0922
 70
192
 0
VERTEX
 8
CUERPO
 10
0.57
 20
0.0427
 30
0.0922
 70
192
 0
VERTEX
 8
CUERPO
 10
-2.4709
 20
0.0427
 30
0.0922
 70
192
 0
VERTEX
 8
CUERPO
 10
-2.4709
 20
0.0343
 30
0.0883
 70
192
 0
VERTEX
 8
CUERPO
 10
-2.4709
 20
0.0246
 30
0.1051
 70
192
 0
VERTEX
 8
CUERPO
 10
-2.4709
 20
0.0246
 30
0.1051
 70
192
 0
VERTEX
 8
CUERPO
 10
0.57
 20
0.0246
 30
0.1051
 70
192
 0
VERTEX
 8
CUERPO
 10
0.57
 20
0.0246
 30
0.1051
 70
192
 0
VERTEX
 8
CUERPO
 10
0.57
 20
0.0343
 30
0.0883
 70
192
 0
VERTEX
 8
CUERPO
 10
0.57
 20
0.0343
 30
0.0883
 70
192
 0
VERTEX
 8
CUERPO
 10
-2.4709
 20
0.0343
 30
0.0883
 70
192
 0
VERTEX
 8
CUERPO
 10
-2.4709
 20
0.0268
 30
0.083
 70
192
 0
VERTEX
 8
CUERPO
 10
-2.4709
 20
0.0143
 30
0.0979
 70
192
 0
VERTEX
 8
CUERPO
 10
-2.4709
 20
0.0143
 30
0.0979
 70
192
 0
VERTEX
 8
CUERPO
 10
0.57
 20
0.0143
 30
0.0979
 70
192
 0
VERTEX
 8
CUERPO
 10
0.57
 20
0.0143
 30
0.0979
 70
192
 0
VERTEX
 8
CUERPO
 10
0.57
 20
0.0268
 30
0.083
 70
192
 0
VERTEX
 8
CUERPO
 10
0.57
 20
0.0268
 30
0.083
 70
192
 0
VERTEX
 8
CUERPO
 10
-2.4709
 20
0.0268
 30
0.083
 70
192
 0
VERTEX
 8
CUERPO
 10
-2.4709
 20
0.0202
 30
0.0764
 70
192
 0
VERTEX
 8
CUERPO
 10
-2.4709
 20
0.0053
 30
0.0889
 70
192
 0
VERTEX
 8
CUERPO
 10
-2.4709
 20
0.0053
 30
0.0889
 70
192
 0
VERTEX
 8
CUERPO
 10
0.57
 20
0.0053
 30
0.0889
 70
192
 0
VERTEX
 8
CUERPO
 10
0.57
 20
0.0053
 30
0.0889
 70
192
 0
VERTEX
 8
CUERPO
 10
0.57
 20
0.0202
 30
0.0764
 70
192
 0
VERTEX
 8
CUERPO
 10
0.57
 20
0.0202
 30
0.0764
 70
192
 0
VERTEX
 8
CUERPO
 10
-2.4709
 20
0.0202
 30
0.0764
 70
192
 0
VERTEX
 8
CUERPO
 10
-2.4709
 20
0.0149
 30
0.0688
 70
192
 0
VERTEX
 8
CUERPO
 10
-2.4709
 20
-0.0019
 30
0.0786
 70
192
 0
VERTEX
 8
CUERPO
 10
-2.4709
 20
-0.0019
 30
0.0786
 70
192
 0
VERTEX
 8
CUERPO
 10
0.57
 20
-0.0019
 30
0.0786
 70
192
 0
VERTEX
 8
CUERPO
 10
0.57
 20
-0.0019
 30
0.0786
 70
192
 0
VERTEX
 8
CUERPO
 10
0.57
 20
0.0149
 30
0.0688
 70
192
 0
VERTEX
 8
CUERPO
 10
0.57
 20
0.0149
 30
0.0688
 70
192
 0
VERTEX
 8
CUERPO
 10
-2.4709
 20
0.0149
 30
0.0688
 70
192
 0
VERTEX
 8
CUERPO
 10
-2.4709
 20
0.011
 30
0.0605
 70
192
 0
VERTEX
 8
CUERPO
 10
-2.4709
 20
-0.0073
 30
0.0671
 70
192
 0
VERTEX
 8
CUERPO
 10
-2.4709
 20
-0.0073
 30
0.0671
 70
192
 0
VERTEX
 8
CUERPO
 10
0.57
 20
-0.0073
 30
0.0671
 70
192
 0
VERTEX
 8
CUERPO
 10
0.57
 20
-0.0073
 30
0.0671
 70
192
 0
VERTEX
 8
CUERPO
 10
0.57
 20
0.011
 30
0.0605
 70
192
 0
VERTEX
 8
CUERPO
 10
0.57
 20
0.011
 30
0.0605
 70
192
 0
VERTEX
 8
CUERPO
 10
-2.4709
 20
0.011
 30
0.0605
 70
192
 0
VERTEX
 8
CUERPO
 10
-2.4709
 20
0.0086
 30
0.0515
 70
192
 0
VERTEX
 8
CUERPO
 10
-2.4709
 20
-0.0105
 30
0.0549
 70
192
 0
VERTEX
 8
CUERPO
 10
-2.4709
 20
-0.0105
 30
0.0549
 70
192
 0
VERTEX
 8
CUERPO
 10
0.57
 20
-0.0105
 30
0.0549
 70
192
 0
VERTEX
 8
CUERPO
 10
0.57
 20
-0.0105
 30
0.0549
 70
192
 0
VERTEX
 8
CUERPO
 10
0.57
 20
0.0086
 30
0.0515
 70
192
 0
VERTEX
 8
CUERPO
 10
0.57
 20
0.0086
 30
0.0515
 70
192
 0
VERTEX
 8
CUERPO
 10
-2.4709
 20
0.0086
 30
0.0515
 70
192
 0
VERTEX
 8
CUERPO
 10
-2.4709
 20
0.0078
 30
0.0423
 70
192
 0
VERTEX
 8
CUERPO
 10
-2.4709
 20
-0.0116
 30
0.0423
 70
192
 0
VERTEX
 8
CUERPO
 10
-2.4709
 20
-0.0116
 30
0.0423
 70
192
 0
VERTEX
 8
CUERPO
 10
0.57
 20
-0.0116
 30
0.0423
 70
192
 0
VERTEX
 8
CUERPO
 10
0.57
 20
-0.0116
 30
0.0423
 70
192
 0
VERTEX
 8
CUERPO
 10
0.57
 20
0.0078
 30
0.0423
 70
192
 0
VERTEX
 8
CUERPO
 10
0.57
 20
0.0078
 30
0.0423
 70
192
 0
VERTEX
 8
CUERPO
 10
-2.4709
 20
0.0078
 30
0.0423
 70
192
 0
VERTEX
 8
CUERPO
 10
-2.4709
 20
0.0086
 30
0.0331
 70
192
 0
VERTEX
 8
CUERPO
 10
-2.4709
 20
-0.0105
 30
0.0297
 70
192
 0
VERTEX
 8
CUERPO
 10
-2.4709
 20
-0.0105
 30
0.0297
 70
192
 0
VERTEX
 8
CUERPO
 10
0.57
 20
-0.0105
 30
0.0297
 70
192
 0
VERTEX
 8
CUERPO
 10
0.57
 20
-0.0105
 30
0.0297
 70
192
 0
VERTEX
 8
CUERPO
 10
0.57
 20
0.0086
 30
0.0331
 70
192
 0
VERTEX
 8
CUERPO
 10
0.57
 20
0.0086
 30
0.0331
 70
192
 0
VERTEX
 8
CUERPO
 10
-2.4709
 20
0.0086
 30
0.0331
 70
192
 0
VERTEX
 8
CUERPO
 10
-2.4709
 20
0.011
 30
0.0242
 70
192
 0
VERTEX
 8
CUERPO
 10
-2.4709
 20
-0.0073
 30
0.0175
 70
192
 0
VERTEX
 8
CUERPO
 10
-2.4709
 20
-0.0073
 30
0.0175
 70
192
 0
VERTEX
 8
CUERPO
 10
0.57
 20
-0.0073
 30
0.0175
 70
192
 0
VERTEX
 8
CUERPO
 10
0.57
 20
-0.0073
 30
0.0175
 70
192
 0
VERTEX
 8
CUERPO
 10
0.57
 20
0.011
 30
0.0242
 70
192
 0
VERTEX
 8
CUERPO
 10
0.57
 20
0.011
 30
0.0242
 70
192
 0
VERTEX
 8
CUERPO
 10
-2.4709
 20
0.011
 30
0.0242
 70
192
 0
VERTEX
 8
CUERPO
 10
-2.4709
 20
0.0149
 30
0.0158
 70
192
 0
VERTEX
 8
CUERPO
 10
-2.4709
 20
-0.0019
 30
0.0061
 70
192
 0
VERTEX
 8
CUERPO
 10
-2.4709
 20
-0.0019
 30
0.0061
 70
192
 0
VERTEX
 8
CUERPO
 10
0.57
 20
-0.0019
 30
0.0061
 70
192
 0
VERTEX
 8
CUERPO
 10
0.57
 20
-0.0019
 30
0.0061
 70
192
 0
VERTEX
 8
CUERPO
 10
0.57
 20
0.0149
 30
0.0158
 70
192
 0
VERTEX
 8
CUERPO
 10
0.57
 20
0.0149
 30
0.0158
 70
192
 0
VERTEX
 8
CUERPO
 10
-2.4709
 20
0.0149
 30
0.0158
 70
192
 0
VERTEX
 8
CUERPO
 10
-2.4709
 20
0.0202
 30
0.0082
 70
192
 0
VERTEX
 8
CUERPO
 10
-2.4709
 20
0.0053
 30
-0.0043
 70
192
 0
VERTEX
 8
CUERPO
 10
-2.4709
 20
0.0053
 30
-0.0043
 70
192
 0
VERTEX
 8
CUERPO
 10
0.57
 20
0.0053
 30
-0.0043
 70
192
 0
VERTEX
 8
CUERPO
 10
0.57
 20
0.0053
 30
-0.0043
 70
192
 0
VERTEX
 8
CUERPO
 10
0.57
 20
0.0202
 30
0.0082
 70
192
 0
VERTEX
 8
CUERPO
 10
0.57
 20
0.0202
 30
0.0082
 70
192
 0
VERTEX
 8
CUERPO
 10
-2.4709
 20
0.0202
 30
0.0082
 70
192
 0
VERTEX
 8
CUERPO
 10
-2.4709
 20
0.0268
 30
0.0017
 70
192
 0
VERTEX
 8
CUERPO
 10
-2.4709
 20
0.0143
 30
-0.0132
 70
192
 0
VERTEX
 8
CUERPO
 10
-2.4709
 20
0.0143
 30
-0.0132
 70
192
 0
VERTEX
 8
CUERPO
 10
0.57
 20
0.0143
 30
-0.0132
 70
192
 0
VERTEX
 8
CUERPO
 10
0.57
 20
0.0143
 30
-0.0132
 70
192
 0
VERTEX
 8
CUERPO
 10
0.57
 20
0.0268
 30
0.0017
 70
192
 0
VERTEX
 8
CUERPO
 10
0.57
 20
0.0268
 30
0.0017
 70
192
 0
VERTEX
 8
CUERPO
 10
-2.4709
 20
0.0268
 30
0.0017
 70
192
 0
VERTEX
 8
CUERPO
 10
-2.4709
 20
0.0343
 30
-0.0036
 70
192
 0
VERTEX
 8
CUERPO
 10
-2.4709
 20
0.0246
 30
-0.0205
 70
192
 0
VERTEX
 8
CUERPO
 10
-2.4709
 20
0.0246
 30
-0.0205
 70
192
 0
VERTEX
 8
CUERPO
 10
0.57
 20
0.0246
 30
-0.0205
 70
192
 0
VERTEX
 8
CUERPO
 10
0.57
 20
0.0246
 30
-0.0205
 70
192
 0
VERTEX
 8
CUERPO
 10
0.57
 20
0.0343
 30
-0.0036
 70
192
 0
VERTEX
 8
CUERPO
 10
0.57
 20
0.0343
 30
-0.0036
 70
192
 0
VERTEX
 8
CUERPO
 10
-2.4709
 20
0.0343
 30
-0.0036
 70
192
 0
VERTEX
 8
CUERPO
 10
-2.4709
 20
0.0427
 30
-0.0075
 70
192
 0
VERTEX
 8
CUERPO
 10
-2.4709
 20
0.0361
 30
-0.0258
 70
192
 0
VERTEX
 8
CUERPO
 10
-2.4709
 20
0.0361
 30
-0.0258
 70
192
 0
VERTEX
 8
CUERPO
 10
0.57
 20
0.0361
 30
-0.0258
 70
192
 0
VERTEX
 8
CUERPO
 10
0.57
 20
0.0361
 30
-0.0258
 70
192
 0
VERTEX
 8
CUERPO
 10
0.57
 20
0.0427
 30
-0.0075
 70
192
 0
VERTEX
 8
CUERPO
 10
0.57
 20
0.0427
 30
-0.0075
 70
192
 0
VERTEX
 8
CUERPO
 10
-2.4709
 20
0.0427
 30
-0.0075
 70
192
 0
VERTEX
 8
CUERPO
 10
-2.4709
 20
0.0517
 30
-0.0099
 70
192
 0
VERTEX
 8
CUERPO
 10
-2.4709
 20
0.0483
 30
-0.0291
 70
192
 0
VERTEX
 8
CUERPO
 10
-2.4709
 20
0.0483
 30
-0.0291
 70
192
 0
VERTEX
 8
CUERPO
 10
0.57
 20
0.0483
 30
-0.0291
 70
192
 0
VERTEX
 8
CUERPO
 10
0.57
 20
0.0483
 30
-0.0291
 70
192
 0
VERTEX
 8
CUERPO
 10
0.57
 20
0.0517
 30
-0.0099
 70
192
 0
VERTEX
 8
CUERPO
 10
0.57
 20
0.0517
 30
-0.0099
 70
192
 0
VERTEX
 8
CUERPO
 10
-2.4709
 20
0.0517
 30
-0.0099
 70
192
 0
VERTEX
 8
CUERPO
 10
1.264
 20
0.0273
 30
-0.1297
 70
192
 0
VERTEX
 8
CUERPO
 10
1.2752
 20
0.0273
 30
-0.126
 70
192
 0
VERTEX
 8
CUERPO
 10
1.303
 20
0.0273
 30
-0.2858
 70
192
 0
VERTEX
 8
CUERPO
 10
1.3142
 20
0.0273
 30
-0.282
 70
192
 0
VERTEX
 8
CUERPO
 10
1.346
 20
0.0219
 30
-0.3255
 70
192
 0
VERTEX
 8
CUERPO
 10
1.3553
 20
0.0219
 30
-0.3182
 70
192
 0
VERTEX
 8
CUERPO
 10
1.4404
 20
0.0219
 30
-0.3323
 70
192
 0
VERTEX
 8
CUERPO
 10
1.4382
 20
0.0219
 30
-0.3207
 70
192
 0
VERTEX
 8
CUERPO
 10
1.4794
 20
0.0219
 30
-0.2876
 70
192
 0
VERTEX
 8
CUERPO
 10
1.4696
 20
0.0219
 30
-0.281
 70
192
 0
VERTEX
 8
CUERPO
 10
1.5453
 20
0.0219
 30
-0.1906
 70
192
 0
VERTEX
 8
CUERPO
 10
1.5356
 20
0.0219
 30
-0.184
 70
192
 0
VERTEX
 8
CUERPO
 10
1.5453
 20
0.1052
 30
-0.1906
 70
192
 0
VERTEX
 8
CUERPO
 10
1.5356
 20
0.1052
 30
-0.184
 70
192
 0
VERTEX
 8
CUERPO
 10
1.4794
 20
0.1052
 30
-0.2876
 70
192
 0
VERTEX
 8
CUERPO
 10
1.4696
 20
0.1052
 30
-0.281
 70
192
 0
VERTEX
 8
CUERPO
 10
1.4404
 20
0.1052
 30
-0.3323
 70
192
 0
VERTEX
 8
CUERPO
 10
1.4382
 20
0.1052
 30
-0.3207
 70
192
 0
VERTEX
 8
CUERPO
 10
1.346
 20
0.1052
 30
-0.3255
 70
192
 0
VERTEX
 8
CUERPO
 10
1.3553
 20
0.1052
 30
-0.3182
 70
192
 0
VERTEX
 8
CUERPO
 10
1.303
 20
0.1107
 30
-0.2858
 70
192
 0
VERTEX
 8
CUERPO
 10
1.3142
 20
0.1107
 30
-0.282
 70
192
 0
VERTEX
 8
CUERPO
 10
1.264
 20
0.1107
 30
-0.1297
 70
192
 0
VERTEX
 8
CUERPO
 10
1.2752
 20
0.1107
 30
-0.126
 70
192
 0
VERTEX
 8
CUERPO
 10
0
 20
0
 30
0
 70
128
 71
1
 72
2
 73
8
 74
7
 0
VERTEX
 8
CUERPO
 10
0
 20
0
 30
0
 70
128
 71
7
 72
8
 73
14
 74
13
 0
VERTEX
 8
CUERPO
 10
0
 20
0
 30
0
 70
128
 71
13
 72
14
 73
20
 74
19
 0
VERTEX
 8
CUERPO
 10
0
 20
0
 30
0
 70
128
 71
19
 72
20
 73
26
 74
25
 0
VERTEX
 8
CUERPO
 10
0
 20
0
 30
0
 70
128
 71
25
 72
26
 73
32
 74
31
 0
VERTEX
 8
CUERPO
 10
0
 20
0
 30
0
 70
128
 71
31
 72
32
 73
38
 74
37
 0
VERTEX
 8
CUERPO
 10
0
 20
0
 30
0
 70
128
 71
37
 72
38
 73
44
 74
43
 0
VERTEX
 8
CUERPO
 10
0
 20
0
 30
0
 70
128
 71
43
 72
44
 73
50
 74
49
 0
VERTEX
 8
CUERPO
 10
0
 20
0
 30
0
 70
128
 71
2
 72
3
 73
9
 74
8
 0
VERTEX
 8
CUERPO
 10
0
 20
0
 30
0
 70
128
 71
8
 72
9
 73
15
 74
14
 0
VERTEX
 8
CUERPO
 10
0
 20
0
 30
0
 70
128
 71
14
 72
15
 73
21
 74
20
 0
VERTEX
 8
CUERPO
 10
0
 20
0
 30
0
 70
128
 71
20
 72
21
 73
27
 74
26
 0
VERTEX
 8
CUERPO
 10
0
 20
0
 30
0
 70
128
 71
26
 72
27
 73
33
 74
32
 0
VERTEX
 8
CUERPO
 10
0
 20
0
 30
0
 70
128
 71
32
 72
33
 73
39
 74
38
 0
VERTEX
 8
CUERPO
 10
0
 20
0
 30
0
 70
128
 71
38
 72
39
 73
45
 74
44
 0
VERTEX
 8
CUERPO
 10
0
 20
0
 30
0
 70
128
 71
44
 72
45
 73
51
 74
50
 0
VERTEX
 8
CUERPO
 10
0
 20
0
 30
0
 70
128
 71
3
 72
4
 73
10
 74
9
 0
VERTEX
 8
CUERPO
 10
0
 20
0
 30
0
 70
128
 71
9
 72
10
 73
16
 74
15
 0
VERTEX
 8
CUERPO
 10
0
 20
0
 30
0
 70
128
 71
15
 72
16
 73
22
 74
21
 0
VERTEX
 8
CUERPO
 10
0
 20
0
 30
0
 70
128
 71
21
 72
22
 73
28
 74
27
 0
VERTEX
 8
CUERPO
 10
0
 20
0
 30
0
 70
128
 71
27
 72
28
 73
34
 74
33
 0
VERTEX
 8
CUERPO
 10
0
 20
0
 30
0
 70
128
 71
33
 72
34
 73
40
 74
39
 0
VERTEX
 8
CUERPO
 10
0
 20
0
 30
0
 70
128
 71
39
 72
40
 73
46
 74
45
 0
VERTEX
 8
CUERPO
 10
0
 20
0
 30
0
 70
128
 71
45
 72
46
 73
52
 74
51
 0
VERTEX
 8
CUERPO
 10
0
 20
0
 30
0
 70
128
 71
4
 72
5
 73
11
 74
10
 0
VERTEX
 8
CUERPO
 10
0
 20
0
 30
0
 70
128
 71
10
 72
11
 73
17
 74
16
 0
VERTEX
 8
CUERPO
 10
0
 20
0
 30
0
 70
128
 71
16
 72
17
 73
23
 74
22
 0
VERTEX
 8
CUERPO
 10
0
 20
0
 30
0
 70
128
 71
22
 72
23
 73
29
 74
28
 0
VERTEX
 8
CUERPO
 10
0
 20
0
 30
0
 70
128
 71
28
 72
29
 73
35
 74
34
 0
VERTEX
 8
CUERPO
 10
0
 20
0
 30
0
 70
128
 71
34
 72
35
 73
41
 74
40
 0
VERTEX
 8
CUERPO
 10
0
 20
0
 30
0
 70
128
 71
40
 72
41
 73
47
 74
46
 0
VERTEX
 8
CUERPO
 10
0
 20
0
 30
0
 70
128
 71
46
 72
47
 73
53
 74
52
 0
VERTEX
 8
CUERPO
 10
0
 20
0
 30
0
 70
128
 71
5
 72
6
 73
12
 74
11
 0
VERTEX
 8
CUERPO
 10
0
 20
0
 30
0
 70
128
 71
11
 72
12
 73
18
 74
17
 0
VERTEX
 8
CUERPO
 10
0
 20
0
 30
0
 70
128
 71
17
 72
18
 73
24
 74
23
 0
VERTEX
 8
CUERPO
 10
0
 20
0
 30
0
 70
128
 71
23
 72
24
 73
30
 74
29
 0
VERTEX
 8
CUERPO
 10
0
 20
0
 30
0
 70
128
 71
29
 72
30
 73
36
 74
35
 0
VERTEX
 8
CUERPO
 10
0
 20
0
 30
0
 70
128
 71
35
 72
36
 73
42
 74
41
 0
VERTEX
 8
CUERPO
 10
0
 20
0
 30
0
 70
128
 71
41
 72
42
 73
48
 74
47
 0
VERTEX
 8
CUERPO
 10
0
 20
0
 30
0
 70
128
 71
47
 72
48
 73
54
 74
53
 0
VERTEX
 8
CUERPO
 10
0
 20
0
 30
0
 70
128
 71
49
 72
50
 73
56
 74
55
 0
VERTEX
 8
CUERPO
 10
0
 20
0
 30
0
 70
128
 71
50
 72
51
 73
57
 74
56
 0
VERTEX
 8
CUERPO
 10
0
 20
0
 30
0
 70
128
 71
51
 72
52
 73
58
 74
57
 0
VERTEX
 8
CUERPO
 10
0
 20
0
 30
0
 70
128
 71
52
 72
53
 73
59
 74
58
 0
VERTEX
 8
CUERPO
 10
0
 20
0
 30
0
 70
128
 71
53
 72
54
 73
60
 74
59
 0
VERTEX
 8
CUERPO
 10
0
 20
0
 30
0
 70
128
 71
55
 72
56
 73
62
 74
61
 0
VERTEX
 8
CUERPO
 10
0
 20
0
 30
0
 70
128
 71
61
 72
62
 73
68
 74
67
 0
VERTEX
 8
CUERPO
 10
0
 20
0
 30
0
 70
128
 71
67
 72
68
 73
74
 74
73
 0
VERTEX
 8
CUERPO
 10
0
 20
0
 30
0
 70
128
 71
73
 72
74
 73
80
 74
79
 0
VERTEX
 8
CUERPO
 10
0
 20
0
 30
0
 70
128
 71
79
 72
80
 73
86
 74
85
 0
VERTEX
 8
CUERPO
 10
0
 20
0
 30
0
 70
128
 71
85
 72
86
 73
91
 74
90
 0
VERTEX
 8
CUERPO
 10
0
 20
0
 30
0
 70
128
 71
90
 72
91
 73
96
 74
95
 0
VERTEX
 8
CUERPO
 10
0
 20
0
 30
0
 70
128
 71
95
 72
96
 73
101
 74
100
 0
VERTEX
 8
CUERPO
 10
0
 20
0
 30
0
 70
128
 71
56
 72
57
 73
63
 74
62
 0
VERTEX
 8
CUERPO
 10
0
 20
0
 30
0
 70
128
 71
62
 72
63
 73
69
 74
68
 0
VERTEX
 8
CUERPO
 10
0
 20
0
 30
0
 70
128
 71
68
 72
69
 73
75
 74
74
 0
VERTEX
 8
CUERPO
 10
0
 20
0
 30
0
 70
128
 71
74
 72
75
 73
81
 74
80
 0
VERTEX
 8
CUERPO
 10
0
 20
0
 30
0
 70
128
 71
80
 72
81
 73
87
 74
86
 0
VERTEX
 8
CUERPO
 10
0
 20
0
 30
0
 70
128
 71
86
 72
87
 73
92
 74
91
 0
VERTEX
 8
CUERPO
 10
0
 20
0
 30
0
 70
128
 71
91
 72
92
 73
97
 74
96
 0
VERTEX
 8
CUERPO
 10
0
 20
0
 30
0
 70
128
 71
96
 72
97
 73
102
 74
101
 0
VERTEX
 8
CUERPO
 10
0
 20
0
 30
0
 70
128
 71
57
 72
58
 73
64
 74
63
 0
VERTEX
 8
CUERPO
 10
0
 20
0
 30
0
 70
128
 71
63
 72
64
 73
70
 74
69
 0
VERTEX
 8
CUERPO
 10
0
 20
0
 30
0
 70
128
 71
69
 72
70
 73
76
 74
75
 0
VERTEX
 8
CUERPO
 10
0
 20
0
 30
0
 70
128
 71
75
 72
76
 73
82
 74
81
 0
VERTEX
 8
CUERPO
 10
0
 20
0
 30
0
 70
128
 71
81
 72
82
 73
88
 74
87
 0
VERTEX
 8
CUERPO
 10
0
 20
0
 30
0
 70
128
 71
87
 72
88
 73
93
 74
92
 0
VERTEX
 8
CUERPO
 10
0
 20
0
 30
0
 70
128
 71
92
 72
93
 73
98
 74
97
 0
VERTEX
 8
CUERPO
 10
0
 20
0
 30
0
 70
128
 71
97
 72
98
 73
103
 74
102
 0
VERTEX
 8
CUERPO
 10
0
 20
0
 30
0
 70
128
 71
58
 72
59
 73
65
 74
64
 0
VERTEX
 8
CUERPO
 10
0
 20
0
 30
0
 70
128
 71
64
 72
65
 73
71
 74
70
 0
VERTEX
 8
CUERPO
 10
0
 20
0
 30
0
 70
128
 71
70
 72
71
 73
77
 74
76
 0
VERTEX
 8
CUERPO
 10
0
 20
0
 30
0
 70
128
 71
76
 72
77
 73
83
 74
82
 0
VERTEX
 8
CUERPO
 10
0
 20
0
 30
0
 70
128
 71
106
 72
88
 73
82
 74
114
 0
VERTEX
 8
CUERPO
 10
0
 20
0
 30
0
 70
128
 71
82
 72
83
 73
107
 74
114
 0
VERTEX
 8
CUERPO
 10
0
 20
0
 30
0
 70
128
 71
108
 72
93
 73
88
 74
106
 0
VERTEX
 8
CUERPO
 10
0
 20
0
 30
0
 70
128
 71
110
 72
98
 73
93
 74
108
 0
VERTEX
 8
CUERPO
 10
0
 20
0
 30
0
 70
128
 71
109
 72
104
 73
103
 74
117
 0
VERTEX
 8
CUERPO
 10
0
 20
0
 30
0
 70
128
 71
103
 72
98
 73
110
 74
117
 0
VERTEX
 8
CUERPO
 10
0
 20
0
 30
0
 70
128
 71
59
 72
60
 73
66
 74
65
 0
VERTEX
 8
CUERPO
 10
0
 20
0
 30
0
 70
128
 71
65
 72
66
 73
72
 74
71
 0
VERTEX
 8
CUERPO
 10
0
 20
0
 30
0
 70
128
 71
71
 72
72
 73
78
 74
77
 0
VERTEX
 8
CUERPO
 10
0
 20
0
 30
0
 70
128
 71
77
 72
78
 73
84
 74
83
 0
VERTEX
 8
CUERPO
 10
0
 20
0
 30
0
 70
128
 71
115
 72
107
 73
83
 74
84
 0
VERTEX
 8
CUERPO
 10
0
 20
0
 30
0
 70
128
 71
84
 72
89
 73
111
 74
115
 0
VERTEX
 8
CUERPO
 10
0
 20
0
 30
0
 70
128
 71
111
 72
89
 73
94
 74
112
 0
VERTEX
 8
CUERPO
 10
0
 20
0
 30
0
 70
128
 71
112
 72
94
 73
99
 74
113
 0
VERTEX
 8
CUERPO
 10
0
 20
0
 30
0
 70
128
 71
116
 72
113
 73
99
 74
105
 0
VERTEX
 8
CUERPO
 10
0
 20
0
 30
0
 70
128
 71
104
 72
109
 73
116
 74
105
 0
VERTEX
 8
CUERPO
 10
0
 20
0
 30
0
 70
128
 71
100
 72
101
 73
2
 74
1
 0
VERTEX
 8
CUERPO
 10
0
 20
0
 30
0
 70
128
 71
101
 72
102
 73
3
 74
2
 0
VERTEX
 8
CUERPO
 10
0
 20
0
 30
0
 70
128
 71
102
 72
103
 73
4
 74
3
 0
VERTEX
 8
CUERPO
 10
0
 20
0
 30
0
 70
128
 71
103
 72
104
 73
5
 74
4
 0
VERTEX
 8
CUERPO
 10
0
 20
0
 30
0
 70
128
 71
104
 72
105
 73
6
 74
5
 0
VERTEX
 8
CUERPO
 10
0
 20
0
 30
0
 70
128
 71
6
 72
105
 73
99
 74
12
 0
VERTEX
 8
CUERPO
 10
0
 20
0
 30
0
 70
128
 71
12
 72
99
 73
94
 74
18
 0
VERTEX
 8
CUERPO
 10
0
 20
0
 30
0
 70
128
 71
18
 72
94
 73
89
 74
24
 0
VERTEX
 8
CUERPO
 10
0
 20
0
 30
0
 70
128
 71
24
 72
89
 73
84
 74
30
 0
VERTEX
 8
CUERPO
 10
0
 20
0
 30
0
 70
128
 71
30
 72
84
 73
78
 74
36
 0
VERTEX
 8
CUERPO
 10
0
 20
0
 30
0
 70
128
 71
36
 72
78
 73
72
 74
42
 0
VERTEX
 8
CUERPO
 10
0
 20
0
 30
0
 70
128
 71
42
 72
72
 73
66
 74
48
 0
VERTEX
 8
CUERPO
 10
0
 20
0
 30
0
 70
128
 71
48
 72
66
 73
60
 74
54
 0
VERTEX
 8
CUERPO
 10
0
 20
0
 30
0
 70
128
 71
100
 72
1
 73
7
 74
95
 0
VERTEX
 8
CUERPO
 10
0
 20
0
 30
0
 70
128
 71
95
 72
7
 73
13
 74
90
 0
VERTEX
 8
CUERPO
 10
0
 20
0
 30
0
 70
128
 71
90
 72
13
 73
19
 74
85
 0
VERTEX
 8
CUERPO
 10
0
 20
0
 30
0
 70
128
 71
85
 72
19
 73
25
 74
79
 0
VERTEX
 8
CUERPO
 10
0
 20
0
 30
0
 70
128
 71
79
 72
25
 73
31
 74
73
 0
VERTEX
 8
CUERPO
 10
0
 20
0
 30
0
 70
128
 71
73
 72
31
 73
37
 74
67
 0
VERTEX
 8
CUERPO
 10
0
 20
0
 30
0
 70
128
 71
67
 72
37
 73
43
 74
61
 0
VERTEX
 8
CUERPO
 10
0
 20
0
 30
0
 70
128
 71
61
 72
43
 73
49
 74
55
 0
VERTEX
 8
CUERPO
 10
0
 20
0
 30
0
 70
128
 71
119
 72
118
 73
120
 74
121
 0
VERTEX
 8
CUERPO
 10
0
 20
0
 30
0
 70
128
 71
120
 72
122
 73
126
 74
121
 0
VERTEX
 8
CUERPO
 10
0
 20
0
 30
0
 70
128
 71
124
 72
121
 73
126
 74
126
 0
VERTEX
 8
CUERPO
 10
0
 20
0
 30
0
 70
128
 71
125
 72
131
 73
119
 74
119
 0
VERTEX
 8
CUERPO
 10
0
 20
0
 30
0
 70
128
 71
118
 72
119
 73
131
 74
123
 0
VERTEX
 8
CUERPO
 10
0
 20
0
 30
0
 70
128
 71
124
 72
130
 73
121
 74
121
 0
VERTEX
 8
CUERPO
 10
0
 20
0
 30
0
 70
128
 71
119
 72
121
 73
133
 74
125
 0
VERTEX
 8
CUERPO
 10
0
 20
0
 30
0
 70
128
 71
130
 72
132
 73
121
 74
121
 0
VERTEX
 8
CUERPO
 10
0
 20
0
 30
0
 70
128
 71
121
 72
132
 73
133
 74
133
 0
VERTEX
 8
CUERPO
 10
0
 20
0
 30
0
 70
128
 71
123
 72
129
 73
118
 74
118
 0
VERTEX
 8
CUERPO
 10
0
 20
0
 30
0
 70
128
 71
127
 72
122
 73
120
 74
118
 0
VERTEX
 8
CUERPO
 10
0
 20
0
 30
0
 70
128
 71
129
 72
128
 73
118
 74
118
 0
VERTEX
 8
CUERPO
 10
0
 20
0
 30
0
 70
128
 71
118
 72
128
 73
127
 74
127
 0
VERTEX
 8
CUERPO
 10
0
 20
0
 30
0
 70
128
 71
134
 72
135
 73
137
 74
136
 0
VERTEX
 8
CUERPO
 10
0
 20
0
 30
0
 70
128
 71
136
 72
137
 73
139
 74
138
 0
VERTEX
 8
CUERPO
 10
0
 20
0
 30
0
 70
128
 71
138
 72
139
 73
141
 74
140
 0
VERTEX
 8
CUERPO
 10
0
 20
0
 30
0
 70
128
 71
140
 72
141
 73
135
 74
134
 0
VERTEX
 8
CUERPO
 10
0
 20
0
 30
0
 70
128
 71
135
 72
141
 73
139
 74
137
 0
VERTEX
 8
CUERPO
 10
0
 20
0
 30
0
 70
128
 71
140
 72
134
 73
136
 74
138
 0
VERTEX
 8
CUERPO
 10
0
 20
0
 30
0
 70
128
 71
142
 72
143
 73
145
 74
144
 0
VERTEX
 8
CUERPO
 10
0
 20
0
 30
0
 70
128
 71
144
 72
145
 73
147
 74
146
 0
VERTEX
 8
CUERPO
 10
0
 20
0
 30
0
 70
128
 71
146
 72
147
 73
149
 74
148
 0
VERTEX
 8
CUERPO
 10
0
 20
0
 30
0
 70
128
 71
148
 72
149
 73
143
 74
142
 0
VERTEX
 8
CUERPO
 10
0
 20
0
 30
0
 70
128
 71
143
 72
149
 73
147
 74
145
 0
VERTEX
 8
CUERPO
 10
0
 20
0
 30
0
 70
128
 71
148
 72
142
 73
144
 74
146
 0
VERTEX
 8
CUERPO
 10
0
 20
0
 30
0
 70
128
 71
150
 72
152
 73
156
 74
156
 0
VERTEX
 8
CUERPO
 10
0
 20
0
 30
0
 70
128
 71
153
 72
154
 73
158
 74
157
 0
VERTEX
 8
CUERPO
 10
0
 20
0
 30
0
 70
128
 71
155
 72
151
 73
159
 74
159
 0
VERTEX
 8
CUERPO
 10
0
 20
0
 30
0
 70
128
 71
150
 72
156
 73
160
 74
160
 0
VERTEX
 8
CUERPO
 10
0
 20
0
 30
0
 70
128
 71
157
 72
158
 73
162
 74
161
 0
VERTEX
 8
CUERPO
 10
0
 20
0
 30
0
 70
128
 71
159
 72
151
 73
163
 74
163
 0
VERTEX
 8
CUERPO
 10
0
 20
0
 30
0
 70
128
 71
150
 72
160
 73
164
 74
164
 0
VERTEX
 8
CUERPO
 10
0
 20
0
 30
0
 70
128
 71
161
 72
162
 73
166
 74
165
 0
VERTEX
 8
CUERPO
 10
0
 20
0
 30
0
 70
128
 71
163
 72
151
 73
167
 74
167
 0
VERTEX
 8
CUERPO
 10
0
 20
0
 30
0
 70
128
 71
150
 72
164
 73
168
 74
168
 0
VERTEX
 8
CUERPO
 10
0
 20
0
 30
0
 70
128
 71
165
 72
166
 73
170
 74
169
 0
VERTEX
 8
CUERPO
 10
0
 20
0
 30
0
 70
128
 71
167
 72
151
 73
171
 74
171
 0
VERTEX
 8
CUERPO
 10
0
 20
0
 30
0
 70
128
 71
150
 72
168
 73
172
 74
172
 0
VERTEX
 8
CUERPO
 10
0
 20
0
 30
0
 70
128
 71
169
 72
170
 73
174
 74
173
 0
VERTEX
 8
CUERPO
 10
0
 20
0
 30
0
 70
128
 71
171
 72
151
 73
175
 74
175
 0
VERTEX
 8
CUERPO
 10
0
 20
0
 30
0
 70
128
 71
150
 72
172
 73
176
 74
176
 0
VERTEX
 8
CUERPO
 10
0
 20
0
 30
0
 70
128
 71
173
 72
174
 73
178
 74
177
 0
VERTEX
 8
CUERPO
 10
0
 20
0
 30
0
 70
128
 71
175
 72
151
 73
179
 74
179
 0
VERTEX
 8
CUERPO
 10
0
 20
0
 30
0
 70
128
 71
150
 72
176
 73
180
 74
180
 0
VERTEX
 8
CUERPO
 10
0
 20
0
 30
0
 70
128
 71
177
 72
178
 73
182
 74
181
 0
VERTEX
 8
CUERPO
 10
0
 20
0
 30
0
 70
128
 71
179
 72
151
 73
183
 74
183
 0
VERTEX
 8
CUERPO
 10
0
 20
0
 30
0
 70
128
 71
150
 72
180
 73
184
 74
184
 0
VERTEX
 8
CUERPO
 10
0
 20
0
 30
0
 70
128
 71
181
 72
182
 73
186
 74
185
 0
VERTEX
 8
CUERPO
 10
0
 20
0
 30
0
 70
128
 71
183
 72
151
 73
187
 74
187
 0
VERTEX
 8
CUERPO
 10
0
 20
0
 30
0
 70
128
 71
150
 72
184
 73
188
 74
188
 0
VERTEX
 8
CUERPO
 10
0
 20
0
 30
0
 70
128
 71
185
 72
186
 73
190
 74
189
 0
VERTEX
 8
CUERPO
 10
0
 20
0
 30
0
 70
128
 71
187
 72
151
 73
191
 74
191
 0
VERTEX
 8
CUERPO
 10
0
 20
0
 30
0
 70
128
 71
150
 72
188
 73
192
 74
192
 0
VERTEX
 8
CUERPO
 10
0
 20
0
 30
0
 70
128
 71
189
 72
190
 73
194
 74
193
 0
VERTEX
 8
CUERPO
 10
0
 20
0
 30
0
 70
128
 71
191
 72
151
 73
195
 74
195
 0
VERTEX
 8
CUERPO
 10
0
 20
0
 30
0
 70
128
 71
150
 72
192
 73
196
 74
196
 0
VERTEX
 8
CUERPO
 10
0
 20
0
 30
0
 70
128
 71
193
 72
194
 73
198
 74
197
 0
VERTEX
 8
CUERPO
 10
0
 20
0
 30
0
 70
128
 71
195
 72
151
 73
199
 74
199
 0
VERTEX
 8
CUERPO
 10
0
 20
0
 30
0
 70
128
 71
150
 72
196
 73
200
 74
200
 0
VERTEX
 8
CUERPO
 10
0
 20
0
 30
0
 70
128
 71
197
 72
198
 73
202
 74
201
 0
VERTEX
 8
CUERPO
 10
0
 20
0
 30
0
 70
128
 71
199
 72
151
 73
203
 74
203
 0
VERTEX
 8
CUERPO
 10
0
 20
0
 30
0
 70
128
 71
150
 72
200
 73
204
 74
204
 0
VERTEX
 8
CUERPO
 10
0
 20
0
 30
0
 70
128
 71
201
 72
202
 73
206
 74
205
 0
VERTEX
 8
CUERPO
 10
0
 20
0
 30
0
 70
128
 71
203
 72
151
 73
207
 74
207
 0
VERTEX
 8
CUERPO
 10
0
 20
0
 30
0
 70
128
 71
150
 72
204
 73
208
 74
208
 0
VERTEX
 8
CUERPO
 10
0
 20
0
 30
0
 70
128
 71
205
 72
206
 73
210
 74
209
 0
VERTEX
 8
CUERPO
 10
0
 20
0
 30
0
 70
128
 71
207
 72
151
 73
211
 74
211
 0
VERTEX
 8
CUERPO
 10
0
 20
0
 30
0
 70
128
 71
150
 72
208
 73
212
 74
212
 0
VERTEX
 8
CUERPO
 10
0
 20
0
 30
0
 70
128
 71
209
 72
210
 73
214
 74
213
 0
VERTEX
 8
CUERPO
 10
0
 20
0
 30
0
 70
128
 71
211
 72
151
 73
215
 74
215
 0
VERTEX
 8
CUERPO
 10
0
 20
0
 30
0
 70
128
 71
150
 72
212
 73
216
 74
216
 0
VERTEX
 8
CUERPO
 10
0
 20
0
 30
0
 70
128
 71
213
 72
214
 73
218
 74
217
 0
VERTEX
 8
CUERPO
 10
0
 20
0
 30
0
 70
128
 71
215
 72
151
 73
219
 74
219
 0
VERTEX
 8
CUERPO
 10
0
 20
0
 30
0
 70
128
 71
150
 72
216
 73
220
 74
220
 0
VERTEX
 8
CUERPO
 10
0
 20
0
 30
0
 70
128
 71
217
 72
218
 73
222
 74
221
 0
VERTEX
 8
CUERPO
 10
0
 20
0
 30
0
 70
128
 71
219
 72
151
 73
223
 74
223
 0
VERTEX
 8
CUERPO
 10
0
 20
0
 30
0
 70
128
 71
150
 72
220
 73
224
 74
224
 0
VERTEX
 8
CUERPO
 10
0
 20
0
 30
0
 70
128
 71
221
 72
222
 73
226
 74
225
 0
VERTEX
 8
CUERPO
 10
0
 20
0
 30
0
 70
128
 71
223
 72
151
 73
227
 74
227
 0
VERTEX
 8
CUERPO
 10
0
 20
0
 30
0
 70
128
 71
150
 72
224
 73
228
 74
228
 0
VERTEX
 8
CUERPO
 10
0
 20
0
 30
0
 70
128
 71
225
 72
226
 73
230
 74
229
 0
VERTEX
 8
CUERPO
 10
0
 20
0
 30
0
 70
128
 71
227
 72
151
 73
231
 74
231
 0
VERTEX
 8
CUERPO
 10
0
 20
0
 30
0
 70
128
 71
150
 72
228
 73
232
 74
232
 0
VERTEX
 8
CUERPO
 10
0
 20
0
 30
0
 70
128
 71
229
 72
230
 73
234
 74
233
 0
VERTEX
 8
CUERPO
 10
0
 20
0
 30
0
 70
128
 71
231
 72
151
 73
235
 74
235
 0
VERTEX
 8
CUERPO
 10
0
 20
0
 30
0
 70
128
 71
150
 72
232
 73
236
 74
236
 0
VERTEX
 8
CUERPO
 10
0
 20
0
 30
0
 70
128
 71
233
 72
234
 73
238
 74
237
 0
VERTEX
 8
CUERPO
 10
0
 20
0
 30
0
 70
128
 71
235
 72
151
 73
239
 74
239
 0
VERTEX
 8
CUERPO
 10
0
 20
0
 30
0
 70
128
 71
150
 72
236
 73
240
 74
240
 0
VERTEX
 8
CUERPO
 10
0
 20
0
 30
0
 70
128
 71
237
 72
238
 73
242
 74
241
 0
VERTEX
 8
CUERPO
 10
0
 20
0
 30
0
 70
128
 71
239
 72
151
 73
243
 74
243
 0
VERTEX
 8
CUERPO
 10
0
 20
0
 30
0
 70
128
 71
150
 72
240
 73
244
 74
244
 0
VERTEX
 8
CUERPO
 10
0
 20
0
 30
0
 70
128
 71
241
 72
242
 73
246
 74
245
 0
VERTEX
 8
CUERPO
 10
0
 20
0
 30
0
 70
128
 71
243
 72
151
 73
247
 74
247
 0
VERTEX
 8
CUERPO
 10
0
 20
0
 30
0
 70
128
 71
150
 72
244
 73
248
 74
248
 0
VERTEX
 8
CUERPO
 10
0
 20
0
 30
0
 70
128
 71
245
 72
246
 73
250
 74
249
 0
VERTEX
 8
CUERPO
 10
0
 20
0
 30
0
 70
128
 71
247
 72
151
 73
251
 74
251
 0
VERTEX
 8
CUERPO
 10
0
 20
0
 30
0
 70
128
 71
150
 72
248
 73
252
 74
252
 0
VERTEX
 8
CUERPO
 10
0
 20
0
 30
0
 70
128
 71
249
 72
250
 73
254
 74
253
 0
VERTEX
 8
CUERPO
 10
0
 20
0
 30
0
 70
128
 71
251
 72
151
 73
255
 74
255
 0
VERTEX
 8
CUERPO
 10
0
 20
0
 30
0
 70
128
 71
150
 72
252
 73
256
 74
256
 0
VERTEX
 8
CUERPO
 10
0
 20
0
 30
0
 70
128
 71
253
 72
254
 73
258
 74
257
 0
VERTEX
 8
CUERPO
 10
0
 20
0
 30
0
 70
128
 71
255
 72
151
 73
259
 74
259
 0
VERTEX
 8
CUERPO
 10
0
 20
0
 30
0
 70
128
 71
150
 72
256
 73
260
 74
260
 0
VERTEX
 8
CUERPO
 10
0
 20
0
 30
0
 70
128
 71
257
 72
258
 73
262
 74
261
 0
VERTEX
 8
CUERPO
 10
0
 20
0
 30
0
 70
128
 71
259
 72
151
 73
263
 74
263
 0
VERTEX
 8
CUERPO
 10
0
 20
0
 30
0
 70
128
 71
150
 72
260
 73
264
 74
264
 0
VERTEX
 8
CUERPO
 10
0
 20
0
 30
0
 70
128
 71
261
 72
262
 73
266
 74
265
 0
VERTEX
 8
CUERPO
 10
0
 20
0
 30
0
 70
128
 71
263
 72
151
 73
267
 74
267
 0
VERTEX
 8
CUERPO
 10
0
 20
0
 30
0
 70
128
 71
150
 72
264
 73
268
 74
268
 0
VERTEX
 8
CUERPO
 10
0
 20
0
 30
0
 70
128
 71
265
 72
266
 73
270
 74
269
 0
VERTEX
 8
CUERPO
 10
0
 20
0
 30
0
 70
128
 71
267
 72
151
 73
271
 74
271
 0
VERTEX
 8
CUERPO
 10
0
 20
0
 30
0
 70
128
 71
150
 72
268
 73
272
 74
272
 0
VERTEX
 8
CUERPO
 10
0
 20
0
 30
0
 70
128
 71
269
 72
270
 73
274
 74
273
 0
VERTEX
 8
CUERPO
 10
0
 20
0
 30
0
 70
128
 71
271
 72
151
 73
275
 74
275
 0
VERTEX
 8
CUERPO
 10
0
 20
0
 30
0
 70
128
 71
150
 72
272
 73
276
 74
276
 0
VERTEX
 8
CUERPO
 10
0
 20
0
 30
0
 70
128
 71
273
 72
274
 73
278
 74
277
 0
VERTEX
 8
CUERPO
 10
0
 20
0
 30
0
 70
128
 71
275
 72
151
 73
279
 74
279
 0
VERTEX
 8
CUERPO
 10
0
 20
0
 30
0
 70
128
 71
150
 72
276
 73
280
 74
280
 0
VERTEX
 8
CUERPO
 10
0
 20
0
 30
0
 70
128
 71
277
 72
278
 73
282
 74
281
 0
VERTEX
 8
CUERPO
 10
0
 20
0
 30
0
 70
128
 71
279
 72
151
 73
283
 74
283
 0
VERTEX
 8
CUERPO
 10
0
 20
0
 30
0
 70
128
 71
150
 72
280
 73
284
 74
284
 0
VERTEX
 8
CUERPO
 10
0
 20
0
 30
0
 70
128
 71
281
 72
282
 73
286
 74
285
 0
VERTEX
 8
CUERPO
 10
0
 20
0
 30
0
 70
128
 71
283
 72
151
 73
287
 74
287
 0
VERTEX
 8
CUERPO
 10
0
 20
0
 30
0
 70
128
 71
150
 72
284
 73
288
 74
288
 0
VERTEX
 8
CUERPO
 10
0
 20
0
 30
0
 70
128
 71
285
 72
286
 73
290
 74
289
 0
VERTEX
 8
CUERPO
 10
0
 20
0
 30
0
 70
128
 71
287
 72
151
 73
291
 74
291
 0
VERTEX
 8
CUERPO
 10
0
 20
0
 30
0
 70
128
 71
150
 72
288
 73
292
 74
292
 0
VERTEX
 8
CUERPO
 10
0
 20
0
 30
0
 70
128
 71
289
 72
290
 73
294
 74
293
 0
VERTEX
 8
CUERPO
 10
0
 20
0
 30
0
 70
128
 71
291
 72
151
 73
295
 74
295
 0
VERTEX
 8
CUERPO
 10
0
 20
0
 30
0
 70
128
 71
150
 72
292
 73
152
 74
152
 0
VERTEX
 8
CUERPO
 10
0
 20
0
 30
0
 70
128
 71
293
 72
294
 73
154
 74
153
 0
VERTEX
 8
CUERPO
 10
0
 20
0
 30
0
 70
128
 71
295
 72
151
 73
155
 74
155
 0
VERTEX
 8
CUERPO
 10
0
 20
0
 30
0
 70
128
 71
296
 72
298
 73
302
 74
302
 0
VERTEX
 8
CUERPO
 10
0
 20
0
 30
0
 70
128
 71
299
 72
300
 73
304
 74
303
 0
VERTEX
 8
CUERPO
 10
0
 20
0
 30
0
 70
128
 71
301
 72
297
 73
305
 74
305
 0
VERTEX
 8
CUERPO
 10
0
 20
0
 30
0
 70
128
 71
296
 72
302
 73
306
 74
306
 0
VERTEX
 8
CUERPO
 10
0
 20
0
 30
0
 70
128
 71
303
 72
304
 73
308
 74
307
 0
VERTEX
 8
CUERPO
 10
0
 20
0
 30
0
 70
128
 71
305
 72
297
 73
309
 74
309
 0
VERTEX
 8
CUERPO
 10
0
 20
0
 30
0
 70
128
 71
296
 72
306
 73
310
 74
310
 0
VERTEX
 8
CUERPO
 10
0
 20
0
 30
0
 70
128
 71
307
 72
308
 73
312
 74
311
 0
VERTEX
 8
CUERPO
 10
0
 20
0
 30
0
 70
128
 71
309
 72
297
 73
313
 74
313
 0
VERTEX
 8
CUERPO
 10
0
 20
0
 30
0
 70
128
 71
296
 72
310
 73
314
 74
314
 0
VERTEX
 8
CUERPO
 10
0
 20
0
 30
0
 70
128
 71
311
 72
312
 73
316
 74
315
 0
VERTEX
 8
CUERPO
 10
0
 20
0
 30
0
 70
128
 71
313
 72
297
 73
317
 74
317
 0
VERTEX
 8
CUERPO
 10
0
 20
0
 30
0
 70
128
 71
296
 72
314
 73
318
 74
318
 0
VERTEX
 8
CUERPO
 10
0
 20
0
 30
0
 70
128
 71
315
 72
316
 73
320
 74
319
 0
VERTEX
 8
CUERPO
 10
0
 20
0
 30
0
 70
128
 71
317
 72
297
 73
321
 74
321
 0
VERTEX
 8
CUERPO
 10
0
 20
0
 30
0
 70
128
 71
296
 72
318
 73
322
 74
322
 0
VERTEX
 8
CUERPO
 10
0
 20
0
 30
0
 70
128
 71
319
 72
320
 73
324
 74
323
 0
VERTEX
 8
CUERPO
 10
0
 20
0
 30
0
 70
128
 71
321
 72
297
 73
325
 74
325
 0
VERTEX
 8
CUERPO
 10
0
 20
0
 30
0
 70
128
 71
296
 72
322
 73
326
 74
326
 0
VERTEX
 8
CUERPO
 10
0
 20
0
 30
0
 70
128
 71
323
 72
324
 73
328
 74
327
 0
VERTEX
 8
CUERPO
 10
0
 20
0
 30
0
 70
128
 71
325
 72
297
 73
329
 74
329
 0
VERTEX
 8
CUERPO
 10
0
 20
0
 30
0
 70
128
 71
296
 72
326
 73
330
 74
330
 0
VERTEX
 8
CUERPO
 10
0
 20
0
 30
0
 70
128
 71
327
 72
328
 73
332
 74
331
 0
VERTEX
 8
CUERPO
 10
0
 20
0
 30
0
 70
128
 71
329
 72
297
 73
333
 74
333
 0
VERTEX
 8
CUERPO
 10
0
 20
0
 30
0
 70
128
 71
296
 72
330
 73
334
 74
334
 0
VERTEX
 8
CUERPO
 10
0
 20
0
 30
0
 70
128
 71
331
 72
332
 73
336
 74
335
 0
VERTEX
 8
CUERPO
 10
0
 20
0
 30
0
 70
128
 71
333
 72
297
 73
337
 74
337
 0
VERTEX
 8
CUERPO
 10
0
 20
0
 30
0
 70
128
 71
296
 72
334
 73
338
 74
338
 0
VERTEX
 8
CUERPO
 10
0
 20
0
 30
0
 70
128
 71
335
 72
336
 73
340
 74
339
 0
VERTEX
 8
CUERPO
 10
0
 20
0
 30
0
 70
128
 71
337
 72
297
 73
341
 74
341
 0
VERTEX
 8
CUERPO
 10
0
 20
0
 30
0
 70
128
 71
296
 72
338
 73
342
 74
342
 0
VERTEX
 8
CUERPO
 10
0
 20
0
 30
0
 70
128
 71
339
 72
340
 73
344
 74
343
 0
VERTEX
 8
CUERPO
 10
0
 20
0
 30
0
 70
128
 71
341
 72
297
 73
345
 74
345
 0
VERTEX
 8
CUERPO
 10
0
 20
0
 30
0
 70
128
 71
296
 72
342
 73
346
 74
346
 0
VERTEX
 8
CUERPO
 10
0
 20
0
 30
0
 70
128
 71
343
 72
344
 73
348
 74
347
 0
VERTEX
 8
CUERPO
 10
0
 20
0
 30
0
 70
128
 71
345
 72
297
 73
349
 74
349
 0
VERTEX
 8
CUERPO
 10
0
 20
0
 30
0
 70
128
 71
296
 72
346
 73
350
 74
350
 0
VERTEX
 8
CUERPO
 10
0
 20
0
 30
0
 70
128
 71
347
 72
348
 73
352
 74
351
 0
VERTEX
 8
CUERPO
 10
0
 20
0
 30
0
 70
128
 71
349
 72
297
 73
353
 74
353
 0
VERTEX
 8
CUERPO
 10
0
 20
0
 30
0
 70
128
 71
296
 72
350
 73
354
 74
354
 0
VERTEX
 8
CUERPO
 10
0
 20
0
 30
0
 70
128
 71
351
 72
352
 73
356
 74
355
 0
VERTEX
 8
CUERPO
 10
0
 20
0
 30
0
 70
128
 71
353
 72
297
 73
357
 74
357
 0
VERTEX
 8
CUERPO
 10
0
 20
0
 30
0
 70
128
 71
296
 72
354
 73
358
 74
358
 0
VERTEX
 8
CUERPO
 10
0
 20
0
 30
0
 70
128
 71
355
 72
356
 73
360
 74
359
 0
VERTEX
 8
CUERPO
 10
0
 20
0
 30
0
 70
128
 71
357
 72
297
 73
361
 74
361
 0
VERTEX
 8
CUERPO
 10
0
 20
0
 30
0
 70
128
 71
296
 72
358
 73
362
 74
362
 0
VERTEX
 8
CUERPO
 10
0
 20
0
 30
0
 70
128
 71
359
 72
360
 73
364
 74
363
 0
VERTEX
 8
CUERPO
 10
0
 20
0
 30
0
 70
128
 71
361
 72
297
 73
365
 74
365
 0
VERTEX
 8
CUERPO
 10
0
 20
0
 30
0
 70
128
 71
296
 72
362
 73
366
 74
366
 0
VERTEX
 8
CUERPO
 10
0
 20
0
 30
0
 70
128
 71
363
 72
364
 73
368
 74
367
 0
VERTEX
 8
CUERPO
 10
0
 20
0
 30
0
 70
128
 71
365
 72
297
 73
369
 74
369
 0
VERTEX
 8
CUERPO
 10
0
 20
0
 30
0
 70
128
 71
296
 72
366
 73
370
 74
370
 0
VERTEX
 8
CUERPO
 10
0
 20
0
 30
0
 70
128
 71
367
 72
368
 73
372
 74
371
 0
VERTEX
 8
CUERPO
 10
0
 20
0
 30
0
 70
128
 71
369
 72
297
 73
373
 74
373
 0
VERTEX
 8
CUERPO
 10
0
 20
0
 30
0
 70
128
 71
296
 72
370
 73
374
 74
374
 0
VERTEX
 8
CUERPO
 10
0
 20
0
 30
0
 70
128
 71
371
 72
372
 73
376
 74
375
 0
VERTEX
 8
CUERPO
 10
0
 20
0
 30
0
 70
128
 71
373
 72
297
 73
377
 74
377
 0
VERTEX
 8
CUERPO
 10
0
 20
0
 30
0
 70
128
 71
296
 72
374
 73
378
 74
378
 0
VERTEX
 8
CUERPO
 10
0
 20
0
 30
0
 70
128
 71
375
 72
376
 73
380
 74
379
 0
VERTEX
 8
CUERPO
 10
0
 20
0
 30
0
 70
128
 71
377
 72
297
 73
381
 74
381
 0
VERTEX
 8
CUERPO
 10
0
 20
0
 30
0
 70
128
 71
296
 72
378
 73
382
 74
382
 0
VERTEX
 8
CUERPO
 10
0
 20
0
 30
0
 70
128
 71
379
 72
380
 73
384
 74
383
 0
VERTEX
 8
CUERPO
 10
0
 20
0
 30
0
 70
128
 71
381
 72
297
 73
385
 74
385
 0
VERTEX
 8
CUERPO
 10
0
 20
0
 30
0
 70
128
 71
296
 72
382
 73
386
 74
386
 0
VERTEX
 8
CUERPO
 10
0
 20
0
 30
0
 70
128
 71
383
 72
384
 73
388
 74
387
 0
VERTEX
 8
CUERPO
 10
0
 20
0
 30
0
 70
128
 71
385
 72
297
 73
389
 74
389
 0
VERTEX
 8
CUERPO
 10
0
 20
0
 30
0
 70
128
 71
296
 72
386
 73
390
 74
390
 0
VERTEX
 8
CUERPO
 10
0
 20
0
 30
0
 70
128
 71
387
 72
388
 73
392
 74
391
 0
VERTEX
 8
CUERPO
 10
0
 20
0
 30
0
 70
128
 71
389
 72
297
 73
393
 74
393
 0
VERTEX
 8
CUERPO
 10
0
 20
0
 30
0
 70
128
 71
296
 72
390
 73
394
 74
394
 0
VERTEX
 8
CUERPO
 10
0
 20
0
 30
0
 70
128
 71
391
 72
392
 73
396
 74
395
 0
VERTEX
 8
CUERPO
 10
0
 20
0
 30
0
 70
128
 71
393
 72
297
 73
397
 74
397
 0
VERTEX
 8
CUERPO
 10
0
 20
0
 30
0
 70
128
 71
296
 72
394
 73
398
 74
398
 0
VERTEX
 8
CUERPO
 10
0
 20
0
 30
0
 70
128
 71
395
 72
396
 73
400
 74
399
 0
VERTEX
 8
CUERPO
 10
0
 20
0
 30
0
 70
128
 71
397
 72
297
 73
401
 74
401
 0
VERTEX
 8
CUERPO
 10
0
 20
0
 30
0
 70
128
 71
296
 72
398
 73
402
 74
402
 0
VERTEX
 8
CUERPO
 10
0
 20
0
 30
0
 70
128
 71
399
 72
400
 73
404
 74
403
 0
VERTEX
 8
CUERPO
 10
0
 20
0
 30
0
 70
128
 71
401
 72
297
 73
405
 74
405
 0
VERTEX
 8
CUERPO
 10
0
 20
0
 30
0
 70
128
 71
296
 72
402
 73
406
 74
406
 0
VERTEX
 8
CUERPO
 10
0
 20
0
 30
0
 70
128
 71
403
 72
404
 73
408
 74
407
 0
VERTEX
 8
CUERPO
 10
0
 20
0
 30
0
 70
128
 71
405
 72
297
 73
409
 74
409
 0
VERTEX
 8
CUERPO
 10
0
 20
0
 30
0
 70
128
 71
296
 72
406
 73
410
 74
410
 0
VERTEX
 8
CUERPO
 10
0
 20
0
 30
0
 70
128
 71
407
 72
408
 73
412
 74
411
 0
VERTEX
 8
CUERPO
 10
0
 20
0
 30
0
 70
128
 71
409
 72
297
 73
413
 74
413
 0
VERTEX
 8
CUERPO
 10
0
 20
0
 30
0
 70
128
 71
296
 72
410
 73
414
 74
414
 0
VERTEX
 8
CUERPO
 10
0
 20
0
 30
0
 70
128
 71
411
 72
412
 73
416
 74
415
 0
VERTEX
 8
CUERPO
 10
0
 20
0
 30
0
 70
128
 71
413
 72
297
 73
417
 74
417
 0
VERTEX
 8
CUERPO
 10
0
 20
0
 30
0
 70
128
 71
296
 72
414
 73
418
 74
418
 0
VERTEX
 8
CUERPO
 10
0
 20
0
 30
0
 70
128
 71
415
 72
416
 73
420
 74
419
 0
VERTEX
 8
CUERPO
 10
0
 20
0
 30
0
 70
128
 71
417
 72
297
 73
421
 74
421
 0
VERTEX
 8
CUERPO
 10
0
 20
0
 30
0
 70
128
 71
296
 72
418
 73
422
 74
422
 0
VERTEX
 8
CUERPO
 10
0
 20
0
 30
0
 70
128
 71
419
 72
420
 73
424
 74
423
 0
VERTEX
 8
CUERPO
 10
0
 20
0
 30
0
 70
128
 71
421
 72
297
 73
425
 74
425
 0
VERTEX
 8
CUERPO
 10
0
 20
0
 30
0
 70
128
 71
296
 72
422
 73
426
 74
426
 0
VERTEX
 8
CUERPO
 10
0
 20
0
 30
0
 70
128
 71
423
 72
424
 73
428
 74
427
 0
VERTEX
 8
CUERPO
 10
0
 20
0
 30
0
 70
128
 71
425
 72
297
 73
429
 74
429
 0
VERTEX
 8
CUERPO
 10
0
 20
0
 30
0
 70
128
 71
296
 72
426
 73
430
 74
430
 0
VERTEX
 8
CUERPO
 10
0
 20
0
 30
0
 70
128
 71
427
 72
428
 73
432
 74
431
 0
VERTEX
 8
CUERPO
 10
0
 20
0
 30
0
 70
128
 71
429
 72
297
 73
433
 74
433
 0
VERTEX
 8
CUERPO
 10
0
 20
0
 30
0
 70
128
 71
296
 72
430
 73
434
 74
434
 0
VERTEX
 8
CUERPO
 10
0
 20
0
 30
0
 70
128
 71
431
 72
432
 73
436
 74
435
 0
VERTEX
 8
CUERPO
 10
0
 20
0
 30
0
 70
128
 71
433
 72
297
 73
437
 74
437
 0
VERTEX
 8
CUERPO
 10
0
 20
0
 30
0
 70
128
 71
296
 72
434
 73
438
 74
438
 0
VERTEX
 8
CUERPO
 10
0
 20
0
 30
0
 70
128
 71
435
 72
436
 73
440
 74
439
 0
VERTEX
 8
CUERPO
 10
0
 20
0
 30
0
 70
128
 71
437
 72
297
 73
441
 74
441
 0
VERTEX
 8
CUERPO
 10
0
 20
0
 30
0
 70
128
 71
296
 72
438
 73
298
 74
298
 0
VERTEX
 8
CUERPO
 10
0
 20
0
 30
0
 70
128
 71
439
 72
440
 73
300
 74
299
 0
VERTEX
 8
CUERPO
 10
0
 20
0
 30
0
 70
128
 71
441
 72
297
 73
301
 74
301
 0
VERTEX
 8
CUERPO
 10
0
 20
0
 30
0
 70
128
 71
442
 72
444
 73
448
 74
448
 0
VERTEX
 8
CUERPO
 10
0
 20
0
 30
0
 70
128
 71
445
 72
446
 73
450
 74
449
 0
VERTEX
 8
CUERPO
 10
0
 20
0
 30
0
 70
128
 71
447
 72
443
 73
451
 74
451
 0
VERTEX
 8
CUERPO
 10
0
 20
0
 30
0
 70
128
 71
442
 72
448
 73
452
 74
452
 0
VERTEX
 8
CUERPO
 10
0
 20
0
 30
0
 70
128
 71
449
 72
450
 73
454
 74
453
 0
VERTEX
 8
CUERPO
 10
0
 20
0
 30
0
 70
128
 71
451
 72
443
 73
455
 74
455
 0
VERTEX
 8
CUERPO
 10
0
 20
0
 30
0
 70
128
 71
442
 72
452
 73
456
 74
456
 0
VERTEX
 8
CUERPO
 10
0
 20
0
 30
0
 70
128
 71
453
 72
454
 73
458
 74
457
 0
VERTEX
 8
CUERPO
 10
0
 20
0
 30
0
 70
128
 71
455
 72
443
 73
459
 74
459
 0
VERTEX
 8
CUERPO
 10
0
 20
0
 30
0
 70
128
 71
442
 72
456
 73
460
 74
460
 0
VERTEX
 8
CUERPO
 10
0
 20
0
 30
0
 70
128
 71
457
 72
458
 73
462
 74
461
 0
VERTEX
 8
CUERPO
 10
0
 20
0
 30
0
 70
128
 71
459
 72
443
 73
463
 74
463
 0
VERTEX
 8
CUERPO
 10
0
 20
0
 30
0
 70
128
 71
442
 72
460
 73
464
 74
464
 0
VERTEX
 8
CUERPO
 10
0
 20
0
 30
0
 70
128
 71
461
 72
462
 73
466
 74
465
 0
VERTEX
 8
CUERPO
 10
0
 20
0
 30
0
 70
128
 71
463
 72
443
 73
467
 74
467
 0
VERTEX
 8
CUERPO
 10
0
 20
0
 30
0
 70
128
 71
442
 72
464
 73
468
 74
468
 0
VERTEX
 8
CUERPO
 10
0
 20
0
 30
0
 70
128
 71
465
 72
466
 73
470
 74
469
 0
VERTEX
 8
CUERPO
 10
0
 20
0
 30
0
 70
128
 71
467
 72
443
 73
471
 74
471
 0
VERTEX
 8
CUERPO
 10
0
 20
0
 30
0
 70
128
 71
442
 72
468
 73
472
 74
472
 0
VERTEX
 8
CUERPO
 10
0
 20
0
 30
0
 70
128
 71
469
 72
470
 73
474
 74
473
 0
VERTEX
 8
CUERPO
 10
0
 20
0
 30
0
 70
128
 71
471
 72
443
 73
475
 74
475
 0
VERTEX
 8
CUERPO
 10
0
 20
0
 30
0
 70
128
 71
442
 72
472
 73
476
 74
476
 0
VERTEX
 8
CUERPO
 10
0
 20
0
 30
0
 70
128
 71
473
 72
474
 73
478
 74
477
 0
VERTEX
 8
CUERPO
 10
0
 20
0
 30
0
 70
128
 71
475
 72
443
 73
479
 74
479
 0
VERTEX
 8
CUERPO
 10
0
 20
0
 30
0
 70
128
 71
442
 72
476
 73
480
 74
480
 0
VERTEX
 8
CUERPO
 10
0
 20
0
 30
0
 70
128
 71
477
 72
478
 73
482
 74
481
 0
VERTEX
 8
CUERPO
 10
0
 20
0
 30
0
 70
128
 71
479
 72
443
 73
483
 74
483
 0
VERTEX
 8
CUERPO
 10
0
 20
0
 30
0
 70
128
 71
442
 72
480
 73
484
 74
484
 0
VERTEX
 8
CUERPO
 10
0
 20
0
 30
0
 70
128
 71
481
 72
482
 73
486
 74
485
 0
VERTEX
 8
CUERPO
 10
0
 20
0
 30
0
 70
128
 71
483
 72
443
 73
487
 74
487
 0
VERTEX
 8
CUERPO
 10
0
 20
0
 30
0
 70
128
 71
442
 72
484
 73
488
 74
488
 0
VERTEX
 8
CUERPO
 10
0
 20
0
 30
0
 70
128
 71
485
 72
486
 73
490
 74
489
 0
VERTEX
 8
CUERPO
 10
0
 20
0
 30
0
 70
128
 71
487
 72
443
 73
491
 74
491
 0
VERTEX
 8
CUERPO
 10
0
 20
0
 30
0
 70
128
 71
442
 72
488
 73
492
 74
492
 0
VERTEX
 8
CUERPO
 10
0
 20
0
 30
0
 70
128
 71
489
 72
490
 73
494
 74
493
 0
VERTEX
 8
CUERPO
 10
0
 20
0
 30
0
 70
128
 71
491
 72
443
 73
495
 74
495
 0
VERTEX
 8
CUERPO
 10
0
 20
0
 30
0
 70
128
 71
442
 72
492
 73
496
 74
496
 0
VERTEX
 8
CUERPO
 10
0
 20
0
 30
0
 70
128
 71
493
 72
494
 73
498
 74
497
 0
VERTEX
 8
CUERPO
 10
0
 20
0
 30
0
 70
128
 71
495
 72
443
 73
499
 74
499
 0
VERTEX
 8
CUERPO
 10
0
 20
0
 30
0
 70
128
 71
442
 72
496
 73
500
 74
500
 0
VERTEX
 8
CUERPO
 10
0
 20
0
 30
0
 70
128
 71
497
 72
498
 73
502
 74
501
 0
VERTEX
 8
CUERPO
 10
0
 20
0
 30
0
 70
128
 71
499
 72
443
 73
503
 74
503
 0
VERTEX
 8
CUERPO
 10
0
 20
0
 30
0
 70
128
 71
442
 72
500
 73
504
 74
504
 0
VERTEX
 8
CUERPO
 10
0
 20
0
 30
0
 70
128
 71
501
 72
502
 73
506
 74
505
 0
VERTEX
 8
CUERPO
 10
0
 20
0
 30
0
 70
128
 71
503
 72
443
 73
507
 74
507
 0
VERTEX
 8
CUERPO
 10
0
 20
0
 30
0
 70
128
 71
442
 72
504
 73
508
 74
508
 0
VERTEX
 8
CUERPO
 10
0
 20
0
 30
0
 70
128
 71
505
 72
506
 73
510
 74
509
 0
VERTEX
 8
CUERPO
 10
0
 20
0
 30
0
 70
128
 71
507
 72
443
 73
511
 74
511
 0
VERTEX
 8
CUERPO
 10
0
 20
0
 30
0
 70
128
 71
442
 72
508
 73
512
 74
512
 0
VERTEX
 8
CUERPO
 10
0
 20
0
 30
0
 70
128
 71
509
 72
510
 73
514
 74
513
 0
VERTEX
 8
CUERPO
 10
0
 20
0
 30
0
 70
128
 71
511
 72
443
 73
515
 74
515
 0
VERTEX
 8
CUERPO
 10
0
 20
0
 30
0
 70
128
 71
442
 72
512
 73
516
 74
516
 0
VERTEX
 8
CUERPO
 10
0
 20
0
 30
0
 70
128
 71
513
 72
514
 73
518
 74
517
 0
VERTEX
 8
CUERPO
 10
0
 20
0
 30
0
 70
128
 71
515
 72
443
 73
519
 74
519
 0
VERTEX
 8
CUERPO
 10
0
 20
0
 30
0
 70
128
 71
442
 72
516
 73
520
 74
520
 0
VERTEX
 8
CUERPO
 10
0
 20
0
 30
0
 70
128
 71
517
 72
518
 73
522
 74
521
 0
VERTEX
 8
CUERPO
 10
0
 20
0
 30
0
 70
128
 71
519
 72
443
 73
523
 74
523
 0
VERTEX
 8
CUERPO
 10
0
 20
0
 30
0
 70
128
 71
442
 72
520
 73
524
 74
524
 0
VERTEX
 8
CUERPO
 10
0
 20
0
 30
0
 70
128
 71
521
 72
522
 73
526
 74
525
 0
VERTEX
 8
CUERPO
 10
0
 20
0
 30
0
 70
128
 71
523
 72
443
 73
527
 74
527
 0
VERTEX
 8
CUERPO
 10
0
 20
0
 30
0
 70
128
 71
442
 72
524
 73
528
 74
528
 0
VERTEX
 8
CUERPO
 10
0
 20
0
 30
0
 70
128
 71
525
 72
526
 73
530
 74
529
 0
VERTEX
 8
CUERPO
 10
0
 20
0
 30
0
 70
128
 71
527
 72
443
 73
531
 74
531
 0
VERTEX
 8
CUERPO
 10
0
 20
0
 30
0
 70
128
 71
442
 72
528
 73
532
 74
532
 0
VERTEX
 8
CUERPO
 10
0
 20
0
 30
0
 70
128
 71
529
 72
530
 73
534
 74
533
 0
VERTEX
 8
CUERPO
 10
0
 20
0
 30
0
 70
128
 71
531
 72
443
 73
535
 74
535
 0
VERTEX
 8
CUERPO
 10
0
 20
0
 30
0
 70
128
 71
442
 72
532
 73
536
 74
536
 0
VERTEX
 8
CUERPO
 10
0
 20
0
 30
0
 70
128
 71
533
 72
534
 73
538
 74
537
 0
VERTEX
 8
CUERPO
 10
0
 20
0
 30
0
 70
128
 71
535
 72
443
 73
539
 74
539
 0
VERTEX
 8
CUERPO
 10
0
 20
0
 30
0
 70
128
 71
442
 72
536
 73
540
 74
540
 0
VERTEX
 8
CUERPO
 10
0
 20
0
 30
0
 70
128
 71
537
 72
538
 73
542
 74
541
 0
VERTEX
 8
CUERPO
 10
0
 20
0
 30
0
 70
128
 71
539
 72
443
 73
543
 74
543
 0
VERTEX
 8
CUERPO
 10
0
 20
0
 30
0
 70
128
 71
442
 72
540
 73
544
 74
544
 0
VERTEX
 8
CUERPO
 10
0
 20
0
 30
0
 70
128
 71
541
 72
542
 73
546
 74
545
 0
VERTEX
 8
CUERPO
 10
0
 20
0
 30
0
 70
128
 71
543
 72
443
 73
547
 74
547
 0
VERTEX
 8
CUERPO
 10
0
 20
0
 30
0
 70
128
 71
442
 72
544
 73
548
 74
548
 0
VERTEX
 8
CUERPO
 10
0
 20
0
 30
0
 70
128
 71
545
 72
546
 73
550
 74
549
 0
VERTEX
 8
CUERPO
 10
0
 20
0
 30
0
 70
128
 71
547
 72
443
 73
551
 74
551
 0
VERTEX
 8
CUERPO
 10
0
 20
0
 30
0
 70
128
 71
442
 72
548
 73
552
 74
552
 0
VERTEX
 8
CUERPO
 10
0
 20
0
 30
0
 70
128
 71
549
 72
550
 73
554
 74
553
 0
VERTEX
 8
CUERPO
 10
0
 20
0
 30
0
 70
128
 71
551
 72
443
 73
555
 74
555
 0
VERTEX
 8
CUERPO
 10
0
 20
0
 30
0
 70
128
 71
442
 72
552
 73
556
 74
556
 0
VERTEX
 8
CUERPO
 10
0
 20
0
 30
0
 70
128
 71
553
 72
554
 73
558
 74
557
 0
VERTEX
 8
CUERPO
 10
0
 20
0
 30
0
 70
128
 71
555
 72
443
 73
559
 74
559
 0
VERTEX
 8
CUERPO
 10
0
 20
0
 30
0
 70
128
 71
442
 72
556
 73
560
 74
560
 0
VERTEX
 8
CUERPO
 10
0
 20
0
 30
0
 70
128
 71
557
 72
558
 73
562
 74
561
 0
VERTEX
 8
CUERPO
 10
0
 20
0
 30
0
 70
128
 71
559
 72
443
 73
563
 74
563
 0
VERTEX
 8
CUERPO
 10
0
 20
0
 30
0
 70
128
 71
442
 72
560
 73
564
 74
564
 0
VERTEX
 8
CUERPO
 10
0
 20
0
 30
0
 70
128
 71
561
 72
562
 73
566
 74
565
 0
VERTEX
 8
CUERPO
 10
0
 20
0
 30
0
 70
128
 71
563
 72
443
 73
567
 74
567
 0
VERTEX
 8
CUERPO
 10
0
 20
0
 30
0
 70
128
 71
442
 72
564
 73
568
 74
568
 0
VERTEX
 8
CUERPO
 10
0
 20
0
 30
0
 70
128
 71
565
 72
566
 73
570
 74
569
 0
VERTEX
 8
CUERPO
 10
0
 20
0
 30
0
 70
128
 71
567
 72
443
 73
571
 74
571
 0
VERTEX
 8
CUERPO
 10
0
 20
0
 30
0
 70
128
 71
442
 72
568
 73
572
 74
572
 0
VERTEX
 8
CUERPO
 10
0
 20
0
 30
0
 70
128
 71
569
 72
570
 73
574
 74
573
 0
VERTEX
 8
CUERPO
 10
0
 20
0
 30
0
 70
128
 71
571
 72
443
 73
575
 74
575
 0
VERTEX
 8
CUERPO
 10
0
 20
0
 30
0
 70
128
 71
442
 72
572
 73
576
 74
576
 0
VERTEX
 8
CUERPO
 10
0
 20
0
 30
0
 70
128
 71
573
 72
574
 73
578
 74
577
 0
VERTEX
 8
CUERPO
 10
0
 20
0
 30
0
 70
128
 71
575
 72
443
 73
579
 74
579
 0
VERTEX
 8
CUERPO
 10
0
 20
0
 30
0
 70
128
 71
442
 72
576
 73
580
 74
580
 0
VERTEX
 8
CUERPO
 10
0
 20
0
 30
0
 70
128
 71
577
 72
578
 73
582
 74
581
 0
VERTEX
 8
CUERPO
 10
0
 20
0
 30
0
 70
128
 71
579
 72
443
 73
583
 74
583
 0
VERTEX
 8
CUERPO
 10
0
 20
0
 30
0
 70
128
 71
442
 72
580
 73
584
 74
584
 0
VERTEX
 8
CUERPO
 10
0
 20
0
 30
0
 70
128
 71
581
 72
582
 73
586
 74
585
 0
VERTEX
 8
CUERPO
 10
0
 20
0
 30
0
 70
128
 71
583
 72
443
 73
587
 74
587
 0
VERTEX
 8
CUERPO
 10
0
 20
0
 30
0
 70
128
 71
442
 72
584
 73
444
 74
444
 0
VERTEX
 8
CUERPO
 10
0
 20
0
 30
0
 70
128
 71
585
 72
586
 73
446
 74
445
 0
VERTEX
 8
CUERPO
 10
0
 20
0
 30
0
 70
128
 71
587
 72
443
 73
447
 74
447
 0
VERTEX
 8
CUERPO
 10
0
 20
0
 30
0
 70
128
 71
588
 72
589
 73
597
 74
596
 0
VERTEX
 8
CUERPO
 10
0
 20
0
 30
0
 70
128
 71
590
 72
591
 73
599
 74
598
 0
VERTEX
 8
CUERPO
 10
0
 20
0
 30
0
 70
128
 71
592
 72
593
 73
601
 74
600
 0
VERTEX
 8
CUERPO
 10
0
 20
0
 30
0
 70
128
 71
594
 72
595
 73
603
 74
602
 0
VERTEX
 8
CUERPO
 10
0
 20
0
 30
0
 70
128
 71
596
 72
597
 73
605
 74
604
 0
VERTEX
 8
CUERPO
 10
0
 20
0
 30
0
 70
128
 71
598
 72
599
 73
607
 74
606
 0
VERTEX
 8
CUERPO
 10
0
 20
0
 30
0
 70
128
 71
600
 72
601
 73
609
 74
608
 0
VERTEX
 8
CUERPO
 10
0
 20
0
 30
0
 70
128
 71
602
 72
603
 73
611
 74
610
 0
VERTEX
 8
CUERPO
 10
0
 20
0
 30
0
 70
128
 71
604
 72
605
 73
613
 74
612
 0
VERTEX
 8
CUERPO
 10
0
 20
0
 30
0
 70
128
 71
606
 72
607
 73
615
 74
614
 0
VERTEX
 8
CUERPO
 10
0
 20
0
 30
0
 70
128
 71
608
 72
609
 73
617
 74
616
 0
VERTEX
 8
CUERPO
 10
0
 20
0
 30
0
 70
128
 71
610
 72
611
 73
619
 74
618
 0
VERTEX
 8
CUERPO
 10
0
 20
0
 30
0
 70
128
 71
612
 72
613
 73
621
 74
620
 0
VERTEX
 8
CUERPO
 10
0
 20
0
 30
0
 70
128
 71
614
 72
615
 73
623
 74
622
 0
VERTEX
 8
CUERPO
 10
0
 20
0
 30
0
 70
128
 71
616
 72
617
 73
625
 74
624
 0
VERTEX
 8
CUERPO
 10
0
 20
0
 30
0
 70
128
 71
618
 72
619
 73
627
 74
626
 0
VERTEX
 8
CUERPO
 10
0
 20
0
 30
0
 70
128
 71
620
 72
621
 73
629
 74
628
 0
VERTEX
 8
CUERPO
 10
0
 20
0
 30
0
 70
128
 71
622
 72
623
 73
631
 74
630
 0
VERTEX
 8
CUERPO
 10
0
 20
0
 30
0
 70
128
 71
624
 72
625
 73
633
 74
632
 0
VERTEX
 8
CUERPO
 10
0
 20
0
 30
0
 70
128
 71
626
 72
627
 73
635
 74
634
 0
VERTEX
 8
CUERPO
 10
0
 20
0
 30
0
 70
128
 71
628
 72
629
 73
637
 74
636
 0
VERTEX
 8
CUERPO
 10
0
 20
0
 30
0
 70
128
 71
630
 72
631
 73
639
 74
638
 0
VERTEX
 8
CUERPO
 10
0
 20
0
 30
0
 70
128
 71
632
 72
633
 73
641
 74
640
 0
VERTEX
 8
CUERPO
 10
0
 20
0
 30
0
 70
128
 71
634
 72
635
 73
643
 74
642
 0
VERTEX
 8
CUERPO
 10
0
 20
0
 30
0
 70
128
 71
636
 72
637
 73
645
 74
644
 0
VERTEX
 8
CUERPO
 10
0
 20
0
 30
0
 70
128
 71
638
 72
639
 73
647
 74
646
 0
VERTEX
 8
CUERPO
 10
0
 20
0
 30
0
 70
128
 71
640
 72
641
 73
649
 74
648
 0
VERTEX
 8
CUERPO
 10
0
 20
0
 30
0
 70
128
 71
642
 72
643
 73
651
 74
650
 0
VERTEX
 8
CUERPO
 10
0
 20
0
 30
0
 70
128
 71
644
 72
645
 73
653
 74
652
 0
VERTEX
 8
CUERPO
 10
0
 20
0
 30
0
 70
128
 71
646
 72
647
 73
655
 74
654
 0
VERTEX
 8
CUERPO
 10
0
 20
0
 30
0
 70
128
 71
648
 72
649
 73
657
 74
656
 0
VERTEX
 8
CUERPO
 10
0
 20
0
 30
0
 70
128
 71
650
 72
651
 73
659
 74
658
 0
VERTEX
 8
CUERPO
 10
0
 20
0
 30
0
 70
128
 71
652
 72
653
 73
661
 74
660
 0
VERTEX
 8
CUERPO
 10
0
 20
0
 30
0
 70
128
 71
654
 72
655
 73
663
 74
662
 0
VERTEX
 8
CUERPO
 10
0
 20
0
 30
0
 70
128
 71
656
 72
657
 73
665
 74
664
 0
VERTEX
 8
CUERPO
 10
0
 20
0
 30
0
 70
128
 71
658
 72
659
 73
667
 74
666
 0
VERTEX
 8
CUERPO
 10
0
 20
0
 30
0
 70
128
 71
660
 72
661
 73
669
 74
668
 0
VERTEX
 8
CUERPO
 10
0
 20
0
 30
0
 70
128
 71
662
 72
663
 73
671
 74
670
 0
VERTEX
 8
CUERPO
 10
0
 20
0
 30
0
 70
128
 71
664
 72
665
 73
673
 74
672
 0
VERTEX
 8
CUERPO
 10
0
 20
0
 30
0
 70
128
 71
666
 72
667
 73
675
 74
674
 0
VERTEX
 8
CUERPO
 10
0
 20
0
 30
0
 70
128
 71
668
 72
669
 73
677
 74
676
 0
VERTEX
 8
CUERPO
 10
0
 20
0
 30
0
 70
128
 71
670
 72
671
 73
679
 74
678
 0
VERTEX
 8
CUERPO
 10
0
 20
0
 30
0
 70
128
 71
672
 72
673
 73
681
 74
680
 0
VERTEX
 8
CUERPO
 10
0
 20
0
 30
0
 70
128
 71
674
 72
675
 73
683
 74
682
 0
VERTEX
 8
CUERPO
 10
0
 20
0
 30
0
 70
128
 71
676
 72
677
 73
685
 74
684
 0
VERTEX
 8
CUERPO
 10
0
 20
0
 30
0
 70
128
 71
678
 72
679
 73
687
 74
686
 0
VERTEX
 8
CUERPO
 10
0
 20
0
 30
0
 70
128
 71
680
 72
681
 73
689
 74
688
 0
VERTEX
 8
CUERPO
 10
0
 20
0
 30
0
 70
128
 71
682
 72
683
 73
691
 74
690
 0
VERTEX
 8
CUERPO
 10
0
 20
0
 30
0
 70
128
 71
684
 72
685
 73
693
 74
692
 0
VERTEX
 8
CUERPO
 10
0
 20
0
 30
0
 70
128
 71
686
 72
687
 73
695
 74
694
 0
VERTEX
 8
CUERPO
 10
0
 20
0
 30
0
 70
128
 71
688
 72
689
 73
697
 74
696
 0
VERTEX
 8
CUERPO
 10
0
 20
0
 30
0
 70
128
 71
690
 72
691
 73
699
 74
698
 0
VERTEX
 8
CUERPO
 10
0
 20
0
 30
0
 70
128
 71
692
 72
693
 73
701
 74
700
 0
VERTEX
 8
CUERPO
 10
0
 20
0
 30
0
 70
128
 71
694
 72
695
 73
703
 74
702
 0
VERTEX
 8
CUERPO
 10
0
 20
0
 30
0
 70
128
 71
696
 72
697
 73
705
 74
704
 0
VERTEX
 8
CUERPO
 10
0
 20
0
 30
0
 70
128
 71
698
 72
699
 73
707
 74
706
 0
VERTEX
 8
CUERPO
 10
0
 20
0
 30
0
 70
128
 71
700
 72
701
 73
709
 74
708
 0
VERTEX
 8
CUERPO
 10
0
 20
0
 30
0
 70
128
 71
702
 72
703
 73
711
 74
710
 0
VERTEX
 8
CUERPO
 10
0
 20
0
 30
0
 70
128
 71
704
 72
705
 73
713
 74
712
 0
VERTEX
 8
CUERPO
 10
0
 20
0
 30
0
 70
128
 71
706
 72
707
 73
715
 74
714
 0
VERTEX
 8
CUERPO
 10
0
 20
0
 30
0
 70
128
 71
708
 72
709
 73
717
 74
716
 0
VERTEX
 8
CUERPO
 10
0
 20
0
 30
0
 70
128
 71
710
 72
711
 73
719
 74
718
 0
VERTEX
 8
CUERPO
 10
0
 20
0
 30
0
 70
128
 71
712
 72
713
 73
721
 74
720
 0
VERTEX
 8
CUERPO
 10
0
 20
0
 30
0
 70
128
 71
714
 72
715
 73
723
 74
722
 0
VERTEX
 8
CUERPO
 10
0
 20
0
 30
0
 70
128
 71
716
 72
717
 73
725
 74
724
 0
VERTEX
 8
CUERPO
 10
0
 20
0
 30
0
 70
128
 71
718
 72
719
 73
727
 74
726
 0
VERTEX
 8
CUERPO
 10
0
 20
0
 30
0
 70
128
 71
720
 72
721
 73
729
 74
728
 0
VERTEX
 8
CUERPO
 10
0
 20
0
 30
0
 70
128
 71
722
 72
723
 73
731
 74
730
 0
VERTEX
 8
CUERPO
 10
0
 20
0
 30
0
 70
128
 71
724
 72
725
 73
733
 74
732
 0
VERTEX
 8
CUERPO
 10
0
 20
0
 30
0
 70
128
 71
726
 72
727
 73
735
 74
734
 0
VERTEX
 8
CUERPO
 10
0
 20
0
 30
0
 70
128
 71
728
 72
729
 73
737
 74
736
 0
VERTEX
 8
CUERPO
 10
0
 20
0
 30
0
 70
128
 71
730
 72
731
 73
739
 74
738
 0
VERTEX
 8
CUERPO
 10
0
 20
0
 30
0
 70
128
 71
732
 72
733
 73
741
 74
740
 0
VERTEX
 8
CUERPO
 10
0
 20
0
 30
0
 70
128
 71
734
 72
735
 73
743
 74
742
 0
VERTEX
 8
CUERPO
 10
0
 20
0
 30
0
 70
128
 71
736
 72
737
 73
745
 74
744
 0
VERTEX
 8
CUERPO
 10
0
 20
0
 30
0
 70
128
 71
738
 72
739
 73
747
 74
746
 0
VERTEX
 8
CUERPO
 10
0
 20
0
 30
0
 70
128
 71
740
 72
741
 73
749
 74
748
 0
VERTEX
 8
CUERPO
 10
0
 20
0
 30
0
 70
128
 71
742
 72
743
 73
751
 74
750
 0
VERTEX
 8
CUERPO
 10
0
 20
0
 30
0
 70
128
 71
744
 72
745
 73
753
 74
752
 0
VERTEX
 8
CUERPO
 10
0
 20
0
 30
0
 70
128
 71
746
 72
747
 73
755
 74
754
 0
VERTEX
 8
CUERPO
 10
0
 20
0
 30
0
 70
128
 71
748
 72
749
 73
757
 74
756
 0
VERTEX
 8
CUERPO
 10
0
 20
0
 30
0
 70
128
 71
750
 72
751
 73
759
 74
758
 0
VERTEX
 8
CUERPO
 10
0
 20
0
 30
0
 70
128
 71
752
 72
753
 73
761
 74
760
 0
VERTEX
 8
CUERPO
 10
0
 20
0
 30
0
 70
128
 71
754
 72
755
 73
763
 74
762
 0
VERTEX
 8
CUERPO
 10
0
 20
0
 30
0
 70
128
 71
756
 72
757
 73
765
 74
764
 0
VERTEX
 8
CUERPO
 10
0
 20
0
 30
0
 70
128
 71
758
 72
759
 73
767
 74
766
 0
VERTEX
 8
CUERPO
 10
0
 20
0
 30
0
 70
128
 71
760
 72
761
 73
769
 74
768
 0
VERTEX
 8
CUERPO
 10
0
 20
0
 30
0
 70
128
 71
762
 72
763
 73
771
 74
770
 0
VERTEX
 8
CUERPO
 10
0
 20
0
 30
0
 70
128
 71
764
 72
765
 73
773
 74
772
 0
VERTEX
 8
CUERPO
 10
0
 20
0
 30
0
 70
128
 71
766
 72
767
 73
775
 74
774
 0
VERTEX
 8
CUERPO
 10
0
 20
0
 30
0
 70
128
 71
768
 72
769
 73
777
 74
776
 0
VERTEX
 8
CUERPO
 10
0
 20
0
 30
0
 70
128
 71
770
 72
771
 73
779
 74
778
 0
VERTEX
 8
CUERPO
 10
0
 20
0
 30
0
 70
128
 71
772
 72
773
 73
781
 74
780
 0
VERTEX
 8
CUERPO
 10
0
 20
0
 30
0
 70
128
 71
774
 72
775
 73
783
 74
782
 0
VERTEX
 8
CUERPO
 10
0
 20
0
 30
0
 70
128
 71
776
 72
777
 73
785
 74
784
 0
VERTEX
 8
CUERPO
 10
0
 20
0
 30
0
 70
128
 71
778
 72
779
 73
787
 74
786
 0
VERTEX
 8
CUERPO
 10
0
 20
0
 30
0
 70
128
 71
780
 72
781
 73
789
 74
788
 0
VERTEX
 8
CUERPO
 10
0
 20
0
 30
0
 70
128
 71
782
 72
783
 73
791
 74
790
 0
VERTEX
 8
CUERPO
 10
0
 20
0
 30
0
 70
128
 71
784
 72
785
 73
793
 74
792
 0
VERTEX
 8
CUERPO
 10
0
 20
0
 30
0
 70
128
 71
786
 72
787
 73
795
 74
794
 0
VERTEX
 8
CUERPO
 10
0
 20
0
 30
0
 70
128
 71
788
 72
789
 73
797
 74
796
 0
VERTEX
 8
CUERPO
 10
0
 20
0
 30
0
 70
128
 71
790
 72
791
 73
799
 74
798
 0
VERTEX
 8
CUERPO
 10
0
 20
0
 30
0
 70
128
 71
792
 72
793
 73
801
 74
800
 0
VERTEX
 8
CUERPO
 10
0
 20
0
 30
0
 70
128
 71
794
 72
795
 73
803
 74
802
 0
VERTEX
 8
CUERPO
 10
0
 20
0
 30
0
 70
128
 71
796
 72
797
 73
805
 74
804
 0
VERTEX
 8
CUERPO
 10
0
 20
0
 30
0
 70
128
 71
798
 72
799
 73
807
 74
806
 0
VERTEX
 8
CUERPO
 10
0
 20
0
 30
0
 70
128
 71
800
 72
801
 73
809
 74
808
 0
VERTEX
 8
CUERPO
 10
0
 20
0
 30
0
 70
128
 71
802
 72
803
 73
811
 74
810
 0
VERTEX
 8
CUERPO
 10
0
 20
0
 30
0
 70
128
 71
804
 72
805
 73
813
 74
812
 0
VERTEX
 8
CUERPO
 10
0
 20
0
 30
0
 70
128
 71
806
 72
807
 73
815
 74
814
 0
VERTEX
 8
CUERPO
 10
0
 20
0
 30
0
 70
128
 71
808
 72
809
 73
817
 74
816
 0
VERTEX
 8
CUERPO
 10
0
 20
0
 30
0
 70
128
 71
810
 72
811
 73
819
 74
818
 0
VERTEX
 8
CUERPO
 10
0
 20
0
 30
0
 70
128
 71
812
 72
813
 73
821
 74
820
 0
VERTEX
 8
CUERPO
 10
0
 20
0
 30
0
 70
128
 71
814
 72
815
 73
823
 74
822
 0
VERTEX
 8
CUERPO
 10
0
 20
0
 30
0
 70
128
 71
816
 72
817
 73
825
 74
824
 0
VERTEX
 8
CUERPO
 10
0
 20
0
 30
0
 70
128
 71
818
 72
819
 73
827
 74
826
 0
VERTEX
 8
CUERPO
 10
0
 20
0
 30
0
 70
128
 71
820
 72
821
 73
829
 74
828
 0
VERTEX
 8
CUERPO
 10
0
 20
0
 30
0
 70
128
 71
822
 72
823
 73
831
 74
830
 0
VERTEX
 8
CUERPO
 10
0
 20
0
 30
0
 70
128
 71
824
 72
825
 73
833
 74
832
 0
VERTEX
 8
CUERPO
 10
0
 20
0
 30
0
 70
128
 71
826
 72
827
 73
835
 74
834
 0
VERTEX
 8
CUERPO
 10
0
 20
0
 30
0
 70
128
 71
828
 72
829
 73
837
 74
836
 0
VERTEX
 8
CUERPO
 10
0
 20
0
 30
0
 70
128
 71
830
 72
831
 73
839
 74
838
 0
VERTEX
 8
CUERPO
 10
0
 20
0
 30
0
 70
128
 71
832
 72
833
 73
841
 74
840
 0
VERTEX
 8
CUERPO
 10
0
 20
0
 30
0
 70
128
 71
834
 72
835
 73
843
 74
842
 0
VERTEX
 8
CUERPO
 10
0
 20
0
 30
0
 70
128
 71
836
 72
837
 73
845
 74
844
 0
VERTEX
 8
CUERPO
 10
0
 20
0
 30
0
 70
128
 71
838
 72
839
 73
847
 74
846
 0
VERTEX
 8
CUERPO
 10
0
 20
0
 30
0
 70
128
 71
840
 72
841
 73
849
 74
848
 0
VERTEX
 8
CUERPO
 10
0
 20
0
 30
0
 70
128
 71
842
 72
843
 73
851
 74
850
 0
VERTEX
 8
CUERPO
 10
0
 20
0
 30
0
 70
128
 71
844
 72
845
 73
853
 74
852
 0
VERTEX
 8
CUERPO
 10
0
 20
0
 30
0
 70
128
 71
846
 72
847
 73
855
 74
854
 0
VERTEX
 8
CUERPO
 10
0
 20
0
 30
0
 70
128
 71
848
 72
849
 73
857
 74
856
 0
VERTEX
 8
CUERPO
 10
0
 20
0
 30
0
 70
128
 71
850
 72
851
 73
859
 74
858
 0
VERTEX
 8
CUERPO
 10
0
 20
0
 30
0
 70
128
 71
852
 72
853
 73
861
 74
860
 0
VERTEX
 8
CUERPO
 10
0
 20
0
 30
0
 70
128
 71
854
 72
855
 73
863
 74
862
 0
VERTEX
 8
CUERPO
 10
0
 20
0
 30
0
 70
128
 71
856
 72
857
 73
865
 74
864
 0
VERTEX
 8
CUERPO
 10
0
 20
0
 30
0
 70
128
 71
858
 72
859
 73
867
 74
866
 0
VERTEX
 8
CUERPO
 10
0
 20
0
 30
0
 70
128
 71
860
 72
861
 73
869
 74
868
 0
VERTEX
 8
CUERPO
 10
0
 20
0
 30
0
 70
128
 71
862
 72
863
 73
871
 74
870
 0
VERTEX
 8
CUERPO
 10
0
 20
0
 30
0
 70
128
 71
864
 72
865
 73
873
 74
872
 0
VERTEX
 8
CUERPO
 10
0
 20
0
 30
0
 70
128
 71
866
 72
867
 73
875
 74
874
 0
VERTEX
 8
CUERPO
 10
0
 20
0
 30
0
 70
128
 71
868
 72
869
 73
589
 74
588
 0
VERTEX
 8
CUERPO
 10
0
 20
0
 30
0
 70
128
 71
870
 72
871
 73
591
 74
590
 0
VERTEX
 8
CUERPO
 10
0
 20
0
 30
0
 70
128
 71
872
 72
873
 73
593
 74
592
 0
VERTEX
 8
CUERPO
 10
0
 20
0
 30
0
 70
128
 71
874
 72
875
 73
595
 74
594
 0
VERTEX
 8
CUERPO
 10
0
 20
0
 30
0
 70
128
 71
876
 72
877
 73
879
 74
878
 0
VERTEX
 8
CUERPO
 10
0
 20
0
 30
0
 70
128
 71
878
 72
879
 73
881
 74
880
 0
VERTEX
 8
CUERPO
 10
0
 20
0
 30
0
 70
128
 71
880
 72
881
 73
883
 74
882
 0
VERTEX
 8
CUERPO
 10
0
 20
0
 30
0
 70
128
 71
882
 72
883
 73
885
 74
884
 0
VERTEX
 8
CUERPO
 10
0
 20
0
 30
0
 70
128
 71
884
 72
885
 73
887
 74
886
 0
VERTEX
 8
CUERPO
 10
0
 20
0
 30
0
 70
128
 71
886
 72
887
 73
889
 74
888
 0
VERTEX
 8
CUERPO
 10
0
 20
0
 30
0
 70
128
 71
888
 72
889
 73
891
 74
890
 0
VERTEX
 8
CUERPO
 10
0
 20
0
 30
0
 70
128
 71
890
 72
891
 73
893
 74
892
 0
VERTEX
 8
CUERPO
 10
0
 20
0
 30
0
 70
128
 71
892
 72
893
 73
895
 74
894
 0
VERTEX
 8
CUERPO
 10
0
 20
0
 30
0
 70
128
 71
894
 72
895
 73
897
 74
896
 0
VERTEX
 8
CUERPO
 10
0
 20
0
 30
0
 70
128
 71
896
 72
897
 73
899
 74
898
 0
VERTEX
 8
CUERPO
 10
0
 20
0
 30
0
 70
128
 71
898
 72
899
 73
877
 74
876
 0
VERTEX
 8
CUERPO
 10
0
 20
0
 30
0
 70
128
 71
877
 72
899
 73
897
 74
879
 0
VERTEX
 8
CUERPO
 10
0
 20
0
 30
0
 70
128
 71
879
 72
897
 73
895
 74
881
 0
VERTEX
 8
CUERPO
 10
0
 20
0
 30
0
 70
128
 71
881
 72
895
 73
893
 74
883
 0
VERTEX
 8
CUERPO
 10
0
 20
0
 30
0
 70
128
 71
883
 72
893
 73
891
 74
885
 0
VERTEX
 8
CUERPO
 10
0
 20
0
 30
0
 70
128
 71
885
 72
891
 73
889
 74
887
 0
VERTEX
 8
CUERPO
 10
0
 20
0
 30
0
 70
128
 71
898
 72
876
 73
878
 74
896
 0
VERTEX
 8
CUERPO
 10
0
 20
0
 30
0
 70
128
 71
896
 72
878
 73
880
 74
894
 0
VERTEX
 8
CUERPO
 10
0
 20
0
 30
0
 70
128
 71
894
 72
880
 73
882
 74
892
 0
VERTEX
 8
CUERPO
 10
0
 20
0
 30
0
 70
128
 71
892
 72
882
 73
884
 74
890
 0
VERTEX
 8
CUERPO
 10
0
 20
0
 30
0
 70
128
 71
890
 72
884
 73
886
 74
888
 0
SEQEND
 0
POLYLINE
 8
CULATA
 66
1
 10
0.0
 20
0.0
 30
0.0
 70
64
 71
89
 72
80
 0
VERTEX
 8
CULATA
 10
1.4463
 20
0.0636
 30
0.0614
 70
192
 0
VERTEX
 8
CULATA
 10
1.7137
 20
0.0636
 30
-0.0406
 70
192
 0
VERTEX
 8
CULATA
 10
1.9528
 20
0.0636
 30
-0.1899
 70
192
 0
VERTEX
 8
CULATA
 10
2.0264
 20
0.0636
 30
-0.1579
 70
192
 0
VERTEX
 8
CULATA
 10
2.4021
 20
0.0636
 30
-0.0989
 70
192
 0
VERTEX
 8
CULATA
 10
1.4445
 20
-0.03
 30
-0.2247
 70
192
 0
VERTEX
 8
CULATA
 10
1.4485
 20
-0.0314
 30
-0.1602
 70
192
 0
VERTEX
 8
CULATA
 10
1.4482
 20
-0.0291
 30
-0.0943
 70
192
 0
VERTEX
 8
CULATA
 10
1.4492
 20
-0.0297
 30
-0.029
 70
192
 0
VERTEX
 8
CULATA
 10
1.4463
 20
-0.0147
 30
0.0614
 70
192
 0
VERTEX
 8
CULATA
 10
1.6611
 20
-0.0313
 30
-0.3228
 70
192
 0
VERTEX
 8
CULATA
 10
1.6936
 20
-0.0317
 30
-0.2618
 70
192
 0
VERTEX
 8
CULATA
 10
1.7262
 20
-0.031
 30
-0.2009
 70
192
 0
VERTEX
 8
CULATA
 10
1.7587
 20
-0.0259
 30
-0.14
 70
192
 0
VERTEX
 8
CULATA
 10
1.7137
 20
-0.0147
 30
-0.0406
 70
192
 0
VERTEX
 8
CULATA
 10
1.8496
 20
-0.0147
 30
-0.4952
 70
192
 0
VERTEX
 8
CULATA
 10
1.8927
 20
-0.0147
 30
-0.3358
 70
192
 0
VERTEX
 8
CULATA
 10
1.9252
 20
-0.0147
 30
-0.2749
 70
192
 0
VERTEX
 8
CULATA
 10
1.9577
 20
-0.0147
 30
-0.214
 70
192
 0
VERTEX
 8
CULATA
 10
1.9528
 20
-0.0147
 30
-0.1899
 70
192
 0
VERTEX
 8
CULATA
 10
2.0417
 20
-0.0147
 30
-0.397
 70
192
 0
VERTEX
 8
CULATA
 10
2.0947
 20
-0.0147
 30
-0.3497
 70
192
 0
VERTEX
 8
CULATA
 10
2.0719
 20
-0.0147
 30
-0.2858
 70
192
 0
VERTEX
 8
CULATA
 10
2.0492
 20
-0.0147
 30
-0.2218
 70
192
 0
VERTEX
 8
CULATA
 10
2.0264
 20
-0.0147
 30
-0.1579
 70
192
 0
VERTEX
 8
CULATA
 10
2.3283
 20
-0.0147
 30
-0.4056
 70
192
 0
VERTEX
 8
CULATA
 10
2.3999
 20
-0.0147
 30
-0.3255
 70
192
 0
VERTEX
 8
CULATA
 10
2.3979
 20
-0.0147
 30
-0.2588
 70
192
 0
VERTEX
 8
CULATA
 10
2.3959
 20
-0.0147
 30
-0.1921
 70
192
 0
VERTEX
 8
CULATA
 10
2.4021
 20
-0.0147
 30
-0.0989
 70
192
 0
VERTEX
 8
CULATA
 10
2.5404
 20
-0.0147
 30
-0.4471
 70
192
 0
VERTEX
 8
CULATA
 10
2.6177
 20
-0.0147
 30
-0.321
 70
192
 0
VERTEX
 8
CULATA
 10
2.6158
 20
-0.0147
 30
-0.2543
 70
192
 0
VERTEX
 8
CULATA
 10
2.6138
 20
-0.0147
 30
-0.1877
 70
192
 0
VERTEX
 8
CULATA
 10
2.6238
 20
-0.0147
 30
-0.0841
 70
192
 0
VERTEX
 8
CULATA
 10
3.0173
 20
-0.0147
 30
-0.5483
 70
192
 0
VERTEX
 8
CULATA
 10
3.0009
 20
-0.0147
 30
-0.3538
 70
192
 0
VERTEX
 8
CULATA
 10
3.0001
 20
-0.0147
 30
-0.2925
 70
192
 0
VERTEX
 8
CULATA
 10
3.0066
 20
-0.0147
 30
-0.2313
 70
192
 0
VERTEX
 8
CULATA
 10
3.0376
 20
-0.0147
 30
-0.0875
 70
192
 0
VERTEX
 8
CULATA
 10
3.0173
 20
0.0636
 30
-0.5483
 70
192
 0
VERTEX
 8
CULATA
 10
3.0075
 20
0.0682
 30
-0.3535
 70
192
 0
VERTEX
 8
CULATA
 10
3.006
 20
0.0636
 30
-0.2888
 70
192
 0
VERTEX
 8
CULATA
 10
3.0084
 20
0.0636
 30
-0.2306
 70
192
 0
VERTEX
 8
CULATA
 10
3.0376
 20
0.0636
 30
-0.0875
 70
192
 0
VERTEX
 8
CULATA
 10
3.0173
 20
0.1418
 30
-0.5483
 70
192
 0
VERTEX
 8
CULATA
 10
3.0076
 20
0.1465
 30
-0.3563
 70
192
 0
VERTEX
 8
CULATA
 10
3.0064
 20
0.1418
 30
-0.2925
 70
192
 0
VERTEX
 8
CULATA
 10
3.0066
 20
0.1418
 30
-0.2313
 70
192
 0
VERTEX
 8
CULATA
 10
3.0376
 20
0.1418
 30
-0.0875
 70
192
 0
VERTEX
 8
CULATA
 10
2.5404
 20
0.1418
 30
-0.4471
 70
192
 0
VERTEX
 8
CULATA
 10
2.6177
 20
0.1418
 30
-0.321
 70
192
 0
VERTEX
 8
CULATA
 10
2.6158
 20
0.1418
 30
-0.2543
 70
192
 0
VERTEX
 8
CULATA
 10
2.6138
 20
0.1418
 30
-0.1877
 70
192
 0
VERTEX
 8
CULATA
 10
2.6238
 20
0.1418
 30
-0.0841
 70
192
 0
VERTEX
 8
CULATA
 10
2.3283
 20
0.1418
 30
-0.4056
 70
192
 0
VERTEX
 8
CULATA
 10
2.3999
 20
0.1418
 30
-0.3255
 70
192
 0
VERTEX
 8
CULATA
 10
2.3979
 20
0.1418
 30
-0.2588
 70
192
 0
VERTEX
 8
CULATA
 10
2.3959
 20
0.1418
 30
-0.1921
 70
192
 0
VERTEX
 8
CULATA
 10
2.4021
 20
0.1418
 30
-0.0989
 70
192
 0
VERTEX
 8
CULATA
 10
2.0417
 20
0.1418
 30
-0.397
 70
192
 0
VERTEX
 8
CULATA
 10
2.0947
 20
0.1418
 30
-0.3497
 70
192
 0
VERTEX
 8
CULATA
 10
2.0719
 20
0.1418
 30
-0.2858
 70
192
 0
VERTEX
 8
CULATA
 10
2.0492
 20
0.1418
 30
-0.2218
 70
192
 0
VERTEX
 8
CULATA
 10
2.0264
 20
0.1418
 30
-0.1579
 70
192
 0
VERTEX
 8
CULATA
 10
1.8496
 20
0.1418
 30
-0.4952
 70
192
 0
VERTEX
 8
CULATA
 10
1.8927
 20
0.1418
 30
-0.3358
 70
192
 0
VERTEX
 8
CULATA
 10
1.9252
 20
0.1418
 30
-0.2749
 70
192
 0
VERTEX
 8
CULATA
 10
1.9577
 20
0.1418
 30
-0.214
 70
192
 0
VERTEX
 8
CULATA
 10
1.9528
 20
0.1418
 30
-0.1899
 70
192
 0
VERTEX
 8
CULATA
 10
1.6611
 20
0.1623
 30
-0.3228
 70
192
 0
VERTEX
 8
CULATA
 10
1.6936
 20
0.1599
 30
-0.2618
 70
192
 0
VERTEX
 8
CULATA
 10
1.7262
 20
0.1582
 30
-0.2009
 70
192
 0
VERTEX
 8
CULATA
 10
1.7587
 20
0.1558
 30
-0.14
 70
192
 0
VERTEX
 8
CULATA
 10
1.7137
 20
0.1418
 30
-0.0406
 70
192
 0
VERTEX
 8
CULATA
 10
1.4445
 20
0.1546
 30
-0.2247
 70
192
 0
VERTEX
 8
CULATA
 10
1.4488
 20
0.1548
 30
-0.1595
 70
192
 0
VERTEX
 8
CULATA
 10
1.4456
 20
0.1553
 30
-0.0943
 70
192
 0
VERTEX
 8
CULATA
 10
1.4534
 20
0.1558
 30
-0.029
 70
192
 0
VERTEX
 8
CULATA
 10
1.4463
 20
0.1418
 30
0.0614
 70
192
 0
VERTEX
 8
CULATA
 10
2.6238
 20
0.0636
 30
-0.0841
 70
192
 0
VERTEX
 8
CULATA
 10
1.4445
 20
0.0636
 30
-0.2247
 70
192
 0
VERTEX
 8
CULATA
 10
1.6611
 20
0.0636
 30
-0.3228
 70
192
 0
VERTEX
 8
CULATA
 10
1.8496
 20
0.0636
 30
-0.4952
 70
192
 0
VERTEX
 8
CULATA
 10
2.0417
 20
0.0636
 30
-0.397
 70
192
 0
VERTEX
 8
CULATA
 10
2.3283
 20
0.0636
 30
-0.4056
 70
192
 0
VERTEX
 8
CULATA
 10
2.5404
 20
0.0636
 30
-0.4471
 70
192
 0
VERTEX
 8
CULATA
 10
1.2456
 20
0.0636
 30
-0.0669
 70
192
 0
VERTEX
 8
CULATA
 10
1.2456
 20
0.0636
 30
-0.0002
 70
192
 0
VERTEX
 8
CULATA
 10
0
 20
0
 30
0
 70
128
 71
1
 72
80
 73
75
 74
2
 0
VERTEX
 8
CULATA
 10
0
 20
0
 30
0
 70
128
 71
6
 72
7
 73
12
 74
11
 0
VERTEX
 8
CULATA
 10
0
 20
0
 30
0
 70
128
 71
11
 72
12
 73
17
 74
16
 0
VERTEX
 8
CULATA
 10
0
 20
0
 30
0
 70
128
 71
16
 72
17
 73
22
 74
21
 0
VERTEX
 8
CULATA
 10
0
 20
0
 30
0
 70
128
 71
21
 72
22
 73
27
 74
26
 0
VERTEX
 8
CULATA
 10
0
 20
0
 30
0
 70
128
 71
26
 72
27
 73
32
 74
31
 0
VERTEX
 8
CULATA
 10
0
 20
0
 30
0
 70
128
 71
31
 72
32
 73
37
 74
36
 0
VERTEX
 8
CULATA
 10
0
 20
0
 30
0
 70
128
 71
2
 72
75
 73
70
 74
3
 0
VERTEX
 8
CULATA
 10
0
 20
0
 30
0
 70
128
 71
7
 72
8
 73
13
 74
12
 0
VERTEX
 8
CULATA
 10
0
 20
0
 30
0
 70
128
 71
12
 72
13
 73
18
 74
17
 0
VERTEX
 8
CULATA
 10
0
 20
0
 30
0
 70
128
 71
17
 72
18
 73
23
 74
22
 0
VERTEX
 8
CULATA
 10
0
 20
0
 30
0
 70
128
 71
22
 72
23
 73
28
 74
27
 0
VERTEX
 8
CULATA
 10
0
 20
0
 30
0
 70
128
 71
27
 72
28
 73
33
 74
32
 0
VERTEX
 8
CULATA
 10
0
 20
0
 30
0
 70
128
 71
32
 72
33
 73
38
 74
37
 0
VERTEX
 8
CULATA
 10
0
 20
0
 30
0
 70
128
 71
3
 72
70
 73
65
 74
4
 0
VERTEX
 8
CULATA
 10
0
 20
0
 30
0
 70
128
 71
8
 72
9
 73
14
 74
13
 0
VERTEX
 8
CULATA
 10
0
 20
0
 30
0
 70
128
 71
13
 72
14
 73
19
 74
18
 0
VERTEX
 8
CULATA
 10
0
 20
0
 30
0
 70
128
 71
18
 72
19
 73
24
 74
23
 0
VERTEX
 8
CULATA
 10
0
 20
0
 30
0
 70
128
 71
23
 72
24
 73
29
 74
28
 0
VERTEX
 8
CULATA
 10
0
 20
0
 30
0
 70
128
 71
28
 72
29
 73
34
 74
33
 0
VERTEX
 8
CULATA
 10
0
 20
0
 30
0
 70
128
 71
33
 72
34
 73
39
 74
38
 0
VERTEX
 8
CULATA
 10
0
 20
0
 30
0
 70
128
 71
4
 72
65
 73
60
 74
5
 0
VERTEX
 8
CULATA
 10
0
 20
0
 30
0
 70
128
 71
9
 72
10
 73
15
 74
14
 0
VERTEX
 8
CULATA
 10
0
 20
0
 30
0
 70
128
 71
14
 72
15
 73
20
 74
19
 0
VERTEX
 8
CULATA
 10
0
 20
0
 30
0
 70
128
 71
19
 72
20
 73
25
 74
24
 0
VERTEX
 8
CULATA
 10
0
 20
0
 30
0
 70
128
 71
24
 72
25
 73
30
 74
29
 0
VERTEX
 8
CULATA
 10
0
 20
0
 30
0
 70
128
 71
29
 72
30
 73
35
 74
34
 0
VERTEX
 8
CULATA
 10
0
 20
0
 30
0
 70
128
 71
34
 72
35
 73
40
 74
39
 0
VERTEX
 8
CULATA
 10
0
 20
0
 30
0
 70
128
 71
36
 72
37
 73
42
 74
41
 0
VERTEX
 8
CULATA
 10
0
 20
0
 30
0
 70
128
 71
41
 72
42
 73
47
 74
46
 0
VERTEX
 8
CULATA
 10
0
 20
0
 30
0
 70
128
 71
37
 72
38
 73
43
 74
42
 0
VERTEX
 8
CULATA
 10
0
 20
0
 30
0
 70
128
 71
42
 72
43
 73
48
 74
47
 0
VERTEX
 8
CULATA
 10
0
 20
0
 30
0
 70
128
 71
38
 72
39
 73
44
 74
43
 0
VERTEX
 8
CULATA
 10
0
 20
0
 30
0
 70
128
 71
43
 72
44
 73
49
 74
48
 0
VERTEX
 8
CULATA
 10
0
 20
0
 30
0
 70
128
 71
39
 72
40
 73
45
 74
44
 0
VERTEX
 8
CULATA
 10
0
 20
0
 30
0
 70
128
 71
44
 72
45
 73
50
 74
49
 0
VERTEX
 8
CULATA
 10
0
 20
0
 30
0
 70
128
 71
46
 72
47
 73
52
 74
51
 0
VERTEX
 8
CULATA
 10
0
 20
0
 30
0
 70
128
 71
51
 72
52
 73
57
 74
56
 0
VERTEX
 8
CULATA
 10
0
 20
0
 30
0
 70
128
 71
56
 72
57
 73
62
 74
61
 0
VERTEX
 8
CULATA
 10
0
 20
0
 30
0
 70
128
 71
61
 72
62
 73
67
 74
66
 0
VERTEX
 8
CULATA
 10
0
 20
0
 30
0
 70
128
 71
66
 72
67
 73
72
 74
71
 0
VERTEX
 8
CULATA
 10
0
 20
0
 30
0
 70
128
 71
71
 72
72
 73
77
 74
76
 0
VERTEX
 8
CULATA
 10
0
 20
0
 30
0
 70
128
 71
5
 72
60
 73
55
 74
81
 0
VERTEX
 8
CULATA
 10
0
 20
0
 30
0
 70
128
 71
47
 72
48
 73
53
 74
52
 0
VERTEX
 8
CULATA
 10
0
 20
0
 30
0
 70
128
 71
52
 72
53
 73
58
 74
57
 0
VERTEX
 8
CULATA
 10
0
 20
0
 30
0
 70
128
 71
57
 72
58
 73
63
 74
62
 0
VERTEX
 8
CULATA
 10
0
 20
0
 30
0
 70
128
 71
62
 72
63
 73
68
 74
67
 0
VERTEX
 8
CULATA
 10
0
 20
0
 30
0
 70
128
 71
67
 72
68
 73
73
 74
72
 0
VERTEX
 8
CULATA
 10
0
 20
0
 30
0
 70
128
 71
72
 72
73
 73
78
 74
77
 0
VERTEX
 8
CULATA
 10
0
 20
0
 30
0
 70
128
 71
81
 72
55
 73
50
 74
45
 0
VERTEX
 8
CULATA
 10
0
 20
0
 30
0
 70
128
 71
48
 72
49
 73
54
 74
53
 0
VERTEX
 8
CULATA
 10
0
 20
0
 30
0
 70
128
 71
53
 72
54
 73
59
 74
58
 0
VERTEX
 8
CULATA
 10
0
 20
0
 30
0
 70
128
 71
58
 72
59
 73
64
 74
63
 0
VERTEX
 8
CULATA
 10
0
 20
0
 30
0
 70
128
 71
63
 72
64
 73
69
 74
68
 0
VERTEX
 8
CULATA
 10
0
 20
0
 30
0
 70
128
 71
68
 72
69
 73
74
 74
73
 0
VERTEX
 8
CULATA
 10
0
 20
0
 30
0
 70
128
 71
73
 72
74
 73
79
 74
78
 0
VERTEX
 8
CULATA
 10
0
 20
0
 30
0
 70
128
 71
76
 72
82
 73
83
 74
71
 0
VERTEX
 8
CULATA
 10
0
 20
0
 30
0
 70
128
 71
49
 72
50
 73
55
 74
54
 0
VERTEX
 8
CULATA
 10
0
 20
0
 30
0
 70
128
 71
54
 72
55
 73
60
 74
59
 0
VERTEX
 8
CULATA
 10
0
 20
0
 30
0
 70
128
 71
59
 72
60
 73
65
 74
64
 0
VERTEX
 8
CULATA
 10
0
 20
0
 30
0
 70
128
 71
64
 72
65
 73
70
 74
69
 0
VERTEX
 8
CULATA
 10
0
 20
0
 30
0
 70
128
 71
69
 72
70
 73
75
 74
74
 0
VERTEX
 8
CULATA
 10
0
 20
0
 30
0
 70
128
 71
74
 72
75
 73
80
 74
79
 0
VERTEX
 8
CULATA
 10
0
 20
0
 30
0
 70
128
 71
71
 72
83
 73
84
 74
66
 0
VERTEX
 8
CULATA
 10
0
 20
0
 30
0
 70
128
 71
66
 72
84
 73
85
 74
61
 0
VERTEX
 8
CULATA
 10
0
 20
0
 30
0
 70
128
 71
61
 72
85
 73
86
 74
56
 0
VERTEX
 8
CULATA
 10
0
 20
0
 30
0
 70
128
 71
82
 72
6
 73
11
 74
83
 0
VERTEX
 8
CULATA
 10
0
 20
0
 30
0
 70
128
 71
83
 72
11
 73
16
 74
84
 0
VERTEX
 8
CULATA
 10
0
 20
0
 30
0
 70
128
 71
84
 72
16
 73
21
 74
85
 0
VERTEX
 8
CULATA
 10
0
 20
0
 30
0
 70
128
 71
85
 72
21
 73
26
 74
86
 0
VERTEX
 8
CULATA
 10
0
 20
0
 30
0
 70
128
 71
86
 72
26
 73
31
 74
87
 0
VERTEX
 8
CULATA
 10
0
 20
0
 30
0
 70
128
 71
87
 72
31
 73
36
 74
41
 0
VERTEX
 8
CULATA
 10
0
 20
0
 30
0
 70
128
 71
56
 72
86
 73
87
 74
51
 0
VERTEX
 8
CULATA
 10
0
 20
0
 30
0
 70
128
 71
10
 72
1
 73
2
 74
15
 0
VERTEX
 8
CULATA
 10
0
 20
0
 30
0
 70
128
 71
15
 72
2
 73
3
 74
20
 0
VERTEX
 8
CULATA
 10
0
 20
0
 30
0
 70
128
 71
20
 72
3
 73
4
 74
25
 0
VERTEX
 8
CULATA
 10
0
 20
0
 30
0
 70
128
 71
25
 72
4
 73
5
 74
30
 0
VERTEX
 8
CULATA
 10
0
 20
0
 30
0
 70
128
 71
30
 72
5
 73
81
 74
35
 0
VERTEX
 8
CULATA
 10
0
 20
0
 30
0
 70
128
 71
35
 72
81
 73
45
 74
40
 0
VERTEX
 8
CULATA
 10
0
 20
0
 30
0
 70
128
 71
51
 72
87
 73
41
 74
46
 0
SEQEND
 0
POLYLINE
 8
CORREDORA
 66
1
 10
0.0
 20
0.0
 30
0.0
 70
64
 71
146
 72
108
 0
VERTEX
 8
CORREDORA
 10
-1.2791
 20
0.0613
 30
-0.1354
 70
192
 0
VERTEX
 8
CORREDORA
 10
-0.2868
 20
0.0613
 30
-0.1354
 70
192
 0
VERTEX
 8
CORREDORA
 10
-1.2791
 20
0.0613
 30
-0.2429
 70
192
 0
VERTEX
 8
CORREDORA
 10
-1.2791
 20
0.0613
 30
-0.2429
 70
192
 0
VERTEX
 8
CORREDORA
 10
-0.2868
 20
0.0613
 30
-0.2429
 70
192
 0
VERTEX
 8
CORREDORA
 10
-0.2868
 20
0.0613
 30
-0.2429
 70
192
 0
VERTEX
 8
CORREDORA
 10
-1.2791
 20
0.08
 30
-0.2412
 70
192
 0
VERTEX
 8
CORREDORA
 10
-1.2791
 20
0.08
 30
-0.2412
 70
192
 0
VERTEX
 8
CORREDORA
 10
-0.2868
 20
0.08
 30
-0.2412
 70
192
 0
VERTEX
 8
CORREDORA
 10
-0.2868
 20
0.08
 30
-0.2412
 70
192
 0
VERTEX
 8
CORREDORA
 10
-1.2791
 20
0.0981
 30
-0.2364
 70
192
 0
VERTEX
 8
CORREDORA
 10
-1.2791
 20
0.0981
 30
-0.2364
 70
192
 0
VERTEX
 8
CORREDORA
 10
-0.2868
 20
0.0981
 30
-0.2364
 70
192
 0
VERTEX
 8
CORREDORA
 10
-0.2868
 20
0.0981
 30
-0.2364
 70
192
 0
VERTEX
 8
CORREDORA
 10
-1.2791
 20
0.1151
 30
-0.2285
 70
192
 0
VERTEX
 8
CORREDORA
 10
-1.2791
 20
0.1151
 30
-0.2285
 70
192
 0
VERTEX
 8
CORREDORA
 10
-0.2868
 20
0.1151
 30
-0.2285
 70
192
 0
VERTEX
 8
CORREDORA
 10
-0.2868
 20
0.1151
 30
-0.2285
 70
192
 0
VERTEX
 8
CORREDORA
 10
-1.2791
 20
0.1304
 30
-0.2177
 70
192
 0
VERTEX
 8
CORREDORA
 10
-1.2791
 20
0.1304
 30
-0.2177
 70
192
 0
VERTEX
 8
CORREDORA
 10
-0.2868
 20
0.1304
 30
-0.2177
 70
192
 0
VERTEX
 8
CORREDORA
 10
-0.2868
 20
0.1304
 30
-0.2177
 70
192
 0
VERTEX
 8
CORREDORA
 10
-1.2791
 20
0.1437
 30
-0.2045
 70
192
 0
VERTEX
 8
CORREDORA
 10
-1.2791
 20
0.1437
 30
-0.2045
 70
192
 0
VERTEX
 8
CORREDORA
 10
-0.2868
 20
0.1437
 30
-0.2045
 70
192
 0
VERTEX
 8
CORREDORA
 10
-0.2868
 20
0.1437
 30
-0.2045
 70
192
 0
VERTEX
 8
CORREDORA
 10
-1.2791
 20
0.1544
 30
-0.1891
 70
192
 0
VERTEX
 8
CORREDORA
 10
-1.2791
 20
0.1544
 30
-0.1891
 70
192
 0
VERTEX
 8
CORREDORA
 10
-0.2868
 20
0.1544
 30
-0.1891
 70
192
 0
VERTEX
 8
CORREDORA
 10
-0.2868
 20
0.1544
 30
-0.1891
 70
192
 0
VERTEX
 8
CORREDORA
 10
-1.2791
 20
0.1623
 30
-0.1721
 70
192
 0
VERTEX
 8
CORREDORA
 10
-1.2791
 20
0.1623
 30
-0.1721
 70
192
 0
VERTEX
 8
CORREDORA
 10
-0.2868
 20
0.1623
 30
-0.1721
 70
192
 0
VERTEX
 8
CORREDORA
 10
-0.2868
 20
0.1623
 30
-0.1721
 70
192
 0
VERTEX
 8
CORREDORA
 10
-1.2791
 20
0.1672
 30
-0.154
 70
192
 0
VERTEX
 8
CORREDORA
 10
-1.2791
 20
0.1672
 30
-0.154
 70
192
 0
VERTEX
 8
CORREDORA
 10
-0.2868
 20
0.1672
 30
-0.154
 70
192
 0
VERTEX
 8
CORREDORA
 10
-0.2868
 20
0.1672
 30
-0.154
 70
192
 0
VERTEX
 8
CORREDORA
 10
-1.2791
 20
0.1688
 30
-0.1354
 70
192
 0
VERTEX
 8
CORREDORA
 10
-1.2791
 20
0.1688
 30
-0.1354
 70
192
 0
VERTEX
 8
CORREDORA
 10
-0.2868
 20
0.1688
 30
-0.1354
 70
192
 0
VERTEX
 8
CORREDORA
 10
-0.2868
 20
0.1688
 30
-0.1354
 70
192
 0
VERTEX
 8
CORREDORA
 10
-1.2791
 20
0.1672
 30
-0.1167
 70
192
 0
VERTEX
 8
CORREDORA
 10
-1.2791
 20
0.1672
 30
-0.1167
 70
192
 0
VERTEX
 8
CORREDORA
 10
-0.2868
 20
0.1672
 30
-0.1167
 70
192
 0
VERTEX
 8
CORREDORA
 10
-0.2868
 20
0.1672
 30
-0.1167
 70
192
 0
VERTEX
 8
CORREDORA
 10
-1.2791
 20
0.1623
 30
-0.0986
 70
192
 0
VERTEX
 8
CORREDORA
 10
-1.2791
 20
0.1623
 30
-0.0986
 70
192
 0
VERTEX
 8
CORREDORA
 10
-0.2868
 20
0.1623
 30
-0.0986
 70
192
 0
VERTEX
 8
CORREDORA
 10
-0.2868
 20
0.1623
 30
-0.0986
 70
192
 0
VERTEX
 8
CORREDORA
 10
-1.2791
 20
0.1544
 30
-0.0816
 70
192
 0
VERTEX
 8
CORREDORA
 10
-1.2791
 20
0.1544
 30
-0.0816
 70
192
 0
VERTEX
 8
CORREDORA
 10
-0.2868
 20
0.1544
 30
-0.0816
 70
192
 0
VERTEX
 8
CORREDORA
 10
-0.2868
 20
0.1544
 30
-0.0816
 70
192
 0
VERTEX
 8
CORREDORA
 10
-1.2791
 20
0.1437
 30
-0.0663
 70
192
 0
VERTEX
 8
CORREDORA
 10
-1.2791
 20
0.1437
 30
-0.0663
 70
192
 0
VERTEX
 8
CORREDORA
 10
-0.2868
 20
0.1437
 30
-0.0663
 70
192
 0
VERTEX
 8
CORREDORA
 10
-0.2868
 20
0.1437
 30
-0.0663
 70
192
 0
VERTEX
 8
CORREDORA
 10
-1.2791
 20
0.1304
 30
-0.053
 70
192
 0
VERTEX
 8
CORREDORA
 10
-1.2791
 20
0.1304
 30
-0.053
 70
192
 0
VERTEX
 8
CORREDORA
 10
-0.2868
 20
0.1304
 30
-0.053
 70
192
 0
VERTEX
 8
CORREDORA
 10
-0.2868
 20
0.1304
 30
-0.053
 70
192
 0
VERTEX
 8
CORREDORA
 10
-1.2791
 20
0.1151
 30
-0.0423
 70
192
 0
VERTEX
 8
CORREDORA
 10
-1.2791
 20
0.1151
 30
-0.0423
 70
192
 0
VERTEX
 8
CORREDORA
 10
-0.2868
 20
0.1151
 30
-0.0423
 70
192
 0
VERTEX
 8
CORREDORA
 10
-0.2868
 20
0.1151
 30
-0.0423
 70
192
 0
VERTEX
 8
CORREDORA
 10
-1.2791
 20
0.0981
 30
-0.0344
 70
192
 0
VERTEX
 8
CORREDORA
 10
-1.2791
 20
0.0981
 30
-0.0344
 70
192
 0
VERTEX
 8
CORREDORA
 10
-0.2868
 20
0.0981
 30
-0.0344
 70
192
 0
VERTEX
 8
CORREDORA
 10
-0.2868
 20
0.0981
 30
-0.0344
 70
192
 0
VERTEX
 8
CORREDORA
 10
-1.2791
 20
0.08
 30
-0.0295
 70
192
 0
VERTEX
 8
CORREDORA
 10
-1.2791
 20
0.08
 30
-0.0295
 70
192
 0
VERTEX
 8
CORREDORA
 10
-0.2868
 20
0.08
 30
-0.0295
 70
192
 0
VERTEX
 8
CORREDORA
 10
-0.2868
 20
0.08
 30
-0.0295
 70
192
 0
VERTEX
 8
CORREDORA
 10
-1.2791
 20
0.0613
 30
-0.0279
 70
192
 0
VERTEX
 8
CORREDORA
 10
-1.2791
 20
0.0613
 30
-0.0279
 70
192
 0
VERTEX
 8
CORREDORA
 10
-0.2868
 20
0.0613
 30
-0.0279
 70
192
 0
VERTEX
 8
CORREDORA
 10
-0.2868
 20
0.0613
 30
-0.0279
 70
192
 0
VERTEX
 8
CORREDORA
 10
-1.2791
 20
0.0427
 30
-0.0295
 70
192
 0
VERTEX
 8
CORREDORA
 10
-1.2791
 20
0.0427
 30
-0.0295
 70
192
 0
VERTEX
 8
CORREDORA
 10
-0.2868
 20
0.0427
 30
-0.0295
 70
192
 0
VERTEX
 8
CORREDORA
 10
-0.2868
 20
0.0427
 30
-0.0295
 70
192
 0
VERTEX
 8
CORREDORA
 10
-1.2791
 20
0.0246
 30
-0.0344
 70
192
 0
VERTEX
 8
CORREDORA
 10
-1.2791
 20
0.0246
 30
-0.0344
 70
192
 0
VERTEX
 8
CORREDORA
 10
-0.2868
 20
0.0246
 30
-0.0344
 70
192
 0
VERTEX
 8
CORREDORA
 10
-0.2868
 20
0.0246
 30
-0.0344
 70
192
 0
VERTEX
 8
CORREDORA
 10
-1.2791
 20
0.0076
 30
-0.0423
 70
192
 0
VERTEX
 8
CORREDORA
 10
-1.2791
 20
0.0076
 30
-0.0423
 70
192
 0
VERTEX
 8
CORREDORA
 10
-0.2868
 20
0.0076
 30
-0.0423
 70
192
 0
VERTEX
 8
CORREDORA
 10
-0.2868
 20
0.0076
 30
-0.0423
 70
192
 0
VERTEX
 8
CORREDORA
 10
-1.2791
 20
-0.0078
 30
-0.053
 70
192
 0
VERTEX
 8
CORREDORA
 10
-1.2791
 20
-0.0078
 30
-0.053
 70
192
 0
VERTEX
 8
CORREDORA
 10
-0.2868
 20
-0.0078
 30
-0.053
 70
192
 0
VERTEX
 8
CORREDORA
 10
-0.2868
 20
-0.0078
 30
-0.053
 70
192
 0
VERTEX
 8
CORREDORA
 10
-1.2791
 20
-0.021
 30
-0.0663
 70
192
 0
VERTEX
 8
CORREDORA
 10
-1.2791
 20
-0.021
 30
-0.0663
 70
192
 0
VERTEX
 8
CORREDORA
 10
-0.2868
 20
-0.021
 30
-0.0663
 70
192
 0
VERTEX
 8
CORREDORA
 10
-0.2868
 20
-0.021
 30
-0.0663
 70
192
 0
VERTEX
 8
CORREDORA
 10
-1.2791
 20
-0.0318
 30
-0.0816
 70
192
 0
VERTEX
 8
CORREDORA
 10
-1.2791
 20
-0.0318
 30
-0.0816
 70
192
 0
VERTEX
 8
CORREDORA
 10
-0.2868
 20
-0.0318
 30
-0.0816
 70
192
 0
VERTEX
 8
CORREDORA
 10
-0.2868
 20
-0.0318
 30
-0.0816
 70
192
 0
VERTEX
 8
CORREDORA
 10
-1.2791
 20
-0.0397
 30
-0.0986
 70
192
 0
VERTEX
 8
CORREDORA
 10
-1.2791
 20
-0.0397
 30
-0.0986
 70
192
 0
VERTEX
 8
CORREDORA
 10
-0.2868
 20
-0.0397
 30
-0.0986
 70
192
 0
VERTEX
 8
CORREDORA
 10
-0.2868
 20
-0.0397
 30
-0.0986
 70
192
 0
VERTEX
 8
CORREDORA
 10
-1.2791
 20
-0.0445
 30
-0.1167
 70
192
 0
VERTEX
 8
CORREDORA
 10
-1.2791
 20
-0.0445
 30
-0.1167
 70
192
 0
VERTEX
 8
CORREDORA
 10
-0.2868
 20
-0.0445
 30
-0.1167
 70
192
 0
VERTEX
 8
CORREDORA
 10
-0.2868
 20
-0.0445
 30
-0.1167
 70
192
 0
VERTEX
 8
CORREDORA
 10
-1.2791
 20
-0.0462
 30
-0.1354
 70
192
 0
VERTEX
 8
CORREDORA
 10
-1.2791
 20
-0.0462
 30
-0.1354
 70
192
 0
VERTEX
 8
CORREDORA
 10
-0.2868
 20
-0.0462
 30
-0.1354
 70
192
 0
VERTEX
 8
CORREDORA
 10
-0.2868
 20
-0.0462
 30
-0.1354
 70
192
 0
VERTEX
 8
CORREDORA
 10
-1.2791
 20
-0.0445
 30
-0.154
 70
192
 0
VERTEX
 8
CORREDORA
 10
-1.2791
 20
-0.0445
 30
-0.154
 70
192
 0
VERTEX
 8
CORREDORA
 10
-0.2868
 20
-0.0445
 30
-0.154
 70
192
 0
VERTEX
 8
CORREDORA
 10
-0.2868
 20
-0.0445
 30
-0.154
 70
192
 0
VERTEX
 8
CORREDORA
 10
-1.2791
 20
-0.0397
 30
-0.1721
 70
192
 0
VERTEX
 8
CORREDORA
 10
-1.2791
 20
-0.0397
 30
-0.1721
 70
192
 0
VERTEX
 8
CORREDORA
 10
-0.2868
 20
-0.0397
 30
-0.1721
 70
192
 0
VERTEX
 8
CORREDORA
 10
-0.2868
 20
-0.0397
 30
-0.1721
 70
192
 0
VERTEX
 8
CORREDORA
 10
-1.2791
 20
-0.0318
 30
-0.1891
 70
192
 0
VERTEX
 8
CORREDORA
 10
-1.2791
 20
-0.0318
 30
-0.1891
 70
192
 0
VERTEX
 8
CORREDORA
 10
-0.2868
 20
-0.0318
 30
-0.1891
 70
192
 0
VERTEX
 8
CORREDORA
 10
-0.2868
 20
-0.0318
 30
-0.1891
 70
192
 0
VERTEX
 8
CORREDORA
 10
-1.2791
 20
-0.021
 30
-0.2045
 70
192
 0
VERTEX
 8
CORREDORA
 10
-1.2791
 20
-0.021
 30
-0.2045
 70
192
 0
VERTEX
 8
CORREDORA
 10
-0.2868
 20
-0.021
 30
-0.2045
 70
192
 0
VERTEX
 8
CORREDORA
 10
-0.2868
 20
-0.021
 30
-0.2045
 70
192
 0
VERTEX
 8
CORREDORA
 10
-1.2791
 20
-0.0078
 30
-0.2177
 70
192
 0
VERTEX
 8
CORREDORA
 10
-1.2791
 20
-0.0078
 30
-0.2177
 70
192
 0
VERTEX
 8
CORREDORA
 10
-0.2868
 20
-0.0078
 30
-0.2177
 70
192
 0
VERTEX
 8
CORREDORA
 10
-0.2868
 20
-0.0078
 30
-0.2177
 70
192
 0
VERTEX
 8
CORREDORA
 10
-1.2791
 20
0.0076
 30
-0.2285
 70
192
 0
VERTEX
 8
CORREDORA
 10
-1.2791
 20
0.0076
 30
-0.2285
 70
192
 0
VERTEX
 8
CORREDORA
 10
-0.2868
 20
0.0076
 30
-0.2285
 70
192
 0
VERTEX
 8
CORREDORA
 10
-0.2868
 20
0.0076
 30
-0.2285
 70
192
 0
VERTEX
 8
CORREDORA
 10
-1.2791
 20
0.0246
 30
-0.2364
 70
192
 0
VERTEX
 8
CORREDORA
 10
-1.2791
 20
0.0246
 30
-0.2364
 70
192
 0
VERTEX
 8
CORREDORA
 10
-0.2868
 20
0.0246
 30
-0.2364
 70
192
 0
VERTEX
 8
CORREDORA
 10
-0.2868
 20
0.0246
 30
-0.2364
 70
192
 0
VERTEX
 8
CORREDORA
 10
-1.2791
 20
0.0427
 30
-0.2412
 70
192
 0
VERTEX
 8
CORREDORA
 10
-1.2791
 20
0.0427
 30
-0.2412
 70
192
 0
VERTEX
 8
CORREDORA
 10
-0.2868
 20
0.0427
 30
-0.2412
 70
192
 0
VERTEX
 8
CORREDORA
 10
-0.2868
 20
0.0427
 30
-0.2412
 70
192
 0
VERTEX
 8
CORREDORA
 10
0
 20
0
 30
0
 70
128
 71
1
 72
3
 73
7
 74
7
 0
VERTEX
 8
CORREDORA
 10
0
 20
0
 30
0
 70
128
 71
4
 72
5
 73
9
 74
8
 0
VERTEX
 8
CORREDORA
 10
0
 20
0
 30
0
 70
128
 71
6
 72
2
 73
10
 74
10
 0
VERTEX
 8
CORREDORA
 10
0
 20
0
 30
0
 70
128
 71
1
 72
7
 73
11
 74
11
 0
VERTEX
 8
CORREDORA
 10
0
 20
0
 30
0
 70
128
 71
8
 72
9
 73
13
 74
12
 0
VERTEX
 8
CORREDORA
 10
0
 20
0
 30
0
 70
128
 71
10
 72
2
 73
14
 74
14
 0
VERTEX
 8
CORREDORA
 10
0
 20
0
 30
0
 70
128
 71
1
 72
11
 73
15
 74
15
 0
VERTEX
 8
CORREDORA
 10
0
 20
0
 30
0
 70
128
 71
12
 72
13
 73
17
 74
16
 0
VERTEX
 8
CORREDORA
 10
0
 20
0
 30
0
 70
128
 71
14
 72
2
 73
18
 74
18
 0
VERTEX
 8
CORREDORA
 10
0
 20
0
 30
0
 70
128
 71
1
 72
15
 73
19
 74
19
 0
VERTEX
 8
CORREDORA
 10
0
 20
0
 30
0
 70
128
 71
16
 72
17
 73
21
 74
20
 0
VERTEX
 8
CORREDORA
 10
0
 20
0
 30
0
 70
128
 71
18
 72
2
 73
22
 74
22
 0
VERTEX
 8
CORREDORA
 10
0
 20
0
 30
0
 70
128
 71
1
 72
19
 73
23
 74
23
 0
VERTEX
 8
CORREDORA
 10
0
 20
0
 30
0
 70
128
 71
20
 72
21
 73
25
 74
24
 0
VERTEX
 8
CORREDORA
 10
0
 20
0
 30
0
 70
128
 71
22
 72
2
 73
26
 74
26
 0
VERTEX
 8
CORREDORA
 10
0
 20
0
 30
0
 70
128
 71
1
 72
23
 73
27
 74
27
 0
VERTEX
 8
CORREDORA
 10
0
 20
0
 30
0
 70
128
 71
24
 72
25
 73
29
 74
28
 0
VERTEX
 8
CORREDORA
 10
0
 20
0
 30
0
 70
128
 71
26
 72
2
 73
30
 74
30
 0
VERTEX
 8
CORREDORA
 10
0
 20
0
 30
0
 70
128
 71
1
 72
27
 73
31
 74
31
 0
VERTEX
 8
CORREDORA
 10
0
 20
0
 30
0
 70
128
 71
28
 72
29
 73
33
 74
32
 0
VERTEX
 8
CORREDORA
 10
0
 20
0
 30
0
 70
128
 71
30
 72
2
 73
34
 74
34
 0
VERTEX
 8
CORREDORA
 10
0
 20
0
 30
0
 70
128
 71
1
 72
31
 73
35
 74
35
 0
VERTEX
 8
CORREDORA
 10
0
 20
0
 30
0
 70
128
 71
32
 72
33
 73
37
 74
36
 0
VERTEX
 8
CORREDORA
 10
0
 20
0
 30
0
 70
128
 71
34
 72
2
 73
38
 74
38
 0
VERTEX
 8
CORREDORA
 10
0
 20
0
 30
0
 70
128
 71
1
 72
35
 73
39
 74
39
 0
VERTEX
 8
CORREDORA
 10
0
 20
0
 30
0
 70
128
 71
36
 72
37
 73
41
 74
40
 0
VERTEX
 8
CORREDORA
 10
0
 20
0
 30
0
 70
128
 71
38
 72
2
 73
42
 74
42
 0
VERTEX
 8
CORREDORA
 10
0
 20
0
 30
0
 70
128
 71
1
 72
39
 73
43
 74
43
 0
VERTEX
 8
CORREDORA
 10
0
 20
0
 30
0
 70
128
 71
40
 72
41
 73
45
 74
44
 0
VERTEX
 8
CORREDORA
 10
0
 20
0
 30
0
 70
128
 71
42
 72
2
 73
46
 74
46
 0
VERTEX
 8
CORREDORA
 10
0
 20
0
 30
0
 70
128
 71
1
 72
43
 73
47
 74
47
 0
VERTEX
 8
CORREDORA
 10
0
 20
0
 30
0
 70
128
 71
44
 72
45
 73
49
 74
48
 0
VERTEX
 8
CORREDORA
 10
0
 20
0
 30
0
 70
128
 71
46
 72
2
 73
50
 74
50
 0
VERTEX
 8
CORREDORA
 10
0
 20
0
 30
0
 70
128
 71
1
 72
47
 73
51
 74
51
 0
VERTEX
 8
CORREDORA
 10
0
 20
0
 30
0
 70
128
 71
48
 72
49
 73
53
 74
52
 0
VERTEX
 8
CORREDORA
 10
0
 20
0
 30
0
 70
128
 71
50
 72
2
 73
54
 74
54
 0
VERTEX
 8
CORREDORA
 10
0
 20
0
 30
0
 70
128
 71
1
 72
51
 73
55
 74
55
 0
VERTEX
 8
CORREDORA
 10
0
 20
0
 30
0
 70
128
 71
52
 72
53
 73
57
 74
56
 0
VERTEX
 8
CORREDORA
 10
0
 20
0
 30
0
 70
128
 71
54
 72
2
 73
58
 74
58
 0
VERTEX
 8
CORREDORA
 10
0
 20
0
 30
0
 70
128
 71
1
 72
55
 73
59
 74
59
 0
VERTEX
 8
CORREDORA
 10
0
 20
0
 30
0
 70
128
 71
56
 72
57
 73
61
 74
60
 0
VERTEX
 8
CORREDORA
 10
0
 20
0
 30
0
 70
128
 71
58
 72
2
 73
62
 74
62
 0
VERTEX
 8
CORREDORA
 10
0
 20
0
 30
0
 70
128
 71
1
 72
59
 73
63
 74
63
 0
VERTEX
 8
CORREDORA
 10
0
 20
0
 30
0
 70
128
 71
60
 72
61
 73
65
 74
64
 0
VERTEX
 8
CORREDORA
 10
0
 20
0
 30
0
 70
128
 71
62
 72
2
 73
66
 74
66
 0
VERTEX
 8
CORREDORA
 10
0
 20
0
 30
0
 70
128
 71
1
 72
63
 73
67
 74
67
 0
VERTEX
 8
CORREDORA
 10
0
 20
0
 30
0
 70
128
 71
64
 72
65
 73
69
 74
68
 0
VERTEX
 8
CORREDORA
 10
0
 20
0
 30
0
 70
128
 71
66
 72
2
 73
70
 74
70
 0
VERTEX
 8
CORREDORA
 10
0
 20
0
 30
0
 70
128
 71
1
 72
67
 73
71
 74
71
 0
VERTEX
 8
CORREDORA
 10
0
 20
0
 30
0
 70
128
 71
68
 72
69
 73
73
 74
72
 0
VERTEX
 8
CORREDORA
 10
0
 20
0
 30
0
 70
128
 71
70
 72
2
 73
74
 74
74
 0
VERTEX
 8
CORREDORA
 10
0
 20
0
 30
0
 70
128
 71
1
 72
71
 73
75
 74
75
 0
VERTEX
 8
CORREDORA
 10
0
 20
0
 30
0
 70
128
 71
72
 72
73
 73
77
 74
76
 0
VERTEX
 8
CORREDORA
 10
0
 20
0
 30
0
 70
128
 71
74
 72
2
 73
78
 74
78
 0
VERTEX
 8
CORREDORA
 10
0
 20
0
 30
0
 70
128
 71
1
 72
75
 73
79
 74
79
 0
VERTEX
 8
CORREDORA
 10
0
 20
0
 30
0
 70
128
 71
76
 72
77
 73
81
 74
80
 0
VERTEX
 8
CORREDORA
 10
0
 20
0
 30
0
 70
128
 71
78
 72
2
 73
82
 74
82
 0
VERTEX
 8
CORREDORA
 10
0
 20
0
 30
0
 70
128
 71
1
 72
79
 73
83
 74
83
 0
VERTEX
 8
CORREDORA
 10
0
 20
0
 30
0
 70
128
 71
80
 72
81
 73
85
 74
84
 0
VERTEX
 8
CORREDORA
 10
0
 20
0
 30
0
 70
128
 71
82
 72
2
 73
86
 74
86
 0
VERTEX
 8
CORREDORA
 10
0
 20
0
 30
0
 70
128
 71
1
 72
83
 73
87
 74
87
 0
VERTEX
 8
CORREDORA
 10
0
 20
0
 30
0
 70
128
 71
84
 72
85
 73
89
 74
88
 0
VERTEX
 8
CORREDORA
 10
0
 20
0
 30
0
 70
128
 71
86
 72
2
 73
90
 74
90
 0
VERTEX
 8
CORREDORA
 10
0
 20
0
 30
0
 70
128
 71
1
 72
87
 73
91
 74
91
 0
VERTEX
 8
CORREDORA
 10
0
 20
0
 30
0
 70
128
 71
88
 72
89
 73
93
 74
92
 0
VERTEX
 8
CORREDORA
 10
0
 20
0
 30
0
 70
128
 71
90
 72
2
 73
94
 74
94
 0
VERTEX
 8
CORREDORA
 10
0
 20
0
 30
0
 70
128
 71
1
 72
91
 73
95
 74
95
 0
VERTEX
 8
CORREDORA
 10
0
 20
0
 30
0
 70
128
 71
92
 72
93
 73
97
 74
96
 0
VERTEX
 8
CORREDORA
 10
0
 20
0
 30
0
 70
128
 71
94
 72
2
 73
98
 74
98
 0
VERTEX
 8
CORREDORA
 10
0
 20
0
 30
0
 70
128
 71
1
 72
95
 73
99
 74
99
 0
VERTEX
 8
CORREDORA
 10
0
 20
0
 30
0
 70
128
 71
96
 72
97
 73
101
 74
100
 0
VERTEX
 8
CORREDORA
 10
0
 20
0
 30
0
 70
128
 71
98
 72
2
 73
102
 74
102
 0
VERTEX
 8
CORREDORA
 10
0
 20
0
 30
0
 70
128
 71
1
 72
99
 73
103
 74
103
 0
VERTEX
 8
CORREDORA
 10
0
 20
0
 30
0
 70
128
 71
100
 72
101
 73
105
 74
104
 0
VERTEX
 8
CORREDORA
 10
0
 20
0
 30
0
 70
128
 71
102
 72
2
 73
106
 74
106
 0
VERTEX
 8
CORREDORA
 10
0
 20
0
 30
0
 70
128
 71
1
 72
103
 73
107
 74
107
 0
VERTEX
 8
CORREDORA
 10
0
 20
0
 30
0
 70
128
 71
104
 72
105
 73
109
 74
108
 0
VERTEX
 8
CORREDORA
 10
0
 20
0
 30
0
 70
128
 71
106
 72
2
 73
110
 74
110
 0
VERTEX
 8
CORREDORA
 10
0
 20
0
 30
0
 70
128
 71
1
 72
107
 73
111
 74
111
 0
VERTEX
 8
CORREDORA
 10
0
 20
0
 30
0
 70
128
 71
108
 72
109
 73
113
 74
112
 0
VERTEX
 8
CORREDORA
 10
0
 20
0
 30
0
 70
128
 71
110
 72
2
 73
114
 74
114
 0
VERTEX
 8
CORREDORA
 10
0
 20
0
 30
0
 70
128
 71
1
 72
111
 73
115
 74
115
 0
VERTEX
 8
CORREDORA
 10
0
 20
0
 30
0
 70
128
 71
112
 72
113
 73
117
 74
116
 0
VERTEX
 8
CORREDORA
 10
0
 20
0
 30
0
 70
128
 71
114
 72
2
 73
118
 74
118
 0
VERTEX
 8
CORREDORA
 10
0
 20
0
 30
0
 70
128
 71
1
 72
115
 73
119
 74
119
 0
VERTEX
 8
CORREDORA
 10
0
 20
0
 30
0
 70
128
 71
116
 72
117
 73
121
 74
120
 0
VERTEX
 8
CORREDORA
 10
0
 20
0
 30
0
 70
128
 71
118
 72
2
 73
122
 74
122
 0
VERTEX
 8
CORREDORA
 10
0
 20
0
 30
0
 70
128
 71
1
 72
119
 73
123
 74
123
 0
VERTEX
 8
CORREDORA
 10
0
 20
0
 30
0
 70
128
 71
120
 72
121
 73
125
 74
124
 0
VERTEX
 8
CORREDORA
 10
0
 20
0
 30
0
 70
128
 71
122
 72
2
 73
126
 74
126
 0
VERTEX
 8
CORREDORA
 10
0
 20
0
 30
0
 70
128
 71
1
 72
123
 73
127
 74
127
 0
VERTEX
 8
CORREDORA
 10
0
 20
0
 30
0
 70
128
 71
124
 72
125
 73
129
 74
128
 0
VERTEX
 8
CORREDORA
 10
0
 20
0
 30
0
 70
128
 71
126
 72
2
 73
130
 74
130
 0
VERTEX
 8
CORREDORA
 10
0
 20
0
 30
0
 70
128
 71
1
 72
127
 73
131
 74
131
 0
VERTEX
 8
CORREDORA
 10
0
 20
0
 30
0
 70
128
 71
128
 72
129
 73
133
 74
132
 0
VERTEX
 8
CORREDORA
 10
0
 20
0
 30
0
 70
128
 71
130
 72
2
 73
134
 74
134
 0
VERTEX
 8
CORREDORA
 10
0
 20
0
 30
0
 70
128
 71
1
 72
131
 73
135
 74
135
 0
VERTEX
 8
CORREDORA
 10
0
 20
0
 30
0
 70
128
 71
132
 72
133
 73
137
 74
136
 0
VERTEX
 8
CORREDORA
 10
0
 20
0
 30
0
 70
128
 71
134
 72
2
 73
138
 74
138
 0
VERTEX
 8
CORREDORA
 10
0
 20
0
 30
0
 70
128
 71
1
 72
135
 73
139
 74
139
 0
VERTEX
 8
CORREDORA
 10
0
 20
0
 30
0
 70
128
 71
136
 72
137
 73
141
 74
140
 0
VERTEX
 8
CORREDORA
 10
0
 20
0
 30
0
 70
128
 71
138
 72
2
 73
142
 74
142
 0
VERTEX
 8
CORREDORA
 10
0
 20
0
 30
0
 70
128
 71
1
 72
139
 73
143
 74
143
 0
VERTEX
 8
CORREDORA
 10
0
 20
0
 30
0
 70
128
 71
140
 72
141
 73
145
 74
144
 0
VERTEX
 8
CORREDORA
 10
0
 20
0
 30
0
 70
128
 71
142
 72
2
 73
146
 74
146
 0
VERTEX
 8
CORREDORA
 10
0
 20
0
 30
0
 70
128
 71
1
 72
143
 73
3
 74
3
 0
VERTEX
 8
CORREDORA
 10
0
 20
0
 30
0
 70
128
 71
144
 72
145
 73
5
 74
4
 0
VERTEX
 8
CORREDORA
 10
0
 20
0
 30
0
 70
128
 71
146
 72
2
 73
6
 74
6
 0
SEQEND
 0
POLYLINE
 8
GATILLO
 66
1
 10
0.0
 20
0.0
 30
0.0
 70
64
 71
8
 72
6
 0
VERTEX
 8
GATILLO
 10
1.3948
 20
0.0495
 30
-0.2729
 70
192
 0
VERTEX
 8
GATILLO
 10
1.4105
 20
0.0495
 30
-0.1981
 70
192
 0
VERTEX
 8
GATILLO
 10
1.4014
 20
0.0495
 30
-0.2743
 70
192
 0
VERTEX
 8
GATILLO
 10
1.4171
 20
0.0495
 30
-0.1995
 70
192
 0
VERTEX
 8
GATILLO
 10
1.4014
 20
0.0776
 30
-0.2743
 70
192
 0
VERTEX
 8
GATILLO
 10
1.4171
 20
0.0776
 30
-0.1995
 70
192
 0
VERTEX
 8
GATILLO
 10
1.3948
 20
0.0776
 30
-0.2729
 70
192
 0
VERTEX
 8
GATILLO
 10
1.4105
 20
0.0776
 30
-0.1981
 70
192
 0
VERTEX
 8
GATILLO
 10
0
 20
0
 30
0
 70
128
 71
1
 72
2
 73
4
 74
3
 0
VERTEX
 8
GATILLO
 10
0
 20
0
 30
0
 70
128
 71
3
 72
4
 73
6
 74
5
 0
VERTEX
 8
GATILLO
 10
0
 20
0
 30
0
 70
128
 71
5
 72
6
 73
8
 74
7
 0
VERTEX
 8
GATILLO
 10
0
 20
0
 30
0
 70
128
 71
7
 72
8
 73
2
 74
1
 0
VERTEX
 8
GATILLO
 10
0
 20
0
 30
0
 70
128
 71
2
 72
8
 73
6
 74
4
 0
VERTEX
 8
GATILLO
 10
0
 20
0
 30
0
 70
128
 71
7
 72
1
 73
3
 74
5
 0
SEQEND
 0
ENDSEC
 0
EOF
